G04 EAGLE Gerber X2 export*
%TF.Part,Single*%
%TF.FileFunction,Copper,L2,Bot,Mixed*%
%TF.FilePolarity,Positive*%
%TF.GenerationSoftware,Autodesk,EAGLE,9.1.0*%
%TF.CreationDate,2019-04-25T21:03:21Z*%
G75*
%MOMM*%
%FSLAX34Y34*%
%LPD*%
%AMOC8*
5,1,8,0,0,1.08239X$1,22.5*%
G01*
%ADD10C,1.879600*%
%ADD11C,0.708000*%
%ADD12C,0.152400*%
%ADD13C,0.756400*%

G36*
X603253Y11090D02*
X603253Y11090D01*
X603299Y11097D01*
X603347Y11096D01*
X603420Y11117D01*
X603495Y11130D01*
X603537Y11152D01*
X603583Y11165D01*
X603645Y11209D01*
X603712Y11245D01*
X603745Y11280D01*
X603784Y11307D01*
X603829Y11368D01*
X603882Y11424D01*
X603901Y11467D01*
X603930Y11505D01*
X603953Y11578D01*
X603985Y11647D01*
X603990Y11694D01*
X604004Y11739D01*
X604003Y11816D01*
X604012Y11892D01*
X604001Y11938D01*
X604001Y11985D01*
X603975Y12057D01*
X603959Y12132D01*
X603935Y12172D01*
X603919Y12217D01*
X603872Y12277D01*
X603832Y12343D01*
X603796Y12373D01*
X603767Y12411D01*
X603662Y12488D01*
X603645Y12502D01*
X603640Y12505D01*
X603632Y12510D01*
X599551Y14866D01*
X594866Y19551D01*
X591554Y25288D01*
X589839Y31688D01*
X589839Y38312D01*
X591554Y44712D01*
X594866Y50449D01*
X599551Y55134D01*
X605288Y58446D01*
X611688Y60161D01*
X618312Y60161D01*
X624712Y58446D01*
X630449Y55134D01*
X635134Y50449D01*
X637969Y45538D01*
X637999Y45502D01*
X638020Y45460D01*
X638076Y45407D01*
X638125Y45347D01*
X638164Y45323D01*
X638198Y45290D01*
X638268Y45258D01*
X638333Y45217D01*
X638379Y45206D01*
X638421Y45186D01*
X638497Y45177D01*
X638572Y45159D01*
X638619Y45163D01*
X638665Y45158D01*
X638741Y45174D01*
X638817Y45181D01*
X638860Y45200D01*
X638906Y45210D01*
X638972Y45249D01*
X639043Y45280D01*
X639077Y45311D01*
X639117Y45335D01*
X639167Y45393D01*
X639225Y45445D01*
X639247Y45486D01*
X639278Y45521D01*
X639307Y45593D01*
X639344Y45660D01*
X639353Y45706D01*
X639371Y45749D01*
X639386Y45882D01*
X639389Y45902D01*
X639389Y45907D01*
X639390Y45916D01*
X640082Y252607D01*
X640078Y252632D01*
X640080Y252658D01*
X640058Y252753D01*
X640043Y252850D01*
X640031Y252873D01*
X640025Y252897D01*
X639974Y252981D01*
X639928Y253068D01*
X639910Y253086D01*
X639897Y253107D01*
X639822Y253170D01*
X639751Y253238D01*
X639727Y253249D01*
X639708Y253265D01*
X639617Y253301D01*
X639528Y253342D01*
X639503Y253345D01*
X639479Y253354D01*
X639381Y253359D01*
X639283Y253370D01*
X639259Y253365D01*
X639233Y253366D01*
X639139Y253339D01*
X639043Y253319D01*
X639021Y253306D01*
X638997Y253299D01*
X638916Y253243D01*
X638831Y253193D01*
X638815Y253174D01*
X638794Y253160D01*
X638735Y253081D01*
X638671Y253007D01*
X638661Y252983D01*
X638646Y252963D01*
X638585Y252807D01*
X638446Y252288D01*
X635134Y246551D01*
X630449Y241866D01*
X624712Y238554D01*
X618312Y236839D01*
X611688Y236839D01*
X605288Y238554D01*
X599551Y241866D01*
X594866Y246551D01*
X591554Y252288D01*
X589839Y258688D01*
X589839Y265312D01*
X591554Y271712D01*
X594866Y277449D01*
X599551Y282134D01*
X605288Y285446D01*
X611688Y287161D01*
X618312Y287161D01*
X624712Y285446D01*
X630449Y282134D01*
X635134Y277449D01*
X638446Y271712D01*
X638647Y270961D01*
X638657Y270941D01*
X638660Y270918D01*
X638707Y270829D01*
X638748Y270737D01*
X638764Y270720D01*
X638774Y270700D01*
X638847Y270631D01*
X638916Y270557D01*
X638936Y270546D01*
X638952Y270530D01*
X639044Y270487D01*
X639132Y270440D01*
X639154Y270436D01*
X639175Y270426D01*
X639275Y270415D01*
X639374Y270397D01*
X639397Y270401D01*
X639419Y270398D01*
X639518Y270419D01*
X639617Y270434D01*
X639638Y270445D01*
X639660Y270449D01*
X639746Y270501D01*
X639836Y270547D01*
X639852Y270563D01*
X639871Y270575D01*
X639937Y270651D01*
X640007Y270723D01*
X640017Y270744D01*
X640032Y270761D01*
X640070Y270855D01*
X640113Y270945D01*
X640116Y270968D01*
X640125Y270989D01*
X640144Y271156D01*
X640165Y277493D01*
X640165Y277494D01*
X640172Y279666D01*
X640169Y279687D01*
X640170Y279725D01*
X640063Y281149D01*
X640061Y281155D01*
X640062Y281161D01*
X640028Y281325D01*
X639156Y284035D01*
X639139Y284067D01*
X639131Y284102D01*
X639048Y284248D01*
X637380Y286554D01*
X637354Y286579D01*
X637335Y286610D01*
X637211Y286723D01*
X634911Y288399D01*
X634878Y288416D01*
X634851Y288439D01*
X634698Y288508D01*
X631991Y289390D01*
X631986Y289390D01*
X631980Y289393D01*
X631816Y289425D01*
X630392Y289537D01*
X630370Y289535D01*
X630332Y289539D01*
X20000Y289539D01*
X19978Y289536D01*
X19940Y289537D01*
X18520Y289425D01*
X18515Y289424D01*
X18509Y289424D01*
X18345Y289390D01*
X15643Y288513D01*
X15612Y288496D01*
X15577Y288487D01*
X15431Y288404D01*
X13133Y286735D01*
X13108Y286710D01*
X13078Y286691D01*
X12965Y286567D01*
X11296Y284269D01*
X11279Y284237D01*
X11257Y284209D01*
X11187Y284057D01*
X10310Y281355D01*
X10309Y281350D01*
X10306Y281345D01*
X10275Y281180D01*
X10163Y279760D01*
X10165Y279738D01*
X10161Y279700D01*
X10161Y272140D01*
X10168Y272092D01*
X10167Y272044D01*
X10188Y271972D01*
X10200Y271897D01*
X10223Y271855D01*
X10237Y271808D01*
X10280Y271746D01*
X10316Y271679D01*
X10350Y271646D01*
X10378Y271607D01*
X10439Y271562D01*
X10494Y271510D01*
X10537Y271490D01*
X10576Y271462D01*
X10648Y271438D01*
X10717Y271406D01*
X10765Y271401D01*
X10810Y271387D01*
X10886Y271388D01*
X10961Y271379D01*
X11008Y271390D01*
X11056Y271390D01*
X11128Y271416D01*
X11202Y271432D01*
X11243Y271456D01*
X11288Y271472D01*
X11348Y271519D01*
X11413Y271558D01*
X11444Y271594D01*
X11482Y271624D01*
X11558Y271728D01*
X11573Y271745D01*
X11575Y271751D01*
X11581Y271759D01*
X14866Y277449D01*
X19551Y282134D01*
X25288Y285446D01*
X31688Y287161D01*
X38312Y287161D01*
X44712Y285446D01*
X50449Y282134D01*
X55134Y277449D01*
X58446Y271712D01*
X60161Y265312D01*
X60161Y258688D01*
X58446Y252288D01*
X55134Y246551D01*
X50449Y241866D01*
X44712Y238554D01*
X38312Y236839D01*
X31688Y236839D01*
X25288Y238554D01*
X19551Y241866D01*
X14866Y246551D01*
X11581Y252241D01*
X11551Y252278D01*
X11528Y252321D01*
X11473Y252373D01*
X11425Y252431D01*
X11385Y252457D01*
X11350Y252490D01*
X11281Y252522D01*
X11217Y252562D01*
X11170Y252573D01*
X11127Y252594D01*
X11052Y252602D01*
X10978Y252620D01*
X10930Y252615D01*
X10883Y252621D01*
X10808Y252605D01*
X10733Y252598D01*
X10689Y252579D01*
X10642Y252568D01*
X10577Y252529D01*
X10508Y252499D01*
X10472Y252467D01*
X10431Y252442D01*
X10382Y252385D01*
X10326Y252334D01*
X10302Y252292D01*
X10271Y252255D01*
X10243Y252185D01*
X10206Y252119D01*
X10197Y252072D01*
X10179Y252027D01*
X10165Y251899D01*
X10161Y251877D01*
X10162Y251870D01*
X10161Y251860D01*
X10161Y45140D01*
X10168Y45092D01*
X10167Y45044D01*
X10188Y44972D01*
X10200Y44897D01*
X10223Y44854D01*
X10237Y44808D01*
X10280Y44746D01*
X10316Y44679D01*
X10350Y44646D01*
X10378Y44607D01*
X10439Y44562D01*
X10494Y44510D01*
X10537Y44490D01*
X10576Y44461D01*
X10648Y44438D01*
X10717Y44406D01*
X10765Y44401D01*
X10810Y44387D01*
X10886Y44388D01*
X10961Y44379D01*
X11008Y44390D01*
X11056Y44390D01*
X11128Y44415D01*
X11202Y44432D01*
X11243Y44456D01*
X11288Y44472D01*
X11348Y44519D01*
X11413Y44558D01*
X11444Y44594D01*
X11482Y44624D01*
X11558Y44728D01*
X11573Y44745D01*
X11575Y44751D01*
X11581Y44759D01*
X14866Y50449D01*
X19551Y55134D01*
X25288Y58446D01*
X31688Y60161D01*
X38312Y60161D01*
X44712Y58446D01*
X50449Y55134D01*
X55134Y50449D01*
X58446Y44712D01*
X60161Y38312D01*
X60161Y31688D01*
X58446Y25288D01*
X55134Y19551D01*
X50449Y14866D01*
X44880Y11651D01*
X44842Y11620D01*
X44799Y11597D01*
X44747Y11543D01*
X44689Y11495D01*
X44664Y11454D01*
X44630Y11419D01*
X44599Y11351D01*
X44559Y11287D01*
X44547Y11240D01*
X44527Y11196D01*
X44519Y11121D01*
X44501Y11048D01*
X44505Y10999D01*
X44500Y10951D01*
X44516Y10878D01*
X44523Y10803D01*
X44542Y10758D01*
X44553Y10711D01*
X44591Y10646D01*
X44622Y10577D01*
X44654Y10541D01*
X44679Y10500D01*
X44736Y10451D01*
X44787Y10395D01*
X44830Y10372D01*
X44866Y10340D01*
X44936Y10312D01*
X45002Y10276D01*
X45050Y10267D01*
X45095Y10249D01*
X45221Y10235D01*
X45244Y10231D01*
X45251Y10232D01*
X45262Y10230D01*
X603253Y11090D01*
G37*
%LPC*%
G36*
X188327Y27177D02*
X188327Y27177D01*
X184313Y28840D01*
X181240Y31913D01*
X179577Y35927D01*
X179577Y40273D01*
X181240Y44287D01*
X184313Y47360D01*
X188327Y49023D01*
X188436Y49023D01*
X188456Y49026D01*
X188475Y49024D01*
X188577Y49046D01*
X188679Y49062D01*
X188696Y49072D01*
X188716Y49076D01*
X188805Y49129D01*
X188896Y49178D01*
X188910Y49192D01*
X188927Y49202D01*
X188994Y49281D01*
X189066Y49356D01*
X189074Y49374D01*
X189087Y49389D01*
X189126Y49485D01*
X189169Y49579D01*
X189171Y49599D01*
X189179Y49617D01*
X189197Y49784D01*
X189197Y120368D01*
X191355Y122526D01*
X227115Y158285D01*
X227126Y158301D01*
X227142Y158314D01*
X227198Y158401D01*
X227258Y158485D01*
X227264Y158504D01*
X227275Y158521D01*
X227300Y158621D01*
X227330Y158720D01*
X227330Y158740D01*
X227335Y158759D01*
X227327Y158862D01*
X227324Y158966D01*
X227317Y158985D01*
X227316Y159005D01*
X227275Y159099D01*
X227240Y159197D01*
X227227Y159213D01*
X227219Y159231D01*
X227115Y159362D01*
X226625Y159851D01*
X226621Y159854D01*
X226497Y159954D01*
X126387Y223835D01*
X126379Y223838D01*
X126373Y223844D01*
X126266Y223887D01*
X126161Y223932D01*
X126153Y223933D01*
X126145Y223936D01*
X125978Y223954D01*
X125796Y223954D01*
X125276Y224474D01*
X125202Y224527D01*
X125133Y224587D01*
X125103Y224599D01*
X125077Y224618D01*
X124989Y224645D01*
X124905Y224679D01*
X124864Y224683D01*
X124841Y224690D01*
X124809Y224689D01*
X124738Y224697D01*
X124632Y224697D01*
X123978Y225351D01*
X123974Y225354D01*
X123849Y225454D01*
X123070Y225952D01*
X123031Y226129D01*
X123028Y226137D01*
X123027Y226146D01*
X122982Y226251D01*
X122940Y226358D01*
X122934Y226364D01*
X122931Y226372D01*
X122826Y226503D01*
X122697Y226632D01*
X122697Y226738D01*
X122683Y226828D01*
X122675Y226919D01*
X122663Y226949D01*
X122658Y226981D01*
X122615Y227061D01*
X122579Y227145D01*
X122553Y227177D01*
X122542Y227198D01*
X122519Y227220D01*
X122474Y227276D01*
X119839Y229912D01*
X117681Y232069D01*
X117681Y241696D01*
X117670Y241767D01*
X117668Y241839D01*
X117650Y241888D01*
X117642Y241939D01*
X117608Y242002D01*
X117583Y242070D01*
X117551Y242110D01*
X117526Y242157D01*
X117474Y242206D01*
X117430Y242262D01*
X117386Y242290D01*
X117348Y242326D01*
X117283Y242356D01*
X117223Y242395D01*
X117172Y242408D01*
X117125Y242430D01*
X117054Y242437D01*
X116984Y242455D01*
X116932Y242451D01*
X116881Y242457D01*
X116810Y242441D01*
X116739Y242436D01*
X116691Y242415D01*
X116640Y242404D01*
X116579Y242368D01*
X116513Y242339D01*
X116457Y242295D01*
X116429Y242278D01*
X116414Y242260D01*
X116382Y242235D01*
X114487Y240340D01*
X111273Y239009D01*
X111173Y238947D01*
X111073Y238887D01*
X111069Y238882D01*
X111064Y238879D01*
X110989Y238789D01*
X110913Y238700D01*
X110911Y238694D01*
X110907Y238690D01*
X110865Y238581D01*
X110821Y238472D01*
X110820Y238464D01*
X110819Y238460D01*
X110818Y238442D01*
X110803Y238305D01*
X110803Y156132D01*
X86522Y131851D01*
X86454Y131757D01*
X86384Y131662D01*
X86382Y131656D01*
X86378Y131651D01*
X86344Y131541D01*
X86308Y131429D01*
X86308Y131422D01*
X86306Y131416D01*
X86309Y131300D01*
X86310Y131183D01*
X86312Y131175D01*
X86312Y131170D01*
X86319Y131153D01*
X86357Y131022D01*
X87123Y129173D01*
X87123Y124827D01*
X85460Y120813D01*
X82387Y117740D01*
X78373Y116077D01*
X74027Y116077D01*
X70013Y117740D01*
X67102Y120651D01*
X67044Y120693D01*
X66992Y120742D01*
X66945Y120764D01*
X66903Y120794D01*
X66834Y120815D01*
X66769Y120846D01*
X66717Y120851D01*
X66667Y120867D01*
X66596Y120865D01*
X66525Y120873D01*
X66474Y120862D01*
X66422Y120860D01*
X66354Y120836D01*
X66284Y120820D01*
X66239Y120794D01*
X66191Y120776D01*
X66135Y120731D01*
X66073Y120694D01*
X66039Y120655D01*
X65999Y120622D01*
X65960Y120562D01*
X65913Y120507D01*
X65894Y120459D01*
X65866Y120415D01*
X65848Y120346D01*
X65821Y120279D01*
X65813Y120208D01*
X65805Y120177D01*
X65807Y120153D01*
X65803Y120112D01*
X65803Y108488D01*
X65814Y108417D01*
X65816Y108345D01*
X65834Y108296D01*
X65842Y108245D01*
X65876Y108182D01*
X65901Y108114D01*
X65933Y108074D01*
X65958Y108027D01*
X66010Y107978D01*
X66054Y107922D01*
X66098Y107894D01*
X66136Y107858D01*
X66201Y107828D01*
X66261Y107789D01*
X66312Y107776D01*
X66359Y107754D01*
X66430Y107747D01*
X66500Y107729D01*
X66552Y107733D01*
X66603Y107727D01*
X66674Y107743D01*
X66745Y107748D01*
X66793Y107769D01*
X66844Y107780D01*
X66905Y107816D01*
X66971Y107845D01*
X67027Y107889D01*
X67055Y107906D01*
X67070Y107924D01*
X67102Y107949D01*
X70013Y110860D01*
X74027Y112523D01*
X78373Y112523D01*
X82387Y110860D01*
X85460Y107787D01*
X87123Y103773D01*
X87123Y99427D01*
X85460Y95413D01*
X82387Y92340D01*
X78373Y90677D01*
X74027Y90677D01*
X70013Y92340D01*
X67102Y95251D01*
X67044Y95293D01*
X66992Y95342D01*
X66945Y95364D01*
X66903Y95394D01*
X66834Y95415D01*
X66769Y95446D01*
X66717Y95451D01*
X66667Y95467D01*
X66596Y95465D01*
X66525Y95473D01*
X66474Y95462D01*
X66422Y95460D01*
X66354Y95436D01*
X66284Y95420D01*
X66239Y95394D01*
X66191Y95376D01*
X66135Y95331D01*
X66073Y95294D01*
X66039Y95255D01*
X65999Y95222D01*
X65960Y95162D01*
X65913Y95107D01*
X65894Y95059D01*
X65866Y95015D01*
X65848Y94946D01*
X65821Y94879D01*
X65813Y94808D01*
X65805Y94777D01*
X65807Y94753D01*
X65803Y94712D01*
X65803Y84524D01*
X65814Y84454D01*
X65816Y84382D01*
X65834Y84333D01*
X65842Y84282D01*
X65876Y84218D01*
X65901Y84151D01*
X65933Y84110D01*
X65958Y84064D01*
X66010Y84015D01*
X66054Y83959D01*
X66098Y83931D01*
X66136Y83895D01*
X66201Y83865D01*
X66261Y83826D01*
X66312Y83813D01*
X66359Y83791D01*
X66430Y83783D01*
X66500Y83766D01*
X66552Y83770D01*
X66603Y83764D01*
X66674Y83779D01*
X66745Y83785D01*
X66793Y83805D01*
X66844Y83816D01*
X66905Y83853D01*
X66971Y83881D01*
X67027Y83926D01*
X67055Y83943D01*
X67070Y83960D01*
X67102Y83986D01*
X68422Y85306D01*
X69943Y86411D01*
X71617Y87264D01*
X73404Y87845D01*
X74677Y88046D01*
X74677Y76962D01*
X74680Y76942D01*
X74678Y76923D01*
X74700Y76821D01*
X74717Y76719D01*
X74726Y76702D01*
X74730Y76682D01*
X74783Y76593D01*
X74832Y76502D01*
X74846Y76488D01*
X74856Y76471D01*
X74935Y76404D01*
X75010Y76333D01*
X75028Y76324D01*
X75043Y76311D01*
X75139Y76273D01*
X75233Y76229D01*
X75253Y76227D01*
X75271Y76219D01*
X75438Y76201D01*
X76201Y76201D01*
X76201Y76199D01*
X75438Y76199D01*
X75418Y76196D01*
X75399Y76198D01*
X75297Y76176D01*
X75195Y76159D01*
X75178Y76150D01*
X75158Y76146D01*
X75069Y76093D01*
X74978Y76044D01*
X74964Y76030D01*
X74947Y76020D01*
X74880Y75941D01*
X74809Y75866D01*
X74800Y75848D01*
X74787Y75833D01*
X74748Y75737D01*
X74705Y75643D01*
X74703Y75623D01*
X74695Y75605D01*
X74677Y75438D01*
X74677Y64354D01*
X73404Y64555D01*
X71617Y65136D01*
X69943Y65989D01*
X68422Y67094D01*
X67102Y68414D01*
X67044Y68456D01*
X66992Y68505D01*
X66945Y68527D01*
X66903Y68557D01*
X66834Y68578D01*
X66769Y68609D01*
X66717Y68614D01*
X66667Y68630D01*
X66596Y68628D01*
X66525Y68636D01*
X66474Y68625D01*
X66422Y68623D01*
X66354Y68599D01*
X66284Y68584D01*
X66239Y68557D01*
X66191Y68539D01*
X66135Y68494D01*
X66073Y68457D01*
X66039Y68418D01*
X65999Y68385D01*
X65960Y68325D01*
X65913Y68270D01*
X65894Y68222D01*
X65866Y68178D01*
X65848Y68109D01*
X65821Y68042D01*
X65813Y67971D01*
X65805Y67940D01*
X65807Y67916D01*
X65803Y67876D01*
X65803Y66683D01*
X65817Y66593D01*
X65825Y66502D01*
X65837Y66473D01*
X65842Y66441D01*
X65885Y66360D01*
X65921Y66276D01*
X65947Y66244D01*
X65958Y66223D01*
X65981Y66201D01*
X66026Y66145D01*
X71137Y61034D01*
X71231Y60966D01*
X71325Y60896D01*
X71331Y60894D01*
X71336Y60891D01*
X71448Y60856D01*
X71559Y60820D01*
X71566Y60820D01*
X71572Y60818D01*
X71688Y60821D01*
X71805Y60822D01*
X71812Y60824D01*
X71817Y60825D01*
X71835Y60831D01*
X71966Y60869D01*
X74027Y61723D01*
X78373Y61723D01*
X82387Y60060D01*
X85460Y56987D01*
X87123Y52973D01*
X87123Y48627D01*
X85460Y44613D01*
X82387Y41540D01*
X78373Y39877D01*
X74027Y39877D01*
X70013Y41540D01*
X66940Y44613D01*
X65277Y48627D01*
X65277Y52973D01*
X66424Y55741D01*
X66451Y55854D01*
X66479Y55968D01*
X66479Y55974D01*
X66480Y55980D01*
X66469Y56097D01*
X66460Y56213D01*
X66458Y56219D01*
X66457Y56225D01*
X66409Y56333D01*
X66364Y56439D01*
X66359Y56445D01*
X66357Y56450D01*
X66344Y56464D01*
X66259Y56570D01*
X61355Y61474D01*
X59197Y63632D01*
X59197Y228868D01*
X73310Y242981D01*
X73378Y243075D01*
X73448Y243170D01*
X73450Y243176D01*
X73454Y243181D01*
X73488Y243292D01*
X73524Y243404D01*
X73524Y243410D01*
X73526Y243416D01*
X73523Y243533D01*
X73522Y243650D01*
X73520Y243657D01*
X73520Y243662D01*
X73513Y243679D01*
X73475Y243811D01*
X71977Y247427D01*
X71977Y251773D01*
X73640Y255787D01*
X76713Y258860D01*
X80727Y260523D01*
X85073Y260523D01*
X89087Y258860D01*
X92160Y255787D01*
X93823Y251773D01*
X93823Y247427D01*
X92160Y243413D01*
X89087Y240340D01*
X85073Y238677D01*
X80727Y238677D01*
X79515Y239180D01*
X79401Y239206D01*
X79288Y239235D01*
X79281Y239234D01*
X79275Y239236D01*
X79159Y239225D01*
X79043Y239216D01*
X79037Y239213D01*
X79030Y239213D01*
X78923Y239165D01*
X78816Y239119D01*
X78810Y239115D01*
X78806Y239113D01*
X78792Y239100D01*
X78685Y239014D01*
X66026Y226355D01*
X65973Y226281D01*
X65913Y226212D01*
X65901Y226181D01*
X65882Y226155D01*
X65855Y226068D01*
X65821Y225983D01*
X65817Y225942D01*
X65810Y225920D01*
X65811Y225888D01*
X65803Y225817D01*
X65803Y184688D01*
X65814Y184617D01*
X65816Y184545D01*
X65834Y184496D01*
X65842Y184445D01*
X65876Y184382D01*
X65901Y184314D01*
X65933Y184274D01*
X65958Y184227D01*
X66010Y184178D01*
X66054Y184122D01*
X66098Y184094D01*
X66136Y184058D01*
X66201Y184028D01*
X66261Y183989D01*
X66312Y183976D01*
X66359Y183954D01*
X66430Y183947D01*
X66500Y183929D01*
X66552Y183933D01*
X66603Y183927D01*
X66674Y183943D01*
X66745Y183948D01*
X66793Y183969D01*
X66844Y183980D01*
X66905Y184016D01*
X66971Y184045D01*
X67027Y184089D01*
X67055Y184106D01*
X67070Y184124D01*
X67102Y184149D01*
X70013Y187060D01*
X74027Y188723D01*
X78373Y188723D01*
X82387Y187060D01*
X85460Y183987D01*
X87123Y179973D01*
X87123Y175627D01*
X85460Y171613D01*
X82387Y168540D01*
X78373Y166877D01*
X74027Y166877D01*
X70013Y168540D01*
X67102Y171451D01*
X67044Y171493D01*
X66992Y171542D01*
X66945Y171564D01*
X66903Y171594D01*
X66834Y171615D01*
X66769Y171646D01*
X66717Y171651D01*
X66667Y171667D01*
X66596Y171665D01*
X66525Y171673D01*
X66474Y171662D01*
X66422Y171660D01*
X66354Y171636D01*
X66284Y171620D01*
X66239Y171594D01*
X66191Y171576D01*
X66135Y171531D01*
X66073Y171494D01*
X66039Y171455D01*
X65999Y171422D01*
X65960Y171362D01*
X65913Y171307D01*
X65894Y171259D01*
X65866Y171215D01*
X65848Y171146D01*
X65821Y171079D01*
X65813Y171008D01*
X65805Y170977D01*
X65807Y170953D01*
X65803Y170912D01*
X65803Y159288D01*
X65814Y159217D01*
X65816Y159145D01*
X65834Y159096D01*
X65842Y159045D01*
X65876Y158982D01*
X65901Y158914D01*
X65933Y158874D01*
X65958Y158827D01*
X66010Y158778D01*
X66054Y158722D01*
X66098Y158694D01*
X66136Y158658D01*
X66201Y158628D01*
X66261Y158589D01*
X66312Y158576D01*
X66359Y158554D01*
X66430Y158547D01*
X66500Y158529D01*
X66552Y158533D01*
X66603Y158527D01*
X66674Y158543D01*
X66745Y158548D01*
X66793Y158569D01*
X66844Y158580D01*
X66905Y158616D01*
X66971Y158645D01*
X67027Y158689D01*
X67055Y158706D01*
X67070Y158724D01*
X67102Y158749D01*
X70013Y161660D01*
X74027Y163323D01*
X78373Y163323D01*
X82387Y161660D01*
X85460Y158587D01*
X87123Y154573D01*
X87123Y150227D01*
X85460Y146213D01*
X82387Y143140D01*
X78373Y141477D01*
X74027Y141477D01*
X70013Y143140D01*
X67102Y146051D01*
X67044Y146093D01*
X66992Y146142D01*
X66945Y146164D01*
X66903Y146194D01*
X66834Y146215D01*
X66769Y146246D01*
X66717Y146251D01*
X66667Y146267D01*
X66596Y146265D01*
X66525Y146273D01*
X66474Y146262D01*
X66422Y146260D01*
X66354Y146236D01*
X66284Y146220D01*
X66239Y146194D01*
X66191Y146176D01*
X66135Y146131D01*
X66073Y146094D01*
X66039Y146055D01*
X65999Y146022D01*
X65960Y145962D01*
X65913Y145907D01*
X65894Y145859D01*
X65866Y145815D01*
X65848Y145746D01*
X65821Y145679D01*
X65813Y145608D01*
X65805Y145577D01*
X65807Y145553D01*
X65803Y145512D01*
X65803Y133888D01*
X65814Y133817D01*
X65816Y133745D01*
X65834Y133696D01*
X65842Y133645D01*
X65876Y133582D01*
X65901Y133514D01*
X65933Y133474D01*
X65958Y133427D01*
X66010Y133378D01*
X66054Y133322D01*
X66098Y133294D01*
X66136Y133258D01*
X66201Y133228D01*
X66261Y133189D01*
X66312Y133176D01*
X66359Y133154D01*
X66430Y133147D01*
X66500Y133129D01*
X66552Y133133D01*
X66603Y133127D01*
X66674Y133143D01*
X66745Y133148D01*
X66793Y133169D01*
X66844Y133180D01*
X66905Y133216D01*
X66971Y133245D01*
X67027Y133289D01*
X67055Y133306D01*
X67070Y133324D01*
X67102Y133349D01*
X70013Y136260D01*
X74027Y137923D01*
X78373Y137923D01*
X81353Y136688D01*
X81467Y136662D01*
X81580Y136633D01*
X81586Y136634D01*
X81592Y136632D01*
X81709Y136643D01*
X81825Y136652D01*
X81831Y136655D01*
X81837Y136655D01*
X81945Y136703D01*
X82052Y136748D01*
X82057Y136753D01*
X82062Y136755D01*
X82076Y136768D01*
X82183Y136853D01*
X103974Y158645D01*
X104027Y158719D01*
X104087Y158788D01*
X104099Y158819D01*
X104118Y158845D01*
X104145Y158932D01*
X104179Y159017D01*
X104183Y159058D01*
X104190Y159080D01*
X104189Y159112D01*
X104197Y159183D01*
X104197Y238968D01*
X104178Y239083D01*
X104161Y239199D01*
X104159Y239205D01*
X104158Y239211D01*
X104103Y239313D01*
X104050Y239418D01*
X104045Y239423D01*
X104042Y239428D01*
X103958Y239508D01*
X103874Y239591D01*
X103868Y239594D01*
X103864Y239598D01*
X103847Y239605D01*
X103727Y239671D01*
X102113Y240340D01*
X99040Y243413D01*
X97377Y247427D01*
X97377Y251773D01*
X99040Y255787D01*
X102113Y258860D01*
X106127Y260523D01*
X110473Y260523D01*
X114487Y258860D01*
X116382Y256965D01*
X116440Y256923D01*
X116492Y256874D01*
X116539Y256852D01*
X116581Y256822D01*
X116650Y256801D01*
X116715Y256770D01*
X116767Y256765D01*
X116817Y256749D01*
X116888Y256751D01*
X116959Y256743D01*
X117010Y256754D01*
X117062Y256756D01*
X117130Y256780D01*
X117200Y256796D01*
X117245Y256822D01*
X117293Y256840D01*
X117349Y256885D01*
X117411Y256922D01*
X117445Y256961D01*
X117485Y256994D01*
X117524Y257054D01*
X117571Y257109D01*
X117590Y257157D01*
X117618Y257201D01*
X117636Y257270D01*
X117663Y257337D01*
X117671Y257408D01*
X117679Y257439D01*
X117677Y257463D01*
X117681Y257504D01*
X117681Y257830D01*
X117734Y257891D01*
X117746Y257921D01*
X117765Y257948D01*
X117792Y258035D01*
X117826Y258119D01*
X117830Y258160D01*
X117837Y258183D01*
X117836Y258215D01*
X117844Y258286D01*
X117844Y267259D01*
X117833Y267330D01*
X117831Y267402D01*
X117813Y267451D01*
X117805Y267502D01*
X117771Y267566D01*
X117746Y267633D01*
X117714Y267674D01*
X117690Y267720D01*
X117638Y267769D01*
X117593Y267825D01*
X117549Y267853D01*
X117511Y267889D01*
X117446Y267919D01*
X117386Y267958D01*
X117335Y267971D01*
X117288Y267993D01*
X117217Y268001D01*
X117147Y268018D01*
X117095Y268014D01*
X117044Y268020D01*
X116974Y268004D01*
X116902Y267999D01*
X116854Y267979D01*
X116803Y267967D01*
X116742Y267931D01*
X116676Y267903D01*
X116620Y267858D01*
X116592Y267841D01*
X116577Y267823D01*
X116545Y267798D01*
X114487Y265740D01*
X110473Y264077D01*
X106127Y264077D01*
X102113Y265740D01*
X99040Y268813D01*
X97377Y272827D01*
X97377Y277173D01*
X99040Y281187D01*
X102113Y284260D01*
X106127Y285923D01*
X110473Y285923D01*
X114487Y284260D01*
X117560Y281187D01*
X118974Y277773D01*
X119036Y277673D01*
X119096Y277573D01*
X119101Y277569D01*
X119104Y277564D01*
X119193Y277489D01*
X119283Y277413D01*
X119289Y277411D01*
X119293Y277407D01*
X119401Y277365D01*
X119511Y277321D01*
X119518Y277320D01*
X119523Y277319D01*
X119541Y277318D01*
X119678Y277303D01*
X121342Y277303D01*
X121366Y277307D01*
X121389Y277304D01*
X121487Y277326D01*
X121585Y277342D01*
X121606Y277354D01*
X121629Y277359D01*
X121714Y277411D01*
X121802Y277458D01*
X121819Y277475D01*
X121839Y277487D01*
X121903Y277564D01*
X121972Y277636D01*
X121982Y277658D01*
X121997Y277676D01*
X122066Y277829D01*
X122636Y279583D01*
X123489Y281257D01*
X124594Y282778D01*
X125922Y284106D01*
X127443Y285211D01*
X129117Y286064D01*
X130904Y286645D01*
X132177Y286846D01*
X132177Y275762D01*
X132180Y275742D01*
X132178Y275723D01*
X132200Y275621D01*
X132217Y275519D01*
X132226Y275502D01*
X132230Y275482D01*
X132283Y275393D01*
X132332Y275302D01*
X132346Y275288D01*
X132356Y275271D01*
X132435Y275204D01*
X132510Y275133D01*
X132528Y275124D01*
X132543Y275111D01*
X132639Y275073D01*
X132733Y275029D01*
X132753Y275027D01*
X132771Y275019D01*
X132938Y275001D01*
X133701Y275001D01*
X133701Y274999D01*
X132938Y274999D01*
X132918Y274996D01*
X132899Y274998D01*
X132797Y274976D01*
X132695Y274959D01*
X132678Y274950D01*
X132658Y274946D01*
X132569Y274893D01*
X132478Y274844D01*
X132464Y274830D01*
X132447Y274820D01*
X132380Y274741D01*
X132309Y274666D01*
X132300Y274648D01*
X132287Y274633D01*
X132248Y274537D01*
X132205Y274443D01*
X132203Y274423D01*
X132195Y274405D01*
X132177Y274238D01*
X132177Y263154D01*
X130904Y263355D01*
X129117Y263936D01*
X127443Y264789D01*
X125922Y265894D01*
X125749Y266067D01*
X125691Y266109D01*
X125639Y266158D01*
X125592Y266180D01*
X125550Y266210D01*
X125481Y266231D01*
X125416Y266262D01*
X125364Y266267D01*
X125315Y266283D01*
X125243Y266281D01*
X125172Y266289D01*
X125121Y266278D01*
X125069Y266276D01*
X125001Y266252D01*
X124931Y266236D01*
X124886Y266210D01*
X124838Y266192D01*
X124782Y266147D01*
X124720Y266110D01*
X124686Y266071D01*
X124646Y266038D01*
X124607Y265978D01*
X124560Y265923D01*
X124541Y265875D01*
X124513Y265831D01*
X124495Y265762D01*
X124468Y265695D01*
X124460Y265624D01*
X124453Y265593D01*
X124454Y265569D01*
X124450Y265528D01*
X124450Y257635D01*
X124453Y257616D01*
X124451Y257597D01*
X124462Y257547D01*
X124463Y257492D01*
X124481Y257443D01*
X124490Y257392D01*
X124500Y257373D01*
X124503Y257357D01*
X124528Y257315D01*
X124548Y257261D01*
X124580Y257221D01*
X124605Y257175D01*
X124622Y257158D01*
X124629Y257146D01*
X124664Y257116D01*
X124701Y257069D01*
X124745Y257041D01*
X124783Y257005D01*
X124806Y256994D01*
X124816Y256986D01*
X124856Y256970D01*
X124908Y256936D01*
X124959Y256924D01*
X125006Y256902D01*
X125033Y256899D01*
X125044Y256894D01*
X125102Y256888D01*
X125147Y256876D01*
X125181Y256879D01*
X125211Y256875D01*
X125213Y256875D01*
X125225Y256877D01*
X125251Y256874D01*
X125321Y256890D01*
X125392Y256895D01*
X125428Y256911D01*
X125456Y256915D01*
X125468Y256922D01*
X125491Y256927D01*
X125553Y256964D01*
X125618Y256992D01*
X125654Y257020D01*
X125673Y257030D01*
X125685Y257043D01*
X125702Y257053D01*
X125717Y257071D01*
X125749Y257096D01*
X127513Y258860D01*
X131527Y260523D01*
X135873Y260523D01*
X139887Y258860D01*
X142960Y255787D01*
X144623Y251773D01*
X144623Y247427D01*
X142960Y243413D01*
X139887Y240340D01*
X135873Y238677D01*
X131527Y238677D01*
X127513Y240340D01*
X125586Y242267D01*
X125528Y242309D01*
X125476Y242358D01*
X125429Y242380D01*
X125387Y242410D01*
X125318Y242431D01*
X125253Y242462D01*
X125201Y242467D01*
X125151Y242483D01*
X125080Y242481D01*
X125009Y242489D01*
X124958Y242478D01*
X124906Y242476D01*
X124838Y242452D01*
X124768Y242436D01*
X124723Y242410D01*
X124675Y242392D01*
X124619Y242347D01*
X124557Y242310D01*
X124523Y242271D01*
X124483Y242238D01*
X124444Y242178D01*
X124397Y242123D01*
X124378Y242075D01*
X124350Y242031D01*
X124332Y241962D01*
X124305Y241895D01*
X124297Y241824D01*
X124289Y241793D01*
X124291Y241769D01*
X124287Y241728D01*
X124287Y235121D01*
X124301Y235031D01*
X124309Y234940D01*
X124321Y234910D01*
X124326Y234878D01*
X124369Y234797D01*
X124405Y234713D01*
X124431Y234681D01*
X124442Y234660D01*
X124465Y234638D01*
X124510Y234582D01*
X126566Y232526D01*
X126640Y232473D01*
X126710Y232413D01*
X126740Y232401D01*
X126766Y232382D01*
X126853Y232355D01*
X126938Y232321D01*
X126979Y232317D01*
X127001Y232310D01*
X127033Y232311D01*
X127105Y232303D01*
X127368Y232303D01*
X129303Y230368D01*
X129303Y230228D01*
X129306Y230210D01*
X129304Y230192D01*
X129310Y230161D01*
X129309Y230127D01*
X129331Y230057D01*
X129342Y229985D01*
X129353Y229965D01*
X129356Y229952D01*
X129369Y229929D01*
X129381Y229891D01*
X129423Y229832D01*
X129458Y229768D01*
X129478Y229748D01*
X129482Y229741D01*
X129498Y229727D01*
X129524Y229691D01*
X129617Y229616D01*
X129636Y229598D01*
X129644Y229594D01*
X129655Y229586D01*
X130360Y229136D01*
X229424Y165922D01*
X229432Y165919D01*
X229438Y165913D01*
X229545Y165870D01*
X229650Y165825D01*
X229658Y165824D01*
X229667Y165821D01*
X229833Y165803D01*
X325483Y165803D01*
X325573Y165817D01*
X325664Y165825D01*
X325693Y165837D01*
X325725Y165842D01*
X325806Y165885D01*
X325890Y165921D01*
X325922Y165947D01*
X325943Y165958D01*
X325965Y165981D01*
X326021Y166026D01*
X327802Y167807D01*
X332198Y167807D01*
X335307Y164698D01*
X335307Y160302D01*
X332198Y157193D01*
X327802Y157193D01*
X326021Y158974D01*
X325947Y159027D01*
X325877Y159087D01*
X325847Y159099D01*
X325821Y159118D01*
X325734Y159145D01*
X325649Y159179D01*
X325608Y159183D01*
X325586Y159190D01*
X325554Y159189D01*
X325483Y159197D01*
X237683Y159197D01*
X237593Y159183D01*
X237502Y159175D01*
X237473Y159163D01*
X237441Y159158D01*
X237360Y159115D01*
X237276Y159079D01*
X237244Y159053D01*
X237223Y159042D01*
X237201Y159019D01*
X237145Y158974D01*
X196026Y117855D01*
X195973Y117781D01*
X195913Y117712D01*
X195901Y117681D01*
X195882Y117655D01*
X195855Y117568D01*
X195821Y117483D01*
X195817Y117442D01*
X195810Y117420D01*
X195811Y117388D01*
X195803Y117317D01*
X195803Y48235D01*
X195822Y48120D01*
X195839Y48004D01*
X195841Y47998D01*
X195842Y47992D01*
X195897Y47890D01*
X195950Y47785D01*
X195955Y47780D01*
X195958Y47775D01*
X196042Y47694D01*
X196126Y47612D01*
X196132Y47609D01*
X196136Y47605D01*
X196153Y47597D01*
X196273Y47532D01*
X196687Y47360D01*
X199760Y44287D01*
X201423Y40273D01*
X201423Y35927D01*
X199760Y31913D01*
X196687Y28840D01*
X192673Y27177D01*
X188327Y27177D01*
G37*
%LPD*%
%LPC*%
G36*
X213727Y27177D02*
X213727Y27177D01*
X209713Y28840D01*
X206640Y31913D01*
X204977Y35927D01*
X204977Y40273D01*
X206640Y44287D01*
X209713Y47360D01*
X213727Y49023D01*
X218073Y49023D01*
X222087Y47360D01*
X225160Y44287D01*
X226036Y42173D01*
X226098Y42073D01*
X226157Y41973D01*
X226162Y41969D01*
X226165Y41964D01*
X226256Y41889D01*
X226344Y41813D01*
X226350Y41811D01*
X226355Y41807D01*
X226463Y41765D01*
X226572Y41721D01*
X226580Y41720D01*
X226584Y41719D01*
X226603Y41718D01*
X226739Y41703D01*
X425717Y41703D01*
X425807Y41717D01*
X425898Y41725D01*
X425927Y41737D01*
X425959Y41742D01*
X426040Y41785D01*
X426124Y41821D01*
X426156Y41847D01*
X426177Y41858D01*
X426199Y41881D01*
X426255Y41926D01*
X483974Y99645D01*
X484027Y99719D01*
X484087Y99788D01*
X484099Y99819D01*
X484118Y99845D01*
X484145Y99932D01*
X484179Y100017D01*
X484183Y100058D01*
X484190Y100080D01*
X484189Y100112D01*
X484197Y100183D01*
X484197Y239382D01*
X484195Y239396D01*
X484196Y239406D01*
X484185Y239460D01*
X484178Y239497D01*
X484161Y239613D01*
X484159Y239619D01*
X484158Y239625D01*
X484103Y239728D01*
X484050Y239832D01*
X484045Y239837D01*
X484042Y239842D01*
X483958Y239922D01*
X483874Y240005D01*
X483868Y240008D01*
X483864Y240012D01*
X483847Y240020D01*
X483727Y240086D01*
X483113Y240340D01*
X480040Y243413D01*
X478377Y247427D01*
X478377Y251773D01*
X480040Y255787D01*
X483113Y258860D01*
X487127Y260523D01*
X491473Y260523D01*
X495487Y258860D01*
X498560Y255787D01*
X500223Y251773D01*
X500223Y247427D01*
X498560Y243413D01*
X495487Y240340D01*
X491413Y238653D01*
X491321Y238638D01*
X491304Y238628D01*
X491284Y238624D01*
X491195Y238571D01*
X491104Y238522D01*
X491090Y238508D01*
X491073Y238498D01*
X491006Y238419D01*
X490934Y238344D01*
X490926Y238326D01*
X490913Y238311D01*
X490874Y238215D01*
X490831Y238121D01*
X490829Y238101D01*
X490821Y238083D01*
X490803Y237916D01*
X490803Y97132D01*
X428768Y35097D01*
X226988Y35097D01*
X226873Y35078D01*
X226757Y35061D01*
X226751Y35059D01*
X226745Y35058D01*
X226642Y35003D01*
X226537Y34950D01*
X226533Y34945D01*
X226527Y34942D01*
X226448Y34858D01*
X226365Y34774D01*
X226361Y34768D01*
X226358Y34764D01*
X226350Y34747D01*
X226284Y34627D01*
X225160Y31913D01*
X222087Y28840D01*
X218073Y27177D01*
X213727Y27177D01*
G37*
%LPD*%
%LPC*%
G36*
X525302Y54693D02*
X525302Y54693D01*
X522193Y57802D01*
X522193Y62198D01*
X525302Y65307D01*
X527821Y65307D01*
X527911Y65321D01*
X528002Y65329D01*
X528031Y65341D01*
X528063Y65346D01*
X528144Y65389D01*
X528228Y65425D01*
X528260Y65451D01*
X528281Y65462D01*
X528303Y65485D01*
X528359Y65530D01*
X528974Y66145D01*
X529027Y66219D01*
X529087Y66288D01*
X529099Y66319D01*
X529118Y66345D01*
X529145Y66432D01*
X529179Y66517D01*
X529183Y66558D01*
X529190Y66580D01*
X529189Y66612D01*
X529197Y66683D01*
X529197Y102983D01*
X529183Y103073D01*
X529175Y103164D01*
X529163Y103193D01*
X529158Y103225D01*
X529115Y103306D01*
X529079Y103390D01*
X529053Y103422D01*
X529042Y103443D01*
X529019Y103465D01*
X528974Y103521D01*
X527193Y105302D01*
X527193Y109698D01*
X530302Y112807D01*
X534698Y112807D01*
X537807Y109698D01*
X537807Y105302D01*
X536026Y103521D01*
X535973Y103447D01*
X535913Y103377D01*
X535901Y103347D01*
X535882Y103321D01*
X535855Y103234D01*
X535821Y103149D01*
X535817Y103108D01*
X535810Y103086D01*
X535811Y103054D01*
X535803Y102983D01*
X535803Y63632D01*
X533030Y60859D01*
X532977Y60785D01*
X532917Y60716D01*
X532905Y60685D01*
X532886Y60659D01*
X532859Y60572D01*
X532825Y60487D01*
X532821Y60446D01*
X532814Y60424D01*
X532815Y60392D01*
X532807Y60321D01*
X532807Y57802D01*
X529698Y54693D01*
X525302Y54693D01*
G37*
%LPD*%
%LPC*%
G36*
X396802Y116935D02*
X396802Y116935D01*
X393835Y119902D01*
X393835Y124098D01*
X396199Y126462D01*
X396211Y126478D01*
X396226Y126490D01*
X396282Y126578D01*
X396343Y126661D01*
X396348Y126680D01*
X396359Y126697D01*
X396385Y126798D01*
X396415Y126897D01*
X396414Y126916D01*
X396419Y126936D01*
X396411Y127039D01*
X396409Y127142D01*
X396402Y127161D01*
X396400Y127181D01*
X396360Y127276D01*
X396324Y127373D01*
X396312Y127389D01*
X396304Y127407D01*
X396199Y127538D01*
X393835Y129902D01*
X393835Y134098D01*
X396802Y137065D01*
X400998Y137065D01*
X402241Y135822D01*
X402257Y135810D01*
X402269Y135795D01*
X402356Y135739D01*
X402440Y135678D01*
X402459Y135673D01*
X402476Y135662D01*
X402577Y135637D01*
X402675Y135606D01*
X402695Y135607D01*
X402715Y135602D01*
X402818Y135610D01*
X402921Y135612D01*
X402940Y135619D01*
X402960Y135621D01*
X403055Y135661D01*
X403152Y135697D01*
X403168Y135709D01*
X403186Y135717D01*
X403317Y135822D01*
X403802Y136307D01*
X408198Y136307D01*
X409083Y135422D01*
X409099Y135410D01*
X409111Y135395D01*
X409199Y135339D01*
X409283Y135278D01*
X409302Y135273D01*
X409318Y135262D01*
X409419Y135237D01*
X409518Y135206D01*
X409538Y135207D01*
X409557Y135202D01*
X409660Y135210D01*
X409764Y135212D01*
X409782Y135219D01*
X409802Y135221D01*
X409897Y135261D01*
X409995Y135297D01*
X410010Y135309D01*
X410028Y135317D01*
X410159Y135422D01*
X411802Y137065D01*
X415998Y137065D01*
X418965Y134098D01*
X418965Y129902D01*
X416601Y127538D01*
X416589Y127522D01*
X416574Y127510D01*
X416518Y127422D01*
X416457Y127339D01*
X416452Y127320D01*
X416441Y127303D01*
X416415Y127202D01*
X416385Y127103D01*
X416386Y127084D01*
X416381Y127064D01*
X416389Y126961D01*
X416391Y126858D01*
X416398Y126839D01*
X416400Y126819D01*
X416440Y126724D01*
X416476Y126627D01*
X416488Y126611D01*
X416496Y126593D01*
X416601Y126462D01*
X418965Y124098D01*
X418965Y119902D01*
X415998Y116935D01*
X411802Y116935D01*
X408835Y119902D01*
X408835Y121174D01*
X408832Y121194D01*
X408834Y121213D01*
X408812Y121315D01*
X408796Y121417D01*
X408786Y121434D01*
X408782Y121454D01*
X408729Y121543D01*
X408680Y121634D01*
X408666Y121648D01*
X408656Y121665D01*
X408577Y121732D01*
X408502Y121804D01*
X408484Y121812D01*
X408469Y121825D01*
X408373Y121864D01*
X408279Y121907D01*
X408259Y121909D01*
X408241Y121917D01*
X408074Y121935D01*
X404726Y121935D01*
X404706Y121932D01*
X404687Y121934D01*
X404585Y121912D01*
X404483Y121896D01*
X404466Y121886D01*
X404446Y121882D01*
X404357Y121829D01*
X404266Y121780D01*
X404252Y121766D01*
X404235Y121756D01*
X404168Y121677D01*
X404096Y121602D01*
X404088Y121584D01*
X404075Y121569D01*
X404036Y121473D01*
X403993Y121379D01*
X403991Y121359D01*
X403983Y121341D01*
X403965Y121174D01*
X403965Y119902D01*
X400998Y116935D01*
X396802Y116935D01*
G37*
%LPD*%
%LPC*%
G36*
X436327Y238677D02*
X436327Y238677D01*
X432313Y240340D01*
X429240Y243413D01*
X427577Y247427D01*
X427577Y251773D01*
X429240Y255787D01*
X432313Y258860D01*
X436327Y260523D01*
X440673Y260523D01*
X444687Y258860D01*
X447760Y255787D01*
X449423Y251773D01*
X449423Y247427D01*
X447760Y243413D01*
X444687Y240340D01*
X440673Y238677D01*
X436327Y238677D01*
G37*
%LPD*%
%LPC*%
G36*
X207727Y238677D02*
X207727Y238677D01*
X203713Y240340D01*
X200640Y243413D01*
X198977Y247427D01*
X198977Y251773D01*
X200640Y255787D01*
X203713Y258860D01*
X207727Y260523D01*
X212073Y260523D01*
X216087Y258860D01*
X219160Y255787D01*
X220823Y251773D01*
X220823Y247427D01*
X219160Y243413D01*
X216087Y240340D01*
X212073Y238677D01*
X207727Y238677D01*
G37*
%LPD*%
%LPC*%
G36*
X156927Y238677D02*
X156927Y238677D01*
X152913Y240340D01*
X149840Y243413D01*
X148177Y247427D01*
X148177Y251773D01*
X149840Y255787D01*
X152913Y258860D01*
X156927Y260523D01*
X161273Y260523D01*
X165287Y258860D01*
X168360Y255787D01*
X170023Y251773D01*
X170023Y247427D01*
X168360Y243413D01*
X165287Y240340D01*
X161273Y238677D01*
X156927Y238677D01*
G37*
%LPD*%
%LPC*%
G36*
X360127Y238677D02*
X360127Y238677D01*
X356113Y240340D01*
X353040Y243413D01*
X351377Y247427D01*
X351377Y251773D01*
X353040Y255787D01*
X356113Y258860D01*
X360127Y260523D01*
X364473Y260523D01*
X368487Y258860D01*
X371560Y255787D01*
X373223Y251773D01*
X373223Y247427D01*
X371560Y243413D01*
X368487Y240340D01*
X364473Y238677D01*
X360127Y238677D01*
G37*
%LPD*%
%LPC*%
G36*
X233127Y238677D02*
X233127Y238677D01*
X229113Y240340D01*
X226040Y243413D01*
X224377Y247427D01*
X224377Y251773D01*
X226040Y255787D01*
X229113Y258860D01*
X233127Y260523D01*
X237473Y260523D01*
X241487Y258860D01*
X244560Y255787D01*
X246223Y251773D01*
X246223Y247427D01*
X244560Y243413D01*
X241487Y240340D01*
X237473Y238677D01*
X233127Y238677D01*
G37*
%LPD*%
%LPC*%
G36*
X410927Y238677D02*
X410927Y238677D01*
X406913Y240340D01*
X403840Y243413D01*
X402177Y247427D01*
X402177Y251773D01*
X403840Y255787D01*
X406913Y258860D01*
X410927Y260523D01*
X415273Y260523D01*
X419287Y258860D01*
X422360Y255787D01*
X424023Y251773D01*
X424023Y247427D01*
X422360Y243413D01*
X419287Y240340D01*
X415273Y238677D01*
X410927Y238677D01*
G37*
%LPD*%
%LPC*%
G36*
X156927Y264077D02*
X156927Y264077D01*
X152913Y265740D01*
X149840Y268813D01*
X148177Y272827D01*
X148177Y277173D01*
X149840Y281187D01*
X152913Y284260D01*
X156927Y285923D01*
X161273Y285923D01*
X165287Y284260D01*
X168360Y281187D01*
X170023Y277173D01*
X170023Y272827D01*
X168360Y268813D01*
X165287Y265740D01*
X161273Y264077D01*
X156927Y264077D01*
G37*
%LPD*%
%LPC*%
G36*
X512527Y264077D02*
X512527Y264077D01*
X508513Y265740D01*
X505440Y268813D01*
X503777Y272827D01*
X503777Y277173D01*
X505440Y281187D01*
X508513Y284260D01*
X512527Y285923D01*
X516873Y285923D01*
X520887Y284260D01*
X523960Y281187D01*
X525623Y277173D01*
X525623Y272827D01*
X523960Y268813D01*
X520887Y265740D01*
X516873Y264077D01*
X512527Y264077D01*
G37*
%LPD*%
%LPC*%
G36*
X80727Y264077D02*
X80727Y264077D01*
X76713Y265740D01*
X73640Y268813D01*
X71977Y272827D01*
X71977Y277173D01*
X73640Y281187D01*
X76713Y284260D01*
X80727Y285923D01*
X85073Y285923D01*
X89087Y284260D01*
X92160Y281187D01*
X93823Y277173D01*
X93823Y272827D01*
X92160Y268813D01*
X89087Y265740D01*
X85073Y264077D01*
X80727Y264077D01*
G37*
%LPD*%
%LPC*%
G36*
X182327Y264077D02*
X182327Y264077D01*
X178313Y265740D01*
X175240Y268813D01*
X173577Y272827D01*
X173577Y277173D01*
X175240Y281187D01*
X178313Y284260D01*
X182327Y285923D01*
X186673Y285923D01*
X190687Y284260D01*
X193760Y281187D01*
X195423Y277173D01*
X195423Y272827D01*
X193760Y268813D01*
X190687Y265740D01*
X186673Y264077D01*
X182327Y264077D01*
G37*
%LPD*%
%LPC*%
G36*
X207727Y264077D02*
X207727Y264077D01*
X203713Y265740D01*
X200640Y268813D01*
X198977Y272827D01*
X198977Y277173D01*
X200640Y281187D01*
X203713Y284260D01*
X207727Y285923D01*
X212073Y285923D01*
X216087Y284260D01*
X219160Y281187D01*
X220823Y277173D01*
X220823Y272827D01*
X219160Y268813D01*
X216087Y265740D01*
X212073Y264077D01*
X207727Y264077D01*
G37*
%LPD*%
%LPC*%
G36*
X258527Y264077D02*
X258527Y264077D01*
X254513Y265740D01*
X251440Y268813D01*
X249777Y272827D01*
X249777Y277173D01*
X251440Y281187D01*
X254513Y284260D01*
X258527Y285923D01*
X262873Y285923D01*
X266887Y284260D01*
X269960Y281187D01*
X271623Y277173D01*
X271623Y272827D01*
X269960Y268813D01*
X266887Y265740D01*
X262873Y264077D01*
X258527Y264077D01*
G37*
%LPD*%
%LPC*%
G36*
X283927Y264077D02*
X283927Y264077D01*
X279913Y265740D01*
X276840Y268813D01*
X275177Y272827D01*
X275177Y277173D01*
X276840Y281187D01*
X279913Y284260D01*
X283927Y285923D01*
X288273Y285923D01*
X292287Y284260D01*
X295360Y281187D01*
X297023Y277173D01*
X297023Y272827D01*
X295360Y268813D01*
X292287Y265740D01*
X288273Y264077D01*
X283927Y264077D01*
G37*
%LPD*%
%LPC*%
G36*
X334727Y264077D02*
X334727Y264077D01*
X330713Y265740D01*
X327640Y268813D01*
X325977Y272827D01*
X325977Y277173D01*
X327640Y281187D01*
X330713Y284260D01*
X334727Y285923D01*
X339073Y285923D01*
X343087Y284260D01*
X346160Y281187D01*
X347823Y277173D01*
X347823Y272827D01*
X346160Y268813D01*
X343087Y265740D01*
X339073Y264077D01*
X334727Y264077D01*
G37*
%LPD*%
%LPC*%
G36*
X360127Y264077D02*
X360127Y264077D01*
X356113Y265740D01*
X353040Y268813D01*
X351377Y272827D01*
X351377Y277173D01*
X353040Y281187D01*
X356113Y284260D01*
X360127Y285923D01*
X364473Y285923D01*
X368487Y284260D01*
X371560Y281187D01*
X373223Y277173D01*
X373223Y272827D01*
X371560Y268813D01*
X368487Y265740D01*
X364473Y264077D01*
X360127Y264077D01*
G37*
%LPD*%
%LPC*%
G36*
X385527Y264077D02*
X385527Y264077D01*
X381513Y265740D01*
X378440Y268813D01*
X376777Y272827D01*
X376777Y277173D01*
X378440Y281187D01*
X381513Y284260D01*
X385527Y285923D01*
X389873Y285923D01*
X393887Y284260D01*
X396960Y281187D01*
X398623Y277173D01*
X398623Y272827D01*
X396960Y268813D01*
X393887Y265740D01*
X389873Y264077D01*
X385527Y264077D01*
G37*
%LPD*%
%LPC*%
G36*
X410927Y264077D02*
X410927Y264077D01*
X406913Y265740D01*
X403840Y268813D01*
X402177Y272827D01*
X402177Y277173D01*
X403840Y281187D01*
X406913Y284260D01*
X410927Y285923D01*
X415273Y285923D01*
X419287Y284260D01*
X422360Y281187D01*
X424023Y277173D01*
X424023Y272827D01*
X422360Y268813D01*
X419287Y265740D01*
X415273Y264077D01*
X410927Y264077D01*
G37*
%LPD*%
%LPC*%
G36*
X461727Y264077D02*
X461727Y264077D01*
X457713Y265740D01*
X454640Y268813D01*
X452977Y272827D01*
X452977Y277173D01*
X454640Y281187D01*
X457713Y284260D01*
X461727Y285923D01*
X466073Y285923D01*
X470087Y284260D01*
X473160Y281187D01*
X474823Y277173D01*
X474823Y272827D01*
X473160Y268813D01*
X470087Y265740D01*
X466073Y264077D01*
X461727Y264077D01*
G37*
%LPD*%
%LPC*%
G36*
X537927Y264077D02*
X537927Y264077D01*
X533913Y265740D01*
X530840Y268813D01*
X529177Y272827D01*
X529177Y277173D01*
X530840Y281187D01*
X533913Y284260D01*
X537927Y285923D01*
X542273Y285923D01*
X546287Y284260D01*
X549360Y281187D01*
X551023Y277173D01*
X551023Y272827D01*
X549360Y268813D01*
X546287Y265740D01*
X542273Y264077D01*
X537927Y264077D01*
G37*
%LPD*%
%LPC*%
G36*
X563327Y264077D02*
X563327Y264077D01*
X559313Y265740D01*
X556240Y268813D01*
X554577Y272827D01*
X554577Y277173D01*
X556240Y281187D01*
X559313Y284260D01*
X563327Y285923D01*
X567673Y285923D01*
X571687Y284260D01*
X574760Y281187D01*
X576423Y277173D01*
X576423Y272827D01*
X574760Y268813D01*
X571687Y265740D01*
X567673Y264077D01*
X563327Y264077D01*
G37*
%LPD*%
%LPC*%
G36*
X258527Y238677D02*
X258527Y238677D01*
X254513Y240340D01*
X251440Y243413D01*
X249777Y247427D01*
X249777Y251773D01*
X251440Y255787D01*
X254513Y258860D01*
X258527Y260523D01*
X262873Y260523D01*
X266887Y258860D01*
X269960Y255787D01*
X271623Y251773D01*
X271623Y247427D01*
X269960Y243413D01*
X266887Y240340D01*
X262873Y238677D01*
X258527Y238677D01*
G37*
%LPD*%
%LPC*%
G36*
X309327Y238677D02*
X309327Y238677D01*
X305313Y240340D01*
X302240Y243413D01*
X300577Y247427D01*
X300577Y251773D01*
X302240Y255787D01*
X305313Y258860D01*
X309327Y260523D01*
X313673Y260523D01*
X317687Y258860D01*
X320760Y255787D01*
X322423Y251773D01*
X322423Y247427D01*
X320760Y243413D01*
X317687Y240340D01*
X313673Y238677D01*
X309327Y238677D01*
G37*
%LPD*%
%LPC*%
G36*
X461727Y238677D02*
X461727Y238677D01*
X457713Y240340D01*
X454640Y243413D01*
X452977Y247427D01*
X452977Y251773D01*
X454640Y255787D01*
X457713Y258860D01*
X461727Y260523D01*
X466073Y260523D01*
X470087Y258860D01*
X473160Y255787D01*
X474823Y251773D01*
X474823Y247427D01*
X473160Y243413D01*
X470087Y240340D01*
X466073Y238677D01*
X461727Y238677D01*
G37*
%LPD*%
%LPC*%
G36*
X283927Y238677D02*
X283927Y238677D01*
X279913Y240340D01*
X276840Y243413D01*
X275177Y247427D01*
X275177Y251773D01*
X276840Y255787D01*
X279913Y258860D01*
X283927Y260523D01*
X288273Y260523D01*
X292287Y258860D01*
X295360Y255787D01*
X297023Y251773D01*
X297023Y247427D01*
X295360Y243413D01*
X292287Y240340D01*
X288273Y238677D01*
X283927Y238677D01*
G37*
%LPD*%
%LPC*%
G36*
X512527Y238677D02*
X512527Y238677D01*
X508513Y240340D01*
X505440Y243413D01*
X503777Y247427D01*
X503777Y251773D01*
X505440Y255787D01*
X508513Y258860D01*
X512527Y260523D01*
X516873Y260523D01*
X520887Y258860D01*
X523960Y255787D01*
X525623Y251773D01*
X525623Y247427D01*
X523960Y243413D01*
X520887Y240340D01*
X516873Y238677D01*
X512527Y238677D01*
G37*
%LPD*%
%LPC*%
G36*
X537927Y238677D02*
X537927Y238677D01*
X533913Y240340D01*
X530840Y243413D01*
X529177Y247427D01*
X529177Y251773D01*
X530840Y255787D01*
X533913Y258860D01*
X537927Y260523D01*
X542273Y260523D01*
X546287Y258860D01*
X549360Y255787D01*
X551023Y251773D01*
X551023Y247427D01*
X549360Y243413D01*
X546287Y240340D01*
X542273Y238677D01*
X537927Y238677D01*
G37*
%LPD*%
%LPC*%
G36*
X334727Y238677D02*
X334727Y238677D01*
X330713Y240340D01*
X327640Y243413D01*
X325977Y247427D01*
X325977Y251773D01*
X327640Y255787D01*
X330713Y258860D01*
X334727Y260523D01*
X339073Y260523D01*
X343087Y258860D01*
X346160Y255787D01*
X347823Y251773D01*
X347823Y247427D01*
X346160Y243413D01*
X343087Y240340D01*
X339073Y238677D01*
X334727Y238677D01*
G37*
%LPD*%
%LPC*%
G36*
X454802Y124693D02*
X454802Y124693D01*
X451693Y127802D01*
X451693Y132198D01*
X454802Y135307D01*
X459198Y135307D01*
X462307Y132198D01*
X462307Y127802D01*
X459198Y124693D01*
X454802Y124693D01*
G37*
%LPD*%
%LPC*%
G36*
X389223Y251123D02*
X389223Y251123D01*
X389223Y261446D01*
X390496Y261245D01*
X392283Y260664D01*
X393957Y259811D01*
X395478Y258706D01*
X396806Y257378D01*
X397911Y255857D01*
X398764Y254183D01*
X399345Y252396D01*
X399546Y251123D01*
X389223Y251123D01*
G37*
%LPD*%
%LPC*%
G36*
X236823Y276523D02*
X236823Y276523D01*
X236823Y286846D01*
X238096Y286645D01*
X239883Y286064D01*
X241557Y285211D01*
X243078Y284106D01*
X244406Y282778D01*
X245511Y281257D01*
X246364Y279583D01*
X246945Y277796D01*
X247146Y276523D01*
X236823Y276523D01*
G37*
%LPD*%
%LPC*%
G36*
X166623Y39623D02*
X166623Y39623D01*
X166623Y49946D01*
X167896Y49745D01*
X169683Y49164D01*
X171357Y48311D01*
X172878Y47206D01*
X174206Y45878D01*
X175311Y44357D01*
X176164Y42683D01*
X176745Y40896D01*
X176946Y39623D01*
X166623Y39623D01*
G37*
%LPD*%
%LPC*%
G36*
X77723Y77723D02*
X77723Y77723D01*
X77723Y88046D01*
X78996Y87845D01*
X80783Y87264D01*
X82457Y86411D01*
X83978Y85306D01*
X85306Y83978D01*
X86411Y82457D01*
X87264Y80783D01*
X87845Y78996D01*
X88046Y77723D01*
X77723Y77723D01*
G37*
%LPD*%
%LPC*%
G36*
X135223Y276523D02*
X135223Y276523D01*
X135223Y286846D01*
X136496Y286645D01*
X138283Y286064D01*
X139957Y285211D01*
X141478Y284106D01*
X142806Y282778D01*
X143911Y281257D01*
X144764Y279583D01*
X145345Y277796D01*
X145546Y276523D01*
X135223Y276523D01*
G37*
%LPD*%
%LPC*%
G36*
X440023Y276523D02*
X440023Y276523D01*
X440023Y286846D01*
X441296Y286645D01*
X443083Y286064D01*
X444757Y285211D01*
X446278Y284106D01*
X447606Y282778D01*
X448711Y281257D01*
X449564Y279583D01*
X450145Y277796D01*
X450346Y276523D01*
X440023Y276523D01*
G37*
%LPD*%
%LPC*%
G36*
X313023Y276523D02*
X313023Y276523D01*
X313023Y286846D01*
X314296Y286645D01*
X316083Y286064D01*
X317757Y285211D01*
X319278Y284106D01*
X320606Y282778D01*
X321711Y281257D01*
X322564Y279583D01*
X323145Y277796D01*
X323346Y276523D01*
X313023Y276523D01*
G37*
%LPD*%
%LPC*%
G36*
X567023Y251123D02*
X567023Y251123D01*
X567023Y261446D01*
X568296Y261245D01*
X570083Y260664D01*
X571757Y259811D01*
X573278Y258706D01*
X574606Y257378D01*
X575711Y255857D01*
X576564Y254183D01*
X577145Y252396D01*
X577346Y251123D01*
X567023Y251123D01*
G37*
%LPD*%
%LPC*%
G36*
X490823Y276523D02*
X490823Y276523D01*
X490823Y286846D01*
X492096Y286645D01*
X493883Y286064D01*
X495557Y285211D01*
X497078Y284106D01*
X498406Y282778D01*
X499511Y281257D01*
X500364Y279583D01*
X500945Y277796D01*
X501146Y276523D01*
X490823Y276523D01*
G37*
%LPD*%
%LPC*%
G36*
X186023Y251123D02*
X186023Y251123D01*
X186023Y261446D01*
X187296Y261245D01*
X189083Y260664D01*
X190757Y259811D01*
X192278Y258706D01*
X193606Y257378D01*
X194711Y255857D01*
X195564Y254183D01*
X196145Y252396D01*
X196346Y251123D01*
X186023Y251123D01*
G37*
%LPD*%
%LPC*%
G36*
X172654Y251123D02*
X172654Y251123D01*
X172855Y252396D01*
X173436Y254183D01*
X174289Y255857D01*
X175394Y257378D01*
X176722Y258706D01*
X178243Y259811D01*
X179917Y260664D01*
X181704Y261245D01*
X182977Y261446D01*
X182977Y251123D01*
X172654Y251123D01*
G37*
%LPD*%
%LPC*%
G36*
X236823Y273477D02*
X236823Y273477D01*
X247146Y273477D01*
X246945Y272204D01*
X246364Y270417D01*
X245511Y268743D01*
X244406Y267222D01*
X243078Y265894D01*
X241557Y264789D01*
X239883Y263936D01*
X238096Y263355D01*
X236823Y263154D01*
X236823Y273477D01*
G37*
%LPD*%
%LPC*%
G36*
X166623Y36577D02*
X166623Y36577D01*
X176946Y36577D01*
X176745Y35304D01*
X176164Y33517D01*
X175311Y31843D01*
X174206Y30322D01*
X172878Y28994D01*
X171357Y27889D01*
X169683Y27036D01*
X167896Y26455D01*
X166623Y26254D01*
X166623Y36577D01*
G37*
%LPD*%
%LPC*%
G36*
X135223Y273477D02*
X135223Y273477D01*
X145546Y273477D01*
X145345Y272204D01*
X144764Y270417D01*
X143911Y268743D01*
X142806Y267222D01*
X141478Y265894D01*
X139957Y264789D01*
X138283Y263936D01*
X136496Y263355D01*
X135223Y263154D01*
X135223Y273477D01*
G37*
%LPD*%
%LPC*%
G36*
X153254Y39623D02*
X153254Y39623D01*
X153455Y40896D01*
X154036Y42683D01*
X154889Y44357D01*
X155994Y45878D01*
X157322Y47206D01*
X158843Y48311D01*
X160517Y49164D01*
X162304Y49745D01*
X163577Y49946D01*
X163577Y39623D01*
X153254Y39623D01*
G37*
%LPD*%
%LPC*%
G36*
X77723Y74677D02*
X77723Y74677D01*
X88046Y74677D01*
X87845Y73404D01*
X87264Y71617D01*
X86411Y69943D01*
X85306Y68422D01*
X83978Y67094D01*
X82457Y65989D01*
X80783Y65136D01*
X78996Y64555D01*
X77723Y64354D01*
X77723Y74677D01*
G37*
%LPD*%
%LPC*%
G36*
X440023Y273477D02*
X440023Y273477D01*
X450346Y273477D01*
X450145Y272204D01*
X449564Y270417D01*
X448711Y268743D01*
X447606Y267222D01*
X446278Y265894D01*
X444757Y264789D01*
X443083Y263936D01*
X441296Y263355D01*
X440023Y263154D01*
X440023Y273477D01*
G37*
%LPD*%
%LPC*%
G36*
X223454Y276523D02*
X223454Y276523D01*
X223655Y277796D01*
X224236Y279583D01*
X225089Y281257D01*
X226194Y282778D01*
X227522Y284106D01*
X229043Y285211D01*
X230717Y286064D01*
X232504Y286645D01*
X233777Y286846D01*
X233777Y276523D01*
X223454Y276523D01*
G37*
%LPD*%
%LPC*%
G36*
X490823Y273477D02*
X490823Y273477D01*
X501146Y273477D01*
X500945Y272204D01*
X500364Y270417D01*
X499511Y268743D01*
X498406Y267222D01*
X497078Y265894D01*
X495557Y264789D01*
X493883Y263936D01*
X492096Y263355D01*
X490823Y263154D01*
X490823Y273477D01*
G37*
%LPD*%
%LPC*%
G36*
X299654Y276523D02*
X299654Y276523D01*
X299855Y277796D01*
X300436Y279583D01*
X301289Y281257D01*
X302394Y282778D01*
X303722Y284106D01*
X305243Y285211D01*
X306917Y286064D01*
X308704Y286645D01*
X309977Y286846D01*
X309977Y276523D01*
X299654Y276523D01*
G37*
%LPD*%
%LPC*%
G36*
X553654Y251123D02*
X553654Y251123D01*
X553855Y252396D01*
X554436Y254183D01*
X555289Y255857D01*
X556394Y257378D01*
X557722Y258706D01*
X559243Y259811D01*
X560917Y260664D01*
X562704Y261245D01*
X563977Y261446D01*
X563977Y251123D01*
X553654Y251123D01*
G37*
%LPD*%
%LPC*%
G36*
X477454Y276523D02*
X477454Y276523D01*
X477655Y277796D01*
X478236Y279583D01*
X479089Y281257D01*
X480194Y282778D01*
X481522Y284106D01*
X483043Y285211D01*
X484717Y286064D01*
X486504Y286645D01*
X487777Y286846D01*
X487777Y276523D01*
X477454Y276523D01*
G37*
%LPD*%
%LPC*%
G36*
X313023Y273477D02*
X313023Y273477D01*
X323346Y273477D01*
X323145Y272204D01*
X322564Y270417D01*
X321711Y268743D01*
X320606Y267222D01*
X319278Y265894D01*
X317757Y264789D01*
X316083Y263936D01*
X314296Y263355D01*
X313023Y263154D01*
X313023Y273477D01*
G37*
%LPD*%
%LPC*%
G36*
X375854Y251123D02*
X375854Y251123D01*
X376055Y252396D01*
X376636Y254183D01*
X377489Y255857D01*
X378594Y257378D01*
X379922Y258706D01*
X381443Y259811D01*
X383117Y260664D01*
X384904Y261245D01*
X386177Y261446D01*
X386177Y251123D01*
X375854Y251123D01*
G37*
%LPD*%
%LPC*%
G36*
X426654Y276523D02*
X426654Y276523D01*
X426855Y277796D01*
X427436Y279583D01*
X428289Y281257D01*
X429394Y282778D01*
X430722Y284106D01*
X432243Y285211D01*
X433917Y286064D01*
X435704Y286645D01*
X436977Y286846D01*
X436977Y276523D01*
X426654Y276523D01*
G37*
%LPD*%
%LPC*%
G36*
X186023Y248077D02*
X186023Y248077D01*
X196346Y248077D01*
X196145Y246804D01*
X195564Y245017D01*
X194711Y243343D01*
X193606Y241822D01*
X192278Y240494D01*
X190757Y239389D01*
X189083Y238536D01*
X187296Y237955D01*
X186023Y237754D01*
X186023Y248077D01*
G37*
%LPD*%
%LPC*%
G36*
X389223Y248077D02*
X389223Y248077D01*
X399546Y248077D01*
X399345Y246804D01*
X398764Y245017D01*
X397911Y243343D01*
X396806Y241822D01*
X395478Y240494D01*
X393957Y239389D01*
X392283Y238536D01*
X390496Y237955D01*
X389223Y237754D01*
X389223Y248077D01*
G37*
%LPD*%
%LPC*%
G36*
X567023Y248077D02*
X567023Y248077D01*
X577346Y248077D01*
X577145Y246804D01*
X576564Y245017D01*
X575711Y243343D01*
X574606Y241822D01*
X573278Y240494D01*
X571757Y239389D01*
X570083Y238536D01*
X568296Y237955D01*
X567023Y237754D01*
X567023Y248077D01*
G37*
%LPD*%
%LPC*%
G36*
X162304Y26455D02*
X162304Y26455D01*
X160517Y27036D01*
X158843Y27889D01*
X157322Y28994D01*
X155994Y30322D01*
X154889Y31843D01*
X154036Y33517D01*
X153455Y35304D01*
X153254Y36577D01*
X163577Y36577D01*
X163577Y26254D01*
X162304Y26455D01*
G37*
%LPD*%
%LPC*%
G36*
X562704Y237955D02*
X562704Y237955D01*
X560917Y238536D01*
X559243Y239389D01*
X557722Y240494D01*
X556394Y241822D01*
X555289Y243343D01*
X554436Y245017D01*
X553855Y246804D01*
X553654Y248077D01*
X563977Y248077D01*
X563977Y237754D01*
X562704Y237955D01*
G37*
%LPD*%
%LPC*%
G36*
X232504Y263355D02*
X232504Y263355D01*
X230717Y263936D01*
X229043Y264789D01*
X227522Y265894D01*
X226194Y267222D01*
X225089Y268743D01*
X224236Y270417D01*
X223655Y272204D01*
X223454Y273477D01*
X233777Y273477D01*
X233777Y263154D01*
X232504Y263355D01*
G37*
%LPD*%
%LPC*%
G36*
X384904Y237955D02*
X384904Y237955D01*
X383117Y238536D01*
X381443Y239389D01*
X379922Y240494D01*
X378594Y241822D01*
X377489Y243343D01*
X376636Y245017D01*
X376055Y246804D01*
X375854Y248077D01*
X386177Y248077D01*
X386177Y237754D01*
X384904Y237955D01*
G37*
%LPD*%
%LPC*%
G36*
X486504Y263355D02*
X486504Y263355D01*
X484717Y263936D01*
X483043Y264789D01*
X481522Y265894D01*
X480194Y267222D01*
X479089Y268743D01*
X478236Y270417D01*
X477655Y272204D01*
X477454Y273477D01*
X487777Y273477D01*
X487777Y263154D01*
X486504Y263355D01*
G37*
%LPD*%
%LPC*%
G36*
X181704Y237955D02*
X181704Y237955D01*
X179917Y238536D01*
X178243Y239389D01*
X176722Y240494D01*
X175394Y241822D01*
X174289Y243343D01*
X173436Y245017D01*
X172855Y246804D01*
X172654Y248077D01*
X182977Y248077D01*
X182977Y237754D01*
X181704Y237955D01*
G37*
%LPD*%
%LPC*%
G36*
X308704Y263355D02*
X308704Y263355D01*
X306917Y263936D01*
X305243Y264789D01*
X303722Y265894D01*
X302394Y267222D01*
X301289Y268743D01*
X300436Y270417D01*
X299855Y272204D01*
X299654Y273477D01*
X309977Y273477D01*
X309977Y263154D01*
X308704Y263355D01*
G37*
%LPD*%
%LPC*%
G36*
X435704Y263355D02*
X435704Y263355D01*
X433917Y263936D01*
X432243Y264789D01*
X430722Y265894D01*
X429394Y267222D01*
X428289Y268743D01*
X427436Y270417D01*
X426855Y272204D01*
X426654Y273477D01*
X436977Y273477D01*
X436977Y263154D01*
X435704Y263355D01*
G37*
%LPD*%
%LPC*%
G36*
X489299Y274999D02*
X489299Y274999D01*
X489299Y275001D01*
X489301Y275001D01*
X489301Y274999D01*
X489299Y274999D01*
G37*
%LPD*%
%LPC*%
G36*
X311499Y274999D02*
X311499Y274999D01*
X311499Y275001D01*
X311501Y275001D01*
X311501Y274999D01*
X311499Y274999D01*
G37*
%LPD*%
%LPC*%
G36*
X438499Y274999D02*
X438499Y274999D01*
X438499Y275001D01*
X438501Y275001D01*
X438501Y274999D01*
X438499Y274999D01*
G37*
%LPD*%
%LPC*%
G36*
X235299Y274999D02*
X235299Y274999D01*
X235299Y275001D01*
X235301Y275001D01*
X235301Y274999D01*
X235299Y274999D01*
G37*
%LPD*%
%LPC*%
G36*
X387699Y249599D02*
X387699Y249599D01*
X387699Y249601D01*
X387701Y249601D01*
X387701Y249599D01*
X387699Y249599D01*
G37*
%LPD*%
%LPC*%
G36*
X165099Y38099D02*
X165099Y38099D01*
X165099Y38101D01*
X165101Y38101D01*
X165101Y38099D01*
X165099Y38099D01*
G37*
%LPD*%
%LPC*%
G36*
X184499Y249599D02*
X184499Y249599D01*
X184499Y249601D01*
X184501Y249601D01*
X184501Y249599D01*
X184499Y249599D01*
G37*
%LPD*%
%LPC*%
G36*
X565499Y249599D02*
X565499Y249599D01*
X565499Y249601D01*
X565501Y249601D01*
X565501Y249599D01*
X565499Y249599D01*
G37*
%LPD*%
D10*
X82900Y249600D03*
X108300Y249600D03*
X133700Y249600D03*
X159100Y249600D03*
X184500Y249600D03*
X209900Y249600D03*
X235300Y249600D03*
X260700Y249600D03*
X286100Y249600D03*
X311500Y249600D03*
X336900Y249600D03*
X362300Y249600D03*
X387700Y249600D03*
X387700Y275000D03*
X362300Y275000D03*
X336900Y275000D03*
X311500Y275000D03*
X286100Y275000D03*
X260700Y275000D03*
X235300Y275000D03*
X209900Y275000D03*
X184500Y275000D03*
X159100Y275000D03*
X133700Y275000D03*
X108300Y275000D03*
X82900Y275000D03*
X413100Y249600D03*
X413100Y275000D03*
X438500Y249600D03*
X438500Y275000D03*
X463900Y249600D03*
X463900Y275000D03*
X489300Y249600D03*
X489300Y275000D03*
X514700Y249600D03*
X514700Y275000D03*
X540100Y249600D03*
X540100Y275000D03*
X565500Y249600D03*
X565500Y275000D03*
X76200Y177800D03*
X76200Y152400D03*
X76200Y127000D03*
X76200Y101600D03*
X76200Y76200D03*
X76200Y50800D03*
X215900Y38100D03*
X190500Y38100D03*
X165100Y38100D03*
D11*
X406400Y127000D03*
X413900Y122000D03*
X413900Y132000D03*
X398900Y132000D03*
X398900Y122000D03*
D12*
X236000Y162500D02*
X192500Y119000D01*
X192500Y40000D01*
X190500Y38100D01*
X121147Y274000D02*
X109300Y274000D01*
D13*
X330000Y162500D03*
D12*
X236000Y162500D01*
X228647Y162500D02*
X127164Y227257D01*
X126000Y228000D01*
X126000Y229000D01*
X228647Y162500D02*
X330000Y162500D01*
X109300Y274000D02*
X108300Y275000D01*
X120984Y233437D02*
X127164Y227257D01*
X121147Y256277D02*
X120984Y256440D01*
X120984Y233437D01*
X121147Y256277D02*
X121147Y274000D01*
X527500Y60000D02*
X532500Y65000D01*
X532500Y107500D01*
D13*
X527500Y60000D03*
X532500Y107500D03*
D12*
X487500Y98500D02*
X427400Y38400D01*
X487500Y98500D02*
X487500Y247500D01*
X489300Y249600D01*
X427400Y38400D02*
X216200Y38400D01*
X215900Y38100D01*
X75000Y52500D02*
X62500Y65000D01*
X62500Y227500D01*
X82500Y247500D01*
X75000Y52500D02*
X76200Y50800D01*
X82500Y247500D02*
X82900Y249600D01*
X107500Y157500D02*
X77500Y127500D01*
X107500Y157500D02*
X107500Y247500D01*
X77500Y127500D02*
X76200Y127000D01*
X107500Y247500D02*
X108300Y249600D01*
D13*
X146000Y201000D03*
X153000Y179000D03*
X284000Y202000D03*
X527000Y187000D03*
X609000Y203000D03*
X521000Y149000D03*
X384000Y204000D03*
X464000Y33000D03*
X207000Y213000D03*
X289000Y98000D03*
X153000Y135000D03*
X152000Y97000D03*
X133000Y28000D03*
X298000Y25000D03*
X372000Y87000D03*
X422000Y92000D03*
X31000Y207000D03*
X82000Y212000D03*
X33000Y100000D03*
X457000Y130000D03*
X406000Y131000D03*
M02*
