G04 EAGLE Gerber RS-274X export*
G75*
%MOMM*%
%FSLAX34Y34*%
%LPD*%
%AMOC8*
5,1,8,0,0,1.08239X$1,22.5*%
G01*
%ADD10C,1.879600*%
%ADD11C,0.708000*%
%ADD12C,0.152400*%

G36*
X603253Y11090D02*
X603253Y11090D01*
X603299Y11097D01*
X603347Y11096D01*
X603420Y11117D01*
X603495Y11130D01*
X603537Y11152D01*
X603583Y11165D01*
X603645Y11209D01*
X603712Y11245D01*
X603745Y11280D01*
X603784Y11307D01*
X603829Y11368D01*
X603882Y11424D01*
X603901Y11467D01*
X603930Y11505D01*
X603953Y11578D01*
X603985Y11647D01*
X603990Y11694D01*
X604004Y11739D01*
X604003Y11816D01*
X604012Y11892D01*
X604001Y11938D01*
X604001Y11985D01*
X603975Y12057D01*
X603959Y12132D01*
X603935Y12172D01*
X603919Y12217D01*
X603872Y12277D01*
X603832Y12343D01*
X603796Y12373D01*
X603767Y12411D01*
X603662Y12488D01*
X603645Y12502D01*
X603640Y12505D01*
X603632Y12510D01*
X599551Y14866D01*
X594866Y19551D01*
X591554Y25288D01*
X589839Y31688D01*
X589839Y38312D01*
X591554Y44712D01*
X594866Y50449D01*
X599551Y55134D01*
X605288Y58446D01*
X611688Y60161D01*
X618312Y60161D01*
X624712Y58446D01*
X630449Y55134D01*
X635134Y50449D01*
X637969Y45538D01*
X637999Y45502D01*
X638020Y45460D01*
X638076Y45407D01*
X638125Y45347D01*
X638164Y45323D01*
X638198Y45290D01*
X638268Y45258D01*
X638333Y45217D01*
X638379Y45206D01*
X638421Y45186D01*
X638497Y45177D01*
X638572Y45159D01*
X638619Y45163D01*
X638665Y45158D01*
X638741Y45174D01*
X638817Y45181D01*
X638860Y45200D01*
X638906Y45210D01*
X638972Y45249D01*
X639043Y45280D01*
X639077Y45311D01*
X639117Y45335D01*
X639167Y45393D01*
X639225Y45445D01*
X639247Y45486D01*
X639278Y45521D01*
X639307Y45593D01*
X639344Y45660D01*
X639353Y45706D01*
X639371Y45749D01*
X639386Y45882D01*
X639389Y45902D01*
X639389Y45907D01*
X639390Y45916D01*
X640082Y252607D01*
X640078Y252632D01*
X640080Y252658D01*
X640058Y252753D01*
X640043Y252850D01*
X640031Y252873D01*
X640025Y252897D01*
X639974Y252981D01*
X639928Y253068D01*
X639910Y253086D01*
X639897Y253107D01*
X639822Y253170D01*
X639751Y253238D01*
X639727Y253249D01*
X639708Y253265D01*
X639617Y253301D01*
X639528Y253342D01*
X639503Y253345D01*
X639479Y253354D01*
X639381Y253359D01*
X639283Y253370D01*
X639259Y253365D01*
X639233Y253366D01*
X639139Y253339D01*
X639043Y253319D01*
X639021Y253306D01*
X638997Y253299D01*
X638916Y253243D01*
X638831Y253193D01*
X638815Y253174D01*
X638794Y253160D01*
X638735Y253081D01*
X638671Y253007D01*
X638661Y252983D01*
X638646Y252963D01*
X638585Y252807D01*
X638446Y252288D01*
X635134Y246551D01*
X630449Y241866D01*
X624712Y238554D01*
X618312Y236839D01*
X611688Y236839D01*
X605288Y238554D01*
X599551Y241866D01*
X594866Y246551D01*
X591554Y252288D01*
X589839Y258688D01*
X589839Y265312D01*
X591554Y271712D01*
X594866Y277449D01*
X599551Y282134D01*
X605288Y285446D01*
X611688Y287161D01*
X618312Y287161D01*
X624712Y285446D01*
X630449Y282134D01*
X635134Y277449D01*
X638446Y271712D01*
X638647Y270961D01*
X638657Y270941D01*
X638660Y270918D01*
X638707Y270829D01*
X638748Y270737D01*
X638764Y270720D01*
X638774Y270700D01*
X638847Y270631D01*
X638916Y270557D01*
X638936Y270546D01*
X638952Y270530D01*
X639044Y270487D01*
X639132Y270440D01*
X639154Y270436D01*
X639175Y270426D01*
X639275Y270415D01*
X639374Y270397D01*
X639397Y270401D01*
X639419Y270398D01*
X639518Y270419D01*
X639617Y270434D01*
X639638Y270445D01*
X639660Y270449D01*
X639746Y270501D01*
X639836Y270547D01*
X639852Y270563D01*
X639871Y270575D01*
X639937Y270651D01*
X640007Y270723D01*
X640017Y270744D01*
X640032Y270761D01*
X640070Y270855D01*
X640113Y270945D01*
X640116Y270968D01*
X640125Y270989D01*
X640144Y271156D01*
X640165Y277493D01*
X640165Y277494D01*
X640172Y279666D01*
X640169Y279687D01*
X640170Y279725D01*
X640063Y281149D01*
X640061Y281155D01*
X640062Y281161D01*
X640028Y281325D01*
X639156Y284035D01*
X639139Y284067D01*
X639131Y284102D01*
X639048Y284248D01*
X637380Y286554D01*
X637354Y286579D01*
X637335Y286610D01*
X637211Y286723D01*
X634911Y288399D01*
X634878Y288416D01*
X634851Y288439D01*
X634698Y288508D01*
X631991Y289390D01*
X631986Y289390D01*
X631980Y289393D01*
X631816Y289425D01*
X630392Y289537D01*
X630370Y289535D01*
X630332Y289539D01*
X20000Y289539D01*
X19978Y289536D01*
X19940Y289537D01*
X18520Y289425D01*
X18515Y289424D01*
X18509Y289424D01*
X18345Y289390D01*
X15643Y288513D01*
X15612Y288496D01*
X15577Y288487D01*
X15431Y288404D01*
X13133Y286735D01*
X13108Y286710D01*
X13078Y286691D01*
X12965Y286567D01*
X11296Y284269D01*
X11279Y284237D01*
X11257Y284209D01*
X11187Y284057D01*
X10310Y281355D01*
X10309Y281350D01*
X10306Y281345D01*
X10275Y281180D01*
X10163Y279760D01*
X10165Y279738D01*
X10161Y279700D01*
X10161Y272140D01*
X10168Y272092D01*
X10167Y272044D01*
X10188Y271972D01*
X10200Y271897D01*
X10223Y271855D01*
X10237Y271808D01*
X10280Y271746D01*
X10316Y271679D01*
X10350Y271646D01*
X10378Y271607D01*
X10439Y271562D01*
X10494Y271510D01*
X10537Y271490D01*
X10576Y271462D01*
X10648Y271438D01*
X10717Y271406D01*
X10765Y271401D01*
X10810Y271387D01*
X10886Y271388D01*
X10961Y271379D01*
X11008Y271390D01*
X11056Y271390D01*
X11128Y271416D01*
X11202Y271432D01*
X11243Y271456D01*
X11288Y271472D01*
X11348Y271519D01*
X11413Y271558D01*
X11444Y271594D01*
X11482Y271624D01*
X11558Y271728D01*
X11573Y271745D01*
X11575Y271751D01*
X11581Y271759D01*
X14866Y277449D01*
X19551Y282134D01*
X25288Y285446D01*
X31688Y287161D01*
X38312Y287161D01*
X44712Y285446D01*
X50449Y282134D01*
X55134Y277449D01*
X58446Y271712D01*
X60161Y265312D01*
X60161Y258688D01*
X58446Y252288D01*
X55134Y246551D01*
X50449Y241866D01*
X44712Y238554D01*
X38312Y236839D01*
X31688Y236839D01*
X25288Y238554D01*
X19551Y241866D01*
X14866Y246551D01*
X11581Y252241D01*
X11551Y252278D01*
X11528Y252321D01*
X11473Y252373D01*
X11425Y252431D01*
X11385Y252457D01*
X11350Y252490D01*
X11281Y252522D01*
X11217Y252562D01*
X11170Y252573D01*
X11127Y252594D01*
X11052Y252602D01*
X10978Y252620D01*
X10930Y252615D01*
X10883Y252621D01*
X10808Y252605D01*
X10733Y252598D01*
X10689Y252579D01*
X10642Y252568D01*
X10577Y252529D01*
X10508Y252499D01*
X10472Y252467D01*
X10431Y252442D01*
X10382Y252385D01*
X10326Y252334D01*
X10302Y252292D01*
X10271Y252255D01*
X10243Y252185D01*
X10206Y252119D01*
X10197Y252072D01*
X10179Y252027D01*
X10165Y251899D01*
X10161Y251877D01*
X10162Y251870D01*
X10161Y251860D01*
X10161Y45140D01*
X10168Y45092D01*
X10167Y45044D01*
X10188Y44972D01*
X10200Y44897D01*
X10223Y44854D01*
X10237Y44808D01*
X10280Y44746D01*
X10316Y44679D01*
X10350Y44646D01*
X10378Y44607D01*
X10439Y44562D01*
X10494Y44510D01*
X10537Y44490D01*
X10576Y44461D01*
X10648Y44438D01*
X10717Y44406D01*
X10765Y44401D01*
X10810Y44387D01*
X10886Y44388D01*
X10961Y44379D01*
X11008Y44390D01*
X11056Y44390D01*
X11128Y44415D01*
X11202Y44432D01*
X11243Y44456D01*
X11288Y44472D01*
X11348Y44519D01*
X11413Y44558D01*
X11444Y44594D01*
X11482Y44624D01*
X11558Y44728D01*
X11573Y44745D01*
X11575Y44751D01*
X11581Y44759D01*
X14866Y50449D01*
X19551Y55134D01*
X25288Y58446D01*
X31688Y60161D01*
X38312Y60161D01*
X44712Y58446D01*
X50449Y55134D01*
X55134Y50449D01*
X58446Y44712D01*
X60161Y38312D01*
X60161Y31688D01*
X58446Y25288D01*
X55134Y19551D01*
X50449Y14866D01*
X44880Y11651D01*
X44842Y11620D01*
X44799Y11597D01*
X44747Y11543D01*
X44689Y11495D01*
X44664Y11454D01*
X44630Y11419D01*
X44599Y11351D01*
X44559Y11287D01*
X44547Y11240D01*
X44527Y11196D01*
X44519Y11121D01*
X44501Y11048D01*
X44505Y10999D01*
X44500Y10951D01*
X44516Y10878D01*
X44523Y10803D01*
X44542Y10758D01*
X44553Y10711D01*
X44591Y10646D01*
X44622Y10577D01*
X44654Y10541D01*
X44679Y10500D01*
X44736Y10451D01*
X44787Y10395D01*
X44830Y10372D01*
X44866Y10340D01*
X44936Y10312D01*
X45002Y10276D01*
X45050Y10267D01*
X45095Y10249D01*
X45221Y10235D01*
X45244Y10231D01*
X45251Y10232D01*
X45262Y10230D01*
X603253Y11090D01*
G37*
%LPC*%
G36*
X74027Y39877D02*
X74027Y39877D01*
X70013Y41540D01*
X66940Y44613D01*
X65277Y48627D01*
X65277Y52973D01*
X66940Y56987D01*
X70013Y60060D01*
X74027Y61723D01*
X78373Y61723D01*
X82387Y60060D01*
X82574Y59873D01*
X82590Y59862D01*
X82603Y59846D01*
X82690Y59790D01*
X82774Y59730D01*
X82793Y59724D01*
X82809Y59713D01*
X82910Y59688D01*
X83009Y59657D01*
X83029Y59658D01*
X83048Y59653D01*
X83151Y59661D01*
X83255Y59664D01*
X83273Y59671D01*
X83293Y59672D01*
X83388Y59712D01*
X83486Y59748D01*
X83501Y59761D01*
X83519Y59768D01*
X83650Y59873D01*
X89946Y66169D01*
X89999Y66243D01*
X90059Y66312D01*
X90071Y66343D01*
X90090Y66369D01*
X90117Y66456D01*
X90151Y66541D01*
X90155Y66582D01*
X90162Y66604D01*
X90161Y66636D01*
X90169Y66707D01*
X90169Y234029D01*
X90155Y234119D01*
X90147Y234210D01*
X90135Y234239D01*
X90130Y234271D01*
X90108Y234312D01*
X90107Y234318D01*
X90092Y234343D01*
X90087Y234352D01*
X90051Y234436D01*
X90025Y234468D01*
X90014Y234489D01*
X89991Y234511D01*
X89980Y234529D01*
X89969Y234539D01*
X89946Y234567D01*
X85972Y238541D01*
X85877Y238609D01*
X85783Y238679D01*
X85777Y238681D01*
X85772Y238685D01*
X85661Y238719D01*
X85549Y238755D01*
X85543Y238755D01*
X85537Y238757D01*
X85421Y238754D01*
X85304Y238753D01*
X85296Y238751D01*
X85291Y238751D01*
X85274Y238744D01*
X85142Y238706D01*
X85073Y238677D01*
X80727Y238677D01*
X76713Y240340D01*
X73640Y243413D01*
X71977Y247427D01*
X71977Y251773D01*
X73640Y255787D01*
X76713Y258860D01*
X80727Y260523D01*
X85073Y260523D01*
X89087Y258860D01*
X92160Y255787D01*
X93823Y251773D01*
X93823Y247427D01*
X92160Y243413D01*
X91839Y243092D01*
X91828Y243076D01*
X91812Y243064D01*
X91756Y242976D01*
X91696Y242892D01*
X91690Y242873D01*
X91679Y242857D01*
X91654Y242756D01*
X91623Y242657D01*
X91624Y242637D01*
X91619Y242618D01*
X91627Y242515D01*
X91630Y242411D01*
X91637Y242393D01*
X91638Y242373D01*
X91678Y242278D01*
X91714Y242180D01*
X91727Y242165D01*
X91734Y242147D01*
X91839Y242016D01*
X96775Y237080D01*
X96775Y235712D01*
X96778Y235692D01*
X96776Y235673D01*
X96798Y235571D01*
X96814Y235469D01*
X96824Y235452D01*
X96828Y235432D01*
X96881Y235343D01*
X96930Y235252D01*
X96944Y235238D01*
X96954Y235221D01*
X97033Y235154D01*
X97108Y235082D01*
X97126Y235074D01*
X97141Y235061D01*
X97237Y235022D01*
X97331Y234979D01*
X97351Y234977D01*
X97369Y234969D01*
X97536Y234951D01*
X270605Y234951D01*
X270695Y234965D01*
X270786Y234973D01*
X270815Y234985D01*
X270847Y234990D01*
X270928Y235033D01*
X271012Y235069D01*
X271044Y235095D01*
X271065Y235106D01*
X271087Y235129D01*
X271143Y235174D01*
X276890Y240921D01*
X276943Y240995D01*
X277003Y241064D01*
X277015Y241095D01*
X277034Y241121D01*
X277061Y241208D01*
X277095Y241293D01*
X277099Y241334D01*
X277106Y241356D01*
X277105Y241388D01*
X277113Y241459D01*
X277113Y242824D01*
X277099Y242914D01*
X277091Y243005D01*
X277079Y243035D01*
X277074Y243067D01*
X277031Y243148D01*
X276995Y243232D01*
X276969Y243264D01*
X276958Y243284D01*
X276935Y243307D01*
X276890Y243363D01*
X276840Y243413D01*
X275177Y247427D01*
X275177Y251773D01*
X276840Y255787D01*
X279913Y258860D01*
X283927Y260523D01*
X288273Y260523D01*
X292287Y258860D01*
X295360Y255787D01*
X297023Y251773D01*
X297023Y247427D01*
X295360Y243413D01*
X292287Y240340D01*
X288273Y238677D01*
X284303Y238677D01*
X284213Y238663D01*
X284122Y238655D01*
X284093Y238643D01*
X284061Y238638D01*
X283980Y238595D01*
X283896Y238559D01*
X283864Y238533D01*
X283843Y238522D01*
X283821Y238499D01*
X283765Y238454D01*
X273656Y228345D01*
X97536Y228345D01*
X97516Y228342D01*
X97497Y228344D01*
X97395Y228322D01*
X97293Y228306D01*
X97276Y228296D01*
X97256Y228292D01*
X97167Y228239D01*
X97076Y228190D01*
X97062Y228176D01*
X97045Y228166D01*
X96978Y228087D01*
X96906Y228012D01*
X96898Y227994D01*
X96885Y227979D01*
X96846Y227883D01*
X96803Y227789D01*
X96801Y227769D01*
X96793Y227751D01*
X96775Y227584D01*
X96775Y63656D01*
X94617Y61498D01*
X87180Y54062D01*
X87113Y53967D01*
X87042Y53873D01*
X87040Y53867D01*
X87037Y53862D01*
X87003Y53751D01*
X86966Y53639D01*
X86966Y53633D01*
X86964Y53627D01*
X86967Y53510D01*
X86969Y53393D01*
X86971Y53386D01*
X86971Y53381D01*
X86977Y53363D01*
X87015Y53232D01*
X87123Y52973D01*
X87123Y48627D01*
X85460Y44613D01*
X82387Y41540D01*
X78373Y39877D01*
X74027Y39877D01*
G37*
%LPD*%
%LPC*%
G36*
X213727Y27177D02*
X213727Y27177D01*
X209713Y28840D01*
X206640Y31913D01*
X204977Y35927D01*
X204977Y40273D01*
X206640Y44287D01*
X209713Y47360D01*
X213727Y49023D01*
X218073Y49023D01*
X222087Y47360D01*
X225222Y44225D01*
X225229Y44213D01*
X225234Y44209D01*
X225237Y44204D01*
X225326Y44130D01*
X225416Y44053D01*
X225422Y44051D01*
X225426Y44047D01*
X225534Y44006D01*
X225644Y43961D01*
X225651Y43960D01*
X225656Y43959D01*
X225673Y43958D01*
X225811Y43943D01*
X227933Y43943D01*
X228023Y43957D01*
X228114Y43965D01*
X228143Y43977D01*
X228175Y43982D01*
X228256Y44025D01*
X228340Y44061D01*
X228372Y44087D01*
X228393Y44098D01*
X228415Y44121D01*
X228471Y44166D01*
X419256Y234951D01*
X473805Y234951D01*
X473895Y234965D01*
X473986Y234973D01*
X474015Y234985D01*
X474047Y234990D01*
X474128Y235033D01*
X474212Y235069D01*
X474244Y235095D01*
X474265Y235106D01*
X474287Y235129D01*
X474343Y235174D01*
X480090Y240921D01*
X480143Y240995D01*
X480203Y241064D01*
X480215Y241095D01*
X480234Y241121D01*
X480261Y241208D01*
X480295Y241293D01*
X480299Y241334D01*
X480306Y241356D01*
X480305Y241388D01*
X480313Y241459D01*
X480313Y242824D01*
X480299Y242914D01*
X480291Y243005D01*
X480279Y243035D01*
X480274Y243067D01*
X480231Y243148D01*
X480195Y243232D01*
X480169Y243264D01*
X480158Y243284D01*
X480135Y243307D01*
X480090Y243363D01*
X480040Y243413D01*
X478377Y247427D01*
X478377Y251773D01*
X480040Y255787D01*
X483113Y258860D01*
X487127Y260523D01*
X491473Y260523D01*
X495487Y258860D01*
X498560Y255787D01*
X500223Y251773D01*
X500223Y247427D01*
X498560Y243413D01*
X495487Y240340D01*
X491473Y238677D01*
X487503Y238677D01*
X487413Y238663D01*
X487322Y238655D01*
X487293Y238643D01*
X487261Y238638D01*
X487180Y238595D01*
X487096Y238559D01*
X487064Y238533D01*
X487043Y238522D01*
X487021Y238499D01*
X486965Y238454D01*
X476856Y228345D01*
X422307Y228345D01*
X422217Y228331D01*
X422126Y228323D01*
X422097Y228311D01*
X422065Y228306D01*
X421984Y228263D01*
X421900Y228227D01*
X421868Y228201D01*
X421847Y228190D01*
X421825Y228167D01*
X421769Y228122D01*
X230984Y37337D01*
X227584Y37337D01*
X227564Y37334D01*
X227545Y37336D01*
X227443Y37314D01*
X227341Y37298D01*
X227324Y37288D01*
X227304Y37284D01*
X227215Y37231D01*
X227124Y37182D01*
X227110Y37168D01*
X227093Y37158D01*
X227026Y37079D01*
X226954Y37004D01*
X226946Y36986D01*
X226933Y36971D01*
X226894Y36875D01*
X226851Y36781D01*
X226849Y36761D01*
X226841Y36743D01*
X226823Y36576D01*
X226823Y35927D01*
X225160Y31913D01*
X222087Y28840D01*
X218073Y27177D01*
X213727Y27177D01*
G37*
%LPD*%
%LPC*%
G36*
X396802Y116935D02*
X396802Y116935D01*
X393835Y119902D01*
X393835Y124098D01*
X396199Y126462D01*
X396211Y126478D01*
X396226Y126490D01*
X396282Y126578D01*
X396343Y126661D01*
X396348Y126680D01*
X396359Y126697D01*
X396385Y126798D01*
X396415Y126897D01*
X396414Y126916D01*
X396419Y126936D01*
X396411Y127039D01*
X396409Y127142D01*
X396402Y127161D01*
X396400Y127181D01*
X396360Y127276D01*
X396324Y127373D01*
X396312Y127389D01*
X396304Y127407D01*
X396199Y127538D01*
X393835Y129902D01*
X393835Y134098D01*
X396802Y137065D01*
X400998Y137065D01*
X403965Y134098D01*
X403965Y132826D01*
X403968Y132806D01*
X403966Y132787D01*
X403988Y132685D01*
X404004Y132583D01*
X404014Y132566D01*
X404018Y132546D01*
X404071Y132457D01*
X404120Y132366D01*
X404134Y132352D01*
X404144Y132335D01*
X404223Y132268D01*
X404298Y132196D01*
X404316Y132188D01*
X404331Y132175D01*
X404427Y132136D01*
X404521Y132093D01*
X404541Y132091D01*
X404559Y132083D01*
X404726Y132065D01*
X408074Y132065D01*
X408094Y132068D01*
X408113Y132066D01*
X408215Y132088D01*
X408317Y132104D01*
X408334Y132114D01*
X408354Y132118D01*
X408443Y132171D01*
X408534Y132220D01*
X408548Y132234D01*
X408565Y132244D01*
X408632Y132323D01*
X408704Y132398D01*
X408712Y132416D01*
X408725Y132431D01*
X408764Y132527D01*
X408807Y132621D01*
X408809Y132641D01*
X408817Y132659D01*
X408835Y132826D01*
X408835Y134098D01*
X411802Y137065D01*
X415998Y137065D01*
X418965Y134098D01*
X418965Y129902D01*
X416601Y127538D01*
X416589Y127522D01*
X416574Y127510D01*
X416518Y127422D01*
X416457Y127339D01*
X416452Y127320D01*
X416441Y127303D01*
X416415Y127202D01*
X416385Y127103D01*
X416386Y127084D01*
X416381Y127064D01*
X416389Y126961D01*
X416391Y126858D01*
X416398Y126839D01*
X416400Y126819D01*
X416440Y126724D01*
X416476Y126627D01*
X416488Y126611D01*
X416496Y126593D01*
X416601Y126462D01*
X418965Y124098D01*
X418965Y119902D01*
X415998Y116935D01*
X411802Y116935D01*
X408835Y119902D01*
X408835Y121174D01*
X408832Y121194D01*
X408834Y121213D01*
X408812Y121315D01*
X408796Y121417D01*
X408786Y121434D01*
X408782Y121454D01*
X408729Y121543D01*
X408680Y121634D01*
X408666Y121648D01*
X408656Y121665D01*
X408577Y121732D01*
X408502Y121804D01*
X408484Y121812D01*
X408469Y121825D01*
X408373Y121864D01*
X408279Y121907D01*
X408259Y121909D01*
X408241Y121917D01*
X408074Y121935D01*
X404726Y121935D01*
X404706Y121932D01*
X404687Y121934D01*
X404585Y121912D01*
X404483Y121896D01*
X404466Y121886D01*
X404446Y121882D01*
X404357Y121829D01*
X404266Y121780D01*
X404252Y121766D01*
X404235Y121756D01*
X404168Y121677D01*
X404096Y121602D01*
X404088Y121584D01*
X404075Y121569D01*
X404036Y121473D01*
X403993Y121379D01*
X403991Y121359D01*
X403983Y121341D01*
X403965Y121174D01*
X403965Y119902D01*
X400998Y116935D01*
X396802Y116935D01*
G37*
%LPD*%
%LPC*%
G36*
X74027Y116077D02*
X74027Y116077D01*
X70013Y117740D01*
X66940Y120813D01*
X65277Y124827D01*
X65277Y129173D01*
X66940Y133187D01*
X70013Y136260D01*
X74027Y137923D01*
X78373Y137923D01*
X82387Y136260D01*
X85460Y133187D01*
X87123Y129173D01*
X87123Y124827D01*
X85460Y120813D01*
X82387Y117740D01*
X78373Y116077D01*
X74027Y116077D01*
G37*
%LPD*%
%LPC*%
G36*
X512827Y131299D02*
X512827Y131299D01*
X508813Y132962D01*
X505740Y136035D01*
X504077Y140049D01*
X504077Y144395D01*
X505740Y148409D01*
X508813Y151482D01*
X512827Y153145D01*
X517173Y153145D01*
X521187Y151482D01*
X524260Y148409D01*
X525923Y144395D01*
X525923Y140049D01*
X524260Y136035D01*
X521187Y132962D01*
X517173Y131299D01*
X512827Y131299D01*
G37*
%LPD*%
%LPC*%
G36*
X74027Y141477D02*
X74027Y141477D01*
X70013Y143140D01*
X66940Y146213D01*
X65277Y150227D01*
X65277Y154573D01*
X66940Y158587D01*
X70013Y161660D01*
X74027Y163323D01*
X78373Y163323D01*
X82387Y161660D01*
X85460Y158587D01*
X87123Y154573D01*
X87123Y150227D01*
X85460Y146213D01*
X82387Y143140D01*
X78373Y141477D01*
X74027Y141477D01*
G37*
%LPD*%
%LPC*%
G36*
X512827Y160255D02*
X512827Y160255D01*
X508813Y161918D01*
X505740Y164991D01*
X504077Y169005D01*
X504077Y173351D01*
X505740Y177365D01*
X508813Y180438D01*
X512827Y182101D01*
X517173Y182101D01*
X521187Y180438D01*
X524260Y177365D01*
X525923Y173351D01*
X525923Y169005D01*
X524260Y164991D01*
X521187Y161918D01*
X517173Y160255D01*
X512827Y160255D01*
G37*
%LPD*%
%LPC*%
G36*
X74027Y166877D02*
X74027Y166877D01*
X70013Y168540D01*
X66940Y171613D01*
X65277Y175627D01*
X65277Y179973D01*
X66940Y183987D01*
X70013Y187060D01*
X74027Y188723D01*
X78373Y188723D01*
X82387Y187060D01*
X85460Y183987D01*
X87123Y179973D01*
X87123Y175627D01*
X85460Y171613D01*
X82387Y168540D01*
X78373Y166877D01*
X74027Y166877D01*
G37*
%LPD*%
%LPC*%
G36*
X334727Y238677D02*
X334727Y238677D01*
X330713Y240340D01*
X327640Y243413D01*
X325977Y247427D01*
X325977Y251773D01*
X327640Y255787D01*
X330713Y258860D01*
X334727Y260523D01*
X339073Y260523D01*
X343087Y258860D01*
X346160Y255787D01*
X347823Y251773D01*
X347823Y247427D01*
X346160Y243413D01*
X343087Y240340D01*
X339073Y238677D01*
X334727Y238677D01*
G37*
%LPD*%
%LPC*%
G36*
X436327Y238677D02*
X436327Y238677D01*
X432313Y240340D01*
X429240Y243413D01*
X427577Y247427D01*
X427577Y251773D01*
X429240Y255787D01*
X432313Y258860D01*
X436327Y260523D01*
X440673Y260523D01*
X444687Y258860D01*
X447760Y255787D01*
X449423Y251773D01*
X449423Y247427D01*
X447760Y243413D01*
X444687Y240340D01*
X440673Y238677D01*
X436327Y238677D01*
G37*
%LPD*%
%LPC*%
G36*
X258527Y264077D02*
X258527Y264077D01*
X254513Y265740D01*
X251440Y268813D01*
X249777Y272827D01*
X249777Y277173D01*
X251440Y281187D01*
X254513Y284260D01*
X258527Y285923D01*
X262873Y285923D01*
X266887Y284260D01*
X269960Y281187D01*
X271623Y277173D01*
X271623Y272827D01*
X269960Y268813D01*
X266887Y265740D01*
X262873Y264077D01*
X258527Y264077D01*
G37*
%LPD*%
%LPC*%
G36*
X283927Y264077D02*
X283927Y264077D01*
X279913Y265740D01*
X276840Y268813D01*
X275177Y272827D01*
X275177Y277173D01*
X276840Y281187D01*
X279913Y284260D01*
X283927Y285923D01*
X288273Y285923D01*
X292287Y284260D01*
X295360Y281187D01*
X297023Y277173D01*
X297023Y272827D01*
X295360Y268813D01*
X292287Y265740D01*
X288273Y264077D01*
X283927Y264077D01*
G37*
%LPD*%
%LPC*%
G36*
X207727Y264077D02*
X207727Y264077D01*
X203713Y265740D01*
X200640Y268813D01*
X198977Y272827D01*
X198977Y277173D01*
X200640Y281187D01*
X203713Y284260D01*
X207727Y285923D01*
X212073Y285923D01*
X216087Y284260D01*
X219160Y281187D01*
X220823Y277173D01*
X220823Y272827D01*
X219160Y268813D01*
X216087Y265740D01*
X212073Y264077D01*
X207727Y264077D01*
G37*
%LPD*%
%LPC*%
G36*
X182327Y264077D02*
X182327Y264077D01*
X178313Y265740D01*
X175240Y268813D01*
X173577Y272827D01*
X173577Y277173D01*
X175240Y281187D01*
X178313Y284260D01*
X182327Y285923D01*
X186673Y285923D01*
X190687Y284260D01*
X193760Y281187D01*
X195423Y277173D01*
X195423Y272827D01*
X193760Y268813D01*
X190687Y265740D01*
X186673Y264077D01*
X182327Y264077D01*
G37*
%LPD*%
%LPC*%
G36*
X461727Y264077D02*
X461727Y264077D01*
X457713Y265740D01*
X454640Y268813D01*
X452977Y272827D01*
X452977Y277173D01*
X454640Y281187D01*
X457713Y284260D01*
X461727Y285923D01*
X466073Y285923D01*
X470087Y284260D01*
X473160Y281187D01*
X474823Y277173D01*
X474823Y272827D01*
X473160Y268813D01*
X470087Y265740D01*
X466073Y264077D01*
X461727Y264077D01*
G37*
%LPD*%
%LPC*%
G36*
X156927Y264077D02*
X156927Y264077D01*
X152913Y265740D01*
X149840Y268813D01*
X148177Y272827D01*
X148177Y277173D01*
X149840Y281187D01*
X152913Y284260D01*
X156927Y285923D01*
X161273Y285923D01*
X165287Y284260D01*
X168360Y281187D01*
X170023Y277173D01*
X170023Y272827D01*
X168360Y268813D01*
X165287Y265740D01*
X161273Y264077D01*
X156927Y264077D01*
G37*
%LPD*%
%LPC*%
G36*
X106127Y264077D02*
X106127Y264077D01*
X102113Y265740D01*
X99040Y268813D01*
X97377Y272827D01*
X97377Y277173D01*
X99040Y281187D01*
X102113Y284260D01*
X106127Y285923D01*
X110473Y285923D01*
X114487Y284260D01*
X117560Y281187D01*
X119223Y277173D01*
X119223Y272827D01*
X117560Y268813D01*
X114487Y265740D01*
X110473Y264077D01*
X106127Y264077D01*
G37*
%LPD*%
%LPC*%
G36*
X80727Y264077D02*
X80727Y264077D01*
X76713Y265740D01*
X73640Y268813D01*
X71977Y272827D01*
X71977Y277173D01*
X73640Y281187D01*
X76713Y284260D01*
X80727Y285923D01*
X85073Y285923D01*
X89087Y284260D01*
X92160Y281187D01*
X93823Y277173D01*
X93823Y272827D01*
X92160Y268813D01*
X89087Y265740D01*
X85073Y264077D01*
X80727Y264077D01*
G37*
%LPD*%
%LPC*%
G36*
X334727Y264077D02*
X334727Y264077D01*
X330713Y265740D01*
X327640Y268813D01*
X325977Y272827D01*
X325977Y277173D01*
X327640Y281187D01*
X330713Y284260D01*
X334727Y285923D01*
X339073Y285923D01*
X343087Y284260D01*
X346160Y281187D01*
X347823Y277173D01*
X347823Y272827D01*
X346160Y268813D01*
X343087Y265740D01*
X339073Y264077D01*
X334727Y264077D01*
G37*
%LPD*%
%LPC*%
G36*
X563327Y264077D02*
X563327Y264077D01*
X559313Y265740D01*
X556240Y268813D01*
X554577Y272827D01*
X554577Y277173D01*
X556240Y281187D01*
X559313Y284260D01*
X563327Y285923D01*
X567673Y285923D01*
X571687Y284260D01*
X574760Y281187D01*
X576423Y277173D01*
X576423Y272827D01*
X574760Y268813D01*
X571687Y265740D01*
X567673Y264077D01*
X563327Y264077D01*
G37*
%LPD*%
%LPC*%
G36*
X537927Y264077D02*
X537927Y264077D01*
X533913Y265740D01*
X530840Y268813D01*
X529177Y272827D01*
X529177Y277173D01*
X530840Y281187D01*
X533913Y284260D01*
X537927Y285923D01*
X542273Y285923D01*
X546287Y284260D01*
X549360Y281187D01*
X551023Y277173D01*
X551023Y272827D01*
X549360Y268813D01*
X546287Y265740D01*
X542273Y264077D01*
X537927Y264077D01*
G37*
%LPD*%
%LPC*%
G36*
X512527Y264077D02*
X512527Y264077D01*
X508513Y265740D01*
X505440Y268813D01*
X503777Y272827D01*
X503777Y277173D01*
X505440Y281187D01*
X508513Y284260D01*
X512527Y285923D01*
X516873Y285923D01*
X520887Y284260D01*
X523960Y281187D01*
X525623Y277173D01*
X525623Y272827D01*
X523960Y268813D01*
X520887Y265740D01*
X516873Y264077D01*
X512527Y264077D01*
G37*
%LPD*%
%LPC*%
G36*
X385527Y264077D02*
X385527Y264077D01*
X381513Y265740D01*
X378440Y268813D01*
X376777Y272827D01*
X376777Y277173D01*
X378440Y281187D01*
X381513Y284260D01*
X385527Y285923D01*
X389873Y285923D01*
X393887Y284260D01*
X396960Y281187D01*
X398623Y277173D01*
X398623Y272827D01*
X396960Y268813D01*
X393887Y265740D01*
X389873Y264077D01*
X385527Y264077D01*
G37*
%LPD*%
%LPC*%
G36*
X410927Y264077D02*
X410927Y264077D01*
X406913Y265740D01*
X403840Y268813D01*
X402177Y272827D01*
X402177Y277173D01*
X403840Y281187D01*
X406913Y284260D01*
X410927Y285923D01*
X415273Y285923D01*
X419287Y284260D01*
X422360Y281187D01*
X424023Y277173D01*
X424023Y272827D01*
X422360Y268813D01*
X419287Y265740D01*
X415273Y264077D01*
X410927Y264077D01*
G37*
%LPD*%
%LPC*%
G36*
X360127Y264077D02*
X360127Y264077D01*
X356113Y265740D01*
X353040Y268813D01*
X351377Y272827D01*
X351377Y277173D01*
X353040Y281187D01*
X356113Y284260D01*
X360127Y285923D01*
X364473Y285923D01*
X368487Y284260D01*
X371560Y281187D01*
X373223Y277173D01*
X373223Y272827D01*
X371560Y268813D01*
X368487Y265740D01*
X364473Y264077D01*
X360127Y264077D01*
G37*
%LPD*%
%LPC*%
G36*
X461727Y238677D02*
X461727Y238677D01*
X457713Y240340D01*
X454640Y243413D01*
X452977Y247427D01*
X452977Y251773D01*
X454640Y255787D01*
X457713Y258860D01*
X461727Y260523D01*
X466073Y260523D01*
X470087Y258860D01*
X473160Y255787D01*
X474823Y251773D01*
X474823Y247427D01*
X473160Y243413D01*
X470087Y240340D01*
X466073Y238677D01*
X461727Y238677D01*
G37*
%LPD*%
%LPC*%
G36*
X156927Y238677D02*
X156927Y238677D01*
X152913Y240340D01*
X149840Y243413D01*
X148177Y247427D01*
X148177Y251773D01*
X149840Y255787D01*
X152913Y258860D01*
X156927Y260523D01*
X161273Y260523D01*
X165287Y258860D01*
X168360Y255787D01*
X170023Y251773D01*
X170023Y247427D01*
X168360Y243413D01*
X165287Y240340D01*
X161273Y238677D01*
X156927Y238677D01*
G37*
%LPD*%
%LPC*%
G36*
X131527Y238677D02*
X131527Y238677D01*
X127513Y240340D01*
X124440Y243413D01*
X122777Y247427D01*
X122777Y251773D01*
X124440Y255787D01*
X127513Y258860D01*
X131527Y260523D01*
X135873Y260523D01*
X139887Y258860D01*
X142960Y255787D01*
X144623Y251773D01*
X144623Y247427D01*
X142960Y243413D01*
X139887Y240340D01*
X135873Y238677D01*
X131527Y238677D01*
G37*
%LPD*%
%LPC*%
G36*
X207727Y238677D02*
X207727Y238677D01*
X203713Y240340D01*
X200640Y243413D01*
X198977Y247427D01*
X198977Y251773D01*
X200640Y255787D01*
X203713Y258860D01*
X207727Y260523D01*
X212073Y260523D01*
X216087Y258860D01*
X219160Y255787D01*
X220823Y251773D01*
X220823Y247427D01*
X219160Y243413D01*
X216087Y240340D01*
X212073Y238677D01*
X207727Y238677D01*
G37*
%LPD*%
%LPC*%
G36*
X74027Y90677D02*
X74027Y90677D01*
X70013Y92340D01*
X66940Y95413D01*
X65277Y99427D01*
X65277Y103773D01*
X66940Y107787D01*
X70013Y110860D01*
X74027Y112523D01*
X78373Y112523D01*
X82387Y110860D01*
X85460Y107787D01*
X87123Y103773D01*
X87123Y99427D01*
X85460Y95413D01*
X82387Y92340D01*
X78373Y90677D01*
X74027Y90677D01*
G37*
%LPD*%
%LPC*%
G36*
X233127Y238677D02*
X233127Y238677D01*
X229113Y240340D01*
X226040Y243413D01*
X224377Y247427D01*
X224377Y251773D01*
X226040Y255787D01*
X229113Y258860D01*
X233127Y260523D01*
X237473Y260523D01*
X241487Y258860D01*
X244560Y255787D01*
X246223Y251773D01*
X246223Y247427D01*
X244560Y243413D01*
X241487Y240340D01*
X237473Y238677D01*
X233127Y238677D01*
G37*
%LPD*%
%LPC*%
G36*
X512527Y238677D02*
X512527Y238677D01*
X508513Y240340D01*
X505440Y243413D01*
X503777Y247427D01*
X503777Y251773D01*
X505440Y255787D01*
X508513Y258860D01*
X512527Y260523D01*
X516873Y260523D01*
X520887Y258860D01*
X523960Y255787D01*
X525623Y251773D01*
X525623Y247427D01*
X523960Y243413D01*
X520887Y240340D01*
X516873Y238677D01*
X512527Y238677D01*
G37*
%LPD*%
%LPC*%
G36*
X537927Y238677D02*
X537927Y238677D01*
X533913Y240340D01*
X530840Y243413D01*
X529177Y247427D01*
X529177Y251773D01*
X530840Y255787D01*
X533913Y258860D01*
X537927Y260523D01*
X542273Y260523D01*
X546287Y258860D01*
X549360Y255787D01*
X551023Y251773D01*
X551023Y247427D01*
X549360Y243413D01*
X546287Y240340D01*
X542273Y238677D01*
X537927Y238677D01*
G37*
%LPD*%
%LPC*%
G36*
X258527Y238677D02*
X258527Y238677D01*
X254513Y240340D01*
X251440Y243413D01*
X249777Y247427D01*
X249777Y251773D01*
X251440Y255787D01*
X254513Y258860D01*
X258527Y260523D01*
X262873Y260523D01*
X266887Y258860D01*
X269960Y255787D01*
X271623Y251773D01*
X271623Y247427D01*
X269960Y243413D01*
X266887Y240340D01*
X262873Y238677D01*
X258527Y238677D01*
G37*
%LPD*%
%LPC*%
G36*
X106127Y238677D02*
X106127Y238677D01*
X102113Y240340D01*
X99040Y243413D01*
X97377Y247427D01*
X97377Y251773D01*
X99040Y255787D01*
X102113Y258860D01*
X106127Y260523D01*
X110473Y260523D01*
X114487Y258860D01*
X117560Y255787D01*
X119223Y251773D01*
X119223Y247427D01*
X117560Y243413D01*
X114487Y240340D01*
X110473Y238677D01*
X106127Y238677D01*
G37*
%LPD*%
%LPC*%
G36*
X309327Y238677D02*
X309327Y238677D01*
X305313Y240340D01*
X302240Y243413D01*
X300577Y247427D01*
X300577Y251773D01*
X302240Y255787D01*
X305313Y258860D01*
X309327Y260523D01*
X313673Y260523D01*
X317687Y258860D01*
X320760Y255787D01*
X322423Y251773D01*
X322423Y247427D01*
X320760Y243413D01*
X317687Y240340D01*
X313673Y238677D01*
X309327Y238677D01*
G37*
%LPD*%
%LPC*%
G36*
X410927Y238677D02*
X410927Y238677D01*
X406913Y240340D01*
X403840Y243413D01*
X402177Y247427D01*
X402177Y251773D01*
X403840Y255787D01*
X406913Y258860D01*
X410927Y260523D01*
X415273Y260523D01*
X419287Y258860D01*
X422360Y255787D01*
X424023Y251773D01*
X424023Y247427D01*
X422360Y243413D01*
X419287Y240340D01*
X415273Y238677D01*
X410927Y238677D01*
G37*
%LPD*%
%LPC*%
G36*
X188327Y27177D02*
X188327Y27177D01*
X184313Y28840D01*
X181240Y31913D01*
X179577Y35927D01*
X179577Y40273D01*
X181240Y44287D01*
X184313Y47360D01*
X188327Y49023D01*
X192673Y49023D01*
X196687Y47360D01*
X199760Y44287D01*
X201423Y40273D01*
X201423Y35927D01*
X199760Y31913D01*
X196687Y28840D01*
X192673Y27177D01*
X188327Y27177D01*
G37*
%LPD*%
%LPC*%
G36*
X360127Y238677D02*
X360127Y238677D01*
X356113Y240340D01*
X353040Y243413D01*
X351377Y247427D01*
X351377Y251773D01*
X353040Y255787D01*
X356113Y258860D01*
X360127Y260523D01*
X364473Y260523D01*
X368487Y258860D01*
X371560Y255787D01*
X373223Y251773D01*
X373223Y247427D01*
X371560Y243413D01*
X368487Y240340D01*
X364473Y238677D01*
X360127Y238677D01*
G37*
%LPD*%
%LPC*%
G36*
X186023Y251123D02*
X186023Y251123D01*
X186023Y261446D01*
X187296Y261245D01*
X189083Y260664D01*
X190757Y259811D01*
X192278Y258706D01*
X193606Y257378D01*
X194711Y255857D01*
X195564Y254183D01*
X196145Y252396D01*
X196346Y251123D01*
X186023Y251123D01*
G37*
%LPD*%
%LPC*%
G36*
X567023Y251123D02*
X567023Y251123D01*
X567023Y261446D01*
X568296Y261245D01*
X570083Y260664D01*
X571757Y259811D01*
X573278Y258706D01*
X574606Y257378D01*
X575711Y255857D01*
X576564Y254183D01*
X577145Y252396D01*
X577346Y251123D01*
X567023Y251123D01*
G37*
%LPD*%
%LPC*%
G36*
X389223Y251123D02*
X389223Y251123D01*
X389223Y261446D01*
X390496Y261245D01*
X392283Y260664D01*
X393957Y259811D01*
X395478Y258706D01*
X396806Y257378D01*
X397911Y255857D01*
X398764Y254183D01*
X399345Y252396D01*
X399546Y251123D01*
X389223Y251123D01*
G37*
%LPD*%
%LPC*%
G36*
X490823Y276523D02*
X490823Y276523D01*
X490823Y286846D01*
X492096Y286645D01*
X493883Y286064D01*
X495557Y285211D01*
X497078Y284106D01*
X498406Y282778D01*
X499511Y281257D01*
X500364Y279583D01*
X500945Y277796D01*
X501146Y276523D01*
X490823Y276523D01*
G37*
%LPD*%
%LPC*%
G36*
X135223Y276523D02*
X135223Y276523D01*
X135223Y286846D01*
X136496Y286645D01*
X138283Y286064D01*
X139957Y285211D01*
X141478Y284106D01*
X142806Y282778D01*
X143911Y281257D01*
X144764Y279583D01*
X145345Y277796D01*
X145546Y276523D01*
X135223Y276523D01*
G37*
%LPD*%
%LPC*%
G36*
X440023Y276523D02*
X440023Y276523D01*
X440023Y286846D01*
X441296Y286645D01*
X443083Y286064D01*
X444757Y285211D01*
X446278Y284106D01*
X447606Y282778D01*
X448711Y281257D01*
X449564Y279583D01*
X450145Y277796D01*
X450346Y276523D01*
X440023Y276523D01*
G37*
%LPD*%
%LPC*%
G36*
X313023Y276523D02*
X313023Y276523D01*
X313023Y286846D01*
X314296Y286645D01*
X316083Y286064D01*
X317757Y285211D01*
X319278Y284106D01*
X320606Y282778D01*
X321711Y281257D01*
X322564Y279583D01*
X323145Y277796D01*
X323346Y276523D01*
X313023Y276523D01*
G37*
%LPD*%
%LPC*%
G36*
X236823Y276523D02*
X236823Y276523D01*
X236823Y286846D01*
X238096Y286645D01*
X239883Y286064D01*
X241557Y285211D01*
X243078Y284106D01*
X244406Y282778D01*
X245511Y281257D01*
X246364Y279583D01*
X246945Y277796D01*
X247146Y276523D01*
X236823Y276523D01*
G37*
%LPD*%
%LPC*%
G36*
X77723Y77723D02*
X77723Y77723D01*
X77723Y88046D01*
X78996Y87845D01*
X80783Y87264D01*
X82457Y86411D01*
X83978Y85306D01*
X85306Y83978D01*
X86411Y82457D01*
X87264Y80783D01*
X87845Y78996D01*
X88046Y77723D01*
X77723Y77723D01*
G37*
%LPD*%
%LPC*%
G36*
X166623Y39623D02*
X166623Y39623D01*
X166623Y49946D01*
X167896Y49745D01*
X169683Y49164D01*
X171357Y48311D01*
X172878Y47206D01*
X174206Y45878D01*
X175311Y44357D01*
X176164Y42683D01*
X176745Y40896D01*
X176946Y39623D01*
X166623Y39623D01*
G37*
%LPD*%
%LPC*%
G36*
X153254Y39623D02*
X153254Y39623D01*
X153455Y40896D01*
X154036Y42683D01*
X154889Y44357D01*
X155994Y45878D01*
X157322Y47206D01*
X158843Y48311D01*
X160517Y49164D01*
X162304Y49745D01*
X163577Y49946D01*
X163577Y39623D01*
X153254Y39623D01*
G37*
%LPD*%
%LPC*%
G36*
X313023Y273477D02*
X313023Y273477D01*
X323346Y273477D01*
X323145Y272204D01*
X322564Y270417D01*
X321711Y268743D01*
X320606Y267222D01*
X319278Y265894D01*
X317757Y264789D01*
X316083Y263936D01*
X314296Y263355D01*
X313023Y263154D01*
X313023Y273477D01*
G37*
%LPD*%
%LPC*%
G36*
X236823Y273477D02*
X236823Y273477D01*
X247146Y273477D01*
X246945Y272204D01*
X246364Y270417D01*
X245511Y268743D01*
X244406Y267222D01*
X243078Y265894D01*
X241557Y264789D01*
X239883Y263936D01*
X238096Y263355D01*
X236823Y263154D01*
X236823Y273477D01*
G37*
%LPD*%
%LPC*%
G36*
X440023Y273477D02*
X440023Y273477D01*
X450346Y273477D01*
X450145Y272204D01*
X449564Y270417D01*
X448711Y268743D01*
X447606Y267222D01*
X446278Y265894D01*
X444757Y264789D01*
X443083Y263936D01*
X441296Y263355D01*
X440023Y263154D01*
X440023Y273477D01*
G37*
%LPD*%
%LPC*%
G36*
X77723Y74677D02*
X77723Y74677D01*
X88046Y74677D01*
X87845Y73404D01*
X87264Y71617D01*
X86411Y69943D01*
X85306Y68422D01*
X83978Y67094D01*
X82457Y65989D01*
X80783Y65136D01*
X78996Y64555D01*
X77723Y64354D01*
X77723Y74677D01*
G37*
%LPD*%
%LPC*%
G36*
X490823Y273477D02*
X490823Y273477D01*
X501146Y273477D01*
X500945Y272204D01*
X500364Y270417D01*
X499511Y268743D01*
X498406Y267222D01*
X497078Y265894D01*
X495557Y264789D01*
X493883Y263936D01*
X492096Y263355D01*
X490823Y263154D01*
X490823Y273477D01*
G37*
%LPD*%
%LPC*%
G36*
X64354Y77723D02*
X64354Y77723D01*
X64555Y78996D01*
X65136Y80783D01*
X65989Y82457D01*
X67094Y83978D01*
X68422Y85306D01*
X69943Y86411D01*
X71617Y87264D01*
X73404Y87845D01*
X74677Y88046D01*
X74677Y77723D01*
X64354Y77723D01*
G37*
%LPD*%
%LPC*%
G36*
X426654Y276523D02*
X426654Y276523D01*
X426855Y277796D01*
X427436Y279583D01*
X428289Y281257D01*
X429394Y282778D01*
X430722Y284106D01*
X432243Y285211D01*
X433917Y286064D01*
X435704Y286645D01*
X436977Y286846D01*
X436977Y276523D01*
X426654Y276523D01*
G37*
%LPD*%
%LPC*%
G36*
X299654Y276523D02*
X299654Y276523D01*
X299855Y277796D01*
X300436Y279583D01*
X301289Y281257D01*
X302394Y282778D01*
X303722Y284106D01*
X305243Y285211D01*
X306917Y286064D01*
X308704Y286645D01*
X309977Y286846D01*
X309977Y276523D01*
X299654Y276523D01*
G37*
%LPD*%
%LPC*%
G36*
X135223Y273477D02*
X135223Y273477D01*
X145546Y273477D01*
X145345Y272204D01*
X144764Y270417D01*
X143911Y268743D01*
X142806Y267222D01*
X141478Y265894D01*
X139957Y264789D01*
X138283Y263936D01*
X136496Y263355D01*
X135223Y263154D01*
X135223Y273477D01*
G37*
%LPD*%
%LPC*%
G36*
X375854Y251123D02*
X375854Y251123D01*
X376055Y252396D01*
X376636Y254183D01*
X377489Y255857D01*
X378594Y257378D01*
X379922Y258706D01*
X381443Y259811D01*
X383117Y260664D01*
X384904Y261245D01*
X386177Y261446D01*
X386177Y251123D01*
X375854Y251123D01*
G37*
%LPD*%
%LPC*%
G36*
X477454Y276523D02*
X477454Y276523D01*
X477655Y277796D01*
X478236Y279583D01*
X479089Y281257D01*
X480194Y282778D01*
X481522Y284106D01*
X483043Y285211D01*
X484717Y286064D01*
X486504Y286645D01*
X487777Y286846D01*
X487777Y276523D01*
X477454Y276523D01*
G37*
%LPD*%
%LPC*%
G36*
X121854Y276523D02*
X121854Y276523D01*
X122055Y277796D01*
X122636Y279583D01*
X123489Y281257D01*
X124594Y282778D01*
X125922Y284106D01*
X127443Y285211D01*
X129117Y286064D01*
X130904Y286645D01*
X132177Y286846D01*
X132177Y276523D01*
X121854Y276523D01*
G37*
%LPD*%
%LPC*%
G36*
X223454Y276523D02*
X223454Y276523D01*
X223655Y277796D01*
X224236Y279583D01*
X225089Y281257D01*
X226194Y282778D01*
X227522Y284106D01*
X229043Y285211D01*
X230717Y286064D01*
X232504Y286645D01*
X233777Y286846D01*
X233777Y276523D01*
X223454Y276523D01*
G37*
%LPD*%
%LPC*%
G36*
X166623Y36577D02*
X166623Y36577D01*
X176946Y36577D01*
X176745Y35304D01*
X176164Y33517D01*
X175311Y31843D01*
X174206Y30322D01*
X172878Y28994D01*
X171357Y27889D01*
X169683Y27036D01*
X167896Y26455D01*
X166623Y26254D01*
X166623Y36577D01*
G37*
%LPD*%
%LPC*%
G36*
X553654Y251123D02*
X553654Y251123D01*
X553855Y252396D01*
X554436Y254183D01*
X555289Y255857D01*
X556394Y257378D01*
X557722Y258706D01*
X559243Y259811D01*
X560917Y260664D01*
X562704Y261245D01*
X563977Y261446D01*
X563977Y251123D01*
X553654Y251123D01*
G37*
%LPD*%
%LPC*%
G36*
X172654Y251123D02*
X172654Y251123D01*
X172855Y252396D01*
X173436Y254183D01*
X174289Y255857D01*
X175394Y257378D01*
X176722Y258706D01*
X178243Y259811D01*
X179917Y260664D01*
X181704Y261245D01*
X182977Y261446D01*
X182977Y251123D01*
X172654Y251123D01*
G37*
%LPD*%
%LPC*%
G36*
X186023Y248077D02*
X186023Y248077D01*
X196346Y248077D01*
X196145Y246804D01*
X195564Y245017D01*
X194711Y243343D01*
X193606Y241822D01*
X192278Y240494D01*
X190757Y239389D01*
X189083Y238536D01*
X187296Y237955D01*
X186023Y237754D01*
X186023Y248077D01*
G37*
%LPD*%
%LPC*%
G36*
X567023Y248077D02*
X567023Y248077D01*
X577346Y248077D01*
X577145Y246804D01*
X576564Y245017D01*
X575711Y243343D01*
X574606Y241822D01*
X573278Y240494D01*
X571757Y239389D01*
X570083Y238536D01*
X568296Y237955D01*
X567023Y237754D01*
X567023Y248077D01*
G37*
%LPD*%
%LPC*%
G36*
X389223Y248077D02*
X389223Y248077D01*
X399546Y248077D01*
X399345Y246804D01*
X398764Y245017D01*
X397911Y243343D01*
X396806Y241822D01*
X395478Y240494D01*
X393957Y239389D01*
X392283Y238536D01*
X390496Y237955D01*
X389223Y237754D01*
X389223Y248077D01*
G37*
%LPD*%
%LPC*%
G36*
X384904Y237955D02*
X384904Y237955D01*
X383117Y238536D01*
X381443Y239389D01*
X379922Y240494D01*
X378594Y241822D01*
X377489Y243343D01*
X376636Y245017D01*
X376055Y246804D01*
X375854Y248077D01*
X386177Y248077D01*
X386177Y237754D01*
X384904Y237955D01*
G37*
%LPD*%
%LPC*%
G36*
X562704Y237955D02*
X562704Y237955D01*
X560917Y238536D01*
X559243Y239389D01*
X557722Y240494D01*
X556394Y241822D01*
X555289Y243343D01*
X554436Y245017D01*
X553855Y246804D01*
X553654Y248077D01*
X563977Y248077D01*
X563977Y237754D01*
X562704Y237955D01*
G37*
%LPD*%
%LPC*%
G36*
X181704Y237955D02*
X181704Y237955D01*
X179917Y238536D01*
X178243Y239389D01*
X176722Y240494D01*
X175394Y241822D01*
X174289Y243343D01*
X173436Y245017D01*
X172855Y246804D01*
X172654Y248077D01*
X182977Y248077D01*
X182977Y237754D01*
X181704Y237955D01*
G37*
%LPD*%
%LPC*%
G36*
X162304Y26455D02*
X162304Y26455D01*
X160517Y27036D01*
X158843Y27889D01*
X157322Y28994D01*
X155994Y30322D01*
X154889Y31843D01*
X154036Y33517D01*
X153455Y35304D01*
X153254Y36577D01*
X163577Y36577D01*
X163577Y26254D01*
X162304Y26455D01*
G37*
%LPD*%
%LPC*%
G36*
X130904Y263355D02*
X130904Y263355D01*
X129117Y263936D01*
X127443Y264789D01*
X125922Y265894D01*
X124594Y267222D01*
X123489Y268743D01*
X122636Y270417D01*
X122055Y272204D01*
X121854Y273477D01*
X132177Y273477D01*
X132177Y263154D01*
X130904Y263355D01*
G37*
%LPD*%
%LPC*%
G36*
X232504Y263355D02*
X232504Y263355D01*
X230717Y263936D01*
X229043Y264789D01*
X227522Y265894D01*
X226194Y267222D01*
X225089Y268743D01*
X224236Y270417D01*
X223655Y272204D01*
X223454Y273477D01*
X233777Y273477D01*
X233777Y263154D01*
X232504Y263355D01*
G37*
%LPD*%
%LPC*%
G36*
X308704Y263355D02*
X308704Y263355D01*
X306917Y263936D01*
X305243Y264789D01*
X303722Y265894D01*
X302394Y267222D01*
X301289Y268743D01*
X300436Y270417D01*
X299855Y272204D01*
X299654Y273477D01*
X309977Y273477D01*
X309977Y263154D01*
X308704Y263355D01*
G37*
%LPD*%
%LPC*%
G36*
X435704Y263355D02*
X435704Y263355D01*
X433917Y263936D01*
X432243Y264789D01*
X430722Y265894D01*
X429394Y267222D01*
X428289Y268743D01*
X427436Y270417D01*
X426855Y272204D01*
X426654Y273477D01*
X436977Y273477D01*
X436977Y263154D01*
X435704Y263355D01*
G37*
%LPD*%
%LPC*%
G36*
X73404Y64555D02*
X73404Y64555D01*
X71617Y65136D01*
X69943Y65989D01*
X68422Y67094D01*
X67094Y68422D01*
X65989Y69943D01*
X65136Y71617D01*
X64555Y73404D01*
X64354Y74677D01*
X74677Y74677D01*
X74677Y64354D01*
X73404Y64555D01*
G37*
%LPD*%
%LPC*%
G36*
X486504Y263355D02*
X486504Y263355D01*
X484717Y263936D01*
X483043Y264789D01*
X481522Y265894D01*
X480194Y267222D01*
X479089Y268743D01*
X478236Y270417D01*
X477655Y272204D01*
X477454Y273477D01*
X487777Y273477D01*
X487777Y263154D01*
X486504Y263355D01*
G37*
%LPD*%
%LPC*%
G36*
X311499Y274999D02*
X311499Y274999D01*
X311499Y275001D01*
X311501Y275001D01*
X311501Y274999D01*
X311499Y274999D01*
G37*
%LPD*%
%LPC*%
G36*
X76199Y76199D02*
X76199Y76199D01*
X76199Y76201D01*
X76201Y76201D01*
X76201Y76199D01*
X76199Y76199D01*
G37*
%LPD*%
%LPC*%
G36*
X438499Y274999D02*
X438499Y274999D01*
X438499Y275001D01*
X438501Y275001D01*
X438501Y274999D01*
X438499Y274999D01*
G37*
%LPD*%
%LPC*%
G36*
X489299Y274999D02*
X489299Y274999D01*
X489299Y275001D01*
X489301Y275001D01*
X489301Y274999D01*
X489299Y274999D01*
G37*
%LPD*%
%LPC*%
G36*
X133699Y274999D02*
X133699Y274999D01*
X133699Y275001D01*
X133701Y275001D01*
X133701Y274999D01*
X133699Y274999D01*
G37*
%LPD*%
%LPC*%
G36*
X235299Y274999D02*
X235299Y274999D01*
X235299Y275001D01*
X235301Y275001D01*
X235301Y274999D01*
X235299Y274999D01*
G37*
%LPD*%
%LPC*%
G36*
X565499Y249599D02*
X565499Y249599D01*
X565499Y249601D01*
X565501Y249601D01*
X565501Y249599D01*
X565499Y249599D01*
G37*
%LPD*%
%LPC*%
G36*
X165099Y38099D02*
X165099Y38099D01*
X165099Y38101D01*
X165101Y38101D01*
X165101Y38099D01*
X165099Y38099D01*
G37*
%LPD*%
%LPC*%
G36*
X387699Y249599D02*
X387699Y249599D01*
X387699Y249601D01*
X387701Y249601D01*
X387701Y249599D01*
X387699Y249599D01*
G37*
%LPD*%
%LPC*%
G36*
X184499Y249599D02*
X184499Y249599D01*
X184499Y249601D01*
X184501Y249601D01*
X184501Y249599D01*
X184499Y249599D01*
G37*
%LPD*%
D10*
X82900Y249600D03*
X108300Y249600D03*
X133700Y249600D03*
X159100Y249600D03*
X184500Y249600D03*
X209900Y249600D03*
X235300Y249600D03*
X260700Y249600D03*
X286100Y249600D03*
X311500Y249600D03*
X336900Y249600D03*
X362300Y249600D03*
X387700Y249600D03*
X387700Y275000D03*
X362300Y275000D03*
X336900Y275000D03*
X311500Y275000D03*
X286100Y275000D03*
X260700Y275000D03*
X235300Y275000D03*
X209900Y275000D03*
X184500Y275000D03*
X159100Y275000D03*
X133700Y275000D03*
X108300Y275000D03*
X82900Y275000D03*
X413100Y249600D03*
X413100Y275000D03*
X438500Y249600D03*
X438500Y275000D03*
X463900Y249600D03*
X463900Y275000D03*
X489300Y249600D03*
X489300Y275000D03*
X514700Y249600D03*
X514700Y275000D03*
X540100Y249600D03*
X540100Y275000D03*
X565500Y249600D03*
X565500Y275000D03*
X76200Y177800D03*
X76200Y152400D03*
X76200Y127000D03*
X76200Y101600D03*
X76200Y76200D03*
X76200Y50800D03*
X215900Y38100D03*
X190500Y38100D03*
X165100Y38100D03*
D11*
X406400Y127000D03*
X413900Y122000D03*
X413900Y132000D03*
X398900Y132000D03*
X398900Y122000D03*
D10*
X515000Y142222D03*
X515000Y171178D03*
D12*
X223520Y38608D02*
X217424Y38608D01*
X223520Y38608D02*
X225552Y40640D01*
X229616Y40640D01*
X420624Y231648D01*
X475488Y231648D01*
X483616Y239776D01*
X483616Y241808D01*
X489712Y247904D01*
X217424Y38608D02*
X215900Y38100D01*
X489712Y247904D02*
X489300Y249600D01*
X81280Y54864D02*
X77216Y50800D01*
X81280Y54864D02*
X83312Y54864D01*
X93472Y65024D01*
X93472Y231648D02*
X93472Y235712D01*
X93472Y231648D02*
X93472Y65024D01*
X93472Y235712D02*
X81280Y247904D01*
X77216Y50800D02*
X76200Y50800D01*
X81280Y247904D02*
X82900Y249600D01*
X284480Y247904D02*
X284480Y245872D01*
X280416Y241808D01*
X280416Y239776D01*
X272288Y231648D01*
X93472Y231648D01*
X284480Y247904D02*
X286100Y249600D01*
M02*
