M48
;GenerationSoftware,Autodesk,EAGLE,9.1.0*%
;CreationDate,2019-06-19T04:32:02Z*%
FMAT,2
ICI,OFF
METRIC,TZ,000.000
T3C0.200
T2C1.016
T1C3.000
%
G90
M71
T1
X3500Y26200
X61500Y26200
X61500Y3500
X3500Y3500
T2
X8290Y24960
X10830Y24960
X13370Y24960
X15910Y24960
X18450Y24960
X20990Y24960
X23530Y24960
X26070Y24960
X28610Y24960
X31150Y24960
X33690Y24960
X36230Y24960
X38770Y24960
X38770Y27500
X36230Y27500
X33690Y27500
X31150Y27500
X28610Y27500
X26070Y27500
X23530Y27500
X20990Y27500
X18450Y27500
X15910Y27500
X13370Y27500
X10830Y27500
X8290Y27500
X41310Y24960
X41310Y27500
X43850Y24960
X43850Y27500
X46390Y24960
X46390Y27500
X48930Y24960
X48930Y27500
X51470Y24960
X51470Y27500
X54010Y24960
X54010Y27500
X56550Y24960
X56550Y27500
X7620Y17780
X7620Y15240
X7620Y12700
X7620Y10160
X7620Y7620
X7620Y5080
X21590Y3810
X19050Y3810
X16510Y3810
X51500Y14222
X51500Y17118
T3
X40640Y12700
X41390Y12200
X41390Y13200
X39890Y13200
X39890Y12200
M30