M48
;GenerationSoftware,Autodesk,EAGLE,9.1.0*%
;CreationDate,2019-04-25T21:03:21Z*%
FMAT,2
ICI,OFF
METRIC,TZ,000.000
T4C0.200
T3C0.350
T2C1.016
T1C3.000
%
G90
M71
T1
X61500Y3500
X3500Y3500
X61500Y26200
X3500Y26200
T2
X7620Y5080
X7620Y7620
X7620Y10160
X7620Y12700
X7620Y15240
X7620Y17780
X56550Y27500
X56550Y24960
X54010Y27500
X54010Y24960
X51470Y27500
X51470Y24960
X48930Y27500
X48930Y24960
X46390Y27500
X46390Y24960
X43850Y27500
X43850Y24960
X41310Y27500
X41310Y24960
X21590Y3810
X19050Y3810
X38770Y27500
X16510Y3810
X8290Y24960
X10830Y24960
X13370Y24960
X15910Y24960
X18450Y24960
X20990Y24960
X23530Y24960
X26070Y24960
X28610Y24960
X31150Y24960
X33690Y24960
X36230Y24960
X38770Y24960
X8290Y27500
X36230Y27500
X33690Y27500
X31150Y27500
X28610Y27500
X26070Y27500
X23530Y27500
X20990Y27500
X18450Y27500
X15910Y27500
X13370Y27500
X10830Y27500
T3
X33000Y16250
X40600Y13100
X45700Y13000
X3300Y10000
X8200Y21200
X3100Y20700
X42200Y9200
X37200Y8700
X29800Y2500
X13300Y2800
X15200Y9700
X15300Y13500
X28900Y9800
X20700Y21300
X46400Y3300
X38400Y20400
X52100Y14900
X60900Y20300
X52700Y18700
X28400Y20200
X15300Y17900
X14600Y20100
X53250Y10750
X52750Y6000
T4
X40640Y12700
X41390Y12200
X41390Y13200
X39890Y13200
X39890Y12200
M30