G04 EAGLE Gerber X2 export*
%TF.Part,Single*%
%TF.FileFunction,Profile,NP*%
%TF.FilePolarity,Positive*%
%TF.GenerationSoftware,Autodesk,EAGLE,9.1.0*%
%TF.CreationDate,2019-04-25T21:03:21Z*%
G75*
%MOMM*%
%FSLAX34Y34*%
%LPD*%
%AMOC8*
5,1,8,0,0,1.08239X$1,22.5*%
G01*
%ADD10C,0.000000*%
%ADD11C,0.254000*%


D10*
X20000Y262000D02*
X20005Y262368D01*
X20018Y262736D01*
X20041Y263103D01*
X20072Y263470D01*
X20113Y263836D01*
X20162Y264201D01*
X20221Y264564D01*
X20288Y264926D01*
X20364Y265287D01*
X20450Y265645D01*
X20543Y266001D01*
X20646Y266354D01*
X20757Y266705D01*
X20877Y267053D01*
X21005Y267398D01*
X21142Y267740D01*
X21287Y268079D01*
X21440Y268413D01*
X21602Y268744D01*
X21771Y269071D01*
X21949Y269393D01*
X22134Y269712D01*
X22327Y270025D01*
X22528Y270334D01*
X22736Y270637D01*
X22952Y270935D01*
X23175Y271228D01*
X23405Y271516D01*
X23642Y271798D01*
X23886Y272073D01*
X24136Y272343D01*
X24393Y272607D01*
X24657Y272864D01*
X24927Y273114D01*
X25202Y273358D01*
X25484Y273595D01*
X25772Y273825D01*
X26065Y274048D01*
X26363Y274264D01*
X26666Y274472D01*
X26975Y274673D01*
X27288Y274866D01*
X27607Y275051D01*
X27929Y275229D01*
X28256Y275398D01*
X28587Y275560D01*
X28921Y275713D01*
X29260Y275858D01*
X29602Y275995D01*
X29947Y276123D01*
X30295Y276243D01*
X30646Y276354D01*
X30999Y276457D01*
X31355Y276550D01*
X31713Y276636D01*
X32074Y276712D01*
X32436Y276779D01*
X32799Y276838D01*
X33164Y276887D01*
X33530Y276928D01*
X33897Y276959D01*
X34264Y276982D01*
X34632Y276995D01*
X35000Y277000D01*
X35368Y276995D01*
X35736Y276982D01*
X36103Y276959D01*
X36470Y276928D01*
X36836Y276887D01*
X37201Y276838D01*
X37564Y276779D01*
X37926Y276712D01*
X38287Y276636D01*
X38645Y276550D01*
X39001Y276457D01*
X39354Y276354D01*
X39705Y276243D01*
X40053Y276123D01*
X40398Y275995D01*
X40740Y275858D01*
X41079Y275713D01*
X41413Y275560D01*
X41744Y275398D01*
X42071Y275229D01*
X42393Y275051D01*
X42712Y274866D01*
X43025Y274673D01*
X43334Y274472D01*
X43637Y274264D01*
X43935Y274048D01*
X44228Y273825D01*
X44516Y273595D01*
X44798Y273358D01*
X45073Y273114D01*
X45343Y272864D01*
X45607Y272607D01*
X45864Y272343D01*
X46114Y272073D01*
X46358Y271798D01*
X46595Y271516D01*
X46825Y271228D01*
X47048Y270935D01*
X47264Y270637D01*
X47472Y270334D01*
X47673Y270025D01*
X47866Y269712D01*
X48051Y269393D01*
X48229Y269071D01*
X48398Y268744D01*
X48560Y268413D01*
X48713Y268079D01*
X48858Y267740D01*
X48995Y267398D01*
X49123Y267053D01*
X49243Y266705D01*
X49354Y266354D01*
X49457Y266001D01*
X49550Y265645D01*
X49636Y265287D01*
X49712Y264926D01*
X49779Y264564D01*
X49838Y264201D01*
X49887Y263836D01*
X49928Y263470D01*
X49959Y263103D01*
X49982Y262736D01*
X49995Y262368D01*
X50000Y262000D01*
X49995Y261632D01*
X49982Y261264D01*
X49959Y260897D01*
X49928Y260530D01*
X49887Y260164D01*
X49838Y259799D01*
X49779Y259436D01*
X49712Y259074D01*
X49636Y258713D01*
X49550Y258355D01*
X49457Y257999D01*
X49354Y257646D01*
X49243Y257295D01*
X49123Y256947D01*
X48995Y256602D01*
X48858Y256260D01*
X48713Y255921D01*
X48560Y255587D01*
X48398Y255256D01*
X48229Y254929D01*
X48051Y254607D01*
X47866Y254288D01*
X47673Y253975D01*
X47472Y253666D01*
X47264Y253363D01*
X47048Y253065D01*
X46825Y252772D01*
X46595Y252484D01*
X46358Y252202D01*
X46114Y251927D01*
X45864Y251657D01*
X45607Y251393D01*
X45343Y251136D01*
X45073Y250886D01*
X44798Y250642D01*
X44516Y250405D01*
X44228Y250175D01*
X43935Y249952D01*
X43637Y249736D01*
X43334Y249528D01*
X43025Y249327D01*
X42712Y249134D01*
X42393Y248949D01*
X42071Y248771D01*
X41744Y248602D01*
X41413Y248440D01*
X41079Y248287D01*
X40740Y248142D01*
X40398Y248005D01*
X40053Y247877D01*
X39705Y247757D01*
X39354Y247646D01*
X39001Y247543D01*
X38645Y247450D01*
X38287Y247364D01*
X37926Y247288D01*
X37564Y247221D01*
X37201Y247162D01*
X36836Y247113D01*
X36470Y247072D01*
X36103Y247041D01*
X35736Y247018D01*
X35368Y247005D01*
X35000Y247000D01*
X34632Y247005D01*
X34264Y247018D01*
X33897Y247041D01*
X33530Y247072D01*
X33164Y247113D01*
X32799Y247162D01*
X32436Y247221D01*
X32074Y247288D01*
X31713Y247364D01*
X31355Y247450D01*
X30999Y247543D01*
X30646Y247646D01*
X30295Y247757D01*
X29947Y247877D01*
X29602Y248005D01*
X29260Y248142D01*
X28921Y248287D01*
X28587Y248440D01*
X28256Y248602D01*
X27929Y248771D01*
X27607Y248949D01*
X27288Y249134D01*
X26975Y249327D01*
X26666Y249528D01*
X26363Y249736D01*
X26065Y249952D01*
X25772Y250175D01*
X25484Y250405D01*
X25202Y250642D01*
X24927Y250886D01*
X24657Y251136D01*
X24393Y251393D01*
X24136Y251657D01*
X23886Y251927D01*
X23642Y252202D01*
X23405Y252484D01*
X23175Y252772D01*
X22952Y253065D01*
X22736Y253363D01*
X22528Y253666D01*
X22327Y253975D01*
X22134Y254288D01*
X21949Y254607D01*
X21771Y254929D01*
X21602Y255256D01*
X21440Y255587D01*
X21287Y255921D01*
X21142Y256260D01*
X21005Y256602D01*
X20877Y256947D01*
X20757Y257295D01*
X20646Y257646D01*
X20543Y257999D01*
X20450Y258355D01*
X20364Y258713D01*
X20288Y259074D01*
X20221Y259436D01*
X20162Y259799D01*
X20113Y260164D01*
X20072Y260530D01*
X20041Y260897D01*
X20018Y261264D01*
X20005Y261632D01*
X20000Y262000D01*
X600000Y262000D02*
X600005Y262368D01*
X600018Y262736D01*
X600041Y263103D01*
X600072Y263470D01*
X600113Y263836D01*
X600162Y264201D01*
X600221Y264564D01*
X600288Y264926D01*
X600364Y265287D01*
X600450Y265645D01*
X600543Y266001D01*
X600646Y266354D01*
X600757Y266705D01*
X600877Y267053D01*
X601005Y267398D01*
X601142Y267740D01*
X601287Y268079D01*
X601440Y268413D01*
X601602Y268744D01*
X601771Y269071D01*
X601949Y269393D01*
X602134Y269712D01*
X602327Y270025D01*
X602528Y270334D01*
X602736Y270637D01*
X602952Y270935D01*
X603175Y271228D01*
X603405Y271516D01*
X603642Y271798D01*
X603886Y272073D01*
X604136Y272343D01*
X604393Y272607D01*
X604657Y272864D01*
X604927Y273114D01*
X605202Y273358D01*
X605484Y273595D01*
X605772Y273825D01*
X606065Y274048D01*
X606363Y274264D01*
X606666Y274472D01*
X606975Y274673D01*
X607288Y274866D01*
X607607Y275051D01*
X607929Y275229D01*
X608256Y275398D01*
X608587Y275560D01*
X608921Y275713D01*
X609260Y275858D01*
X609602Y275995D01*
X609947Y276123D01*
X610295Y276243D01*
X610646Y276354D01*
X610999Y276457D01*
X611355Y276550D01*
X611713Y276636D01*
X612074Y276712D01*
X612436Y276779D01*
X612799Y276838D01*
X613164Y276887D01*
X613530Y276928D01*
X613897Y276959D01*
X614264Y276982D01*
X614632Y276995D01*
X615000Y277000D01*
X615368Y276995D01*
X615736Y276982D01*
X616103Y276959D01*
X616470Y276928D01*
X616836Y276887D01*
X617201Y276838D01*
X617564Y276779D01*
X617926Y276712D01*
X618287Y276636D01*
X618645Y276550D01*
X619001Y276457D01*
X619354Y276354D01*
X619705Y276243D01*
X620053Y276123D01*
X620398Y275995D01*
X620740Y275858D01*
X621079Y275713D01*
X621413Y275560D01*
X621744Y275398D01*
X622071Y275229D01*
X622393Y275051D01*
X622712Y274866D01*
X623025Y274673D01*
X623334Y274472D01*
X623637Y274264D01*
X623935Y274048D01*
X624228Y273825D01*
X624516Y273595D01*
X624798Y273358D01*
X625073Y273114D01*
X625343Y272864D01*
X625607Y272607D01*
X625864Y272343D01*
X626114Y272073D01*
X626358Y271798D01*
X626595Y271516D01*
X626825Y271228D01*
X627048Y270935D01*
X627264Y270637D01*
X627472Y270334D01*
X627673Y270025D01*
X627866Y269712D01*
X628051Y269393D01*
X628229Y269071D01*
X628398Y268744D01*
X628560Y268413D01*
X628713Y268079D01*
X628858Y267740D01*
X628995Y267398D01*
X629123Y267053D01*
X629243Y266705D01*
X629354Y266354D01*
X629457Y266001D01*
X629550Y265645D01*
X629636Y265287D01*
X629712Y264926D01*
X629779Y264564D01*
X629838Y264201D01*
X629887Y263836D01*
X629928Y263470D01*
X629959Y263103D01*
X629982Y262736D01*
X629995Y262368D01*
X630000Y262000D01*
X629995Y261632D01*
X629982Y261264D01*
X629959Y260897D01*
X629928Y260530D01*
X629887Y260164D01*
X629838Y259799D01*
X629779Y259436D01*
X629712Y259074D01*
X629636Y258713D01*
X629550Y258355D01*
X629457Y257999D01*
X629354Y257646D01*
X629243Y257295D01*
X629123Y256947D01*
X628995Y256602D01*
X628858Y256260D01*
X628713Y255921D01*
X628560Y255587D01*
X628398Y255256D01*
X628229Y254929D01*
X628051Y254607D01*
X627866Y254288D01*
X627673Y253975D01*
X627472Y253666D01*
X627264Y253363D01*
X627048Y253065D01*
X626825Y252772D01*
X626595Y252484D01*
X626358Y252202D01*
X626114Y251927D01*
X625864Y251657D01*
X625607Y251393D01*
X625343Y251136D01*
X625073Y250886D01*
X624798Y250642D01*
X624516Y250405D01*
X624228Y250175D01*
X623935Y249952D01*
X623637Y249736D01*
X623334Y249528D01*
X623025Y249327D01*
X622712Y249134D01*
X622393Y248949D01*
X622071Y248771D01*
X621744Y248602D01*
X621413Y248440D01*
X621079Y248287D01*
X620740Y248142D01*
X620398Y248005D01*
X620053Y247877D01*
X619705Y247757D01*
X619354Y247646D01*
X619001Y247543D01*
X618645Y247450D01*
X618287Y247364D01*
X617926Y247288D01*
X617564Y247221D01*
X617201Y247162D01*
X616836Y247113D01*
X616470Y247072D01*
X616103Y247041D01*
X615736Y247018D01*
X615368Y247005D01*
X615000Y247000D01*
X614632Y247005D01*
X614264Y247018D01*
X613897Y247041D01*
X613530Y247072D01*
X613164Y247113D01*
X612799Y247162D01*
X612436Y247221D01*
X612074Y247288D01*
X611713Y247364D01*
X611355Y247450D01*
X610999Y247543D01*
X610646Y247646D01*
X610295Y247757D01*
X609947Y247877D01*
X609602Y248005D01*
X609260Y248142D01*
X608921Y248287D01*
X608587Y248440D01*
X608256Y248602D01*
X607929Y248771D01*
X607607Y248949D01*
X607288Y249134D01*
X606975Y249327D01*
X606666Y249528D01*
X606363Y249736D01*
X606065Y249952D01*
X605772Y250175D01*
X605484Y250405D01*
X605202Y250642D01*
X604927Y250886D01*
X604657Y251136D01*
X604393Y251393D01*
X604136Y251657D01*
X603886Y251927D01*
X603642Y252202D01*
X603405Y252484D01*
X603175Y252772D01*
X602952Y253065D01*
X602736Y253363D01*
X602528Y253666D01*
X602327Y253975D01*
X602134Y254288D01*
X601949Y254607D01*
X601771Y254929D01*
X601602Y255256D01*
X601440Y255587D01*
X601287Y255921D01*
X601142Y256260D01*
X601005Y256602D01*
X600877Y256947D01*
X600757Y257295D01*
X600646Y257646D01*
X600543Y257999D01*
X600450Y258355D01*
X600364Y258713D01*
X600288Y259074D01*
X600221Y259436D01*
X600162Y259799D01*
X600113Y260164D01*
X600072Y260530D01*
X600041Y260897D01*
X600018Y261264D01*
X600005Y261632D01*
X600000Y262000D01*
X600000Y35000D02*
X600005Y35368D01*
X600018Y35736D01*
X600041Y36103D01*
X600072Y36470D01*
X600113Y36836D01*
X600162Y37201D01*
X600221Y37564D01*
X600288Y37926D01*
X600364Y38287D01*
X600450Y38645D01*
X600543Y39001D01*
X600646Y39354D01*
X600757Y39705D01*
X600877Y40053D01*
X601005Y40398D01*
X601142Y40740D01*
X601287Y41079D01*
X601440Y41413D01*
X601602Y41744D01*
X601771Y42071D01*
X601949Y42393D01*
X602134Y42712D01*
X602327Y43025D01*
X602528Y43334D01*
X602736Y43637D01*
X602952Y43935D01*
X603175Y44228D01*
X603405Y44516D01*
X603642Y44798D01*
X603886Y45073D01*
X604136Y45343D01*
X604393Y45607D01*
X604657Y45864D01*
X604927Y46114D01*
X605202Y46358D01*
X605484Y46595D01*
X605772Y46825D01*
X606065Y47048D01*
X606363Y47264D01*
X606666Y47472D01*
X606975Y47673D01*
X607288Y47866D01*
X607607Y48051D01*
X607929Y48229D01*
X608256Y48398D01*
X608587Y48560D01*
X608921Y48713D01*
X609260Y48858D01*
X609602Y48995D01*
X609947Y49123D01*
X610295Y49243D01*
X610646Y49354D01*
X610999Y49457D01*
X611355Y49550D01*
X611713Y49636D01*
X612074Y49712D01*
X612436Y49779D01*
X612799Y49838D01*
X613164Y49887D01*
X613530Y49928D01*
X613897Y49959D01*
X614264Y49982D01*
X614632Y49995D01*
X615000Y50000D01*
X615368Y49995D01*
X615736Y49982D01*
X616103Y49959D01*
X616470Y49928D01*
X616836Y49887D01*
X617201Y49838D01*
X617564Y49779D01*
X617926Y49712D01*
X618287Y49636D01*
X618645Y49550D01*
X619001Y49457D01*
X619354Y49354D01*
X619705Y49243D01*
X620053Y49123D01*
X620398Y48995D01*
X620740Y48858D01*
X621079Y48713D01*
X621413Y48560D01*
X621744Y48398D01*
X622071Y48229D01*
X622393Y48051D01*
X622712Y47866D01*
X623025Y47673D01*
X623334Y47472D01*
X623637Y47264D01*
X623935Y47048D01*
X624228Y46825D01*
X624516Y46595D01*
X624798Y46358D01*
X625073Y46114D01*
X625343Y45864D01*
X625607Y45607D01*
X625864Y45343D01*
X626114Y45073D01*
X626358Y44798D01*
X626595Y44516D01*
X626825Y44228D01*
X627048Y43935D01*
X627264Y43637D01*
X627472Y43334D01*
X627673Y43025D01*
X627866Y42712D01*
X628051Y42393D01*
X628229Y42071D01*
X628398Y41744D01*
X628560Y41413D01*
X628713Y41079D01*
X628858Y40740D01*
X628995Y40398D01*
X629123Y40053D01*
X629243Y39705D01*
X629354Y39354D01*
X629457Y39001D01*
X629550Y38645D01*
X629636Y38287D01*
X629712Y37926D01*
X629779Y37564D01*
X629838Y37201D01*
X629887Y36836D01*
X629928Y36470D01*
X629959Y36103D01*
X629982Y35736D01*
X629995Y35368D01*
X630000Y35000D01*
X629995Y34632D01*
X629982Y34264D01*
X629959Y33897D01*
X629928Y33530D01*
X629887Y33164D01*
X629838Y32799D01*
X629779Y32436D01*
X629712Y32074D01*
X629636Y31713D01*
X629550Y31355D01*
X629457Y30999D01*
X629354Y30646D01*
X629243Y30295D01*
X629123Y29947D01*
X628995Y29602D01*
X628858Y29260D01*
X628713Y28921D01*
X628560Y28587D01*
X628398Y28256D01*
X628229Y27929D01*
X628051Y27607D01*
X627866Y27288D01*
X627673Y26975D01*
X627472Y26666D01*
X627264Y26363D01*
X627048Y26065D01*
X626825Y25772D01*
X626595Y25484D01*
X626358Y25202D01*
X626114Y24927D01*
X625864Y24657D01*
X625607Y24393D01*
X625343Y24136D01*
X625073Y23886D01*
X624798Y23642D01*
X624516Y23405D01*
X624228Y23175D01*
X623935Y22952D01*
X623637Y22736D01*
X623334Y22528D01*
X623025Y22327D01*
X622712Y22134D01*
X622393Y21949D01*
X622071Y21771D01*
X621744Y21602D01*
X621413Y21440D01*
X621079Y21287D01*
X620740Y21142D01*
X620398Y21005D01*
X620053Y20877D01*
X619705Y20757D01*
X619354Y20646D01*
X619001Y20543D01*
X618645Y20450D01*
X618287Y20364D01*
X617926Y20288D01*
X617564Y20221D01*
X617201Y20162D01*
X616836Y20113D01*
X616470Y20072D01*
X616103Y20041D01*
X615736Y20018D01*
X615368Y20005D01*
X615000Y20000D01*
X614632Y20005D01*
X614264Y20018D01*
X613897Y20041D01*
X613530Y20072D01*
X613164Y20113D01*
X612799Y20162D01*
X612436Y20221D01*
X612074Y20288D01*
X611713Y20364D01*
X611355Y20450D01*
X610999Y20543D01*
X610646Y20646D01*
X610295Y20757D01*
X609947Y20877D01*
X609602Y21005D01*
X609260Y21142D01*
X608921Y21287D01*
X608587Y21440D01*
X608256Y21602D01*
X607929Y21771D01*
X607607Y21949D01*
X607288Y22134D01*
X606975Y22327D01*
X606666Y22528D01*
X606363Y22736D01*
X606065Y22952D01*
X605772Y23175D01*
X605484Y23405D01*
X605202Y23642D01*
X604927Y23886D01*
X604657Y24136D01*
X604393Y24393D01*
X604136Y24657D01*
X603886Y24927D01*
X603642Y25202D01*
X603405Y25484D01*
X603175Y25772D01*
X602952Y26065D01*
X602736Y26363D01*
X602528Y26666D01*
X602327Y26975D01*
X602134Y27288D01*
X601949Y27607D01*
X601771Y27929D01*
X601602Y28256D01*
X601440Y28587D01*
X601287Y28921D01*
X601142Y29260D01*
X601005Y29602D01*
X600877Y29947D01*
X600757Y30295D01*
X600646Y30646D01*
X600543Y30999D01*
X600450Y31355D01*
X600364Y31713D01*
X600288Y32074D01*
X600221Y32436D01*
X600162Y32799D01*
X600113Y33164D01*
X600072Y33530D01*
X600041Y33897D01*
X600018Y34264D01*
X600005Y34632D01*
X600000Y35000D01*
X20000Y35000D02*
X20005Y35368D01*
X20018Y35736D01*
X20041Y36103D01*
X20072Y36470D01*
X20113Y36836D01*
X20162Y37201D01*
X20221Y37564D01*
X20288Y37926D01*
X20364Y38287D01*
X20450Y38645D01*
X20543Y39001D01*
X20646Y39354D01*
X20757Y39705D01*
X20877Y40053D01*
X21005Y40398D01*
X21142Y40740D01*
X21287Y41079D01*
X21440Y41413D01*
X21602Y41744D01*
X21771Y42071D01*
X21949Y42393D01*
X22134Y42712D01*
X22327Y43025D01*
X22528Y43334D01*
X22736Y43637D01*
X22952Y43935D01*
X23175Y44228D01*
X23405Y44516D01*
X23642Y44798D01*
X23886Y45073D01*
X24136Y45343D01*
X24393Y45607D01*
X24657Y45864D01*
X24927Y46114D01*
X25202Y46358D01*
X25484Y46595D01*
X25772Y46825D01*
X26065Y47048D01*
X26363Y47264D01*
X26666Y47472D01*
X26975Y47673D01*
X27288Y47866D01*
X27607Y48051D01*
X27929Y48229D01*
X28256Y48398D01*
X28587Y48560D01*
X28921Y48713D01*
X29260Y48858D01*
X29602Y48995D01*
X29947Y49123D01*
X30295Y49243D01*
X30646Y49354D01*
X30999Y49457D01*
X31355Y49550D01*
X31713Y49636D01*
X32074Y49712D01*
X32436Y49779D01*
X32799Y49838D01*
X33164Y49887D01*
X33530Y49928D01*
X33897Y49959D01*
X34264Y49982D01*
X34632Y49995D01*
X35000Y50000D01*
X35368Y49995D01*
X35736Y49982D01*
X36103Y49959D01*
X36470Y49928D01*
X36836Y49887D01*
X37201Y49838D01*
X37564Y49779D01*
X37926Y49712D01*
X38287Y49636D01*
X38645Y49550D01*
X39001Y49457D01*
X39354Y49354D01*
X39705Y49243D01*
X40053Y49123D01*
X40398Y48995D01*
X40740Y48858D01*
X41079Y48713D01*
X41413Y48560D01*
X41744Y48398D01*
X42071Y48229D01*
X42393Y48051D01*
X42712Y47866D01*
X43025Y47673D01*
X43334Y47472D01*
X43637Y47264D01*
X43935Y47048D01*
X44228Y46825D01*
X44516Y46595D01*
X44798Y46358D01*
X45073Y46114D01*
X45343Y45864D01*
X45607Y45607D01*
X45864Y45343D01*
X46114Y45073D01*
X46358Y44798D01*
X46595Y44516D01*
X46825Y44228D01*
X47048Y43935D01*
X47264Y43637D01*
X47472Y43334D01*
X47673Y43025D01*
X47866Y42712D01*
X48051Y42393D01*
X48229Y42071D01*
X48398Y41744D01*
X48560Y41413D01*
X48713Y41079D01*
X48858Y40740D01*
X48995Y40398D01*
X49123Y40053D01*
X49243Y39705D01*
X49354Y39354D01*
X49457Y39001D01*
X49550Y38645D01*
X49636Y38287D01*
X49712Y37926D01*
X49779Y37564D01*
X49838Y37201D01*
X49887Y36836D01*
X49928Y36470D01*
X49959Y36103D01*
X49982Y35736D01*
X49995Y35368D01*
X50000Y35000D01*
X49995Y34632D01*
X49982Y34264D01*
X49959Y33897D01*
X49928Y33530D01*
X49887Y33164D01*
X49838Y32799D01*
X49779Y32436D01*
X49712Y32074D01*
X49636Y31713D01*
X49550Y31355D01*
X49457Y30999D01*
X49354Y30646D01*
X49243Y30295D01*
X49123Y29947D01*
X48995Y29602D01*
X48858Y29260D01*
X48713Y28921D01*
X48560Y28587D01*
X48398Y28256D01*
X48229Y27929D01*
X48051Y27607D01*
X47866Y27288D01*
X47673Y26975D01*
X47472Y26666D01*
X47264Y26363D01*
X47048Y26065D01*
X46825Y25772D01*
X46595Y25484D01*
X46358Y25202D01*
X46114Y24927D01*
X45864Y24657D01*
X45607Y24393D01*
X45343Y24136D01*
X45073Y23886D01*
X44798Y23642D01*
X44516Y23405D01*
X44228Y23175D01*
X43935Y22952D01*
X43637Y22736D01*
X43334Y22528D01*
X43025Y22327D01*
X42712Y22134D01*
X42393Y21949D01*
X42071Y21771D01*
X41744Y21602D01*
X41413Y21440D01*
X41079Y21287D01*
X40740Y21142D01*
X40398Y21005D01*
X40053Y20877D01*
X39705Y20757D01*
X39354Y20646D01*
X39001Y20543D01*
X38645Y20450D01*
X38287Y20364D01*
X37926Y20288D01*
X37564Y20221D01*
X37201Y20162D01*
X36836Y20113D01*
X36470Y20072D01*
X36103Y20041D01*
X35736Y20018D01*
X35368Y20005D01*
X35000Y20000D01*
X34632Y20005D01*
X34264Y20018D01*
X33897Y20041D01*
X33530Y20072D01*
X33164Y20113D01*
X32799Y20162D01*
X32436Y20221D01*
X32074Y20288D01*
X31713Y20364D01*
X31355Y20450D01*
X30999Y20543D01*
X30646Y20646D01*
X30295Y20757D01*
X29947Y20877D01*
X29602Y21005D01*
X29260Y21142D01*
X28921Y21287D01*
X28587Y21440D01*
X28256Y21602D01*
X27929Y21771D01*
X27607Y21949D01*
X27288Y22134D01*
X26975Y22327D01*
X26666Y22528D01*
X26363Y22736D01*
X26065Y22952D01*
X25772Y23175D01*
X25484Y23405D01*
X25202Y23642D01*
X24927Y23886D01*
X24657Y24136D01*
X24393Y24393D01*
X24136Y24657D01*
X23886Y24927D01*
X23642Y25202D01*
X23405Y25484D01*
X23175Y25772D01*
X22952Y26065D01*
X22736Y26363D01*
X22528Y26666D01*
X22327Y26975D01*
X22134Y27288D01*
X21949Y27607D01*
X21771Y27929D01*
X21602Y28256D01*
X21440Y28587D01*
X21287Y28921D01*
X21142Y29260D01*
X21005Y29602D01*
X20877Y29947D01*
X20757Y30295D01*
X20646Y30646D01*
X20543Y30999D01*
X20450Y31355D01*
X20364Y31713D01*
X20288Y32074D01*
X20221Y32436D01*
X20162Y32799D01*
X20113Y33164D01*
X20072Y33530D01*
X20041Y33897D01*
X20018Y34264D01*
X20005Y34632D01*
X20000Y35000D01*
D11*
X0Y20031D02*
X76Y18288D01*
X304Y16558D01*
X681Y14854D01*
X1206Y13190D01*
X1874Y11578D01*
X2680Y10031D01*
X3617Y8559D01*
X4679Y7175D01*
X5858Y5889D01*
X7144Y4710D01*
X8528Y3648D01*
X10000Y2710D01*
X11548Y1905D01*
X13160Y1237D01*
X14824Y712D01*
X16527Y335D01*
X18257Y107D01*
X20000Y31D01*
X20031Y31D01*
X629498Y969D01*
X631241Y1049D01*
X632971Y1279D01*
X634674Y1660D01*
X636337Y2188D01*
X637949Y2859D01*
X639495Y3667D01*
X640965Y4608D01*
X642348Y5673D01*
X643633Y6854D01*
X644809Y8143D01*
X645869Y9529D01*
X646804Y11003D01*
X647607Y12552D01*
X648272Y14166D01*
X648794Y15831D01*
X649169Y17535D01*
X649394Y19266D01*
X649467Y20901D01*
X650333Y279631D01*
X650263Y281375D01*
X650041Y283105D01*
X649669Y284810D01*
X649150Y286476D01*
X648488Y288090D01*
X647687Y289641D01*
X646755Y291115D01*
X645697Y292503D01*
X644523Y293794D01*
X643240Y294977D01*
X641860Y296044D01*
X640391Y296986D01*
X638846Y297797D01*
X637236Y298470D01*
X635574Y299001D01*
X633872Y299384D01*
X632143Y299618D01*
X630400Y299700D01*
X630333Y299700D01*
X20000Y299700D01*
X18257Y299624D01*
X16527Y299396D01*
X14824Y299019D01*
X13160Y298494D01*
X11548Y297826D01*
X10000Y297021D01*
X8528Y296083D01*
X7144Y295021D01*
X5858Y293842D01*
X4679Y292556D01*
X3617Y291172D01*
X2680Y289700D01*
X1874Y288152D01*
X1206Y286540D01*
X681Y284876D01*
X304Y283173D01*
X76Y281443D01*
X0Y279700D01*
X0Y20031D01*
X50000Y261464D02*
X49924Y260396D01*
X49771Y259335D01*
X49543Y258288D01*
X49241Y257260D01*
X48867Y256256D01*
X48422Y255281D01*
X47908Y254341D01*
X47329Y253440D01*
X46687Y252582D01*
X45985Y251772D01*
X45228Y251015D01*
X44418Y250313D01*
X43560Y249671D01*
X42659Y249092D01*
X41719Y248578D01*
X40744Y248133D01*
X39740Y247759D01*
X38712Y247457D01*
X37665Y247229D01*
X36604Y247076D01*
X35536Y247000D01*
X34464Y247000D01*
X33396Y247076D01*
X32335Y247229D01*
X31288Y247457D01*
X30260Y247759D01*
X29256Y248133D01*
X28281Y248578D01*
X27341Y249092D01*
X26440Y249671D01*
X25582Y250313D01*
X24772Y251015D01*
X24015Y251772D01*
X23313Y252582D01*
X22671Y253440D01*
X22092Y254341D01*
X21578Y255281D01*
X21133Y256256D01*
X20759Y257260D01*
X20457Y258288D01*
X20229Y259335D01*
X20076Y260396D01*
X20000Y261464D01*
X20000Y262536D01*
X20076Y263604D01*
X20229Y264665D01*
X20457Y265712D01*
X20759Y266740D01*
X21133Y267744D01*
X21578Y268719D01*
X22092Y269659D01*
X22671Y270560D01*
X23313Y271418D01*
X24015Y272228D01*
X24772Y272985D01*
X25582Y273687D01*
X26440Y274329D01*
X27341Y274908D01*
X28281Y275422D01*
X29256Y275867D01*
X30260Y276241D01*
X31288Y276543D01*
X32335Y276771D01*
X33396Y276924D01*
X34464Y277000D01*
X35536Y277000D01*
X36604Y276924D01*
X37665Y276771D01*
X38712Y276543D01*
X39740Y276241D01*
X40744Y275867D01*
X41719Y275422D01*
X42659Y274908D01*
X43560Y274329D01*
X44418Y273687D01*
X45228Y272985D01*
X45985Y272228D01*
X46687Y271418D01*
X47329Y270560D01*
X47908Y269659D01*
X48422Y268719D01*
X48867Y267744D01*
X49241Y266740D01*
X49543Y265712D01*
X49771Y264665D01*
X49924Y263604D01*
X50000Y262536D01*
X50000Y261464D01*
X630000Y261464D02*
X629924Y260396D01*
X629771Y259335D01*
X629543Y258288D01*
X629241Y257260D01*
X628867Y256256D01*
X628422Y255281D01*
X627908Y254341D01*
X627329Y253440D01*
X626687Y252582D01*
X625985Y251772D01*
X625228Y251015D01*
X624418Y250313D01*
X623560Y249671D01*
X622659Y249092D01*
X621719Y248578D01*
X620744Y248133D01*
X619740Y247759D01*
X618712Y247457D01*
X617665Y247229D01*
X616604Y247076D01*
X615536Y247000D01*
X614464Y247000D01*
X613396Y247076D01*
X612335Y247229D01*
X611288Y247457D01*
X610260Y247759D01*
X609256Y248133D01*
X608281Y248578D01*
X607341Y249092D01*
X606440Y249671D01*
X605582Y250313D01*
X604772Y251015D01*
X604015Y251772D01*
X603313Y252582D01*
X602671Y253440D01*
X602092Y254341D01*
X601578Y255281D01*
X601133Y256256D01*
X600759Y257260D01*
X600457Y258288D01*
X600229Y259335D01*
X600076Y260396D01*
X600000Y261464D01*
X600000Y262536D01*
X600076Y263604D01*
X600229Y264665D01*
X600457Y265712D01*
X600759Y266740D01*
X601133Y267744D01*
X601578Y268719D01*
X602092Y269659D01*
X602671Y270560D01*
X603313Y271418D01*
X604015Y272228D01*
X604772Y272985D01*
X605582Y273687D01*
X606440Y274329D01*
X607341Y274908D01*
X608281Y275422D01*
X609256Y275867D01*
X610260Y276241D01*
X611288Y276543D01*
X612335Y276771D01*
X613396Y276924D01*
X614464Y277000D01*
X615536Y277000D01*
X616604Y276924D01*
X617665Y276771D01*
X618712Y276543D01*
X619740Y276241D01*
X620744Y275867D01*
X621719Y275422D01*
X622659Y274908D01*
X623560Y274329D01*
X624418Y273687D01*
X625228Y272985D01*
X625985Y272228D01*
X626687Y271418D01*
X627329Y270560D01*
X627908Y269659D01*
X628422Y268719D01*
X628867Y267744D01*
X629241Y266740D01*
X629543Y265712D01*
X629771Y264665D01*
X629924Y263604D01*
X630000Y262536D01*
X630000Y261464D01*
X630000Y34464D02*
X629924Y33396D01*
X629771Y32335D01*
X629543Y31288D01*
X629241Y30260D01*
X628867Y29256D01*
X628422Y28281D01*
X627908Y27341D01*
X627329Y26440D01*
X626687Y25582D01*
X625985Y24772D01*
X625228Y24015D01*
X624418Y23313D01*
X623560Y22671D01*
X622659Y22092D01*
X621719Y21578D01*
X620744Y21133D01*
X619740Y20759D01*
X618712Y20457D01*
X617665Y20229D01*
X616604Y20076D01*
X615536Y20000D01*
X614464Y20000D01*
X613396Y20076D01*
X612335Y20229D01*
X611288Y20457D01*
X610260Y20759D01*
X609256Y21133D01*
X608281Y21578D01*
X607341Y22092D01*
X606440Y22671D01*
X605582Y23313D01*
X604772Y24015D01*
X604015Y24772D01*
X603313Y25582D01*
X602671Y26440D01*
X602092Y27341D01*
X601578Y28281D01*
X601133Y29256D01*
X600759Y30260D01*
X600457Y31288D01*
X600229Y32335D01*
X600076Y33396D01*
X600000Y34464D01*
X600000Y35536D01*
X600076Y36604D01*
X600229Y37665D01*
X600457Y38712D01*
X600759Y39740D01*
X601133Y40744D01*
X601578Y41719D01*
X602092Y42659D01*
X602671Y43560D01*
X603313Y44418D01*
X604015Y45228D01*
X604772Y45985D01*
X605582Y46687D01*
X606440Y47329D01*
X607341Y47908D01*
X608281Y48422D01*
X609256Y48867D01*
X610260Y49241D01*
X611288Y49543D01*
X612335Y49771D01*
X613396Y49924D01*
X614464Y50000D01*
X615536Y50000D01*
X616604Y49924D01*
X617665Y49771D01*
X618712Y49543D01*
X619740Y49241D01*
X620744Y48867D01*
X621719Y48422D01*
X622659Y47908D01*
X623560Y47329D01*
X624418Y46687D01*
X625228Y45985D01*
X625985Y45228D01*
X626687Y44418D01*
X627329Y43560D01*
X627908Y42659D01*
X628422Y41719D01*
X628867Y40744D01*
X629241Y39740D01*
X629543Y38712D01*
X629771Y37665D01*
X629924Y36604D01*
X630000Y35536D01*
X630000Y34464D01*
X50000Y34464D02*
X49924Y33396D01*
X49771Y32335D01*
X49543Y31288D01*
X49241Y30260D01*
X48867Y29256D01*
X48422Y28281D01*
X47908Y27341D01*
X47329Y26440D01*
X46687Y25582D01*
X45985Y24772D01*
X45228Y24015D01*
X44418Y23313D01*
X43560Y22671D01*
X42659Y22092D01*
X41719Y21578D01*
X40744Y21133D01*
X39740Y20759D01*
X38712Y20457D01*
X37665Y20229D01*
X36604Y20076D01*
X35536Y20000D01*
X34464Y20000D01*
X33396Y20076D01*
X32335Y20229D01*
X31288Y20457D01*
X30260Y20759D01*
X29256Y21133D01*
X28281Y21578D01*
X27341Y22092D01*
X26440Y22671D01*
X25582Y23313D01*
X24772Y24015D01*
X24015Y24772D01*
X23313Y25582D01*
X22671Y26440D01*
X22092Y27341D01*
X21578Y28281D01*
X21133Y29256D01*
X20759Y30260D01*
X20457Y31288D01*
X20229Y32335D01*
X20076Y33396D01*
X20000Y34464D01*
X20000Y35536D01*
X20076Y36604D01*
X20229Y37665D01*
X20457Y38712D01*
X20759Y39740D01*
X21133Y40744D01*
X21578Y41719D01*
X22092Y42659D01*
X22671Y43560D01*
X23313Y44418D01*
X24015Y45228D01*
X24772Y45985D01*
X25582Y46687D01*
X26440Y47329D01*
X27341Y47908D01*
X28281Y48422D01*
X29256Y48867D01*
X30260Y49241D01*
X31288Y49543D01*
X32335Y49771D01*
X33396Y49924D01*
X34464Y50000D01*
X35536Y50000D01*
X36604Y49924D01*
X37665Y49771D01*
X38712Y49543D01*
X39740Y49241D01*
X40744Y48867D01*
X41719Y48422D01*
X42659Y47908D01*
X43560Y47329D01*
X44418Y46687D01*
X45228Y45985D01*
X45985Y45228D01*
X46687Y44418D01*
X47329Y43560D01*
X47908Y42659D01*
X48422Y41719D01*
X48867Y40744D01*
X49241Y39740D01*
X49543Y38712D01*
X49771Y37665D01*
X49924Y36604D01*
X50000Y35536D01*
X50000Y34464D01*
M02*
