G04 EAGLE Gerber RS-274X export*
G75*
%MOMM*%
%FSLAX34Y34*%
%LPD*%
%AMOC8*
5,1,8,0,0,1.08239X$1,22.5*%
G01*
%ADD10C,0.254000*%


D10*
X0Y20031D02*
X76Y18288D01*
X304Y16558D01*
X681Y14854D01*
X1206Y13190D01*
X1874Y11578D01*
X2680Y10031D01*
X3617Y8559D01*
X4679Y7175D01*
X5858Y5889D01*
X7144Y4710D01*
X8528Y3648D01*
X10000Y2710D01*
X11548Y1905D01*
X13160Y1237D01*
X14824Y712D01*
X16527Y335D01*
X18257Y107D01*
X20000Y31D01*
X20031Y31D01*
X629498Y969D01*
X631241Y1049D01*
X632971Y1279D01*
X634674Y1660D01*
X636337Y2188D01*
X637949Y2859D01*
X639495Y3667D01*
X640965Y4608D01*
X642348Y5673D01*
X643633Y6854D01*
X644809Y8143D01*
X645869Y9529D01*
X646804Y11003D01*
X647607Y12552D01*
X648272Y14166D01*
X648794Y15831D01*
X649169Y17535D01*
X649394Y19266D01*
X649467Y20901D01*
X650333Y279631D01*
X650263Y281375D01*
X650041Y283105D01*
X649669Y284810D01*
X649150Y286476D01*
X648488Y288090D01*
X647687Y289641D01*
X646755Y291115D01*
X645697Y292503D01*
X644523Y293794D01*
X643240Y294977D01*
X641860Y296044D01*
X640391Y296986D01*
X638846Y297797D01*
X637236Y298470D01*
X635574Y299001D01*
X633872Y299384D01*
X632143Y299618D01*
X630400Y299700D01*
X630333Y299700D01*
X20000Y299700D01*
X18257Y299624D01*
X16527Y299396D01*
X14824Y299019D01*
X13160Y298494D01*
X11548Y297826D01*
X10000Y297021D01*
X8528Y296083D01*
X7144Y295021D01*
X5858Y293842D01*
X4679Y292556D01*
X3617Y291172D01*
X2680Y289700D01*
X1874Y288152D01*
X1206Y286540D01*
X681Y284876D01*
X304Y283173D01*
X76Y281443D01*
X0Y279700D01*
X0Y20031D01*
X50000Y261464D02*
X49924Y260396D01*
X49771Y259335D01*
X49543Y258288D01*
X49241Y257260D01*
X48867Y256256D01*
X48422Y255281D01*
X47908Y254341D01*
X47329Y253440D01*
X46687Y252582D01*
X45985Y251772D01*
X45228Y251015D01*
X44418Y250313D01*
X43560Y249671D01*
X42659Y249092D01*
X41719Y248578D01*
X40744Y248133D01*
X39740Y247759D01*
X38712Y247457D01*
X37665Y247229D01*
X36604Y247076D01*
X35536Y247000D01*
X34464Y247000D01*
X33396Y247076D01*
X32335Y247229D01*
X31288Y247457D01*
X30260Y247759D01*
X29256Y248133D01*
X28281Y248578D01*
X27341Y249092D01*
X26440Y249671D01*
X25582Y250313D01*
X24772Y251015D01*
X24015Y251772D01*
X23313Y252582D01*
X22671Y253440D01*
X22092Y254341D01*
X21578Y255281D01*
X21133Y256256D01*
X20759Y257260D01*
X20457Y258288D01*
X20229Y259335D01*
X20076Y260396D01*
X20000Y261464D01*
X20000Y262536D01*
X20076Y263604D01*
X20229Y264665D01*
X20457Y265712D01*
X20759Y266740D01*
X21133Y267744D01*
X21578Y268719D01*
X22092Y269659D01*
X22671Y270560D01*
X23313Y271418D01*
X24015Y272228D01*
X24772Y272985D01*
X25582Y273687D01*
X26440Y274329D01*
X27341Y274908D01*
X28281Y275422D01*
X29256Y275867D01*
X30260Y276241D01*
X31288Y276543D01*
X32335Y276771D01*
X33396Y276924D01*
X34464Y277000D01*
X35536Y277000D01*
X36604Y276924D01*
X37665Y276771D01*
X38712Y276543D01*
X39740Y276241D01*
X40744Y275867D01*
X41719Y275422D01*
X42659Y274908D01*
X43560Y274329D01*
X44418Y273687D01*
X45228Y272985D01*
X45985Y272228D01*
X46687Y271418D01*
X47329Y270560D01*
X47908Y269659D01*
X48422Y268719D01*
X48867Y267744D01*
X49241Y266740D01*
X49543Y265712D01*
X49771Y264665D01*
X49924Y263604D01*
X50000Y262536D01*
X50000Y261464D01*
X630000Y261464D02*
X629924Y260396D01*
X629771Y259335D01*
X629543Y258288D01*
X629241Y257260D01*
X628867Y256256D01*
X628422Y255281D01*
X627908Y254341D01*
X627329Y253440D01*
X626687Y252582D01*
X625985Y251772D01*
X625228Y251015D01*
X624418Y250313D01*
X623560Y249671D01*
X622659Y249092D01*
X621719Y248578D01*
X620744Y248133D01*
X619740Y247759D01*
X618712Y247457D01*
X617665Y247229D01*
X616604Y247076D01*
X615536Y247000D01*
X614464Y247000D01*
X613396Y247076D01*
X612335Y247229D01*
X611288Y247457D01*
X610260Y247759D01*
X609256Y248133D01*
X608281Y248578D01*
X607341Y249092D01*
X606440Y249671D01*
X605582Y250313D01*
X604772Y251015D01*
X604015Y251772D01*
X603313Y252582D01*
X602671Y253440D01*
X602092Y254341D01*
X601578Y255281D01*
X601133Y256256D01*
X600759Y257260D01*
X600457Y258288D01*
X600229Y259335D01*
X600076Y260396D01*
X600000Y261464D01*
X600000Y262536D01*
X600076Y263604D01*
X600229Y264665D01*
X600457Y265712D01*
X600759Y266740D01*
X601133Y267744D01*
X601578Y268719D01*
X602092Y269659D01*
X602671Y270560D01*
X603313Y271418D01*
X604015Y272228D01*
X604772Y272985D01*
X605582Y273687D01*
X606440Y274329D01*
X607341Y274908D01*
X608281Y275422D01*
X609256Y275867D01*
X610260Y276241D01*
X611288Y276543D01*
X612335Y276771D01*
X613396Y276924D01*
X614464Y277000D01*
X615536Y277000D01*
X616604Y276924D01*
X617665Y276771D01*
X618712Y276543D01*
X619740Y276241D01*
X620744Y275867D01*
X621719Y275422D01*
X622659Y274908D01*
X623560Y274329D01*
X624418Y273687D01*
X625228Y272985D01*
X625985Y272228D01*
X626687Y271418D01*
X627329Y270560D01*
X627908Y269659D01*
X628422Y268719D01*
X628867Y267744D01*
X629241Y266740D01*
X629543Y265712D01*
X629771Y264665D01*
X629924Y263604D01*
X630000Y262536D01*
X630000Y261464D01*
X630000Y34464D02*
X629924Y33396D01*
X629771Y32335D01*
X629543Y31288D01*
X629241Y30260D01*
X628867Y29256D01*
X628422Y28281D01*
X627908Y27341D01*
X627329Y26440D01*
X626687Y25582D01*
X625985Y24772D01*
X625228Y24015D01*
X624418Y23313D01*
X623560Y22671D01*
X622659Y22092D01*
X621719Y21578D01*
X620744Y21133D01*
X619740Y20759D01*
X618712Y20457D01*
X617665Y20229D01*
X616604Y20076D01*
X615536Y20000D01*
X614464Y20000D01*
X613396Y20076D01*
X612335Y20229D01*
X611288Y20457D01*
X610260Y20759D01*
X609256Y21133D01*
X608281Y21578D01*
X607341Y22092D01*
X606440Y22671D01*
X605582Y23313D01*
X604772Y24015D01*
X604015Y24772D01*
X603313Y25582D01*
X602671Y26440D01*
X602092Y27341D01*
X601578Y28281D01*
X601133Y29256D01*
X600759Y30260D01*
X600457Y31288D01*
X600229Y32335D01*
X600076Y33396D01*
X600000Y34464D01*
X600000Y35536D01*
X600076Y36604D01*
X600229Y37665D01*
X600457Y38712D01*
X600759Y39740D01*
X601133Y40744D01*
X601578Y41719D01*
X602092Y42659D01*
X602671Y43560D01*
X603313Y44418D01*
X604015Y45228D01*
X604772Y45985D01*
X605582Y46687D01*
X606440Y47329D01*
X607341Y47908D01*
X608281Y48422D01*
X609256Y48867D01*
X610260Y49241D01*
X611288Y49543D01*
X612335Y49771D01*
X613396Y49924D01*
X614464Y50000D01*
X615536Y50000D01*
X616604Y49924D01*
X617665Y49771D01*
X618712Y49543D01*
X619740Y49241D01*
X620744Y48867D01*
X621719Y48422D01*
X622659Y47908D01*
X623560Y47329D01*
X624418Y46687D01*
X625228Y45985D01*
X625985Y45228D01*
X626687Y44418D01*
X627329Y43560D01*
X627908Y42659D01*
X628422Y41719D01*
X628867Y40744D01*
X629241Y39740D01*
X629543Y38712D01*
X629771Y37665D01*
X629924Y36604D01*
X630000Y35536D01*
X630000Y34464D01*
X50000Y34464D02*
X49924Y33396D01*
X49771Y32335D01*
X49543Y31288D01*
X49241Y30260D01*
X48867Y29256D01*
X48422Y28281D01*
X47908Y27341D01*
X47329Y26440D01*
X46687Y25582D01*
X45985Y24772D01*
X45228Y24015D01*
X44418Y23313D01*
X43560Y22671D01*
X42659Y22092D01*
X41719Y21578D01*
X40744Y21133D01*
X39740Y20759D01*
X38712Y20457D01*
X37665Y20229D01*
X36604Y20076D01*
X35536Y20000D01*
X34464Y20000D01*
X33396Y20076D01*
X32335Y20229D01*
X31288Y20457D01*
X30260Y20759D01*
X29256Y21133D01*
X28281Y21578D01*
X27341Y22092D01*
X26440Y22671D01*
X25582Y23313D01*
X24772Y24015D01*
X24015Y24772D01*
X23313Y25582D01*
X22671Y26440D01*
X22092Y27341D01*
X21578Y28281D01*
X21133Y29256D01*
X20759Y30260D01*
X20457Y31288D01*
X20229Y32335D01*
X20076Y33396D01*
X20000Y34464D01*
X20000Y35536D01*
X20076Y36604D01*
X20229Y37665D01*
X20457Y38712D01*
X20759Y39740D01*
X21133Y40744D01*
X21578Y41719D01*
X22092Y42659D01*
X22671Y43560D01*
X23313Y44418D01*
X24015Y45228D01*
X24772Y45985D01*
X25582Y46687D01*
X26440Y47329D01*
X27341Y47908D01*
X28281Y48422D01*
X29256Y48867D01*
X30260Y49241D01*
X31288Y49543D01*
X32335Y49771D01*
X33396Y49924D01*
X34464Y50000D01*
X35536Y50000D01*
X36604Y49924D01*
X37665Y49771D01*
X38712Y49543D01*
X39740Y49241D01*
X40744Y48867D01*
X41719Y48422D01*
X42659Y47908D01*
X43560Y47329D01*
X44418Y46687D01*
X45228Y45985D01*
X45985Y45228D01*
X46687Y44418D01*
X47329Y43560D01*
X47908Y42659D01*
X48422Y41719D01*
X48867Y40744D01*
X49241Y39740D01*
X49543Y38712D01*
X49771Y37665D01*
X49924Y36604D01*
X50000Y35536D01*
X50000Y34464D01*
M02*
