G04 EAGLE Gerber RS-274X export*
G75*
%MOMM*%
%FSLAX34Y34*%
%LPD*%
%AMOC8*
5,1,8,0,0,1.08239X$1,22.5*%
G01*
%ADD10R,0.025400X0.025400*%
%ADD11R,0.076200X0.025400*%
%ADD12R,0.127000X0.025400*%
%ADD13R,0.010162X0.010162*%
%ADD14R,0.010156X0.010162*%
%ADD15R,1.838956X0.010162*%
%ADD16R,2.021838X0.010156*%
%ADD17R,0.010156X0.010156*%
%ADD18R,2.062481X0.010156*%
%ADD19R,2.123438X0.010156*%
%ADD20R,2.164081X0.010156*%
%ADD21R,2.214875X0.010162*%
%ADD22R,2.245356X0.010156*%
%ADD23R,2.275838X0.010156*%
%ADD24R,2.306319X0.010156*%
%ADD25R,2.336800X0.010156*%
%ADD26R,2.357119X0.010162*%
%ADD27R,2.387600X0.010156*%
%ADD28R,2.397756X0.010156*%
%ADD29R,2.428238X0.010156*%
%ADD30R,2.448556X0.010156*%
%ADD31R,2.468881X0.010162*%
%ADD32R,2.468881X0.010156*%
%ADD33R,2.499356X0.010156*%
%ADD34R,2.509519X0.010156*%
%ADD35R,2.529838X0.010156*%
%ADD36R,2.529838X0.010162*%
%ADD37R,2.550156X0.010156*%
%ADD38R,2.560319X0.010156*%
%ADD39R,2.580637X0.010156*%
%ADD40R,1.209037X0.010162*%
%ADD41R,0.447038X0.010162*%
%ADD42R,1.168400X0.010156*%
%ADD43R,0.396238X0.010156*%
%ADD44R,1.137919X0.010156*%
%ADD45R,0.375919X0.010156*%
%ADD46R,1.107438X0.010156*%
%ADD47R,0.365756X0.010156*%
%ADD48R,0.355600X0.010156*%
%ADD49R,1.087119X0.010162*%
%ADD50R,0.345438X0.010162*%
%ADD51R,0.050800X0.010162*%
%ADD52R,1.087119X0.010156*%
%ADD53R,0.335281X0.010156*%
%ADD54R,0.233681X0.010156*%
%ADD55R,0.010162X0.010156*%
%ADD56R,0.233675X0.010156*%
%ADD57R,0.213356X0.010156*%
%ADD58R,0.254000X0.010156*%
%ADD59R,0.335275X0.010156*%
%ADD60R,1.056638X0.010156*%
%ADD61R,0.314956X0.010156*%
%ADD62R,0.436875X0.010156*%
%ADD63R,1.046481X0.010156*%
%ADD64R,0.325119X0.010156*%
%ADD65R,0.436881X0.010156*%
%ADD66R,0.457200X0.010156*%
%ADD67R,0.416556X0.010156*%
%ADD68R,0.477519X0.010156*%
%ADD69R,0.538475X0.010156*%
%ADD70R,1.046475X0.010156*%
%ADD71R,0.304800X0.010156*%
%ADD72R,0.497838X0.010156*%
%ADD73R,0.518156X0.010156*%
%ADD74R,0.599438X0.010156*%
%ADD75R,1.046475X0.010162*%
%ADD76R,0.314956X0.010162*%
%ADD77R,0.406400X0.010162*%
%ADD78R,0.579119X0.010162*%
%ADD79R,0.365756X0.010162*%
%ADD80R,0.508000X0.010162*%
%ADD81R,0.538475X0.010162*%
%ADD82R,0.548638X0.010162*%
%ADD83R,0.660400X0.010162*%
%ADD84R,1.036319X0.010156*%
%ADD85R,0.294637X0.010156*%
%ADD86R,0.619756X0.010156*%
%ADD87R,0.568956X0.010156*%
%ADD88R,0.721356X0.010156*%
%ADD89R,0.680719X0.010156*%
%ADD90R,0.508000X0.010156*%
%ADD91R,0.660400X0.010156*%
%ADD92R,0.589275X0.010156*%
%ADD93R,0.762000X0.010156*%
%ADD94R,1.026163X0.010156*%
%ADD95R,0.701037X0.010156*%
%ADD96R,0.802638X0.010156*%
%ADD97R,1.026156X0.010156*%
%ADD98R,0.741675X0.010156*%
%ADD99R,0.629919X0.010156*%
%ADD100R,0.822956X0.010156*%
%ADD101R,1.026156X0.010162*%
%ADD102R,0.294637X0.010162*%
%ADD103R,0.396238X0.010162*%
%ADD104R,0.782319X0.010162*%
%ADD105R,0.762000X0.010162*%
%ADD106R,0.619756X0.010162*%
%ADD107R,0.843275X0.010162*%
%ADD108R,0.904238X0.010156*%
%ADD109R,1.005837X0.010156*%
%ADD110R,0.843275X0.010156*%
%ADD111R,0.863600X0.010156*%
%ADD112R,0.833119X0.010156*%
%ADD113R,0.650238X0.010156*%
%ADD114R,0.924556X0.010156*%
%ADD115R,1.016000X0.010156*%
%ADD116R,0.883919X0.010156*%
%ADD117R,0.670563X0.010156*%
%ADD118R,0.944875X0.010156*%
%ADD119R,0.965200X0.010156*%
%ADD120R,1.026163X0.010162*%
%ADD121R,0.944875X0.010162*%
%ADD122R,0.375919X0.010162*%
%ADD123R,0.518156X0.010162*%
%ADD124R,0.914400X0.010162*%
%ADD125R,0.690881X0.010162*%
%ADD126R,0.985519X0.010162*%
%ADD127R,0.975363X0.010156*%
%ADD128R,0.934719X0.010156*%
%ADD129R,0.406400X0.010156*%
%ADD130R,0.985519X0.010156*%
%ADD131R,0.975356X0.010156*%
%ADD132R,0.284481X0.010156*%
%ADD133R,0.711200X0.010156*%
%ADD134R,1.056638X0.010162*%
%ADD135R,1.066800X0.010162*%
%ADD136R,0.487681X0.010162*%
%ADD137R,0.711200X0.010162*%
%ADD138R,1.076963X0.010156*%
%ADD139R,0.487681X0.010156*%
%ADD140R,0.721363X0.010156*%
%ADD141R,1.097281X0.010156*%
%ADD142R,1.066800X0.010156*%
%ADD143R,1.127756X0.010156*%
%ADD144R,0.731519X0.010156*%
%ADD145R,0.284475X0.010156*%
%ADD146R,1.036319X0.010162*%
%ADD147R,1.158238X0.010162*%
%ADD148R,0.487675X0.010162*%
%ADD149R,1.127756X0.010162*%
%ADD150R,0.741681X0.010162*%
%ADD151R,1.158238X0.010156*%
%ADD152R,1.188719X0.010156*%
%ADD153R,0.741681X0.010156*%
%ADD154R,1.198881X0.010156*%
%ADD155R,1.117600X0.010156*%
%ADD156R,0.995681X0.010156*%
%ADD157R,1.209037X0.010156*%
%ADD158R,1.219200X0.010156*%
%ADD159R,1.229356X0.010162*%
%ADD160R,1.219200X0.010162*%
%ADD161R,0.477519X0.010162*%
%ADD162R,1.097275X0.010162*%
%ADD163R,0.751838X0.010162*%
%ADD164R,0.355600X0.010162*%
%ADD165R,1.249675X0.010156*%
%ADD166R,1.239519X0.010156*%
%ADD167R,0.538481X0.010156*%
%ADD168R,0.426719X0.010156*%
%ADD169R,0.751838X0.010156*%
%ADD170R,1.249681X0.010156*%
%ADD171R,0.274319X0.010156*%
%ADD172R,1.259838X0.010156*%
%ADD173R,1.270000X0.010156*%
%ADD174R,0.243838X0.010156*%
%ADD175R,0.528319X0.010156*%
%ADD176R,0.071119X0.010156*%
%ADD177R,0.193038X0.010156*%
%ADD178R,1.290319X0.010162*%
%ADD179R,1.280156X0.010162*%
%ADD180R,0.457200X0.010162*%
%ADD181R,0.274319X0.010162*%
%ADD182R,0.497838X0.010162*%
%ADD183R,0.040638X0.010162*%
%ADD184R,0.193038X0.010162*%
%ADD185R,0.426719X0.010162*%
%ADD186R,0.548638X0.010156*%
%ADD187R,0.558800X0.010156*%
%ADD188R,0.467356X0.010156*%
%ADD189R,0.152400X0.010156*%
%ADD190R,1.076956X0.010156*%
%ADD191R,0.416563X0.010156*%
%ADD192R,0.518162X0.010156*%
%ADD193R,0.447038X0.010156*%
%ADD194R,0.223519X0.010156*%
%ADD195R,0.132075X0.010156*%
%ADD196R,0.172719X0.010156*%
%ADD197R,0.111756X0.010156*%
%ADD198R,1.097275X0.010156*%
%ADD199R,0.101600X0.010156*%
%ADD200R,0.335281X0.010162*%
%ADD201R,0.132081X0.010162*%
%ADD202R,0.071119X0.010162*%
%ADD203R,0.487675X0.010156*%
%ADD204R,0.060963X0.010156*%
%ADD205R,0.467363X0.010156*%
%ADD206R,0.091438X0.010156*%
%ADD207R,0.030475X0.010156*%
%ADD208R,0.040638X0.010156*%
%ADD209R,1.137919X0.010162*%
%ADD210R,0.436881X0.010162*%
%ADD211R,0.203200X0.010162*%
%ADD212R,0.416556X0.010162*%
%ADD213R,0.020319X0.010162*%
%ADD214R,0.436875X0.010162*%
%ADD215R,0.162562X0.010156*%
%ADD216R,1.148075X0.010156*%
%ADD217R,0.365762X0.010162*%
%ADD218R,0.467356X0.010162*%
%ADD219R,0.030481X0.010156*%
%ADD220R,0.843281X0.010156*%
%ADD221R,0.822963X0.010156*%
%ADD222R,0.386081X0.010156*%
%ADD223R,0.822956X0.010162*%
%ADD224R,1.310638X0.010156*%
%ADD225R,0.782319X0.010156*%
%ADD226R,0.589281X0.010156*%
%ADD227R,0.812800X0.010156*%
%ADD228R,1.330956X0.010156*%
%ADD229R,0.792481X0.010156*%
%ADD230R,1.320800X0.010156*%
%ADD231R,1.320800X0.010162*%
%ADD232R,0.863600X0.010162*%
%ADD233R,0.081275X0.010156*%
%ADD234R,0.772163X0.010156*%
%ADD235R,0.894081X0.010156*%
%ADD236R,0.335275X0.010162*%
%ADD237R,1.330956X0.010162*%
%ADD238R,0.904238X0.010162*%
%ADD239R,0.132081X0.010156*%
%ADD240R,0.314963X0.010156*%
%ADD241R,1.341119X0.010156*%
%ADD242R,0.182875X0.010162*%
%ADD243R,0.284481X0.010162*%
%ADD244R,0.690875X0.010162*%
%ADD245R,0.203200X0.010156*%
%ADD246R,0.690875X0.010156*%
%ADD247R,0.873756X0.010156*%
%ADD248R,0.670556X0.010156*%
%ADD249R,0.243838X0.010162*%
%ADD250R,0.304800X0.010162*%
%ADD251R,0.853438X0.010162*%
%ADD252R,0.264156X0.010156*%
%ADD253R,0.772156X0.010156*%
%ADD254R,0.416563X0.010162*%
%ADD255R,0.721356X0.010162*%
%ADD256R,1.310638X0.010162*%
%ADD257R,0.701037X0.010162*%
%ADD258R,0.528319X0.010162*%
%ADD259R,0.386081X0.010162*%
%ADD260R,0.386075X0.010156*%
%ADD261R,0.345438X0.010156*%
%ADD262R,0.050800X0.010156*%
%ADD263R,0.121919X0.010162*%
%ADD264R,0.365762X0.010156*%
%ADD265R,0.853438X0.010156*%
%ADD266R,0.599438X0.010162*%
%ADD267R,0.538481X0.010162*%
%ADD268R,0.873756X0.010162*%
%ADD269R,0.030481X0.010162*%
%ADD270R,0.579119X0.010156*%
%ADD271R,0.609600X0.010156*%
%ADD272R,0.568963X0.010156*%
%ADD273R,0.609600X0.010162*%
%ADD274R,0.640081X0.010162*%
%ADD275R,1.229356X0.010156*%
%ADD276R,0.914400X0.010156*%
%ADD277R,0.640075X0.010156*%
%ADD278R,1.016000X0.010162*%
%ADD279R,0.284475X0.010162*%
%ADD280R,0.924563X0.010162*%
%ADD281R,1.148081X0.010162*%
%ADD282R,0.924556X0.010162*%
%ADD283R,0.944881X0.010156*%
%ADD284R,1.117600X0.010162*%
%ADD285R,0.995681X0.010162*%
%ADD286R,1.005837X0.010162*%
%ADD287R,0.944881X0.010162*%
%ADD288R,0.955038X0.010156*%
%ADD289R,1.097281X0.010162*%
%ADD290R,0.772156X0.010162*%
%ADD291R,0.619762X0.010156*%
%ADD292R,0.314963X0.010162*%
%ADD293R,0.558800X0.010162*%
%ADD294R,1.534156X0.010156*%
%ADD295R,1.564638X0.010156*%
%ADD296R,1.554481X0.010162*%
%ADD297R,1.554481X0.010156*%
%ADD298R,1.534156X0.010162*%
%ADD299R,1.544319X0.010156*%
%ADD300R,1.513838X0.010156*%
%ADD301R,1.513838X0.010162*%
%ADD302R,1.503681X0.010156*%
%ADD303R,1.493519X0.010156*%
%ADD304R,1.483356X0.010156*%
%ADD305R,1.473200X0.010162*%
%ADD306R,1.473200X0.010156*%
%ADD307R,1.463037X0.010156*%
%ADD308R,1.452881X0.010156*%
%ADD309R,1.452881X0.010162*%
%ADD310R,1.452875X0.010156*%
%ADD311R,1.442719X0.010156*%
%ADD312R,1.432556X0.010156*%
%ADD313R,1.402075X0.010162*%
%ADD314R,1.391919X0.010156*%
%ADD315R,1.371600X0.010156*%
%ADD316R,1.371600X0.010162*%
%ADD317R,1.290319X0.010156*%
%ADD318R,1.239519X0.010162*%
%ADD319R,0.233681X0.010162*%
%ADD320R,0.223519X0.010162*%
%ADD321R,0.213356X0.010162*%
%ADD322R,0.680719X0.010162*%
%ADD323R,0.690881X0.010156*%
%ADD324R,0.254000X0.010162*%
%ADD325R,0.955038X0.010162*%
%ADD326R,1.107438X0.010162*%
%ADD327R,1.280156X0.010156*%
%ADD328R,1.178556X0.010156*%
%ADD329R,1.300481X0.010156*%
%ADD330R,1.178556X0.010162*%
%ADD331R,1.127763X0.010156*%
%ADD332R,0.264163X0.010156*%
%ADD333R,1.270000X0.010162*%
%ADD334R,1.341119X0.010162*%
%ADD335R,1.351281X0.010156*%
%ADD336R,0.640081X0.010156*%
%ADD337R,0.822963X0.010162*%
%ADD338R,0.182881X0.010156*%
%ADD339R,0.812800X0.010162*%
%ADD340R,0.091438X0.010162*%
%ADD341R,0.650238X0.010162*%
%ADD342R,0.589281X0.010162*%
%ADD343R,0.386075X0.010162*%
%ADD344R,0.142238X0.010156*%
%ADD345R,1.259838X0.010162*%
%ADD346R,1.188719X0.010162*%
%ADD347R,1.300481X0.010162*%
%ADD348R,1.148081X0.010156*%
%ADD349R,1.046481X0.010162*%
%ADD350R,0.873762X0.010156*%
%ADD351R,0.670556X0.010162*%
%ADD352R,0.883919X0.010162*%
%ADD353R,0.741675X0.010162*%
%ADD354R,0.325119X0.010162*%
%ADD355R,2.590800X0.010156*%
%ADD356R,2.570481X0.010156*%
%ADD357R,2.550163X0.010162*%
%ADD358R,2.540000X0.010156*%
%ADD359R,2.519675X0.010156*%
%ADD360R,2.489200X0.010162*%
%ADD361R,2.458719X0.010156*%
%ADD362R,2.448562X0.010156*%
%ADD363R,2.418075X0.010156*%
%ADD364R,2.407919X0.010156*%
%ADD365R,2.367281X0.010162*%
%ADD366R,2.367281X0.010156*%
%ADD367R,2.326637X0.010156*%
%ADD368R,2.265681X0.010156*%
%ADD369R,2.245363X0.010162*%
%ADD370R,2.204719X0.010156*%
%ADD371R,2.103119X0.010156*%
%ADD372R,2.001519X0.010162*%
%ADD373R,1.899919X0.010156*%
%ADD374C,0.050800*%
%ADD375C,0.203200*%
%ADD376C,0.127000*%
%ADD377C,0.101600*%
%ADD378R,0.150000X0.300000*%
%ADD379R,0.300000X0.300000*%
%ADD380C,0.254000*%
%ADD381C,0.025400*%


D10*
X145796Y11938D03*
X146050Y13716D03*
X145288Y13970D03*
D11*
X146050Y13970D03*
D12*
X146050Y14224D03*
D10*
X146050Y17780D03*
X145288Y18034D03*
D13*
X192430Y170180D03*
D14*
X192634Y170180D03*
D15*
X201981Y170180D03*
D14*
X211328Y170180D03*
X211531Y170180D03*
D16*
X201981Y170282D03*
D17*
X191618Y170383D03*
D18*
X202082Y170383D03*
D19*
X202082Y170485D03*
D20*
X201981Y170586D03*
D21*
X202032Y170688D03*
D22*
X201981Y170790D03*
D23*
X202032Y170891D03*
D24*
X202082Y170993D03*
D25*
X202032Y171094D03*
D26*
X202032Y171196D03*
D27*
X201981Y171298D03*
D28*
X202032Y171399D03*
D29*
X201981Y171501D03*
D30*
X201981Y171602D03*
D31*
X201981Y171704D03*
D32*
X202082Y171806D03*
D33*
X202032Y171907D03*
D34*
X202082Y172009D03*
D35*
X202082Y172110D03*
D36*
X201981Y172212D03*
D37*
X201981Y172314D03*
D38*
X202032Y172415D03*
D39*
X202032Y172517D03*
X202032Y172618D03*
D40*
X195072Y172720D03*
D14*
X201270Y172720D03*
X201473Y172720D03*
X210414Y172720D03*
D41*
X212801Y172720D03*
D42*
X194767Y172822D03*
D43*
X213055Y172822D03*
D44*
X194615Y172923D03*
D45*
X213258Y172923D03*
D46*
X194462Y173025D03*
D47*
X213411Y173025D03*
D46*
X194361Y173126D03*
D48*
X213563Y173126D03*
D49*
X194158Y173228D03*
D50*
X213614Y173228D03*
D14*
X309880Y173228D03*
X310083Y173228D03*
D13*
X310286Y173228D03*
D14*
X310490Y173228D03*
D51*
X310896Y173228D03*
D13*
X311302Y173228D03*
D14*
X311506Y173228D03*
X311709Y173228D03*
X311912Y173228D03*
D52*
X194056Y173330D03*
D53*
X213665Y173330D03*
D17*
X246583Y173330D03*
D54*
X247904Y173330D03*
D17*
X249225Y173330D03*
X261823Y173330D03*
D55*
X262026Y173330D03*
D56*
X263347Y173330D03*
D17*
X287020Y173330D03*
D57*
X288239Y173330D03*
D55*
X289458Y173330D03*
D17*
X300431Y173330D03*
D58*
X301854Y173330D03*
D17*
X303276Y173330D03*
X303479Y173330D03*
X309169Y173330D03*
D59*
X310998Y173330D03*
D55*
X312826Y173330D03*
D60*
X193904Y173431D03*
D61*
X213868Y173431D03*
D17*
X246075Y173431D03*
D53*
X247904Y173431D03*
D17*
X249733Y173431D03*
D55*
X261518Y173431D03*
D61*
X263246Y173431D03*
D17*
X264973Y173431D03*
X286512Y173431D03*
D61*
X288239Y173431D03*
D55*
X289966Y173431D03*
X300126Y173431D03*
D48*
X302057Y173431D03*
D17*
X308661Y173431D03*
D62*
X310998Y173431D03*
D63*
X193853Y173533D03*
D64*
X213919Y173533D03*
D17*
X231343Y173533D03*
D55*
X231546Y173533D03*
D17*
X231750Y173533D03*
X231953Y173533D03*
X232156Y173533D03*
X232359Y173533D03*
D55*
X232562Y173533D03*
D17*
X232766Y173533D03*
X232969Y173533D03*
X233172Y173533D03*
X233375Y173533D03*
D55*
X233578Y173533D03*
D17*
X233782Y173533D03*
X233985Y173533D03*
X234188Y173533D03*
X234391Y173533D03*
D55*
X234594Y173533D03*
D17*
X234798Y173533D03*
X235001Y173533D03*
X235204Y173533D03*
D65*
X247904Y173533D03*
D17*
X250241Y173533D03*
D66*
X263246Y173533D03*
D17*
X270358Y173533D03*
X270561Y173533D03*
X270764Y173533D03*
X270967Y173533D03*
D55*
X271170Y173533D03*
D17*
X271374Y173533D03*
X271577Y173533D03*
X271780Y173533D03*
X271983Y173533D03*
D55*
X272186Y173533D03*
D17*
X272390Y173533D03*
X272593Y173533D03*
X272796Y173533D03*
X272999Y173533D03*
D55*
X273202Y173533D03*
D17*
X273406Y173533D03*
X273609Y173533D03*
X273812Y173533D03*
D55*
X277266Y173533D03*
D17*
X277470Y173533D03*
X277673Y173533D03*
X277876Y173533D03*
X278079Y173533D03*
D55*
X278282Y173533D03*
D17*
X278486Y173533D03*
X278689Y173533D03*
X278892Y173533D03*
X279095Y173533D03*
D55*
X279298Y173533D03*
D17*
X279502Y173533D03*
X279705Y173533D03*
X279908Y173533D03*
X280111Y173533D03*
D55*
X280314Y173533D03*
D17*
X280518Y173533D03*
X280721Y173533D03*
X280924Y173533D03*
X281127Y173533D03*
D55*
X281330Y173533D03*
D17*
X281534Y173533D03*
X281737Y173533D03*
X281940Y173533D03*
X282143Y173533D03*
X286004Y173533D03*
D67*
X288239Y173533D03*
D55*
X290474Y173533D03*
D68*
X301955Y173533D03*
D17*
X308153Y173533D03*
D69*
X310998Y173533D03*
D70*
X193751Y173634D03*
D71*
X214020Y173634D03*
D43*
X233375Y173634D03*
D72*
X247904Y173634D03*
D17*
X250546Y173634D03*
X260706Y173634D03*
D68*
X263246Y173634D03*
D17*
X265786Y173634D03*
D45*
X272085Y173634D03*
D73*
X279705Y173634D03*
D68*
X288239Y173634D03*
D73*
X302057Y173634D03*
D17*
X307848Y173634D03*
D74*
X310998Y173634D03*
D75*
X193650Y173736D03*
D76*
X214071Y173736D03*
D77*
X233324Y173736D03*
D78*
X248006Y173736D03*
X263246Y173736D03*
D79*
X272136Y173736D03*
D80*
X279654Y173736D03*
D13*
X285394Y173736D03*
D81*
X288239Y173736D03*
D82*
X301904Y173736D03*
D83*
X310998Y173736D03*
D84*
X193599Y173838D03*
D85*
X214173Y173838D03*
D43*
X233375Y173838D03*
D86*
X247904Y173838D03*
D74*
X263246Y173838D03*
D45*
X272085Y173838D03*
D72*
X279603Y173838D03*
D74*
X288239Y173838D03*
D87*
X301803Y173838D03*
D88*
X310998Y173838D03*
D84*
X193497Y173939D03*
D71*
X214224Y173939D03*
D67*
X233375Y173939D03*
D89*
X247904Y173939D03*
X263347Y173939D03*
D47*
X272136Y173939D03*
D90*
X279552Y173939D03*
D91*
X288239Y173939D03*
D92*
X301701Y173939D03*
D93*
X310896Y173939D03*
D94*
X193446Y174041D03*
D71*
X214325Y174041D03*
D43*
X233375Y174041D03*
D88*
X248006Y174041D03*
D17*
X259690Y174041D03*
D95*
X263347Y174041D03*
D45*
X272085Y174041D03*
D90*
X279451Y174041D03*
D89*
X288239Y174041D03*
D74*
X301650Y174041D03*
D96*
X310998Y174041D03*
D97*
X193345Y174142D03*
D71*
X214325Y174142D03*
D67*
X233375Y174142D03*
D93*
X247904Y174142D03*
X263347Y174142D03*
D45*
X272186Y174142D03*
D73*
X279400Y174142D03*
D98*
X288239Y174142D03*
D99*
X301600Y174142D03*
D100*
X310998Y174142D03*
D101*
X193243Y174244D03*
D102*
X214376Y174244D03*
D103*
X233375Y174244D03*
D104*
X247904Y174244D03*
X263347Y174244D03*
D79*
X272136Y174244D03*
D80*
X279349Y174244D03*
D105*
X288239Y174244D03*
D106*
X301549Y174244D03*
D107*
X310998Y174244D03*
D97*
X193142Y174346D03*
D85*
X214478Y174346D03*
D67*
X233375Y174346D03*
D100*
X248006Y174346D03*
X263246Y174346D03*
D45*
X272186Y174346D03*
D72*
X279298Y174346D03*
D96*
X288239Y174346D03*
D91*
X301447Y174346D03*
D108*
X310998Y174346D03*
D109*
X193142Y174447D03*
D85*
X214579Y174447D03*
D43*
X233375Y174447D03*
D110*
X248006Y174447D03*
D111*
X263347Y174447D03*
D47*
X272136Y174447D03*
D72*
X279197Y174447D03*
D112*
X288290Y174447D03*
D113*
X301396Y174447D03*
D114*
X310998Y174447D03*
D115*
X193091Y174549D03*
D85*
X214681Y174549D03*
D67*
X233375Y174549D03*
D108*
X248006Y174549D03*
D116*
X263347Y174549D03*
D45*
X272186Y174549D03*
D72*
X279095Y174549D03*
D111*
X288239Y174549D03*
D117*
X301396Y174549D03*
D118*
X310998Y174549D03*
D115*
X192989Y174650D03*
D85*
X214681Y174650D03*
D43*
X233375Y174650D03*
D114*
X248006Y174650D03*
D108*
X263347Y174650D03*
D47*
X272136Y174650D03*
D72*
X279095Y174650D03*
D116*
X288239Y174650D03*
D91*
X301346Y174650D03*
D119*
X310998Y174650D03*
D120*
X192938Y174752D03*
D102*
X214681Y174752D03*
D77*
X233426Y174752D03*
D121*
X248006Y174752D03*
X263246Y174752D03*
D122*
X272186Y174752D03*
D123*
X278994Y174752D03*
D124*
X288290Y174752D03*
D125*
X301295Y174752D03*
D126*
X310998Y174752D03*
D115*
X192888Y174854D03*
D85*
X214782Y174854D03*
D43*
X233375Y174854D03*
D119*
X248006Y174854D03*
D127*
X263296Y174854D03*
D47*
X272136Y174854D03*
D72*
X278994Y174854D03*
D128*
X288290Y174854D03*
D89*
X301244Y174854D03*
D109*
X310998Y174854D03*
X192837Y174955D03*
D85*
X214884Y174955D03*
D129*
X233426Y174955D03*
D130*
X248006Y174955D03*
D109*
X263347Y174955D03*
D45*
X272186Y174955D03*
D72*
X278892Y174955D03*
D131*
X288290Y174955D03*
D95*
X301244Y174955D03*
D97*
X310998Y174955D03*
D109*
X192735Y175057D03*
D132*
X214935Y175057D03*
D129*
X233426Y175057D03*
D109*
X248006Y175057D03*
D97*
X263347Y175057D03*
D48*
X272186Y175057D03*
D72*
X278790Y175057D03*
D130*
X288341Y175057D03*
D95*
X301142Y175057D03*
D97*
X311099Y175057D03*
X192735Y175158D03*
D71*
X214935Y175158D03*
D129*
X233426Y175158D03*
D84*
X248056Y175158D03*
D70*
X263347Y175158D03*
D45*
X272186Y175158D03*
D72*
X278689Y175158D03*
D97*
X288239Y175158D03*
D133*
X301193Y175158D03*
D97*
X311201Y175158D03*
D101*
X192634Y175260D03*
D102*
X214986Y175260D03*
D77*
X233426Y175260D03*
D134*
X248056Y175260D03*
D135*
X263347Y175260D03*
D79*
X272237Y175260D03*
D136*
X278638Y175260D03*
D101*
X288341Y175260D03*
D137*
X301193Y175260D03*
D120*
X311302Y175260D03*
D115*
X192583Y175362D03*
D85*
X215087Y175362D03*
D43*
X233477Y175362D03*
D138*
X248056Y175362D03*
D52*
X263347Y175362D03*
D45*
X272186Y175362D03*
D139*
X278638Y175362D03*
D63*
X288341Y175362D03*
D140*
X301142Y175362D03*
D97*
X311404Y175362D03*
D109*
X192532Y175463D03*
D85*
X215189Y175463D03*
D129*
X233426Y175463D03*
D141*
X248056Y175463D03*
X263398Y175463D03*
D47*
X272237Y175463D03*
D72*
X278587Y175463D03*
D142*
X288341Y175463D03*
D140*
X301142Y175463D03*
D97*
X311506Y175463D03*
X192532Y175565D03*
D71*
X215240Y175565D03*
D43*
X233477Y175565D03*
D143*
X248107Y175565D03*
X263347Y175565D03*
D45*
X272186Y175565D03*
D72*
X278486Y175565D03*
D52*
X288341Y175565D03*
D144*
X301092Y175565D03*
D84*
X311556Y175565D03*
D94*
X192430Y175666D03*
D145*
X215240Y175666D03*
D129*
X233426Y175666D03*
D143*
X248006Y175666D03*
D44*
X263398Y175666D03*
D47*
X272237Y175666D03*
D72*
X278384Y175666D03*
D46*
X288341Y175666D03*
D144*
X301092Y175666D03*
D115*
X311658Y175666D03*
D146*
X192380Y175768D03*
D102*
X215290Y175768D03*
D103*
X233477Y175768D03*
D147*
X248056Y175768D03*
X263398Y175768D03*
D122*
X272186Y175768D03*
D148*
X278333Y175768D03*
D149*
X288341Y175768D03*
D150*
X301041Y175768D03*
D101*
X311709Y175768D03*
D94*
X192430Y175870D03*
D85*
X215392Y175870D03*
D129*
X233528Y175870D03*
D151*
X248056Y175870D03*
D42*
X263449Y175870D03*
D47*
X272237Y175870D03*
D68*
X278282Y175870D03*
D143*
X288239Y175870D03*
D144*
X301092Y175870D03*
D109*
X311810Y175870D03*
D97*
X192329Y175971D03*
D71*
X215443Y175971D03*
D43*
X233477Y175971D03*
D152*
X248006Y175971D03*
X263449Y175971D03*
D45*
X272186Y175971D03*
D72*
X278282Y175971D03*
D143*
X288138Y175971D03*
D153*
X301041Y175971D03*
D109*
X311912Y175971D03*
D84*
X192278Y176073D03*
D85*
X215494Y176073D03*
D129*
X233528Y176073D03*
D152*
X248107Y176073D03*
D154*
X263398Y176073D03*
D45*
X272288Y176073D03*
D72*
X278181Y176073D03*
D155*
X288087Y176073D03*
D153*
X301142Y176073D03*
D156*
X311963Y176073D03*
D70*
X192227Y176174D03*
D85*
X215494Y176174D03*
D43*
X233477Y176174D03*
D157*
X248107Y176174D03*
D158*
X263398Y176174D03*
D47*
X272237Y176174D03*
D72*
X278079Y176174D03*
D155*
X287985Y176174D03*
D153*
X301041Y176174D03*
D156*
X312064Y176174D03*
D146*
X192176Y176276D03*
D102*
X215595Y176276D03*
D77*
X233528Y176276D03*
D159*
X248107Y176276D03*
D160*
X263398Y176276D03*
D122*
X272288Y176276D03*
D161*
X278079Y176276D03*
D162*
X287884Y176276D03*
D163*
X301092Y176276D03*
D164*
X308966Y176276D03*
D14*
X310896Y176276D03*
X311099Y176276D03*
D13*
X311302Y176276D03*
D14*
X311506Y176276D03*
X311709Y176276D03*
D123*
X314452Y176276D03*
D60*
X192176Y176378D03*
D85*
X215697Y176378D03*
D129*
X233528Y176378D03*
D165*
X248107Y176378D03*
D166*
X263398Y176378D03*
D45*
X272288Y176378D03*
D139*
X277927Y176378D03*
D167*
X284988Y176378D03*
D17*
X287833Y176378D03*
X288849Y176378D03*
D168*
X291135Y176378D03*
D169*
X301092Y176378D03*
D64*
X308813Y176378D03*
D17*
X310591Y176378D03*
D72*
X314655Y176378D03*
D70*
X192126Y176479D03*
D145*
X215748Y176479D03*
D129*
X233528Y176479D03*
D165*
X248107Y176479D03*
D170*
X263449Y176479D03*
D45*
X272288Y176479D03*
D68*
X277876Y176479D03*
D72*
X284683Y176479D03*
D17*
X287325Y176479D03*
X289357Y176479D03*
D48*
X291287Y176479D03*
D169*
X301092Y176479D03*
D171*
X308762Y176479D03*
D17*
X312522Y176479D03*
D65*
X314858Y176479D03*
D60*
X192075Y176581D03*
D85*
X215798Y176581D03*
D129*
X233528Y176581D03*
D172*
X248158Y176581D03*
D173*
X263449Y176581D03*
D45*
X272288Y176581D03*
D72*
X277876Y176581D03*
D139*
X284632Y176581D03*
D59*
X291287Y176581D03*
D169*
X301092Y176581D03*
D174*
X308610Y176581D03*
D65*
X314960Y176581D03*
D142*
X192024Y176682D03*
D85*
X215798Y176682D03*
D43*
X233578Y176682D03*
D173*
X248107Y176682D03*
X263449Y176682D03*
D45*
X272288Y176682D03*
D72*
X277774Y176682D03*
D66*
X284480Y176682D03*
D85*
X291389Y176682D03*
D175*
X299974Y176682D03*
D17*
X303784Y176682D03*
X303987Y176682D03*
D176*
X304495Y176682D03*
D177*
X308559Y176682D03*
D168*
X315112Y176682D03*
D135*
X192024Y176784D03*
D102*
X215900Y176784D03*
D77*
X233528Y176784D03*
D178*
X248107Y176784D03*
D179*
X263398Y176784D03*
D122*
X272288Y176784D03*
D148*
X277724Y176784D03*
D180*
X284378Y176784D03*
D181*
X291389Y176784D03*
D182*
X299822Y176784D03*
D14*
X304292Y176784D03*
D183*
X304648Y176784D03*
D184*
X308661Y176784D03*
D185*
X315112Y176784D03*
D142*
X192024Y176886D03*
D85*
X216002Y176886D03*
D43*
X233578Y176886D03*
D186*
X244399Y176886D03*
D55*
X247294Y176886D03*
D17*
X248920Y176886D03*
D187*
X251866Y176886D03*
X259791Y176886D03*
D17*
X264363Y176886D03*
D72*
X267005Y176886D03*
D45*
X272288Y176886D03*
D68*
X277673Y176886D03*
D66*
X284277Y176886D03*
D174*
X291440Y176886D03*
D188*
X299669Y176886D03*
D17*
X304800Y176886D03*
D189*
X308559Y176886D03*
D67*
X315163Y176886D03*
D190*
X191973Y176987D03*
D71*
X216052Y176987D03*
D191*
X233578Y176987D03*
D192*
X244246Y176987D03*
D17*
X246990Y176987D03*
D69*
X252070Y176987D03*
D167*
X259588Y176987D03*
D68*
X267005Y176987D03*
D47*
X272339Y176987D03*
D68*
X277571Y176987D03*
D193*
X284226Y176987D03*
D194*
X291338Y176987D03*
D66*
X299618Y176987D03*
D195*
X308559Y176987D03*
D129*
X315214Y176987D03*
D52*
X191922Y177089D03*
D132*
X216052Y177089D03*
D43*
X233578Y177089D03*
D73*
X244145Y177089D03*
D90*
X252222Y177089D03*
X259436Y177089D03*
D17*
X264973Y177089D03*
D43*
X267106Y177089D03*
D45*
X272288Y177089D03*
D68*
X277470Y177089D03*
D168*
X284124Y177089D03*
D196*
X291389Y177089D03*
D193*
X299568Y177089D03*
D197*
X308559Y177089D03*
D129*
X315214Y177089D03*
D198*
X191872Y177190D03*
D85*
X216103Y177190D03*
D191*
X233578Y177190D03*
D72*
X243942Y177190D03*
X252273Y177190D03*
X259385Y177190D03*
D55*
X265074Y177190D03*
D45*
X267106Y177190D03*
X272390Y177190D03*
D139*
X277419Y177190D03*
D62*
X284074Y177190D03*
D189*
X291389Y177190D03*
D65*
X299517Y177190D03*
D199*
X308508Y177190D03*
D67*
X315265Y177190D03*
D162*
X191872Y177292D03*
D102*
X216205Y177292D03*
D103*
X233578Y177292D03*
D161*
X243942Y177292D03*
X252476Y177292D03*
X259182Y177292D03*
D200*
X267005Y177292D03*
D79*
X272339Y177292D03*
D161*
X277368Y177292D03*
D185*
X284023Y177292D03*
D201*
X291389Y177292D03*
D185*
X299466Y177292D03*
D202*
X308559Y177292D03*
D103*
X315265Y177292D03*
D198*
X191872Y177394D03*
D85*
X216306Y177394D03*
D191*
X233578Y177394D03*
D68*
X243840Y177394D03*
X252578Y177394D03*
X259080Y177394D03*
D61*
X267005Y177394D03*
D45*
X272390Y177394D03*
D203*
X277317Y177394D03*
D67*
X283972Y177394D03*
D197*
X291389Y177394D03*
D168*
X299466Y177394D03*
D204*
X308508Y177394D03*
D67*
X315265Y177394D03*
D46*
X191821Y177495D03*
D145*
X216357Y177495D03*
D43*
X233578Y177495D03*
D188*
X243789Y177495D03*
D205*
X252628Y177495D03*
D66*
X259080Y177495D03*
D171*
X267106Y177495D03*
D47*
X272339Y177495D03*
D68*
X277266Y177495D03*
D191*
X283870Y177495D03*
D206*
X291389Y177495D03*
D168*
X299466Y177495D03*
D207*
X308559Y177495D03*
D129*
X315214Y177495D03*
D155*
X191770Y177597D03*
D71*
X216357Y177597D03*
D191*
X233578Y177597D03*
D66*
X243738Y177597D03*
X252679Y177597D03*
X258978Y177597D03*
D58*
X266903Y177597D03*
D45*
X272390Y177597D03*
D68*
X277165Y177597D03*
D129*
X283820Y177597D03*
D176*
X291389Y177597D03*
D67*
X299415Y177597D03*
D207*
X308458Y177597D03*
D67*
X315265Y177597D03*
D155*
X191770Y177698D03*
D85*
X216408Y177698D03*
D43*
X233578Y177698D03*
D193*
X243586Y177698D03*
D66*
X252781Y177698D03*
D193*
X258928Y177698D03*
D194*
X266954Y177698D03*
D47*
X272339Y177698D03*
D68*
X277063Y177698D03*
D129*
X283820Y177698D03*
D208*
X291338Y177698D03*
D67*
X299415Y177698D03*
X315163Y177698D03*
D209*
X191770Y177800D03*
D102*
X216510Y177800D03*
D77*
X233629Y177800D03*
D180*
X243535Y177800D03*
D41*
X252832Y177800D03*
D210*
X258877Y177800D03*
D211*
X266954Y177800D03*
D122*
X272390Y177800D03*
D161*
X277063Y177800D03*
D212*
X283769Y177800D03*
D213*
X291338Y177800D03*
D212*
X299415Y177800D03*
D214*
X315163Y177800D03*
D143*
X191719Y177902D03*
D132*
X216560Y177902D03*
D43*
X233578Y177902D03*
D62*
X243535Y177902D03*
D65*
X252882Y177902D03*
D62*
X258775Y177902D03*
D215*
X266852Y177902D03*
D47*
X272339Y177902D03*
D205*
X277012Y177902D03*
D43*
X283769Y177902D03*
X299415Y177902D03*
D62*
X315062Y177902D03*
D216*
X191719Y178003D03*
D71*
X216560Y178003D03*
D129*
X233629Y178003D03*
D62*
X243434Y178003D03*
D65*
X252984Y178003D03*
D62*
X258775Y178003D03*
D189*
X266802Y178003D03*
D45*
X272390Y178003D03*
D68*
X276962Y178003D03*
D43*
X283667Y178003D03*
D67*
X299415Y178003D03*
D68*
X314960Y178003D03*
D151*
X191668Y178105D03*
D85*
X216611Y178105D03*
D129*
X233629Y178105D03*
D168*
X243383Y178105D03*
D62*
X253086Y178105D03*
D168*
X258724Y178105D03*
D197*
X266700Y178105D03*
D48*
X272390Y178105D03*
D68*
X276860Y178105D03*
D129*
X283616Y178105D03*
D43*
X299415Y178105D03*
D68*
X314858Y178105D03*
D151*
X191668Y178206D03*
D85*
X216713Y178206D03*
D129*
X233629Y178206D03*
D168*
X243383Y178206D03*
D67*
X253086Y178206D03*
D62*
X258674Y178206D03*
D206*
X266700Y178206D03*
D45*
X272390Y178206D03*
D68*
X276758Y178206D03*
D43*
X283667Y178206D03*
D67*
X299415Y178206D03*
D73*
X314757Y178206D03*
D147*
X191668Y178308D03*
D102*
X216814Y178308D03*
D77*
X233629Y178308D03*
D185*
X243281Y178308D03*
D212*
X253187Y178308D03*
X258674Y178308D03*
D51*
X266598Y178308D03*
D217*
X272440Y178308D03*
D218*
X276708Y178308D03*
D103*
X283566Y178308D03*
X299415Y178308D03*
D81*
X314554Y178308D03*
D42*
X191618Y178410D03*
D71*
X216865Y178410D03*
D129*
X233629Y178410D03*
D67*
X243332Y178410D03*
D62*
X253187Y178410D03*
D168*
X258623Y178410D03*
D219*
X266598Y178410D03*
D111*
X274828Y178410D03*
D129*
X283616Y178410D03*
D67*
X299415Y178410D03*
D74*
X314350Y178410D03*
D152*
X191618Y178511D03*
D85*
X216916Y178511D03*
D129*
X233629Y178511D03*
D191*
X243230Y178511D03*
D67*
X253187Y178511D03*
D168*
X258623Y178511D03*
D112*
X274777Y178511D03*
D43*
X283566Y178511D03*
X299415Y178511D03*
D86*
X314147Y178511D03*
D157*
X191618Y178613D03*
D85*
X216916Y178613D03*
D43*
X233680Y178613D03*
D191*
X243230Y178613D03*
D67*
X253289Y178613D03*
X258572Y178613D03*
D220*
X274726Y178613D03*
D43*
X283464Y178613D03*
D67*
X299415Y178613D03*
D89*
X313944Y178613D03*
D154*
X191567Y178714D03*
D85*
X217018Y178714D03*
D129*
X233629Y178714D03*
D191*
X243230Y178714D03*
D129*
X253340Y178714D03*
X258521Y178714D03*
D221*
X274726Y178714D03*
D222*
X283515Y178714D03*
D43*
X299415Y178714D03*
D17*
X310083Y178714D03*
D95*
X313741Y178714D03*
D40*
X191618Y178816D03*
D102*
X217119Y178816D03*
D103*
X233680Y178816D03*
D77*
X243180Y178816D03*
D212*
X253289Y178816D03*
X258572Y178816D03*
D223*
X274625Y178816D03*
D103*
X283464Y178816D03*
D14*
X285598Y178816D03*
X285801Y178816D03*
X286004Y178816D03*
X286207Y178816D03*
D13*
X286410Y178816D03*
D14*
X286614Y178816D03*
X286817Y178816D03*
X287020Y178816D03*
X287223Y178816D03*
D13*
X287426Y178816D03*
D14*
X287630Y178816D03*
X287833Y178816D03*
X288036Y178816D03*
X288239Y178816D03*
D13*
X288442Y178816D03*
D14*
X288646Y178816D03*
X288849Y178816D03*
X289052Y178816D03*
X289255Y178816D03*
D13*
X289458Y178816D03*
D14*
X289662Y178816D03*
X289865Y178816D03*
X290068Y178816D03*
X290271Y178816D03*
D13*
X290474Y178816D03*
D14*
X290678Y178816D03*
X290881Y178816D03*
X291084Y178816D03*
X291287Y178816D03*
D13*
X291490Y178816D03*
D14*
X291694Y178816D03*
X291897Y178816D03*
X292100Y178816D03*
X292303Y178816D03*
D13*
X292506Y178816D03*
D14*
X292710Y178816D03*
X292913Y178816D03*
X293116Y178816D03*
X293319Y178816D03*
D13*
X293522Y178816D03*
D14*
X293726Y178816D03*
X293929Y178816D03*
X294132Y178816D03*
X294335Y178816D03*
D13*
X294538Y178816D03*
D14*
X294742Y178816D03*
D212*
X299415Y178816D03*
D14*
X309575Y178816D03*
D163*
X313487Y178816D03*
D72*
X187960Y178918D03*
D17*
X190602Y178918D03*
X190805Y178918D03*
X191008Y178918D03*
X191211Y178918D03*
D55*
X191414Y178918D03*
D86*
X194666Y178918D03*
D85*
X217119Y178918D03*
D129*
X233731Y178918D03*
X243180Y178918D03*
D191*
X253390Y178918D03*
X258470Y178918D03*
D96*
X274625Y178918D03*
D224*
X288138Y178918D03*
D43*
X299415Y178918D03*
D225*
X313334Y178918D03*
D66*
X187655Y179019D03*
D17*
X190094Y179019D03*
D226*
X194818Y179019D03*
D71*
X217170Y179019D03*
D43*
X233680Y179019D03*
D67*
X243129Y179019D03*
D129*
X253441Y179019D03*
X258521Y179019D03*
D227*
X274574Y179019D03*
D228*
X288138Y179019D03*
D129*
X299466Y179019D03*
D96*
X313131Y179019D03*
D168*
X187503Y179121D03*
D167*
X195072Y179121D03*
D85*
X217221Y179121D03*
D129*
X233731Y179121D03*
X243180Y179121D03*
X253441Y179121D03*
D191*
X258470Y179121D03*
D229*
X274574Y179121D03*
D230*
X288188Y179121D03*
D43*
X299415Y179121D03*
D112*
X312979Y179121D03*
D67*
X187249Y179222D03*
D17*
X192532Y179222D03*
D73*
X195275Y179222D03*
D85*
X217322Y179222D03*
D43*
X233680Y179222D03*
D67*
X243129Y179222D03*
X253492Y179222D03*
D43*
X258470Y179222D03*
D229*
X274574Y179222D03*
D228*
X288138Y179222D03*
D129*
X299466Y179222D03*
D111*
X312826Y179222D03*
D122*
X187147Y179324D03*
D123*
X195377Y179324D03*
D13*
X205638Y179324D03*
D14*
X205842Y179324D03*
D102*
X217424Y179324D03*
D77*
X233731Y179324D03*
D103*
X243129Y179324D03*
X253492Y179324D03*
D77*
X258420Y179324D03*
D104*
X274523Y179324D03*
D231*
X288188Y179324D03*
D77*
X299466Y179324D03*
D232*
X312725Y179324D03*
D45*
X187046Y179426D03*
D72*
X195580Y179426D03*
D233*
X205689Y179426D03*
D85*
X217424Y179426D03*
D129*
X233731Y179426D03*
D67*
X243129Y179426D03*
X253492Y179426D03*
D129*
X258420Y179426D03*
D234*
X274472Y179426D03*
D228*
X288138Y179426D03*
D129*
X299466Y179426D03*
D235*
X312572Y179426D03*
D48*
X186842Y179527D03*
D68*
X195580Y179527D03*
D233*
X205689Y179527D03*
D132*
X217475Y179527D03*
D129*
X233731Y179527D03*
D43*
X243129Y179527D03*
X253492Y179527D03*
D129*
X258420Y179527D03*
D93*
X274422Y179527D03*
D230*
X288188Y179527D03*
D129*
X299466Y179527D03*
D235*
X312471Y179527D03*
D48*
X186741Y179629D03*
D68*
X195682Y179629D03*
D199*
X205689Y179629D03*
D85*
X217526Y179629D03*
D129*
X233731Y179629D03*
D67*
X243129Y179629D03*
D129*
X253543Y179629D03*
X258420Y179629D03*
D93*
X274422Y179629D03*
D228*
X288138Y179629D03*
D129*
X299466Y179629D03*
D108*
X312420Y179629D03*
D53*
X186741Y179730D03*
D66*
X195885Y179730D03*
D197*
X205740Y179730D03*
D85*
X217627Y179730D03*
D43*
X233782Y179730D03*
X243129Y179730D03*
X253492Y179730D03*
D129*
X258420Y179730D03*
D169*
X274371Y179730D03*
D230*
X288188Y179730D03*
D129*
X299466Y179730D03*
D108*
X312318Y179730D03*
D236*
X186639Y179832D03*
D180*
X195986Y179832D03*
D201*
X205740Y179832D03*
D102*
X217729Y179832D03*
D212*
X233782Y179832D03*
X243129Y179832D03*
D77*
X253543Y179832D03*
D103*
X258470Y179832D03*
D163*
X274371Y179832D03*
D237*
X288138Y179832D03*
D103*
X299517Y179832D03*
D238*
X312217Y179832D03*
D61*
X186436Y179934D03*
D65*
X195986Y179934D03*
D239*
X205638Y179934D03*
D85*
X217729Y179934D03*
D43*
X233782Y179934D03*
X243129Y179934D03*
D129*
X253543Y179934D03*
X258420Y179934D03*
D153*
X274320Y179934D03*
D228*
X288239Y179934D03*
D129*
X299466Y179934D03*
D108*
X312115Y179934D03*
D53*
X186436Y180035D03*
D65*
X196088Y180035D03*
D189*
X205638Y180035D03*
D85*
X217729Y180035D03*
D67*
X233782Y180035D03*
X243129Y180035D03*
D129*
X253543Y180035D03*
D43*
X258470Y180035D03*
D88*
X274320Y180035D03*
D228*
X288138Y180035D03*
D43*
X299517Y180035D03*
D108*
X312014Y180035D03*
D240*
X186334Y180137D03*
D62*
X196190Y180137D03*
D189*
X205740Y180137D03*
D85*
X217830Y180137D03*
D43*
X233782Y180137D03*
X243129Y180137D03*
D129*
X253543Y180137D03*
X258420Y180137D03*
D140*
X274218Y180137D03*
D228*
X288239Y180137D03*
D129*
X299568Y180137D03*
D108*
X311912Y180137D03*
D71*
X186284Y180238D03*
D62*
X196291Y180238D03*
D196*
X205740Y180238D03*
D85*
X217932Y180238D03*
D67*
X233782Y180238D03*
D129*
X243180Y180238D03*
D43*
X253594Y180238D03*
X258470Y180238D03*
D133*
X274269Y180238D03*
D241*
X288188Y180238D03*
D43*
X299517Y180238D03*
D108*
X311810Y180238D03*
D102*
X186131Y180340D03*
D185*
X196342Y180340D03*
D242*
X205689Y180340D03*
D243*
X217983Y180340D03*
D103*
X233782Y180340D03*
X243129Y180340D03*
D77*
X253543Y180340D03*
X258521Y180340D03*
D244*
X274168Y180340D03*
D237*
X288239Y180340D03*
D77*
X299568Y180340D03*
D238*
X311709Y180340D03*
D61*
X186131Y180442D03*
D168*
X196444Y180442D03*
D245*
X205689Y180442D03*
D71*
X217983Y180442D03*
D67*
X233782Y180442D03*
D129*
X243180Y180442D03*
D43*
X253594Y180442D03*
D129*
X258521Y180442D03*
D95*
X274218Y180442D03*
D241*
X288188Y180442D03*
D129*
X299568Y180442D03*
D108*
X311607Y180442D03*
D71*
X185979Y180543D03*
D191*
X196494Y180543D03*
D245*
X205689Y180543D03*
D85*
X218034Y180543D03*
D129*
X233832Y180543D03*
X243180Y180543D03*
X253543Y180543D03*
X258521Y180543D03*
D246*
X274168Y180543D03*
D228*
X288239Y180543D03*
D129*
X299568Y180543D03*
D116*
X311607Y180543D03*
D71*
X185979Y180645D03*
D67*
X196596Y180645D03*
D194*
X205689Y180645D03*
D85*
X218135Y180645D03*
D67*
X233782Y180645D03*
D129*
X243180Y180645D03*
D43*
X253594Y180645D03*
D129*
X258521Y180645D03*
D89*
X274117Y180645D03*
D241*
X288188Y180645D03*
D129*
X299568Y180645D03*
D247*
X311455Y180645D03*
D85*
X185928Y180746D03*
D67*
X196698Y180746D03*
D54*
X205740Y180746D03*
D85*
X218237Y180746D03*
D67*
X233883Y180746D03*
D191*
X243230Y180746D03*
D129*
X253543Y180746D03*
D43*
X258572Y180746D03*
D248*
X274066Y180746D03*
D228*
X288239Y180746D03*
D129*
X299568Y180746D03*
D111*
X311302Y180746D03*
D102*
X185826Y180848D03*
D214*
X196698Y180848D03*
D249*
X205689Y180848D03*
D250*
X218288Y180848D03*
D212*
X233883Y180848D03*
D77*
X243281Y180848D03*
X253543Y180848D03*
D212*
X258572Y180848D03*
D244*
X274168Y180848D03*
D237*
X288239Y180848D03*
D77*
X299568Y180848D03*
D251*
X311252Y180848D03*
D85*
X185725Y180950D03*
D67*
X196799Y180950D03*
D174*
X205689Y180950D03*
D145*
X218288Y180950D03*
D67*
X233883Y180950D03*
D129*
X243281Y180950D03*
X253543Y180950D03*
D43*
X258572Y180950D03*
D246*
X274168Y180950D03*
D228*
X288239Y180950D03*
D43*
X299618Y180950D03*
D100*
X311099Y180950D03*
D71*
X185674Y181051D03*
D67*
X196799Y181051D03*
D252*
X205689Y181051D03*
D85*
X218338Y181051D03*
D168*
X233934Y181051D03*
D129*
X243281Y181051D03*
X253543Y181051D03*
D67*
X258572Y181051D03*
D95*
X274218Y181051D03*
D230*
X288290Y181051D03*
D129*
X299568Y181051D03*
D96*
X310896Y181051D03*
D17*
X315062Y181051D03*
D132*
X185674Y181153D03*
D67*
X196901Y181153D03*
D252*
X205689Y181153D03*
D85*
X218440Y181153D03*
D67*
X233883Y181153D03*
D43*
X243332Y181153D03*
D129*
X253543Y181153D03*
X258623Y181153D03*
D95*
X274320Y181153D03*
D230*
X288290Y181153D03*
D43*
X299618Y181153D03*
D253*
X310744Y181153D03*
D85*
X185623Y181254D03*
D191*
X197002Y181254D03*
D171*
X205638Y181254D03*
D85*
X218542Y181254D03*
D168*
X233934Y181254D03*
D67*
X243332Y181254D03*
X253492Y181254D03*
D129*
X258623Y181254D03*
D144*
X274371Y181254D03*
D230*
X288290Y181254D03*
D191*
X299618Y181254D03*
D98*
X310591Y181254D03*
D17*
X314452Y181254D03*
D102*
X185522Y181356D03*
D254*
X197002Y181356D03*
D102*
X205638Y181356D03*
X218542Y181356D03*
D210*
X233985Y181356D03*
D212*
X243434Y181356D03*
D77*
X253543Y181356D03*
D212*
X258674Y181356D03*
D255*
X274422Y181356D03*
D256*
X288341Y181356D03*
D103*
X299618Y181356D03*
D257*
X310286Y181356D03*
D14*
X313944Y181356D03*
D85*
X185420Y181458D03*
D191*
X197002Y181458D03*
D55*
X200050Y181458D03*
D240*
X205638Y181458D03*
D71*
X218592Y181458D03*
D168*
X233934Y181458D03*
X243383Y181458D03*
D67*
X253492Y181458D03*
X258775Y181458D03*
D98*
X274422Y181458D03*
D224*
X288239Y181458D03*
D191*
X299618Y181458D03*
D248*
X310134Y181458D03*
D17*
X313639Y181458D03*
D145*
X185369Y181559D03*
D67*
X197104Y181559D03*
D219*
X200050Y181559D03*
D71*
X205588Y181559D03*
D85*
X218643Y181559D03*
D65*
X233985Y181559D03*
D67*
X243434Y181559D03*
D191*
X253390Y181559D03*
D129*
X258724Y181559D03*
D98*
X274523Y181559D03*
D43*
X283769Y181559D03*
D55*
X285902Y181559D03*
D17*
X286106Y181559D03*
X286309Y181559D03*
X286512Y181559D03*
X286715Y181559D03*
D55*
X286918Y181559D03*
D17*
X287122Y181559D03*
X287325Y181559D03*
X287528Y181559D03*
X287731Y181559D03*
D55*
X287934Y181559D03*
D17*
X288138Y181559D03*
X288341Y181559D03*
X288544Y181559D03*
X288747Y181559D03*
D55*
X288950Y181559D03*
D17*
X289154Y181559D03*
X289357Y181559D03*
X289560Y181559D03*
X289763Y181559D03*
D55*
X289966Y181559D03*
D17*
X290170Y181559D03*
X290373Y181559D03*
X290576Y181559D03*
X290779Y181559D03*
D43*
X292913Y181559D03*
X299618Y181559D03*
D86*
X309880Y181559D03*
D71*
X185369Y181661D03*
D67*
X197206Y181661D03*
D176*
X199949Y181661D03*
D240*
X205638Y181661D03*
D85*
X218745Y181661D03*
D65*
X234086Y181661D03*
D67*
X243535Y181661D03*
D168*
X253441Y181661D03*
D67*
X258775Y181661D03*
D93*
X274523Y181661D03*
D222*
X283718Y181661D03*
X292862Y181661D03*
D191*
X299618Y181661D03*
D92*
X309728Y181661D03*
D85*
X185318Y181762D03*
D67*
X197307Y181762D03*
D206*
X199949Y181762D03*
D61*
X205537Y181762D03*
D145*
X218796Y181762D03*
D193*
X234036Y181762D03*
D67*
X243535Y181762D03*
D191*
X253390Y181762D03*
D67*
X258877Y181762D03*
D93*
X274625Y181762D03*
D222*
X283718Y181762D03*
X292862Y181762D03*
D43*
X299618Y181762D03*
D69*
X309474Y181762D03*
D102*
X185217Y181864D03*
D258*
X197866Y181864D03*
D200*
X205537Y181864D03*
D102*
X218846Y181864D03*
D210*
X234086Y181864D03*
D185*
X243586Y181864D03*
D210*
X253390Y181864D03*
X258877Y181864D03*
D104*
X274625Y181864D03*
D122*
X283769Y181864D03*
D259*
X292862Y181864D03*
D254*
X299618Y181864D03*
D80*
X309321Y181864D03*
D85*
X185115Y181966D03*
D175*
X197968Y181966D03*
D53*
X205537Y181966D03*
D85*
X218846Y181966D03*
D193*
X234137Y181966D03*
D67*
X243637Y181966D03*
D168*
X253340Y181966D03*
X258928Y181966D03*
D55*
X266598Y181966D03*
D225*
X274726Y181966D03*
D260*
X283820Y181966D03*
D222*
X292862Y181966D03*
D43*
X299618Y181966D03*
D68*
X309169Y181966D03*
D71*
X185166Y182067D03*
D167*
X198018Y182067D03*
D261*
X205486Y182067D03*
D85*
X218948Y182067D03*
D66*
X234188Y182067D03*
D65*
X243637Y182067D03*
X253289Y182067D03*
X258978Y182067D03*
D262*
X266700Y182067D03*
D96*
X274726Y182067D03*
D43*
X283870Y182067D03*
X292811Y182067D03*
D129*
X299669Y182067D03*
D188*
X309118Y182067D03*
D85*
X185115Y182169D03*
D167*
X198120Y182169D03*
D261*
X205486Y182169D03*
D85*
X219050Y182169D03*
D188*
X234239Y182169D03*
D65*
X243738Y182169D03*
X253289Y182169D03*
D168*
X259029Y182169D03*
D176*
X266700Y182169D03*
D96*
X274828Y182169D03*
D45*
X283870Y182169D03*
X292811Y182169D03*
D43*
X299618Y182169D03*
D62*
X308966Y182169D03*
D85*
X185014Y182270D03*
D69*
X198222Y182270D03*
D48*
X205435Y182270D03*
D71*
X219100Y182270D03*
D188*
X234239Y182270D03*
D193*
X243789Y182270D03*
D62*
X253187Y182270D03*
D65*
X259080Y182270D03*
D197*
X266802Y182270D03*
D227*
X274879Y182270D03*
D43*
X283870Y182270D03*
X292811Y182270D03*
D129*
X299669Y182270D03*
D168*
X308915Y182270D03*
D102*
X184912Y182372D03*
D82*
X198272Y182372D03*
D217*
X205384Y182372D03*
D243*
X219100Y182372D03*
D161*
X234290Y182372D03*
D41*
X243891Y182372D03*
X253136Y182372D03*
D214*
X259182Y182372D03*
D263*
X266852Y182372D03*
D223*
X274930Y182372D03*
D103*
X283972Y182372D03*
D122*
X292811Y182372D03*
D103*
X299618Y182372D03*
D212*
X308864Y182372D03*
D71*
X184861Y182474D03*
D187*
X198323Y182474D03*
D45*
X205334Y182474D03*
D85*
X219151Y182474D03*
D72*
X234391Y182474D03*
D66*
X243942Y182474D03*
X253086Y182474D03*
D193*
X259232Y182474D03*
D196*
X266903Y182474D03*
D112*
X274980Y182474D03*
D222*
X284023Y182474D03*
D43*
X292811Y182474D03*
D129*
X299669Y182474D03*
D67*
X308864Y182474D03*
D85*
X184810Y182575D03*
D187*
X198425Y182575D03*
D264*
X205384Y182575D03*
D85*
X219253Y182575D03*
D139*
X234340Y182575D03*
D66*
X244043Y182575D03*
X252984Y182575D03*
X259283Y182575D03*
D196*
X267005Y182575D03*
D110*
X275031Y182575D03*
D222*
X284023Y182575D03*
D43*
X292710Y182575D03*
D129*
X299669Y182575D03*
D67*
X308864Y182575D03*
D85*
X184810Y182677D03*
D87*
X198577Y182677D03*
D45*
X205334Y182677D03*
D85*
X219354Y182677D03*
D73*
X234493Y182677D03*
D188*
X244094Y182677D03*
D68*
X252984Y182677D03*
D188*
X259436Y182677D03*
D194*
X267056Y182677D03*
D265*
X275082Y182677D03*
D43*
X284074Y182677D03*
X292710Y182677D03*
D129*
X299669Y182677D03*
X308813Y182677D03*
D85*
X184709Y182778D03*
D187*
X198628Y182778D03*
D222*
X205283Y182778D03*
D145*
X219405Y182778D03*
D192*
X234594Y182778D03*
D68*
X244145Y182778D03*
X252882Y182778D03*
D66*
X259486Y182778D03*
D54*
X267106Y182778D03*
D111*
X275133Y182778D03*
D43*
X284175Y182778D03*
X292710Y182778D03*
D129*
X299669Y182778D03*
D67*
X308864Y182778D03*
D17*
X314757Y182778D03*
D102*
X184607Y182880D03*
D266*
X198730Y182880D03*
D103*
X205232Y182880D03*
D250*
X219405Y182880D03*
D267*
X234594Y182880D03*
D182*
X244348Y182880D03*
D161*
X252781Y182880D03*
D182*
X259588Y182880D03*
D102*
X267106Y182880D03*
D268*
X275184Y182880D03*
D103*
X284277Y182880D03*
X292608Y182880D03*
X299720Y182880D03*
D77*
X308915Y182880D03*
D269*
X314757Y182880D03*
D132*
X184556Y182982D03*
D226*
X198780Y182982D03*
D45*
X205232Y182982D03*
D85*
X219456Y182982D03*
D167*
X234696Y182982D03*
D72*
X244450Y182982D03*
D139*
X252730Y182982D03*
D72*
X259690Y182982D03*
D240*
X267106Y182982D03*
D45*
X272694Y182982D03*
D72*
X277165Y182982D03*
D43*
X284277Y182982D03*
D129*
X292557Y182982D03*
X299669Y182982D03*
X308915Y182982D03*
D262*
X314757Y182982D03*
D71*
X184556Y183083D03*
D74*
X198933Y183083D03*
D43*
X205232Y183083D03*
D85*
X219558Y183083D03*
D270*
X234798Y183083D03*
D17*
X241097Y183083D03*
D90*
X244500Y183083D03*
D73*
X252578Y183083D03*
X259893Y183083D03*
D45*
X267106Y183083D03*
D47*
X272745Y183083D03*
D72*
X277266Y183083D03*
D191*
X284378Y183083D03*
X292506Y183083D03*
D43*
X299720Y183083D03*
D67*
X308966Y183083D03*
D176*
X314757Y183083D03*
D85*
X184506Y183185D03*
D92*
X198984Y183185D03*
D43*
X205130Y183185D03*
D132*
X219608Y183185D03*
D74*
X235001Y183185D03*
D17*
X240792Y183185D03*
X240995Y183185D03*
D175*
X244704Y183185D03*
D17*
X249733Y183185D03*
D73*
X252476Y183185D03*
D192*
X259994Y183185D03*
D17*
X262738Y183185D03*
D67*
X267208Y183185D03*
D45*
X272694Y183185D03*
D72*
X277368Y183185D03*
D129*
X284429Y183185D03*
D43*
X292506Y183185D03*
D129*
X299771Y183185D03*
X308915Y183185D03*
D206*
X314757Y183185D03*
D85*
X184404Y183286D03*
D271*
X199085Y183286D03*
D191*
X205130Y183286D03*
D71*
X219608Y183286D03*
D91*
X235204Y183286D03*
D55*
X238658Y183286D03*
D17*
X240081Y183286D03*
D206*
X240690Y183286D03*
D270*
X244958Y183286D03*
D17*
X248006Y183286D03*
X249022Y183286D03*
X249225Y183286D03*
D87*
X252222Y183286D03*
D272*
X260248Y183286D03*
D17*
X263246Y183286D03*
X264465Y183286D03*
D68*
X267005Y183286D03*
D45*
X272796Y183286D03*
D72*
X277470Y183286D03*
D67*
X284582Y183286D03*
D168*
X292456Y183286D03*
D43*
X299720Y183286D03*
D67*
X308966Y183286D03*
D197*
X314757Y183286D03*
D102*
X184302Y183388D03*
D273*
X199187Y183388D03*
D77*
X205080Y183388D03*
D102*
X219659Y183388D03*
D238*
X236525Y183388D03*
D274*
X245364Y183388D03*
X251866Y183388D03*
X260604Y183388D03*
D78*
X266802Y183388D03*
D122*
X272694Y183388D03*
D182*
X277571Y183388D03*
D212*
X284683Y183388D03*
X292405Y183388D03*
D14*
X295250Y183388D03*
X295453Y183388D03*
X295656Y183388D03*
X295859Y183388D03*
D13*
X296062Y183388D03*
D14*
X296266Y183388D03*
X296469Y183388D03*
X296672Y183388D03*
X296875Y183388D03*
D13*
X297078Y183388D03*
D14*
X297282Y183388D03*
X297485Y183388D03*
D212*
X299720Y183388D03*
D14*
X301955Y183388D03*
D13*
X302158Y183388D03*
D14*
X302362Y183388D03*
X302565Y183388D03*
X302768Y183388D03*
X302971Y183388D03*
D13*
X303174Y183388D03*
D14*
X303378Y183388D03*
X303581Y183388D03*
X303784Y183388D03*
X303987Y183388D03*
D13*
X304190Y183388D03*
D14*
X304394Y183388D03*
X304597Y183388D03*
X304800Y183388D03*
X305003Y183388D03*
D13*
X305206Y183388D03*
D212*
X309067Y183388D03*
D201*
X314757Y183388D03*
D85*
X184302Y183490D03*
D86*
X199238Y183490D03*
D67*
X205029Y183490D03*
D85*
X219761Y183490D03*
D114*
X236525Y183490D03*
D173*
X248615Y183490D03*
D275*
X263652Y183490D03*
D45*
X272796Y183490D03*
D72*
X277673Y183490D03*
D168*
X284734Y183490D03*
X292252Y183490D03*
D97*
X300228Y183490D03*
D62*
X309067Y183490D03*
D196*
X314655Y183490D03*
D145*
X184252Y183591D03*
D86*
X199339Y183591D03*
D67*
X205029Y183591D03*
D85*
X219862Y183591D03*
D276*
X236576Y183591D03*
D165*
X248615Y183591D03*
D275*
X263754Y183591D03*
D47*
X272745Y183591D03*
D203*
X277724Y183591D03*
D168*
X284836Y183591D03*
X292151Y183591D03*
D109*
X300228Y183591D03*
D65*
X309169Y183591D03*
D177*
X314655Y183591D03*
D85*
X184201Y183693D03*
D277*
X199339Y183693D03*
D168*
X204978Y183693D03*
D71*
X219913Y183693D03*
D114*
X236525Y183693D03*
D172*
X248564Y183693D03*
D170*
X263957Y183693D03*
D45*
X272796Y183693D03*
D72*
X277876Y183693D03*
D66*
X284988Y183693D03*
X292100Y183693D03*
D97*
X300228Y183693D03*
D68*
X309474Y183693D03*
D58*
X314655Y183693D03*
D85*
X184099Y183794D03*
D91*
X199339Y183794D03*
D62*
X204927Y183794D03*
D85*
X219964Y183794D03*
D276*
X236576Y183794D03*
D166*
X248564Y183794D03*
D275*
X263957Y183794D03*
D47*
X272745Y183794D03*
D72*
X277978Y183794D03*
D66*
X285090Y183794D03*
X291998Y183794D03*
D109*
X300228Y183794D03*
D139*
X309524Y183794D03*
D17*
X312115Y183794D03*
X312928Y183794D03*
D171*
X314452Y183794D03*
D102*
X183998Y183896D03*
D149*
X201371Y183896D03*
D102*
X219964Y183896D03*
D124*
X236576Y183896D03*
D159*
X248615Y183896D03*
D160*
X263906Y183896D03*
D122*
X272796Y183896D03*
D136*
X278028Y183896D03*
D161*
X285293Y183896D03*
D14*
X287833Y183896D03*
X289255Y183896D03*
D161*
X291795Y183896D03*
D278*
X300279Y183896D03*
D238*
X311607Y183896D03*
D85*
X183998Y183998D03*
D44*
X201320Y183998D03*
D85*
X220066Y183998D03*
D276*
X236576Y183998D03*
D157*
X248615Y183998D03*
D154*
X263906Y183998D03*
D47*
X272745Y183998D03*
D139*
X278130Y183998D03*
D73*
X285598Y183998D03*
D17*
X288341Y183998D03*
X288544Y183998D03*
X288747Y183998D03*
D175*
X291541Y183998D03*
D109*
X300228Y183998D03*
D116*
X311607Y183998D03*
D85*
X183998Y184099D03*
D44*
X201320Y184099D03*
D85*
X220167Y184099D03*
D276*
X236576Y184099D03*
D152*
X248615Y184099D03*
D154*
X263906Y184099D03*
D45*
X272796Y184099D03*
D72*
X278282Y184099D03*
D155*
X288595Y184099D03*
D115*
X300279Y184099D03*
D276*
X311760Y184099D03*
D85*
X183896Y184201D03*
D44*
X201320Y184201D03*
D85*
X220167Y184201D03*
D276*
X236576Y184201D03*
D42*
X248615Y184201D03*
D152*
X263957Y184201D03*
D48*
X272796Y184201D03*
D203*
X278333Y184201D03*
D52*
X288646Y184201D03*
D109*
X300228Y184201D03*
D276*
X311861Y184201D03*
D85*
X183794Y184302D03*
D143*
X201371Y184302D03*
D71*
X220218Y184302D03*
D276*
X236576Y184302D03*
D151*
X248666Y184302D03*
D42*
X263957Y184302D03*
D45*
X272796Y184302D03*
D139*
X278435Y184302D03*
D190*
X288595Y184302D03*
D115*
X300279Y184302D03*
D114*
X311912Y184302D03*
D279*
X183744Y184404D03*
D149*
X201270Y184404D03*
D102*
X220269Y184404D03*
D280*
X236626Y184404D03*
D209*
X248666Y184404D03*
D281*
X263957Y184404D03*
D79*
X272847Y184404D03*
D161*
X278486Y184404D03*
D134*
X288595Y184404D03*
D278*
X300279Y184404D03*
D282*
X312014Y184404D03*
D71*
X183642Y184506D03*
D143*
X201371Y184506D03*
D85*
X220370Y184506D03*
D276*
X236576Y184506D03*
D44*
X248666Y184506D03*
D143*
X263957Y184506D03*
D45*
X272796Y184506D03*
D139*
X278638Y184506D03*
D142*
X288646Y184506D03*
D115*
X300279Y184506D03*
D114*
X312115Y184506D03*
D85*
X183693Y184607D03*
D155*
X201320Y184607D03*
D85*
X220472Y184607D03*
D129*
X234036Y184607D03*
D90*
X238709Y184607D03*
D46*
X248717Y184607D03*
X263957Y184607D03*
D47*
X272847Y184607D03*
D203*
X278740Y184607D03*
D84*
X288696Y184607D03*
D115*
X300279Y184607D03*
D128*
X312166Y184607D03*
D85*
X183591Y184709D03*
D143*
X201371Y184709D03*
D85*
X220472Y184709D03*
D43*
X234086Y184709D03*
D90*
X238709Y184709D03*
D141*
X248666Y184709D03*
D52*
X263957Y184709D03*
D45*
X272796Y184709D03*
D72*
X278790Y184709D03*
D97*
X288646Y184709D03*
D115*
X300279Y184709D03*
D283*
X312217Y184709D03*
D85*
X183490Y184810D03*
D46*
X201371Y184810D03*
D132*
X220523Y184810D03*
D129*
X234036Y184810D03*
D72*
X238760Y184810D03*
D142*
X248717Y184810D03*
X263957Y184810D03*
D47*
X272847Y184810D03*
D68*
X278892Y184810D03*
D156*
X288696Y184810D03*
D115*
X300279Y184810D03*
D128*
X312369Y184810D03*
D250*
X183439Y184912D03*
D284*
X201320Y184912D03*
D102*
X220574Y184912D03*
D103*
X234086Y184912D03*
D136*
X238811Y184912D03*
D135*
X248615Y184912D03*
D134*
X264008Y184912D03*
D122*
X272796Y184912D03*
D182*
X278994Y184912D03*
D285*
X288696Y184912D03*
D286*
X300330Y184912D03*
D287*
X312420Y184912D03*
D132*
X183439Y185014D03*
D46*
X201371Y185014D03*
D85*
X220675Y185014D03*
D43*
X234086Y185014D03*
D68*
X238862Y185014D03*
D97*
X248717Y185014D03*
X263957Y185014D03*
D47*
X272847Y185014D03*
D139*
X279044Y185014D03*
D119*
X288747Y185014D03*
D115*
X300279Y185014D03*
D118*
X312522Y185014D03*
D85*
X183388Y185115D03*
D46*
X201371Y185115D03*
D85*
X220777Y185115D03*
D43*
X234086Y185115D03*
D68*
X238862Y185115D03*
D109*
X248717Y185115D03*
D115*
X264008Y185115D03*
D45*
X272796Y185115D03*
D72*
X279197Y185115D03*
D288*
X288798Y185115D03*
D109*
X300330Y185115D03*
D118*
X312623Y185115D03*
D85*
X183286Y185217D03*
D46*
X201371Y185217D03*
D85*
X220777Y185217D03*
D129*
X234137Y185217D03*
D66*
X238963Y185217D03*
D130*
X248717Y185217D03*
X263957Y185217D03*
D45*
X272898Y185217D03*
D68*
X279298Y185217D03*
D276*
X288798Y185217D03*
D115*
X300380Y185217D03*
D283*
X312725Y185217D03*
D85*
X183185Y185318D03*
D141*
X201320Y185318D03*
D85*
X220777Y185318D03*
D43*
X234086Y185318D03*
D205*
X238912Y185318D03*
D119*
X248717Y185318D03*
X263957Y185318D03*
D47*
X272847Y185318D03*
D72*
X279298Y185318D03*
D108*
X288849Y185318D03*
D109*
X300330Y185318D03*
D114*
X312725Y185318D03*
D243*
X183134Y185420D03*
D289*
X201320Y185420D03*
D102*
X220878Y185420D03*
D77*
X234137Y185420D03*
D41*
X239014Y185420D03*
D287*
X248717Y185420D03*
D280*
X264058Y185420D03*
D122*
X272898Y185420D03*
D136*
X279451Y185420D03*
D268*
X288798Y185420D03*
D278*
X300380Y185420D03*
D238*
X312725Y185420D03*
D71*
X183134Y185522D03*
D52*
X201371Y185522D03*
D85*
X220980Y185522D03*
D129*
X234137Y185522D03*
D66*
X239065Y185522D03*
D114*
X248717Y185522D03*
D108*
X264058Y185522D03*
D47*
X272847Y185522D03*
D72*
X279502Y185522D03*
D111*
X288849Y185522D03*
D115*
X300380Y185522D03*
D116*
X312725Y185522D03*
D85*
X183083Y185623D03*
D138*
X201320Y185623D03*
D132*
X221031Y185623D03*
D129*
X234137Y185623D03*
D168*
X239116Y185623D03*
D111*
X248717Y185623D03*
D116*
X264058Y185623D03*
D45*
X272898Y185623D03*
D139*
X279654Y185623D03*
D96*
X288849Y185623D03*
D115*
X300380Y185623D03*
D111*
X312725Y185623D03*
D85*
X182982Y185725D03*
D52*
X201371Y185725D03*
D85*
X221082Y185725D03*
D129*
X234137Y185725D03*
D65*
X239166Y185725D03*
D220*
X248717Y185725D03*
D111*
X264058Y185725D03*
D45*
X272898Y185725D03*
D72*
X279705Y185725D03*
D17*
X284785Y185725D03*
D96*
X288950Y185725D03*
D115*
X300380Y185725D03*
D220*
X312725Y185725D03*
D85*
X182880Y185826D03*
D142*
X201371Y185826D03*
D85*
X221082Y185826D03*
D43*
X234188Y185826D03*
D191*
X239166Y185826D03*
D100*
X248717Y185826D03*
D96*
X264058Y185826D03*
D45*
X272898Y185826D03*
D72*
X279806Y185826D03*
D93*
X288849Y185826D03*
D115*
X300380Y185826D03*
D96*
X312826Y185826D03*
D102*
X182880Y185928D03*
D49*
X201371Y185928D03*
D102*
X221183Y185928D03*
D77*
X234137Y185928D03*
D212*
X239268Y185928D03*
D13*
X244754Y185928D03*
D104*
X248818Y185928D03*
X264058Y185928D03*
D122*
X272898Y185928D03*
D182*
X279908Y185928D03*
D150*
X288849Y185928D03*
D278*
X300380Y185928D03*
D290*
X312776Y185928D03*
D145*
X182829Y186030D03*
D142*
X201371Y186030D03*
D85*
X221285Y186030D03*
D43*
X234188Y186030D03*
D45*
X239370Y186030D03*
D153*
X248717Y186030D03*
D169*
X264109Y186030D03*
D45*
X272898Y186030D03*
D72*
X280010Y186030D03*
D95*
X288950Y186030D03*
D109*
X300431Y186030D03*
D153*
X312725Y186030D03*
D85*
X182778Y186131D03*
D142*
X201371Y186131D03*
D71*
X221336Y186131D03*
D129*
X234137Y186131D03*
D43*
X239370Y186131D03*
D17*
X245161Y186131D03*
D95*
X248818Y186131D03*
X264058Y186131D03*
D264*
X272948Y186131D03*
D72*
X280111Y186131D03*
D89*
X288950Y186131D03*
D115*
X300380Y186131D03*
D133*
X312776Y186131D03*
D85*
X182677Y186233D03*
D142*
X201371Y186233D03*
D145*
X221336Y186233D03*
D43*
X234188Y186233D03*
D48*
X239471Y186233D03*
D91*
X248717Y186233D03*
X264160Y186233D03*
D45*
X272898Y186233D03*
D72*
X280213Y186233D03*
D291*
X288950Y186233D03*
D109*
X300431Y186233D03*
D91*
X312725Y186233D03*
D85*
X182575Y186334D03*
D142*
X201371Y186334D03*
D85*
X221386Y186334D03*
D67*
X234188Y186334D03*
D48*
X239573Y186334D03*
D291*
X248818Y186334D03*
X264058Y186334D03*
D264*
X272948Y186334D03*
D72*
X280314Y186334D03*
D17*
X286004Y186334D03*
D270*
X289052Y186334D03*
D97*
X300431Y186334D03*
D17*
X309575Y186334D03*
D291*
X312826Y186334D03*
D243*
X182626Y186436D03*
D135*
X201371Y186436D03*
D102*
X221488Y186436D03*
D103*
X234188Y186436D03*
D14*
X237947Y186436D03*
D292*
X239674Y186436D03*
D267*
X248717Y186436D03*
D14*
X251562Y186436D03*
D293*
X264058Y186436D03*
D217*
X272948Y186436D03*
D182*
X280416Y186436D03*
D123*
X289052Y186436D03*
D286*
X300431Y186436D03*
D14*
X309880Y186436D03*
D293*
X312826Y186436D03*
D85*
X182575Y186538D03*
D70*
X201371Y186538D03*
D85*
X221590Y186538D03*
D67*
X234188Y186538D03*
D17*
X238049Y186538D03*
D61*
X239776Y186538D03*
D17*
X246177Y186538D03*
D72*
X248818Y186538D03*
X264058Y186538D03*
D45*
X272999Y186538D03*
D72*
X280518Y186538D03*
D68*
X288950Y186538D03*
D55*
X291490Y186538D03*
D97*
X300431Y186538D03*
D73*
X312725Y186538D03*
D85*
X182474Y186639D03*
D60*
X201422Y186639D03*
D85*
X221590Y186639D03*
D17*
X238354Y186639D03*
D132*
X239928Y186639D03*
D67*
X248717Y186639D03*
D17*
X250952Y186639D03*
X261925Y186639D03*
D43*
X264058Y186639D03*
D17*
X266192Y186639D03*
D264*
X272948Y186639D03*
D43*
X289052Y186639D03*
D17*
X291186Y186639D03*
D129*
X299974Y186639D03*
D67*
X312725Y186639D03*
D17*
X314960Y186639D03*
D85*
X182372Y186741D03*
D70*
X201371Y186741D03*
D71*
X221640Y186741D03*
D55*
X238658Y186741D03*
D58*
X240081Y186741D03*
D17*
X246990Y186741D03*
D53*
X248818Y186741D03*
D17*
X262230Y186741D03*
D53*
X264058Y186741D03*
D17*
X265887Y186741D03*
D45*
X272999Y186741D03*
D55*
X287426Y186741D03*
D61*
X289154Y186741D03*
D129*
X299974Y186741D03*
D48*
X312725Y186741D03*
D17*
X314655Y186741D03*
D145*
X182321Y186842D03*
D84*
X201422Y186842D03*
D85*
X221691Y186842D03*
D55*
X239166Y186842D03*
D17*
X239370Y186842D03*
D197*
X240081Y186842D03*
D17*
X240792Y186842D03*
X240995Y186842D03*
X247701Y186842D03*
X247904Y186842D03*
D189*
X248818Y186842D03*
D17*
X249733Y186842D03*
X249936Y186842D03*
X262941Y186842D03*
X263144Y186842D03*
X263347Y186842D03*
D239*
X264160Y186842D03*
D17*
X264973Y186842D03*
X265176Y186842D03*
D264*
X272948Y186842D03*
D17*
X288138Y186842D03*
X288341Y186842D03*
D195*
X289154Y186842D03*
D55*
X289966Y186842D03*
D17*
X290170Y186842D03*
D129*
X299974Y186842D03*
D17*
X311709Y186842D03*
D196*
X312725Y186842D03*
D17*
X313741Y186842D03*
D250*
X182321Y186944D03*
D75*
X201371Y186944D03*
D102*
X221793Y186944D03*
D122*
X272999Y186944D03*
D77*
X299974Y186944D03*
D14*
X312217Y186944D03*
X312420Y186944D03*
X312623Y186944D03*
D13*
X312826Y186944D03*
D14*
X313030Y186944D03*
D85*
X182270Y187046D03*
D97*
X201371Y187046D03*
D145*
X221844Y187046D03*
D264*
X272948Y187046D03*
D43*
X300025Y187046D03*
D85*
X182169Y187147D03*
D84*
X201422Y187147D03*
D85*
X221894Y187147D03*
D45*
X272999Y187147D03*
D129*
X299974Y187147D03*
D85*
X182067Y187249D03*
D97*
X201371Y187249D03*
D85*
X221894Y187249D03*
D48*
X272999Y187249D03*
D43*
X300025Y187249D03*
D85*
X182067Y187350D03*
D97*
X201473Y187350D03*
D85*
X221996Y187350D03*
D45*
X272999Y187350D03*
D129*
X299974Y187350D03*
D102*
X182067Y187452D03*
D278*
X201422Y187452D03*
D102*
X222098Y187452D03*
D164*
X272999Y187452D03*
D103*
X300025Y187452D03*
D85*
X181966Y187554D03*
D17*
X191313Y187554D03*
X191516Y187554D03*
X191719Y187554D03*
D55*
X191922Y187554D03*
D17*
X192126Y187554D03*
X192329Y187554D03*
X192532Y187554D03*
X192735Y187554D03*
D55*
X192938Y187554D03*
D17*
X193142Y187554D03*
X193345Y187554D03*
X193548Y187554D03*
X193751Y187554D03*
D55*
X193954Y187554D03*
D17*
X194158Y187554D03*
X194361Y187554D03*
X194564Y187554D03*
X194767Y187554D03*
D55*
X194970Y187554D03*
D17*
X195174Y187554D03*
X195377Y187554D03*
X195580Y187554D03*
X195783Y187554D03*
D55*
X195986Y187554D03*
D17*
X196190Y187554D03*
D115*
X201422Y187554D03*
D71*
X222148Y187554D03*
D45*
X272999Y187554D03*
D67*
X300025Y187554D03*
D85*
X181864Y187655D03*
D294*
X198831Y187655D03*
D132*
X222148Y187655D03*
D47*
X273050Y187655D03*
D43*
X300025Y187655D03*
D71*
X181813Y187757D03*
D295*
X198679Y187757D03*
D85*
X222199Y187757D03*
D45*
X272999Y187757D03*
D67*
X300025Y187757D03*
D85*
X181762Y187858D03*
D295*
X198679Y187858D03*
D85*
X222301Y187858D03*
D47*
X273050Y187858D03*
D43*
X300025Y187858D03*
D102*
X181762Y187960D03*
D296*
X198628Y187960D03*
D102*
X222402Y187960D03*
D122*
X272999Y187960D03*
D212*
X300025Y187960D03*
D85*
X181661Y188062D03*
D295*
X198577Y188062D03*
D171*
X222402Y188062D03*
D47*
X273050Y188062D03*
D43*
X300025Y188062D03*
D85*
X181559Y188163D03*
D297*
X198628Y188163D03*
D85*
X222402Y188163D03*
D45*
X272999Y188163D03*
D129*
X300076Y188163D03*
D132*
X181508Y188265D03*
D295*
X198577Y188265D03*
D85*
X222504Y188265D03*
D45*
X273101Y188265D03*
D43*
X300025Y188265D03*
D85*
X181559Y188366D03*
D297*
X198628Y188366D03*
D85*
X222606Y188366D03*
D45*
X272999Y188366D03*
D129*
X300076Y188366D03*
D102*
X181458Y188468D03*
D298*
X198628Y188468D03*
D181*
X222606Y188468D03*
D122*
X273101Y188468D03*
D103*
X300025Y188468D03*
D132*
X181407Y188570D03*
D299*
X198679Y188570D03*
D85*
X222606Y188570D03*
D47*
X273050Y188570D03*
D129*
X300076Y188570D03*
D171*
X181356Y188671D03*
D294*
X198628Y188671D03*
D132*
X222656Y188671D03*
D45*
X273101Y188671D03*
D129*
X300076Y188671D03*
D85*
X181356Y188773D03*
D294*
X198730Y188773D03*
D132*
X222758Y188773D03*
D45*
X273101Y188773D03*
D129*
X300076Y188773D03*
D171*
X181356Y188874D03*
D300*
X198730Y188874D03*
D171*
X222809Y188874D03*
D45*
X273101Y188874D03*
D129*
X300076Y188874D03*
D279*
X181305Y188976D03*
D301*
X198730Y188976D03*
D102*
X222809Y188976D03*
D122*
X273101Y188976D03*
D103*
X300126Y188976D03*
D85*
X181254Y189078D03*
D302*
X198780Y189078D03*
D171*
X222809Y189078D03*
D45*
X273101Y189078D03*
D129*
X300076Y189078D03*
D171*
X181254Y189179D03*
D302*
X198780Y189179D03*
D145*
X222860Y189179D03*
D47*
X273152Y189179D03*
D43*
X300126Y189179D03*
D171*
X181153Y189281D03*
D303*
X198831Y189281D03*
D171*
X222809Y189281D03*
D45*
X273101Y189281D03*
D129*
X300076Y189281D03*
D145*
X181204Y189382D03*
D304*
X198882Y189382D03*
D145*
X222860Y189382D03*
D47*
X273152Y189382D03*
D43*
X300126Y189382D03*
D181*
X181153Y189484D03*
D305*
X198933Y189484D03*
D279*
X222860Y189484D03*
D122*
X273101Y189484D03*
D77*
X300177Y189484D03*
D145*
X181204Y189586D03*
D306*
X198933Y189586D03*
D171*
X222910Y189586D03*
D45*
X273202Y189586D03*
D43*
X300126Y189586D03*
D171*
X181153Y189687D03*
D307*
X198984Y189687D03*
D171*
X222910Y189687D03*
D47*
X273152Y189687D03*
D129*
X300177Y189687D03*
D132*
X181102Y189789D03*
D306*
X199034Y189789D03*
D171*
X222910Y189789D03*
D45*
X273202Y189789D03*
D129*
X300177Y189789D03*
D171*
X181153Y189890D03*
D308*
X199034Y189890D03*
D171*
X222910Y189890D03*
D47*
X273152Y189890D03*
D129*
X300177Y189890D03*
D243*
X181102Y189992D03*
D309*
X199136Y189992D03*
D181*
X222910Y189992D03*
D122*
X273202Y189992D03*
D77*
X300177Y189992D03*
D171*
X181153Y190094D03*
D310*
X199238Y190094D03*
D171*
X222910Y190094D03*
D47*
X273152Y190094D03*
D129*
X300177Y190094D03*
D132*
X181102Y190195D03*
D311*
X199288Y190195D03*
D171*
X222910Y190195D03*
D45*
X273202Y190195D03*
D129*
X300177Y190195D03*
D171*
X181153Y190297D03*
D312*
X199339Y190297D03*
D171*
X222910Y190297D03*
D47*
X273152Y190297D03*
D43*
X300228Y190297D03*
D132*
X181102Y190398D03*
D312*
X199441Y190398D03*
D171*
X222910Y190398D03*
D45*
X273202Y190398D03*
D129*
X300177Y190398D03*
D181*
X181153Y190500D03*
D13*
X192430Y190500D03*
D313*
X199593Y190500D03*
D181*
X222910Y190500D03*
D145*
X181204Y190602D03*
D312*
X199644Y190602D03*
D171*
X222910Y190602D03*
X181153Y190703D03*
D314*
X199746Y190703D03*
D171*
X222809Y190703D03*
D145*
X181204Y190805D03*
D314*
X199847Y190805D03*
D145*
X222860Y190805D03*
X181204Y190906D03*
D315*
X200050Y190906D03*
D171*
X222809Y190906D03*
D181*
X181254Y191008D03*
D316*
X200152Y191008D03*
D102*
X222809Y191008D03*
D145*
X181305Y191110D03*
D228*
X200254Y191110D03*
D171*
X222809Y191110D03*
D145*
X181305Y191211D03*
D224*
X200457Y191211D03*
D132*
X222758Y191211D03*
D171*
X181356Y191313D03*
D317*
X200660Y191313D03*
D132*
X222758Y191313D03*
D85*
X181356Y191414D03*
D317*
X200762Y191414D03*
D132*
X222656Y191414D03*
D243*
X181407Y191516D03*
D318*
X201016Y191516D03*
D243*
X222656Y191516D03*
D85*
X181458Y191618D03*
D166*
X201117Y191618D03*
D85*
X222606Y191618D03*
D132*
X181508Y191719D03*
D157*
X201270Y191719D03*
D132*
X222555Y191719D03*
D85*
X181559Y191821D03*
D152*
X201473Y191821D03*
D85*
X222504Y191821D03*
D132*
X181610Y191922D03*
D42*
X201676Y191922D03*
D85*
X222504Y191922D03*
D102*
X181661Y192024D03*
D147*
X201727Y192024D03*
D102*
X222402Y192024D03*
D85*
X181661Y192126D03*
D143*
X201879Y192126D03*
D85*
X222301Y192126D03*
X181762Y192227D03*
D225*
X200457Y192227D03*
D61*
X206045Y192227D03*
D71*
X222352Y192227D03*
D85*
X181864Y192329D03*
D95*
X200355Y192329D03*
D171*
X206350Y192329D03*
D85*
X222301Y192329D03*
D71*
X181915Y192430D03*
D91*
X200254Y192430D03*
D171*
X206451Y192430D03*
D85*
X222199Y192430D03*
D243*
X181915Y192532D03*
D266*
X200254Y192532D03*
D319*
X206553Y192532D03*
D102*
X222098Y192532D03*
D85*
X181966Y192634D03*
D270*
X200457Y192634D03*
D54*
X206654Y192634D03*
D71*
X222047Y192634D03*
D85*
X182067Y192735D03*
D73*
X200457Y192735D03*
D54*
X206756Y192735D03*
D85*
X221996Y192735D03*
X182169Y192837D03*
D90*
X200508Y192837D03*
D56*
X206858Y192837D03*
D85*
X221996Y192837D03*
D17*
X252273Y192837D03*
X252476Y192837D03*
X252679Y192837D03*
D55*
X252882Y192837D03*
D17*
X253086Y192837D03*
X253289Y192837D03*
X253492Y192837D03*
X253695Y192837D03*
X266903Y192837D03*
D55*
X267106Y192837D03*
D17*
X267310Y192837D03*
X267513Y192837D03*
X267716Y192837D03*
X267919Y192837D03*
D55*
X282346Y192837D03*
D17*
X282550Y192837D03*
X282753Y192837D03*
X282956Y192837D03*
X283159Y192837D03*
D55*
X283362Y192837D03*
D17*
X283566Y192837D03*
X283769Y192837D03*
D171*
X182169Y192938D03*
D66*
X200558Y192938D03*
D194*
X206908Y192938D03*
D85*
X221894Y192938D03*
D17*
X251765Y192938D03*
D56*
X253086Y192938D03*
D55*
X254406Y192938D03*
D17*
X266395Y192938D03*
D196*
X267411Y192938D03*
D17*
X268427Y192938D03*
D55*
X281838Y192938D03*
D57*
X283058Y192938D03*
D17*
X284277Y192938D03*
D102*
X182169Y193040D03*
D185*
X200711Y193040D03*
D320*
X207010Y193040D03*
D102*
X221793Y193040D03*
D14*
X251054Y193040D03*
D122*
X253086Y193040D03*
D14*
X255118Y193040D03*
X265684Y193040D03*
D76*
X267411Y193040D03*
D14*
X281127Y193040D03*
D164*
X283058Y193040D03*
D85*
X182270Y193142D03*
D222*
X200812Y193142D03*
D57*
X207061Y193142D03*
D132*
X221742Y193142D03*
D62*
X253086Y193142D03*
D55*
X255422Y193142D03*
D45*
X267208Y193142D03*
D55*
X280822Y193142D03*
D67*
X283058Y193142D03*
D85*
X182372Y193243D03*
D45*
X200863Y193243D03*
D194*
X207112Y193243D03*
D71*
X221742Y193243D03*
D129*
X234645Y193243D03*
D67*
X243129Y193243D03*
D17*
X250444Y193243D03*
D73*
X253187Y193243D03*
D65*
X267208Y193243D03*
D45*
X273406Y193243D03*
D72*
X282956Y193243D03*
D132*
X182423Y193345D03*
D53*
X200965Y193345D03*
D54*
X207162Y193345D03*
D85*
X221691Y193345D03*
D43*
X234594Y193345D03*
X243129Y193345D03*
D187*
X253086Y193345D03*
D17*
X256032Y193345D03*
D66*
X267208Y193345D03*
D55*
X269646Y193345D03*
D47*
X273355Y193345D03*
D69*
X283058Y193345D03*
D71*
X182423Y193446D03*
D64*
X201016Y193446D03*
D194*
X207213Y193446D03*
D85*
X221590Y193446D03*
D129*
X234645Y193446D03*
D67*
X243129Y193446D03*
D86*
X253086Y193446D03*
D17*
X256337Y193446D03*
D69*
X267310Y193446D03*
D45*
X273406Y193446D03*
D86*
X282956Y193446D03*
D102*
X182474Y193548D03*
D292*
X201066Y193548D03*
D321*
X207264Y193548D03*
D102*
X221488Y193548D03*
D103*
X234594Y193548D03*
X243129Y193548D03*
D322*
X253086Y193548D03*
D293*
X267310Y193548D03*
D164*
X273406Y193548D03*
D274*
X282956Y193548D03*
D85*
X182575Y193650D03*
X201066Y193650D03*
D54*
X207264Y193650D03*
D85*
X221488Y193650D03*
D129*
X234645Y193650D03*
X243180Y193650D03*
D88*
X253187Y193650D03*
D74*
X267208Y193650D03*
D45*
X273406Y193650D03*
D95*
X282956Y193650D03*
D85*
X182677Y193751D03*
D145*
X201117Y193751D03*
D56*
X207366Y193751D03*
D145*
X221437Y193751D03*
D129*
X234645Y193751D03*
D43*
X243129Y193751D03*
D55*
X249326Y193751D03*
D98*
X253187Y193751D03*
D86*
X267208Y193751D03*
D264*
X273456Y193751D03*
D98*
X283058Y193751D03*
D71*
X182728Y193853D03*
D171*
X201168Y193853D03*
D174*
X207416Y193853D03*
D85*
X221386Y193853D03*
D129*
X234645Y193853D03*
X243180Y193853D03*
D96*
X253187Y193853D03*
D248*
X267259Y193853D03*
D45*
X273406Y193853D03*
D17*
X279095Y193853D03*
D93*
X283058Y193853D03*
D85*
X182778Y193954D03*
D252*
X201219Y193954D03*
D174*
X207416Y193954D03*
D85*
X221285Y193954D03*
D129*
X234645Y193954D03*
D43*
X243129Y193954D03*
D100*
X253187Y193954D03*
D323*
X267259Y193954D03*
D264*
X273456Y193954D03*
D96*
X282956Y193954D03*
D102*
X182778Y194056D03*
D324*
X201270Y194056D03*
D249*
X207416Y194056D03*
D102*
X221183Y194056D03*
D103*
X234696Y194056D03*
D77*
X243180Y194056D03*
D232*
X253086Y194056D03*
D255*
X267208Y194056D03*
D122*
X273406Y194056D03*
D107*
X283058Y194056D03*
D85*
X182880Y194158D03*
D56*
X201270Y194158D03*
D58*
X207467Y194158D03*
D85*
X221183Y194158D03*
D129*
X234645Y194158D03*
X243180Y194158D03*
D235*
X253136Y194158D03*
D153*
X267208Y194158D03*
D264*
X273456Y194158D03*
D111*
X283058Y194158D03*
D85*
X182982Y194259D03*
D174*
X201320Y194259D03*
D252*
X207518Y194259D03*
D85*
X221183Y194259D03*
D43*
X234696Y194259D03*
D129*
X243180Y194259D03*
D114*
X253187Y194259D03*
D93*
X267208Y194259D03*
D45*
X273406Y194259D03*
D116*
X283058Y194259D03*
D85*
X182982Y194361D03*
D56*
X201371Y194361D03*
D252*
X207518Y194361D03*
D85*
X221082Y194361D03*
D129*
X234747Y194361D03*
X243180Y194361D03*
D118*
X253187Y194361D03*
D225*
X267208Y194361D03*
D264*
X273456Y194361D03*
D108*
X283058Y194361D03*
D71*
X183032Y194462D03*
D56*
X201371Y194462D03*
D132*
X207518Y194462D03*
D85*
X220980Y194462D03*
D43*
X234696Y194462D03*
X243230Y194462D03*
D119*
X253187Y194462D03*
D96*
X267208Y194462D03*
D45*
X273406Y194462D03*
D288*
X283007Y194462D03*
D102*
X183083Y194564D03*
D319*
X201473Y194564D03*
D181*
X207569Y194564D03*
D279*
X220929Y194564D03*
D77*
X234747Y194564D03*
X243180Y194564D03*
D126*
X253187Y194564D03*
D223*
X267208Y194564D03*
D122*
X273507Y194564D03*
D325*
X283108Y194564D03*
D85*
X183185Y194666D03*
D194*
X201524Y194666D03*
D85*
X207569Y194666D03*
X220878Y194666D03*
D129*
X234747Y194666D03*
D43*
X243230Y194666D03*
D84*
X253238Y194666D03*
D220*
X267208Y194666D03*
D264*
X273456Y194666D03*
D109*
X283058Y194666D03*
D85*
X183286Y194767D03*
D194*
X201524Y194767D03*
D71*
X207620Y194767D03*
D85*
X220878Y194767D03*
D129*
X234747Y194767D03*
X243180Y194767D03*
D97*
X253187Y194767D03*
D111*
X267208Y194767D03*
D45*
X273507Y194767D03*
D115*
X283108Y194767D03*
D85*
X183286Y194869D03*
D54*
X201574Y194869D03*
D61*
X207569Y194869D03*
D85*
X220777Y194869D03*
D129*
X234747Y194869D03*
D43*
X243230Y194869D03*
D142*
X253187Y194869D03*
D170*
X269037Y194869D03*
D84*
X283108Y194869D03*
D145*
X183337Y194970D03*
D194*
X201625Y194970D03*
D61*
X207569Y194970D03*
D85*
X220675Y194970D03*
D129*
X234747Y194970D03*
X243281Y194970D03*
D142*
X253187Y194970D03*
D172*
X269088Y194970D03*
D60*
X283108Y194970D03*
D102*
X183388Y195072D03*
D320*
X201727Y195072D03*
D200*
X207569Y195072D03*
D250*
X220624Y195072D03*
D77*
X234747Y195072D03*
D103*
X243230Y195072D03*
D326*
X253289Y195072D03*
D179*
X268986Y195072D03*
D49*
X283058Y195072D03*
D85*
X183490Y195174D03*
D57*
X201778Y195174D03*
D48*
X207569Y195174D03*
D132*
X220624Y195174D03*
D43*
X234798Y195174D03*
D129*
X243281Y195174D03*
D155*
X253238Y195174D03*
D173*
X269037Y195174D03*
D52*
X283159Y195174D03*
D85*
X183591Y195275D03*
D194*
X201828Y195275D03*
D45*
X207569Y195275D03*
D85*
X220574Y195275D03*
D129*
X234747Y195275D03*
X243281Y195275D03*
D44*
X253238Y195275D03*
D327*
X268986Y195275D03*
D46*
X283159Y195275D03*
D85*
X183591Y195377D03*
D194*
X201930Y195377D03*
D45*
X207569Y195377D03*
D85*
X220472Y195377D03*
D43*
X234798Y195377D03*
D129*
X243281Y195377D03*
D216*
X253187Y195377D03*
D317*
X268935Y195377D03*
D155*
X283108Y195377D03*
D85*
X183591Y195478D03*
D54*
X201981Y195478D03*
D43*
X207467Y195478D03*
D85*
X220370Y195478D03*
D67*
X234798Y195478D03*
D129*
X243281Y195478D03*
D328*
X253238Y195478D03*
D329*
X268884Y195478D03*
D143*
X283058Y195478D03*
D102*
X183693Y195580D03*
D319*
X202082Y195580D03*
D212*
X207467Y195580D03*
D279*
X220320Y195580D03*
D103*
X234798Y195580D03*
X243332Y195580D03*
D330*
X253238Y195580D03*
D256*
X268834Y195580D03*
D149*
X282956Y195580D03*
D85*
X183794Y195682D03*
D58*
X202286Y195682D03*
D168*
X207416Y195682D03*
D85*
X220370Y195682D03*
D67*
X234798Y195682D03*
D129*
X243281Y195682D03*
D154*
X253238Y195682D03*
D230*
X268884Y195682D03*
D331*
X282854Y195682D03*
D145*
X183845Y195783D03*
D332*
X202336Y195783D03*
D193*
X207315Y195783D03*
D85*
X220269Y195783D03*
D43*
X234798Y195783D03*
X243332Y195783D03*
D157*
X253289Y195783D03*
D224*
X268834Y195783D03*
D52*
X282753Y195783D03*
D71*
X183845Y195885D03*
D85*
X202489Y195885D03*
D55*
X204114Y195885D03*
D17*
X204318Y195885D03*
X204521Y195885D03*
D72*
X207162Y195885D03*
D85*
X220167Y195885D03*
D67*
X234798Y195885D03*
D129*
X243281Y195885D03*
D275*
X253289Y195885D03*
D228*
X268834Y195885D03*
D155*
X282702Y195885D03*
D85*
X183896Y195986D03*
D265*
X205384Y195986D03*
D85*
X220066Y195986D03*
D43*
X234798Y195986D03*
X243332Y195986D03*
D170*
X253289Y195986D03*
D228*
X268732Y195986D03*
D73*
X279705Y195986D03*
D17*
X282448Y195986D03*
D55*
X283870Y195986D03*
D43*
X286004Y195986D03*
D102*
X183998Y196088D03*
D107*
X205435Y196088D03*
D102*
X220066Y196088D03*
D212*
X234798Y196088D03*
X243332Y196088D03*
D333*
X253289Y196088D03*
D334*
X268783Y196088D03*
D182*
X279502Y196088D03*
D122*
X286004Y196088D03*
D85*
X184099Y196190D03*
D112*
X205486Y196190D03*
D85*
X220066Y196190D03*
D43*
X234798Y196190D03*
X243332Y196190D03*
D170*
X253289Y196190D03*
D228*
X268732Y196190D03*
D68*
X279298Y196190D03*
D59*
X286106Y196190D03*
D71*
X184150Y196291D03*
D265*
X205486Y196291D03*
D85*
X219964Y196291D03*
D129*
X234848Y196291D03*
D67*
X243332Y196291D03*
D173*
X253289Y196291D03*
D335*
X268732Y196291D03*
D188*
X279248Y196291D03*
D85*
X286207Y196291D03*
X184099Y196393D03*
D220*
X205537Y196393D03*
D85*
X219862Y196393D03*
D43*
X234798Y196393D03*
X243332Y196393D03*
D74*
X249834Y196393D03*
D17*
X252984Y196393D03*
X253187Y196393D03*
D55*
X253390Y196393D03*
D17*
X253594Y196393D03*
D74*
X256743Y196393D03*
D271*
X265024Y196393D03*
D17*
X268224Y196393D03*
X268427Y196393D03*
D55*
X268630Y196393D03*
D17*
X268834Y196393D03*
D336*
X272186Y196393D03*
D66*
X279197Y196393D03*
D171*
X286207Y196393D03*
D85*
X184201Y196494D03*
D112*
X205588Y196494D03*
D71*
X219812Y196494D03*
D129*
X234848Y196494D03*
D67*
X243332Y196494D03*
D187*
X249530Y196494D03*
D17*
X252476Y196494D03*
X254102Y196494D03*
D187*
X257048Y196494D03*
X264770Y196494D03*
D17*
X267716Y196494D03*
X269342Y196494D03*
D74*
X272491Y196494D03*
D66*
X279095Y196494D03*
D58*
X286207Y196494D03*
D102*
X184302Y196596D03*
D337*
X205638Y196596D03*
D279*
X219812Y196596D03*
D103*
X234798Y196596D03*
X243332Y196596D03*
D123*
X249428Y196596D03*
D258*
X257200Y196596D03*
D267*
X264566Y196596D03*
D14*
X269850Y196596D03*
D267*
X272694Y196596D03*
D214*
X278994Y196596D03*
D184*
X286207Y196596D03*
D71*
X184353Y196698D03*
D112*
X205689Y196698D03*
D85*
X219761Y196698D03*
D129*
X234848Y196698D03*
D67*
X243332Y196698D03*
D72*
X249225Y196698D03*
D55*
X251866Y196698D03*
D90*
X257404Y196698D03*
D167*
X264465Y196698D03*
X272796Y196698D03*
D65*
X278892Y196698D03*
D338*
X286156Y196698D03*
D85*
X184404Y196799D03*
D221*
X205638Y196799D03*
D85*
X219659Y196799D03*
D129*
X234848Y196799D03*
D43*
X243332Y196799D03*
D72*
X249123Y196799D03*
D203*
X257505Y196799D03*
D72*
X264363Y196799D03*
D17*
X270256Y196799D03*
D90*
X272948Y196799D03*
D168*
X278841Y196799D03*
D189*
X286207Y196799D03*
D85*
X184404Y196901D03*
D100*
X205740Y196901D03*
D85*
X219558Y196901D03*
D129*
X234848Y196901D03*
X243383Y196901D03*
D139*
X249072Y196901D03*
D68*
X257658Y196901D03*
D72*
X264262Y196901D03*
X272999Y196901D03*
D168*
X278740Y196901D03*
D195*
X286207Y196901D03*
D85*
X184506Y197002D03*
D227*
X205791Y197002D03*
D132*
X219507Y197002D03*
D129*
X234848Y197002D03*
D43*
X243332Y197002D03*
D188*
X248971Y197002D03*
D205*
X257708Y197002D03*
D188*
X264109Y197002D03*
D139*
X273050Y197002D03*
D129*
X278740Y197002D03*
D197*
X286207Y197002D03*
D102*
X184607Y197104D03*
D339*
X205791Y197104D03*
D250*
X219507Y197104D03*
D103*
X234899Y197104D03*
D77*
X243383Y197104D03*
D218*
X248869Y197104D03*
X257810Y197104D03*
D161*
X264160Y197104D03*
X273101Y197104D03*
D212*
X278689Y197104D03*
D340*
X286207Y197104D03*
D132*
X184658Y197206D03*
D96*
X205842Y197206D03*
D85*
X219456Y197206D03*
D129*
X234848Y197206D03*
X243383Y197206D03*
D65*
X248818Y197206D03*
D66*
X257861Y197206D03*
D188*
X264008Y197206D03*
X273152Y197206D03*
D67*
X278587Y197206D03*
D262*
X286106Y197206D03*
D85*
X184709Y197307D03*
D96*
X205842Y197307D03*
D85*
X219354Y197307D03*
D43*
X234899Y197307D03*
D129*
X243383Y197307D03*
D193*
X248768Y197307D03*
D66*
X257962Y197307D03*
X263957Y197307D03*
X273202Y197307D03*
D43*
X278587Y197307D03*
D207*
X286106Y197307D03*
D85*
X184709Y197409D03*
D229*
X205892Y197409D03*
D85*
X219253Y197409D03*
D129*
X234950Y197409D03*
X243383Y197409D03*
D65*
X248717Y197409D03*
D193*
X258013Y197409D03*
X263906Y197409D03*
X273253Y197409D03*
D43*
X278486Y197409D03*
D17*
X286106Y197409D03*
D85*
X184810Y197510D03*
D225*
X205943Y197510D03*
D71*
X219304Y197510D03*
D43*
X234899Y197510D03*
D129*
X243383Y197510D03*
D193*
X248666Y197510D03*
D65*
X258064Y197510D03*
D66*
X263855Y197510D03*
D65*
X273304Y197510D03*
D67*
X278486Y197510D03*
D102*
X184912Y197612D03*
D104*
X206045Y197612D03*
D102*
X219253Y197612D03*
D77*
X234950Y197612D03*
X243383Y197612D03*
D214*
X248615Y197612D03*
X258166Y197612D03*
X263855Y197612D03*
X273406Y197612D03*
D103*
X278486Y197612D03*
D71*
X184963Y197714D03*
D253*
X205994Y197714D03*
D85*
X219151Y197714D03*
D43*
X234899Y197714D03*
X243434Y197714D03*
D168*
X248564Y197714D03*
D62*
X258267Y197714D03*
X263754Y197714D03*
D67*
X273406Y197714D03*
D43*
X278384Y197714D03*
D132*
X184963Y197815D03*
D225*
X206045Y197815D03*
D85*
X219050Y197815D03*
D129*
X234950Y197815D03*
X243383Y197815D03*
D67*
X248514Y197815D03*
X258267Y197815D03*
X263754Y197815D03*
X273507Y197815D03*
D43*
X278384Y197815D03*
D85*
X185014Y197917D03*
D93*
X206045Y197917D03*
D71*
X218999Y197917D03*
D129*
X234950Y197917D03*
D43*
X243434Y197917D03*
D62*
X248514Y197917D03*
D168*
X258318Y197917D03*
X263703Y197917D03*
D67*
X273406Y197917D03*
D43*
X278384Y197917D03*
D85*
X185115Y198018D03*
D93*
X206146Y198018D03*
D85*
X218948Y198018D03*
D129*
X234950Y198018D03*
X243484Y198018D03*
D67*
X248514Y198018D03*
X258369Y198018D03*
D168*
X263703Y198018D03*
D129*
X273558Y198018D03*
D260*
X278333Y198018D03*
D102*
X185217Y198120D03*
D105*
X206146Y198120D03*
D102*
X218948Y198120D03*
D77*
X234950Y198120D03*
D103*
X243434Y198120D03*
D212*
X248412Y198120D03*
X258369Y198120D03*
X263652Y198120D03*
D77*
X273558Y198120D03*
D103*
X278384Y198120D03*
D171*
X185217Y198222D03*
D169*
X206197Y198222D03*
D85*
X218846Y198222D03*
D43*
X235001Y198222D03*
D129*
X243484Y198222D03*
X248361Y198222D03*
D191*
X258470Y198222D03*
D67*
X263652Y198222D03*
D43*
X273609Y198222D03*
X278282Y198222D03*
D71*
X185268Y198323D03*
D169*
X206197Y198323D03*
D85*
X218745Y198323D03*
D129*
X234950Y198323D03*
X243484Y198323D03*
D67*
X248412Y198323D03*
D191*
X258470Y198323D03*
D67*
X263652Y198323D03*
D43*
X273609Y198323D03*
X278282Y198323D03*
D85*
X185318Y198425D03*
D153*
X206248Y198425D03*
D132*
X218694Y198425D03*
D43*
X235001Y198425D03*
D129*
X243484Y198425D03*
X248361Y198425D03*
D191*
X258470Y198425D03*
X263550Y198425D03*
D43*
X273609Y198425D03*
X278282Y198425D03*
D17*
X280416Y198425D03*
X280619Y198425D03*
D55*
X280822Y198425D03*
D17*
X281026Y198425D03*
X281229Y198425D03*
X281432Y198425D03*
X281635Y198425D03*
D55*
X281838Y198425D03*
D17*
X282042Y198425D03*
X282245Y198425D03*
X282448Y198425D03*
X282651Y198425D03*
D55*
X282854Y198425D03*
D17*
X283058Y198425D03*
X283261Y198425D03*
X283464Y198425D03*
X283667Y198425D03*
D55*
X283870Y198425D03*
D17*
X284074Y198425D03*
X284277Y198425D03*
X284480Y198425D03*
X284683Y198425D03*
D55*
X284886Y198425D03*
D17*
X285090Y198425D03*
X285293Y198425D03*
X285496Y198425D03*
X285699Y198425D03*
D55*
X285902Y198425D03*
D17*
X286106Y198425D03*
X286309Y198425D03*
X286512Y198425D03*
X286715Y198425D03*
D55*
X286918Y198425D03*
D17*
X287122Y198425D03*
X287325Y198425D03*
X287528Y198425D03*
X287731Y198425D03*
D55*
X287934Y198425D03*
D17*
X288138Y198425D03*
X288341Y198425D03*
X288544Y198425D03*
X288747Y198425D03*
D55*
X288950Y198425D03*
D17*
X289154Y198425D03*
X289357Y198425D03*
D85*
X185420Y198526D03*
D144*
X206299Y198526D03*
D71*
X218694Y198526D03*
D129*
X234950Y198526D03*
X243484Y198526D03*
X248361Y198526D03*
D67*
X258572Y198526D03*
D129*
X263601Y198526D03*
D260*
X273660Y198526D03*
D230*
X282905Y198526D03*
D243*
X185471Y198628D03*
D255*
X206350Y198628D03*
D102*
X218643Y198628D03*
D103*
X235001Y198628D03*
D77*
X243484Y198628D03*
D254*
X248310Y198628D03*
D103*
X258572Y198628D03*
D254*
X263550Y198628D03*
D122*
X273710Y198628D03*
D237*
X282956Y198628D03*
D71*
X185471Y198730D03*
D144*
X206299Y198730D03*
D85*
X218542Y198730D03*
D67*
X235001Y198730D03*
D129*
X243484Y198730D03*
X248361Y198730D03*
D67*
X258572Y198730D03*
D191*
X263550Y198730D03*
D43*
X273710Y198730D03*
D228*
X282956Y198730D03*
D85*
X185522Y198831D03*
D88*
X206350Y198831D03*
D85*
X218440Y198831D03*
D43*
X235001Y198831D03*
X243535Y198831D03*
D191*
X248310Y198831D03*
D129*
X258623Y198831D03*
D191*
X263550Y198831D03*
D45*
X273710Y198831D03*
D228*
X282956Y198831D03*
D85*
X185623Y198933D03*
D95*
X206350Y198933D03*
D85*
X218440Y198933D03*
D67*
X235001Y198933D03*
D129*
X243484Y198933D03*
D43*
X248310Y198933D03*
D129*
X258623Y198933D03*
X263500Y198933D03*
D260*
X273761Y198933D03*
D228*
X282956Y198933D03*
D85*
X185725Y199034D03*
D95*
X206451Y199034D03*
D145*
X218389Y199034D03*
D43*
X235001Y199034D03*
X243535Y199034D03*
D129*
X248260Y199034D03*
X258623Y199034D03*
X263500Y199034D03*
D45*
X273710Y199034D03*
D228*
X282956Y199034D03*
D250*
X185776Y199136D03*
D125*
X206400Y199136D03*
D102*
X218338Y199136D03*
D212*
X235001Y199136D03*
X243535Y199136D03*
D103*
X248310Y199136D03*
X258674Y199136D03*
D77*
X263500Y199136D03*
D122*
X273812Y199136D03*
D237*
X282956Y199136D03*
D85*
X185826Y199238D03*
D323*
X206502Y199238D03*
D85*
X218237Y199238D03*
D43*
X235001Y199238D03*
X243535Y199238D03*
D129*
X248260Y199238D03*
X258724Y199238D03*
X263500Y199238D03*
D47*
X273761Y199238D03*
D228*
X282956Y199238D03*
D85*
X185826Y199339D03*
D89*
X206451Y199339D03*
D85*
X218135Y199339D03*
D129*
X235052Y199339D03*
D67*
X243535Y199339D03*
D43*
X248310Y199339D03*
D129*
X258724Y199339D03*
D43*
X263550Y199339D03*
D45*
X273812Y199339D03*
D241*
X283007Y199339D03*
D85*
X185928Y199441D03*
D248*
X206604Y199441D03*
D85*
X218135Y199441D03*
D43*
X235001Y199441D03*
X243535Y199441D03*
D129*
X248260Y199441D03*
X258724Y199441D03*
X263500Y199441D03*
D47*
X273761Y199441D03*
D228*
X282956Y199441D03*
D85*
X186030Y199542D03*
D91*
X206553Y199542D03*
D85*
X218135Y199542D03*
D129*
X235052Y199542D03*
D67*
X243535Y199542D03*
D43*
X248310Y199542D03*
D129*
X258724Y199542D03*
D43*
X263550Y199542D03*
D45*
X273812Y199542D03*
D241*
X283007Y199542D03*
D102*
X186030Y199644D03*
D341*
X206604Y199644D03*
D102*
X218034Y199644D03*
D103*
X235001Y199644D03*
X243535Y199644D03*
D77*
X248260Y199644D03*
D103*
X258775Y199644D03*
D77*
X263500Y199644D03*
D164*
X273812Y199644D03*
D237*
X282956Y199644D03*
D71*
X186080Y199746D03*
D336*
X206654Y199746D03*
D85*
X217932Y199746D03*
D129*
X235052Y199746D03*
D67*
X243535Y199746D03*
D43*
X248310Y199746D03*
D129*
X258724Y199746D03*
D43*
X263550Y199746D03*
D45*
X273812Y199746D03*
D241*
X283007Y199746D03*
D85*
X186131Y199847D03*
D99*
X206705Y199847D03*
D145*
X217881Y199847D03*
D129*
X235052Y199847D03*
D43*
X243535Y199847D03*
D129*
X248361Y199847D03*
D43*
X258775Y199847D03*
D129*
X263601Y199847D03*
D48*
X273812Y199847D03*
D228*
X282956Y199847D03*
D85*
X186233Y199949D03*
D86*
X206756Y199949D03*
D85*
X217830Y199949D03*
D129*
X235052Y199949D03*
X243586Y199949D03*
X248361Y199949D03*
X258724Y199949D03*
D43*
X263550Y199949D03*
D45*
X273812Y199949D03*
D241*
X283007Y199949D03*
D85*
X186334Y200050D03*
D74*
X206858Y200050D03*
D85*
X217830Y200050D03*
D129*
X235052Y200050D03*
D43*
X243535Y200050D03*
D129*
X248361Y200050D03*
D43*
X258775Y200050D03*
D129*
X263601Y200050D03*
D47*
X273863Y200050D03*
D228*
X282956Y200050D03*
D102*
X186334Y200152D03*
D342*
X206908Y200152D03*
D102*
X217729Y200152D03*
D103*
X235102Y200152D03*
D77*
X243586Y200152D03*
X248361Y200152D03*
X258724Y200152D03*
X263601Y200152D03*
D122*
X273812Y200152D03*
D237*
X283058Y200152D03*
D145*
X186385Y200254D03*
D187*
X206959Y200254D03*
D85*
X217627Y200254D03*
D191*
X235102Y200254D03*
D129*
X243586Y200254D03*
D43*
X248412Y200254D03*
X258775Y200254D03*
X263652Y200254D03*
D47*
X273863Y200254D03*
D230*
X283007Y200254D03*
D85*
X186436Y200355D03*
D187*
X207061Y200355D03*
D71*
X217576Y200355D03*
D43*
X235102Y200355D03*
D129*
X243586Y200355D03*
D67*
X248412Y200355D03*
D129*
X258724Y200355D03*
D67*
X263652Y200355D03*
D45*
X273812Y200355D03*
D228*
X283058Y200355D03*
D85*
X186538Y200457D03*
D167*
X207061Y200457D03*
D132*
X217576Y200457D03*
D191*
X235102Y200457D03*
D129*
X243586Y200457D03*
D43*
X248412Y200457D03*
D129*
X258724Y200457D03*
D43*
X263652Y200457D03*
D45*
X273812Y200457D03*
D230*
X283007Y200457D03*
D85*
X186639Y200558D03*
D167*
X207162Y200558D03*
D85*
X217526Y200558D03*
D129*
X235153Y200558D03*
X243586Y200558D03*
D67*
X248412Y200558D03*
D129*
X258724Y200558D03*
D67*
X263652Y200558D03*
D45*
X273812Y200558D03*
D228*
X283058Y200558D03*
D102*
X186639Y200660D03*
D182*
X207264Y200660D03*
D102*
X217424Y200660D03*
D77*
X235153Y200660D03*
X243586Y200660D03*
X248463Y200660D03*
X258724Y200660D03*
X263703Y200660D03*
D122*
X273812Y200660D03*
D256*
X283058Y200660D03*
D85*
X186639Y200762D03*
D72*
X207366Y200762D03*
D85*
X217322Y200762D03*
D67*
X235204Y200762D03*
D129*
X243586Y200762D03*
X248463Y200762D03*
X258724Y200762D03*
X263703Y200762D03*
D45*
X273812Y200762D03*
D228*
X283058Y200762D03*
D85*
X186741Y200863D03*
D68*
X207366Y200863D03*
D145*
X217272Y200863D03*
D129*
X235153Y200863D03*
X243586Y200863D03*
D67*
X248514Y200863D03*
X258674Y200863D03*
X263754Y200863D03*
D43*
X273812Y200863D03*
D224*
X283058Y200863D03*
D85*
X186842Y200965D03*
D205*
X207416Y200965D03*
D85*
X217322Y200965D03*
D67*
X235204Y200965D03*
D129*
X243586Y200965D03*
D67*
X248615Y200965D03*
X258674Y200965D03*
D129*
X263804Y200965D03*
D260*
X273761Y200965D03*
D230*
X283108Y200965D03*
D145*
X186893Y201066D03*
D65*
X207569Y201066D03*
D85*
X217221Y201066D03*
D129*
X235153Y201066D03*
X243586Y201066D03*
X248564Y201066D03*
D67*
X258674Y201066D03*
D129*
X263804Y201066D03*
D43*
X273812Y201066D03*
D224*
X283058Y201066D03*
D250*
X186893Y201168D03*
D185*
X207620Y201168D03*
D102*
X217119Y201168D03*
D212*
X235204Y201168D03*
X243535Y201168D03*
X248615Y201168D03*
X258572Y201168D03*
X263855Y201168D03*
D77*
X273761Y201168D03*
X278536Y201168D03*
D14*
X280721Y201168D03*
X280924Y201168D03*
X281127Y201168D03*
D13*
X281330Y201168D03*
D14*
X281534Y201168D03*
X281737Y201168D03*
X281940Y201168D03*
X282143Y201168D03*
D13*
X282346Y201168D03*
D14*
X282550Y201168D03*
X282753Y201168D03*
X282956Y201168D03*
X283159Y201168D03*
D13*
X283362Y201168D03*
D14*
X283566Y201168D03*
X283769Y201168D03*
X283972Y201168D03*
X284175Y201168D03*
D13*
X284378Y201168D03*
D14*
X284582Y201168D03*
X284785Y201168D03*
X284988Y201168D03*
X285191Y201168D03*
D13*
X285394Y201168D03*
D14*
X285598Y201168D03*
D103*
X287731Y201168D03*
D85*
X186944Y201270D03*
D43*
X207772Y201270D03*
D85*
X217018Y201270D03*
D67*
X235306Y201270D03*
D129*
X243586Y201270D03*
D67*
X248717Y201270D03*
D168*
X258623Y201270D03*
D67*
X263957Y201270D03*
D129*
X273761Y201270D03*
D43*
X278486Y201270D03*
D222*
X287680Y201270D03*
D85*
X187046Y201371D03*
D45*
X207772Y201371D03*
D85*
X217018Y201371D03*
D168*
X235255Y201371D03*
D67*
X243535Y201371D03*
D65*
X248717Y201371D03*
D67*
X258572Y201371D03*
D168*
X263906Y201371D03*
D129*
X273761Y201371D03*
D43*
X278587Y201371D03*
D222*
X287680Y201371D03*
D85*
X187147Y201473D03*
D17*
X206045Y201473D03*
D48*
X207975Y201473D03*
D132*
X216967Y201473D03*
D67*
X235306Y201473D03*
D129*
X243586Y201473D03*
D67*
X248717Y201473D03*
D168*
X258521Y201473D03*
D67*
X263957Y201473D03*
D191*
X273710Y201473D03*
D45*
X278587Y201473D03*
D222*
X287680Y201473D03*
D71*
X187198Y201574D03*
D59*
X207975Y201574D03*
D85*
X216916Y201574D03*
D62*
X235306Y201574D03*
D67*
X243535Y201574D03*
D168*
X248768Y201574D03*
D65*
X258470Y201574D03*
D168*
X264008Y201574D03*
X273660Y201574D03*
D43*
X278587Y201574D03*
D222*
X287680Y201574D03*
D243*
X187198Y201676D03*
D14*
X206451Y201676D03*
D250*
X208128Y201676D03*
D102*
X216814Y201676D03*
D185*
X235356Y201676D03*
D212*
X243535Y201676D03*
D210*
X248818Y201676D03*
D185*
X258420Y201676D03*
D210*
X264058Y201676D03*
D185*
X273660Y201676D03*
D259*
X278638Y201676D03*
D103*
X287630Y201676D03*
D85*
X187249Y201778D03*
X208178Y201778D03*
D71*
X216764Y201778D03*
D193*
X235356Y201778D03*
D67*
X243535Y201778D03*
D65*
X248920Y201778D03*
X258470Y201778D03*
X264160Y201778D03*
D168*
X273660Y201778D03*
D45*
X278689Y201778D03*
X287630Y201778D03*
D85*
X187350Y201879D03*
D58*
X208280Y201879D03*
D145*
X216764Y201879D03*
D62*
X235407Y201879D03*
D168*
X243484Y201879D03*
D62*
X249022Y201879D03*
D65*
X258369Y201879D03*
D62*
X264262Y201879D03*
D65*
X273609Y201879D03*
D260*
X278740Y201879D03*
D222*
X287579Y201879D03*
D71*
X187401Y201981D03*
D58*
X208382Y201981D03*
D85*
X216713Y201981D03*
D66*
X235407Y201981D03*
D62*
X243434Y201981D03*
D66*
X249022Y201981D03*
D193*
X258318Y201981D03*
D66*
X264262Y201981D03*
X273609Y201981D03*
D43*
X278790Y201981D03*
X287528Y201981D03*
D85*
X187452Y202082D03*
D57*
X208483Y202082D03*
D85*
X216611Y202082D03*
D66*
X235509Y202082D03*
D168*
X243484Y202082D03*
D66*
X249123Y202082D03*
X258267Y202082D03*
X264363Y202082D03*
X273507Y202082D03*
D45*
X278790Y202082D03*
D222*
X287579Y202082D03*
D250*
X187503Y202184D03*
D321*
X208585Y202184D03*
D102*
X216510Y202184D03*
D161*
X235509Y202184D03*
D214*
X243434Y202184D03*
D180*
X249225Y202184D03*
X258166Y202184D03*
D218*
X264414Y202184D03*
D161*
X273507Y202184D03*
D343*
X278841Y202184D03*
D103*
X287528Y202184D03*
D85*
X187554Y202286D03*
D196*
X208686Y202286D03*
D132*
X216459Y202286D03*
D66*
X235509Y202286D03*
D193*
X243383Y202286D03*
D188*
X249276Y202286D03*
X258115Y202286D03*
X264516Y202286D03*
D68*
X273406Y202286D03*
D43*
X278892Y202286D03*
D260*
X287477Y202286D03*
D85*
X187655Y202387D03*
D344*
X208839Y202387D03*
D71*
X216459Y202387D03*
D203*
X235661Y202387D03*
D66*
X243332Y202387D03*
D68*
X249326Y202387D03*
X258064Y202387D03*
X264566Y202387D03*
D72*
X273406Y202387D03*
D43*
X278994Y202387D03*
X287528Y202387D03*
D132*
X187706Y202489D03*
D197*
X208991Y202489D03*
D85*
X216408Y202489D03*
D72*
X235712Y202489D03*
D188*
X243281Y202489D03*
D68*
X249428Y202489D03*
X257962Y202489D03*
X264668Y202489D03*
D72*
X273304Y202489D03*
D222*
X279044Y202489D03*
D43*
X287426Y202489D03*
D85*
X187757Y202590D03*
D206*
X208991Y202590D03*
D85*
X216306Y202590D03*
D90*
X235763Y202590D03*
D68*
X243230Y202590D03*
D72*
X249631Y202590D03*
D90*
X257810Y202590D03*
X264820Y202590D03*
D167*
X273202Y202590D03*
D67*
X279095Y202590D03*
D43*
X287325Y202590D03*
D102*
X187757Y202692D03*
D14*
X208890Y202692D03*
X209093Y202692D03*
D102*
X216205Y202692D03*
D123*
X235814Y202692D03*
D161*
X243129Y202692D03*
D80*
X249682Y202692D03*
D123*
X257759Y202692D03*
X264871Y202692D03*
D267*
X273101Y202692D03*
D103*
X279095Y202692D03*
D77*
X287274Y202692D03*
D85*
X187858Y202794D03*
D71*
X216256Y202794D03*
D186*
X235966Y202794D03*
D73*
X243027Y202794D03*
D187*
X249936Y202794D03*
D17*
X254711Y202794D03*
D167*
X257556Y202794D03*
X265074Y202794D03*
D17*
X267919Y202794D03*
D270*
X272999Y202794D03*
D191*
X279298Y202794D03*
D67*
X287223Y202794D03*
D85*
X187960Y202895D03*
X216205Y202895D03*
D270*
X236118Y202895D03*
D55*
X239166Y202895D03*
X240182Y202895D03*
D73*
X242926Y202895D03*
D270*
X250139Y202895D03*
D55*
X254406Y202895D03*
D187*
X257353Y202895D03*
X265278Y202895D03*
D17*
X268224Y202895D03*
X268427Y202895D03*
D55*
X269646Y202895D03*
D74*
X272796Y202895D03*
D67*
X279400Y202895D03*
D129*
X287172Y202895D03*
D71*
X188011Y202997D03*
D85*
X216103Y202997D03*
D166*
X239420Y202997D03*
D317*
X253797Y202997D03*
D241*
X269189Y202997D03*
D168*
X279451Y202997D03*
D62*
X287122Y202997D03*
D132*
X188011Y203098D03*
D85*
X216002Y203098D03*
D275*
X239370Y203098D03*
D173*
X253797Y203098D03*
D241*
X269189Y203098D03*
D168*
X279552Y203098D03*
D55*
X284886Y203098D03*
D67*
X287122Y203098D03*
D102*
X188062Y203200D03*
D250*
X215951Y203200D03*
D318*
X239420Y203200D03*
D345*
X253746Y203200D03*
D237*
X269240Y203200D03*
D180*
X279705Y203200D03*
D210*
X286918Y203200D03*
D85*
X188163Y203302D03*
X215900Y203302D03*
D275*
X239370Y203302D03*
D166*
X253746Y203302D03*
D230*
X269291Y203302D03*
D66*
X279806Y203302D03*
D193*
X286868Y203302D03*
D85*
X188265Y203403D03*
X215900Y203403D03*
D158*
X239420Y203403D03*
D166*
X253746Y203403D03*
D230*
X269291Y203403D03*
D68*
X280010Y203403D03*
X286715Y203403D03*
D145*
X188316Y203505D03*
D85*
X215798Y203505D03*
D275*
X239370Y203505D03*
X253797Y203505D03*
D224*
X269342Y203505D03*
D68*
X280111Y203505D03*
D17*
X282651Y203505D03*
D68*
X286614Y203505D03*
D71*
X188316Y203606D03*
D85*
X215697Y203606D03*
D157*
X239370Y203606D03*
X253797Y203606D03*
D224*
X269342Y203606D03*
D331*
X283362Y203606D03*
D102*
X188366Y203708D03*
D243*
X215646Y203708D03*
D40*
X239370Y203708D03*
D346*
X253797Y203708D03*
D347*
X269392Y203708D03*
D162*
X283413Y203708D03*
D85*
X188468Y203810D03*
D71*
X215646Y203810D03*
D157*
X239370Y203810D03*
D42*
X253797Y203810D03*
D317*
X269443Y203810D03*
D198*
X283413Y203810D03*
D132*
X188519Y203911D03*
D85*
X215595Y203911D03*
D154*
X239319Y203911D03*
D348*
X253797Y203911D03*
D317*
X269545Y203911D03*
D190*
X283413Y203911D03*
D71*
X188519Y204013D03*
D85*
X215494Y204013D03*
D154*
X239319Y204013D03*
D151*
X253746Y204013D03*
D327*
X269494Y204013D03*
D190*
X283413Y204013D03*
D85*
X188570Y204114D03*
X215392Y204114D03*
D154*
X239319Y204114D03*
D143*
X253797Y204114D03*
D327*
X269596Y204114D03*
D63*
X283464Y204114D03*
D102*
X188671Y204216D03*
X215392Y204216D03*
D346*
X239268Y204216D03*
D284*
X253848Y204216D03*
D179*
X269596Y204216D03*
D349*
X283464Y204216D03*
D85*
X188773Y204318D03*
D145*
X215341Y204318D03*
D152*
X239268Y204318D03*
D52*
X253898Y204318D03*
D172*
X269697Y204318D03*
D115*
X283515Y204318D03*
D71*
X188824Y204419D03*
D85*
X215290Y204419D03*
D152*
X239268Y204419D03*
D190*
X253848Y204419D03*
D172*
X269697Y204419D03*
D109*
X283464Y204419D03*
D85*
X188874Y204521D03*
X215189Y204521D03*
D45*
X235306Y204521D03*
D225*
X241198Y204521D03*
D63*
X253898Y204521D03*
D170*
X269748Y204521D03*
D130*
X283464Y204521D03*
D85*
X188874Y204622D03*
X215087Y204622D03*
D43*
X235306Y204622D03*
D93*
X241198Y204622D03*
D84*
X253848Y204622D03*
D166*
X269799Y204622D03*
D119*
X283464Y204622D03*
D102*
X188976Y204724D03*
X215087Y204724D03*
D122*
X235306Y204724D03*
D163*
X241249Y204724D03*
D286*
X253898Y204724D03*
D159*
X269850Y204724D03*
D282*
X283566Y204724D03*
D85*
X189078Y204826D03*
X215087Y204826D03*
D43*
X235306Y204826D03*
D153*
X241300Y204826D03*
D130*
X253898Y204826D03*
D158*
X269900Y204826D03*
D118*
X283566Y204826D03*
D85*
X189078Y204927D03*
X214986Y204927D03*
D45*
X235306Y204927D03*
D144*
X241249Y204927D03*
D288*
X253848Y204927D03*
D229*
X267868Y204927D03*
D43*
X274015Y204927D03*
D235*
X283616Y204927D03*
D71*
X189128Y205029D03*
D85*
X214884Y205029D03*
D43*
X235306Y205029D03*
D133*
X241249Y205029D03*
D283*
X253898Y205029D03*
D225*
X267919Y205029D03*
D67*
X274015Y205029D03*
D350*
X283616Y205029D03*
D85*
X189179Y205130D03*
D145*
X214833Y205130D03*
D45*
X235306Y205130D03*
D89*
X241300Y205130D03*
D116*
X253898Y205130D03*
D169*
X267970Y205130D03*
D43*
X274015Y205130D03*
D110*
X283566Y205130D03*
D102*
X189281Y205232D03*
D250*
X214732Y205232D03*
D103*
X235306Y205232D03*
D351*
X241249Y205232D03*
D352*
X253797Y205232D03*
D353*
X267919Y205232D03*
D212*
X274015Y205232D03*
D223*
X283566Y205232D03*
D85*
X189382Y205334D03*
X214782Y205334D03*
D222*
X235356Y205334D03*
D336*
X241300Y205334D03*
D220*
X253898Y205334D03*
D95*
X268021Y205334D03*
D43*
X274015Y205334D03*
D225*
X283667Y205334D03*
D85*
X189382Y205435D03*
X214681Y205435D03*
D43*
X235306Y205435D03*
D99*
X241249Y205435D03*
D221*
X253898Y205435D03*
D89*
X268021Y205435D03*
D67*
X274015Y205435D03*
D93*
X283667Y205435D03*
D145*
X189433Y205537D03*
D85*
X214579Y205537D03*
D222*
X235356Y205537D03*
D74*
X241300Y205537D03*
D93*
X253898Y205537D03*
D113*
X267970Y205537D03*
D43*
X274015Y205537D03*
D17*
X280010Y205537D03*
D88*
X283769Y205537D03*
D85*
X189484Y205638D03*
D71*
X214528Y205638D03*
D222*
X235356Y205638D03*
D270*
X241300Y205638D03*
D153*
X253898Y205638D03*
D336*
X268021Y205638D03*
D67*
X274015Y205638D03*
D95*
X283769Y205638D03*
D102*
X189586Y205740D03*
D243*
X214528Y205740D03*
D259*
X235356Y205740D03*
D293*
X241300Y205740D03*
D322*
X253898Y205740D03*
D78*
X268021Y205740D03*
D103*
X274015Y205740D03*
D14*
X280416Y205740D03*
D274*
X283769Y205740D03*
D85*
X189687Y205842D03*
X214478Y205842D03*
D222*
X235356Y205842D03*
D175*
X241351Y205842D03*
D91*
X253898Y205842D03*
D187*
X268021Y205842D03*
D129*
X274066Y205842D03*
D86*
X283769Y205842D03*
D85*
X189687Y205943D03*
X214376Y205943D03*
D222*
X235356Y205943D03*
D68*
X241300Y205943D03*
D74*
X253898Y205943D03*
D72*
X268021Y205943D03*
D43*
X274015Y205943D03*
D187*
X283769Y205943D03*
D61*
X189789Y206045D03*
D85*
X214274Y206045D03*
D222*
X235356Y206045D03*
D66*
X241300Y206045D03*
D17*
X251054Y206045D03*
D187*
X254000Y206045D03*
D68*
X268021Y206045D03*
D129*
X274066Y206045D03*
D17*
X281127Y206045D03*
D192*
X283870Y206045D03*
D85*
X189789Y206146D03*
X214173Y206146D03*
D17*
X233477Y206146D03*
X233680Y206146D03*
X233883Y206146D03*
D55*
X234086Y206146D03*
D17*
X234290Y206146D03*
X234493Y206146D03*
X234696Y206146D03*
X234899Y206146D03*
D55*
X235102Y206146D03*
D17*
X235306Y206146D03*
X235509Y206146D03*
X235712Y206146D03*
X235915Y206146D03*
D55*
X236118Y206146D03*
D17*
X236322Y206146D03*
X236525Y206146D03*
X236728Y206146D03*
X236931Y206146D03*
D55*
X237134Y206146D03*
D43*
X241300Y206146D03*
D68*
X253898Y206146D03*
D67*
X268021Y206146D03*
D129*
X274066Y206146D03*
D66*
X283870Y206146D03*
D250*
X189941Y206248D03*
D76*
X214173Y206248D03*
D164*
X241402Y206248D03*
D254*
X253898Y206248D03*
D14*
X256134Y206248D03*
D164*
X268021Y206248D03*
D14*
X269951Y206248D03*
D77*
X274066Y206248D03*
D14*
X281737Y206248D03*
D103*
X283870Y206248D03*
D85*
X189992Y206350D03*
D61*
X214071Y206350D03*
D17*
X239979Y206350D03*
D58*
X241402Y206350D03*
D55*
X252374Y206350D03*
D85*
X254000Y206350D03*
D17*
X255626Y206350D03*
D55*
X266598Y206350D03*
D58*
X268021Y206350D03*
D17*
X269443Y206350D03*
D129*
X274066Y206350D03*
D17*
X282448Y206350D03*
D171*
X283972Y206350D03*
D71*
X190043Y206451D03*
D61*
X213970Y206451D03*
D17*
X240284Y206451D03*
D189*
X241198Y206451D03*
D17*
X242113Y206451D03*
X242316Y206451D03*
D55*
X252882Y206451D03*
D196*
X253898Y206451D03*
D55*
X254914Y206451D03*
D17*
X255118Y206451D03*
X266903Y206451D03*
D55*
X267106Y206451D03*
D189*
X268021Y206451D03*
D17*
X268935Y206451D03*
D43*
X274117Y206451D03*
D17*
X282956Y206451D03*
D196*
X283972Y206451D03*
D17*
X284988Y206451D03*
D61*
X190094Y206553D03*
X213868Y206553D03*
D129*
X274066Y206553D03*
D64*
X190246Y206654D03*
X213817Y206654D03*
D43*
X274117Y206654D03*
D354*
X190348Y206756D03*
X213716Y206756D03*
D77*
X274066Y206756D03*
D261*
X190449Y206858D03*
X213614Y206858D03*
D43*
X274117Y206858D03*
D261*
X190551Y206959D03*
D48*
X213462Y206959D03*
D129*
X274168Y206959D03*
D45*
X190703Y207061D03*
D48*
X213360Y207061D03*
D43*
X274117Y207061D03*
D45*
X190805Y207162D03*
D17*
X211328Y207162D03*
D47*
X213309Y207162D03*
D129*
X274168Y207162D03*
D103*
X191008Y207264D03*
D14*
X193142Y207264D03*
D212*
X213055Y207264D03*
D77*
X274168Y207264D03*
D168*
X191160Y207366D03*
D55*
X193446Y207366D03*
D17*
X210515Y207366D03*
D65*
X212852Y207366D03*
D129*
X274168Y207366D03*
D355*
X201981Y207467D03*
D129*
X274168Y207467D03*
D356*
X201981Y207569D03*
D43*
X274218Y207569D03*
D356*
X202082Y207670D03*
D129*
X274168Y207670D03*
D357*
X202082Y207772D03*
D103*
X274218Y207772D03*
D358*
X202032Y207874D03*
D129*
X274168Y207874D03*
D359*
X202032Y207975D03*
D43*
X274218Y207975D03*
D359*
X202032Y208077D03*
D191*
X274218Y208077D03*
D33*
X202032Y208178D03*
D43*
X274218Y208178D03*
D360*
X202082Y208280D03*
D254*
X274218Y208280D03*
D361*
X202032Y208382D03*
D43*
X274218Y208382D03*
D362*
X202082Y208483D03*
D191*
X274218Y208483D03*
D363*
X202032Y208585D03*
D43*
X274218Y208585D03*
D364*
X202082Y208686D03*
D129*
X274269Y208686D03*
D365*
X201981Y208788D03*
D103*
X274218Y208788D03*
D366*
X202082Y208890D03*
D129*
X274269Y208890D03*
D367*
X201981Y208991D03*
D43*
X274218Y208991D03*
D24*
X201981Y209093D03*
D129*
X274269Y209093D03*
D368*
X202082Y209194D03*
D129*
X274269Y209194D03*
D369*
X202082Y209296D03*
D77*
X274269Y209296D03*
D370*
X201981Y209398D03*
D129*
X274269Y209398D03*
D17*
X191110Y209499D03*
D20*
X202082Y209499D03*
D129*
X274269Y209499D03*
D55*
X191414Y209601D03*
D371*
X202082Y209601D03*
D129*
X274269Y209601D03*
D18*
X201981Y209702D03*
D17*
X212446Y209702D03*
D43*
X274320Y209702D03*
D372*
X201981Y209804D03*
D14*
X212141Y209804D03*
D77*
X274269Y209804D03*
D17*
X192329Y209906D03*
D373*
X201981Y209906D03*
D17*
X211633Y209906D03*
D43*
X274320Y209906D03*
D129*
X274371Y210007D03*
D43*
X274320Y210109D03*
D129*
X274371Y210210D03*
D77*
X274371Y210312D03*
D129*
X274371Y210414D03*
X274371Y210515D03*
X274371Y210617D03*
X274371Y210718D03*
D103*
X274422Y210820D03*
D129*
X274371Y210922D03*
D43*
X274422Y211023D03*
D67*
X274422Y211125D03*
D374*
X295329Y167284D02*
X293776Y166043D01*
X295329Y167284D02*
X295329Y161696D01*
X296881Y161696D02*
X293776Y161696D01*
X299014Y161696D02*
X299014Y162007D01*
X299324Y162007D01*
X299324Y161696D01*
X299014Y161696D01*
X301457Y164490D02*
X301459Y164621D01*
X301464Y164751D01*
X301474Y164881D01*
X301487Y165011D01*
X301503Y165141D01*
X301523Y165270D01*
X301547Y165398D01*
X301575Y165525D01*
X301606Y165652D01*
X301641Y165778D01*
X301679Y165903D01*
X301721Y166027D01*
X301766Y166149D01*
X301815Y166270D01*
X301867Y166390D01*
X301923Y166508D01*
X301923Y166509D02*
X301946Y166569D01*
X301972Y166629D01*
X302001Y166686D01*
X302034Y166742D01*
X302070Y166796D01*
X302108Y166848D01*
X302150Y166898D01*
X302194Y166945D01*
X302241Y166990D01*
X302291Y167032D01*
X302342Y167071D01*
X302396Y167107D01*
X302452Y167140D01*
X302509Y167170D01*
X302568Y167197D01*
X302629Y167220D01*
X302690Y167240D01*
X302753Y167256D01*
X302817Y167269D01*
X302881Y167278D01*
X302945Y167283D01*
X303010Y167285D01*
X303075Y167283D01*
X303139Y167278D01*
X303203Y167269D01*
X303267Y167256D01*
X303330Y167240D01*
X303391Y167220D01*
X303452Y167197D01*
X303511Y167170D01*
X303568Y167140D01*
X303624Y167107D01*
X303678Y167071D01*
X303729Y167032D01*
X303779Y166990D01*
X303826Y166945D01*
X303870Y166898D01*
X303912Y166848D01*
X303950Y166796D01*
X303986Y166742D01*
X304019Y166686D01*
X304048Y166629D01*
X304074Y166569D01*
X304097Y166509D01*
X304096Y166508D02*
X304152Y166390D01*
X304204Y166270D01*
X304253Y166149D01*
X304298Y166027D01*
X304340Y165903D01*
X304378Y165778D01*
X304413Y165652D01*
X304444Y165526D01*
X304472Y165398D01*
X304496Y165270D01*
X304516Y165141D01*
X304532Y165011D01*
X304545Y164881D01*
X304555Y164751D01*
X304560Y164621D01*
X304562Y164490D01*
X301457Y164490D02*
X301459Y164359D01*
X301464Y164229D01*
X301474Y164099D01*
X301487Y163969D01*
X301503Y163839D01*
X301523Y163710D01*
X301547Y163582D01*
X301575Y163455D01*
X301606Y163328D01*
X301641Y163202D01*
X301679Y163077D01*
X301721Y162953D01*
X301766Y162831D01*
X301815Y162710D01*
X301867Y162590D01*
X301923Y162472D01*
X301946Y162412D01*
X301972Y162352D01*
X302001Y162295D01*
X302034Y162239D01*
X302070Y162185D01*
X302108Y162133D01*
X302150Y162083D01*
X302194Y162036D01*
X302241Y161991D01*
X302291Y161949D01*
X302342Y161910D01*
X302396Y161874D01*
X302452Y161841D01*
X302509Y161811D01*
X302568Y161784D01*
X302629Y161761D01*
X302690Y161741D01*
X302753Y161725D01*
X302817Y161712D01*
X302881Y161703D01*
X302945Y161698D01*
X303010Y161696D01*
X304096Y162472D02*
X304152Y162590D01*
X304204Y162710D01*
X304253Y162831D01*
X304298Y162953D01*
X304340Y163077D01*
X304378Y163202D01*
X304413Y163328D01*
X304444Y163454D01*
X304472Y163582D01*
X304496Y163710D01*
X304516Y163839D01*
X304532Y163969D01*
X304545Y164099D01*
X304555Y164229D01*
X304560Y164359D01*
X304562Y164490D01*
X304097Y162472D02*
X304074Y162412D01*
X304048Y162352D01*
X304019Y162295D01*
X303986Y162239D01*
X303950Y162185D01*
X303912Y162133D01*
X303870Y162083D01*
X303826Y162036D01*
X303779Y161991D01*
X303729Y161949D01*
X303678Y161910D01*
X303624Y161874D01*
X303568Y161841D01*
X303511Y161811D01*
X303452Y161784D01*
X303391Y161761D01*
X303330Y161741D01*
X303267Y161725D01*
X303203Y161712D01*
X303139Y161703D01*
X303075Y161698D01*
X303010Y161696D01*
X301768Y162938D02*
X304251Y166043D01*
X436778Y114142D02*
X436778Y112900D01*
X436779Y112900D02*
X436777Y112830D01*
X436771Y112761D01*
X436761Y112692D01*
X436748Y112624D01*
X436730Y112556D01*
X436709Y112490D01*
X436684Y112425D01*
X436656Y112361D01*
X436624Y112299D01*
X436589Y112239D01*
X436550Y112181D01*
X436508Y112126D01*
X436463Y112072D01*
X436415Y112022D01*
X436365Y111974D01*
X436311Y111929D01*
X436256Y111887D01*
X436198Y111848D01*
X436138Y111813D01*
X436076Y111781D01*
X436012Y111753D01*
X435947Y111728D01*
X435881Y111707D01*
X435813Y111689D01*
X435745Y111676D01*
X435676Y111666D01*
X435607Y111660D01*
X435537Y111658D01*
X432432Y111658D01*
X432362Y111660D01*
X432293Y111666D01*
X432224Y111676D01*
X432156Y111689D01*
X432088Y111707D01*
X432022Y111728D01*
X431957Y111753D01*
X431893Y111781D01*
X431831Y111813D01*
X431771Y111848D01*
X431713Y111887D01*
X431658Y111929D01*
X431604Y111974D01*
X431554Y112022D01*
X431506Y112072D01*
X431461Y112126D01*
X431419Y112181D01*
X431380Y112239D01*
X431345Y112299D01*
X431313Y112361D01*
X431285Y112425D01*
X431260Y112490D01*
X431239Y112556D01*
X431221Y112624D01*
X431208Y112692D01*
X431198Y112761D01*
X431192Y112830D01*
X431190Y112900D01*
X431190Y114142D01*
X432432Y116247D02*
X431190Y117799D01*
X436778Y117799D01*
X436778Y116247D02*
X436778Y119351D01*
X321158Y127237D02*
X321158Y128479D01*
X321158Y127237D02*
X321156Y127167D01*
X321150Y127098D01*
X321140Y127029D01*
X321127Y126961D01*
X321109Y126893D01*
X321088Y126827D01*
X321063Y126762D01*
X321035Y126698D01*
X321003Y126636D01*
X320968Y126576D01*
X320929Y126518D01*
X320887Y126463D01*
X320842Y126409D01*
X320794Y126359D01*
X320744Y126311D01*
X320690Y126266D01*
X320635Y126224D01*
X320577Y126185D01*
X320517Y126150D01*
X320455Y126118D01*
X320391Y126090D01*
X320326Y126065D01*
X320260Y126044D01*
X320192Y126026D01*
X320124Y126013D01*
X320055Y126003D01*
X319986Y125997D01*
X319916Y125995D01*
X319916Y125996D02*
X316811Y125996D01*
X316741Y125998D01*
X316672Y126004D01*
X316603Y126014D01*
X316535Y126027D01*
X316467Y126045D01*
X316401Y126066D01*
X316336Y126091D01*
X316272Y126119D01*
X316210Y126151D01*
X316150Y126186D01*
X316092Y126225D01*
X316037Y126267D01*
X315983Y126312D01*
X315933Y126360D01*
X315885Y126410D01*
X315840Y126464D01*
X315798Y126519D01*
X315759Y126577D01*
X315724Y126637D01*
X315692Y126699D01*
X315664Y126763D01*
X315639Y126828D01*
X315618Y126894D01*
X315600Y126962D01*
X315587Y127030D01*
X315577Y127099D01*
X315571Y127168D01*
X315569Y127238D01*
X315570Y127237D02*
X315570Y128479D01*
X315570Y132291D02*
X315572Y132364D01*
X315578Y132437D01*
X315587Y132510D01*
X315601Y132581D01*
X315618Y132653D01*
X315638Y132723D01*
X315663Y132792D01*
X315691Y132859D01*
X315722Y132925D01*
X315757Y132990D01*
X315795Y133052D01*
X315837Y133112D01*
X315881Y133170D01*
X315929Y133226D01*
X315979Y133279D01*
X316032Y133329D01*
X316088Y133377D01*
X316146Y133421D01*
X316206Y133463D01*
X316269Y133501D01*
X316333Y133536D01*
X316399Y133567D01*
X316466Y133595D01*
X316535Y133620D01*
X316605Y133640D01*
X316677Y133657D01*
X316748Y133671D01*
X316821Y133680D01*
X316894Y133686D01*
X316967Y133688D01*
X315569Y132291D02*
X315571Y132207D01*
X315577Y132124D01*
X315586Y132041D01*
X315600Y131958D01*
X315617Y131877D01*
X315639Y131796D01*
X315664Y131716D01*
X315692Y131638D01*
X315724Y131560D01*
X315760Y131485D01*
X315799Y131411D01*
X315842Y131339D01*
X315888Y131269D01*
X315937Y131202D01*
X315990Y131136D01*
X316045Y131074D01*
X316103Y131014D01*
X316164Y130956D01*
X316227Y130902D01*
X316293Y130850D01*
X316361Y130802D01*
X316432Y130757D01*
X316504Y130715D01*
X316579Y130677D01*
X316655Y130642D01*
X316732Y130611D01*
X316811Y130583D01*
X318053Y133222D02*
X318000Y133276D01*
X317943Y133327D01*
X317884Y133375D01*
X317823Y133420D01*
X317760Y133461D01*
X317694Y133500D01*
X317627Y133535D01*
X317558Y133567D01*
X317487Y133595D01*
X317416Y133619D01*
X317343Y133640D01*
X317269Y133657D01*
X317194Y133671D01*
X317119Y133680D01*
X317043Y133686D01*
X316967Y133688D01*
X318053Y133223D02*
X321158Y130584D01*
X321158Y133688D01*
X321158Y135760D02*
X315570Y137623D01*
X321158Y139485D01*
X319761Y139020D02*
X319761Y136226D01*
X372872Y129958D02*
X372872Y128716D01*
X372870Y128646D01*
X372864Y128577D01*
X372854Y128508D01*
X372841Y128440D01*
X372823Y128372D01*
X372802Y128306D01*
X372777Y128241D01*
X372749Y128177D01*
X372717Y128115D01*
X372682Y128055D01*
X372643Y127997D01*
X372601Y127942D01*
X372556Y127888D01*
X372508Y127838D01*
X372458Y127790D01*
X372404Y127745D01*
X372349Y127703D01*
X372291Y127664D01*
X372231Y127629D01*
X372169Y127597D01*
X372105Y127569D01*
X372040Y127544D01*
X371974Y127523D01*
X371906Y127505D01*
X371838Y127492D01*
X371769Y127482D01*
X371700Y127476D01*
X371630Y127474D01*
X368526Y127474D01*
X368456Y127476D01*
X368387Y127482D01*
X368318Y127492D01*
X368250Y127505D01*
X368182Y127523D01*
X368116Y127544D01*
X368051Y127569D01*
X367987Y127597D01*
X367925Y127629D01*
X367865Y127664D01*
X367807Y127703D01*
X367752Y127745D01*
X367698Y127790D01*
X367648Y127838D01*
X367600Y127888D01*
X367555Y127942D01*
X367513Y127997D01*
X367474Y128055D01*
X367439Y128115D01*
X367407Y128177D01*
X367379Y128241D01*
X367354Y128306D01*
X367333Y128372D01*
X367315Y128440D01*
X367302Y128508D01*
X367292Y128577D01*
X367286Y128646D01*
X367284Y128716D01*
X367284Y129958D01*
X367284Y133770D02*
X367286Y133843D01*
X367292Y133916D01*
X367301Y133989D01*
X367315Y134060D01*
X367332Y134132D01*
X367352Y134202D01*
X367377Y134271D01*
X367405Y134338D01*
X367436Y134404D01*
X367471Y134469D01*
X367509Y134531D01*
X367551Y134591D01*
X367595Y134649D01*
X367643Y134705D01*
X367693Y134758D01*
X367746Y134808D01*
X367802Y134856D01*
X367860Y134900D01*
X367920Y134942D01*
X367983Y134980D01*
X368047Y135015D01*
X368113Y135046D01*
X368180Y135074D01*
X368249Y135099D01*
X368319Y135119D01*
X368391Y135136D01*
X368462Y135150D01*
X368535Y135159D01*
X368608Y135165D01*
X368681Y135167D01*
X367284Y133770D02*
X367286Y133686D01*
X367292Y133603D01*
X367301Y133520D01*
X367315Y133437D01*
X367332Y133356D01*
X367354Y133275D01*
X367379Y133195D01*
X367407Y133117D01*
X367439Y133039D01*
X367475Y132964D01*
X367514Y132890D01*
X367557Y132818D01*
X367603Y132748D01*
X367652Y132681D01*
X367705Y132615D01*
X367760Y132553D01*
X367818Y132493D01*
X367879Y132435D01*
X367942Y132381D01*
X368008Y132329D01*
X368076Y132281D01*
X368147Y132236D01*
X368219Y132194D01*
X368294Y132156D01*
X368370Y132121D01*
X368447Y132090D01*
X368526Y132062D01*
X369767Y134701D02*
X369714Y134755D01*
X369657Y134806D01*
X369598Y134854D01*
X369537Y134899D01*
X369474Y134940D01*
X369408Y134979D01*
X369341Y135014D01*
X369272Y135046D01*
X369201Y135074D01*
X369130Y135098D01*
X369057Y135119D01*
X368983Y135136D01*
X368908Y135150D01*
X368833Y135159D01*
X368757Y135165D01*
X368681Y135167D01*
X369768Y134701D02*
X372872Y132063D01*
X372872Y135167D01*
X369768Y137815D02*
X369768Y139367D01*
X369770Y139444D01*
X369776Y139522D01*
X369785Y139598D01*
X369799Y139675D01*
X369816Y139750D01*
X369837Y139824D01*
X369862Y139898D01*
X369890Y139970D01*
X369922Y140040D01*
X369957Y140109D01*
X369996Y140176D01*
X370038Y140241D01*
X370083Y140304D01*
X370131Y140365D01*
X370182Y140423D01*
X370236Y140478D01*
X370293Y140531D01*
X370352Y140580D01*
X370414Y140627D01*
X370478Y140671D01*
X370544Y140711D01*
X370612Y140748D01*
X370682Y140782D01*
X370753Y140812D01*
X370826Y140838D01*
X370900Y140861D01*
X370975Y140880D01*
X371050Y140895D01*
X371127Y140907D01*
X371204Y140915D01*
X371281Y140919D01*
X371359Y140919D01*
X371436Y140915D01*
X371513Y140907D01*
X371590Y140895D01*
X371665Y140880D01*
X371740Y140861D01*
X371814Y140838D01*
X371887Y140812D01*
X371958Y140782D01*
X372028Y140748D01*
X372096Y140711D01*
X372162Y140671D01*
X372226Y140627D01*
X372288Y140580D01*
X372347Y140531D01*
X372404Y140478D01*
X372458Y140423D01*
X372509Y140365D01*
X372557Y140304D01*
X372602Y140241D01*
X372644Y140176D01*
X372683Y140109D01*
X372718Y140040D01*
X372750Y139970D01*
X372778Y139898D01*
X372803Y139824D01*
X372824Y139750D01*
X372841Y139675D01*
X372855Y139598D01*
X372864Y139522D01*
X372870Y139444D01*
X372872Y139367D01*
X372872Y137815D01*
X367284Y137815D01*
X367284Y139367D01*
X367286Y139437D01*
X367292Y139506D01*
X367302Y139575D01*
X367315Y139643D01*
X367333Y139711D01*
X367354Y139777D01*
X367379Y139842D01*
X367407Y139906D01*
X367439Y139968D01*
X367474Y140028D01*
X367513Y140086D01*
X367555Y140141D01*
X367600Y140195D01*
X367648Y140245D01*
X367698Y140293D01*
X367752Y140338D01*
X367807Y140380D01*
X367865Y140419D01*
X367925Y140454D01*
X367987Y140486D01*
X368051Y140514D01*
X368116Y140539D01*
X368182Y140560D01*
X368250Y140578D01*
X368318Y140591D01*
X368387Y140601D01*
X368456Y140607D01*
X368526Y140609D01*
X368596Y140607D01*
X368665Y140601D01*
X368734Y140591D01*
X368802Y140578D01*
X368870Y140560D01*
X368936Y140539D01*
X369001Y140514D01*
X369065Y140486D01*
X369127Y140454D01*
X369187Y140419D01*
X369245Y140380D01*
X369300Y140338D01*
X369354Y140293D01*
X369404Y140245D01*
X369452Y140195D01*
X369497Y140141D01*
X369539Y140086D01*
X369578Y140028D01*
X369613Y139968D01*
X369645Y139906D01*
X369673Y139842D01*
X369698Y139777D01*
X369719Y139711D01*
X369737Y139643D01*
X369750Y139575D01*
X369760Y139506D01*
X369766Y139437D01*
X369768Y139367D01*
X347472Y131267D02*
X347472Y130026D01*
X347470Y129956D01*
X347464Y129887D01*
X347454Y129818D01*
X347441Y129750D01*
X347423Y129682D01*
X347402Y129616D01*
X347377Y129551D01*
X347349Y129487D01*
X347317Y129425D01*
X347282Y129365D01*
X347243Y129307D01*
X347201Y129252D01*
X347156Y129198D01*
X347108Y129148D01*
X347058Y129100D01*
X347004Y129055D01*
X346949Y129013D01*
X346891Y128974D01*
X346831Y128939D01*
X346769Y128907D01*
X346705Y128879D01*
X346640Y128854D01*
X346574Y128833D01*
X346506Y128815D01*
X346438Y128802D01*
X346369Y128792D01*
X346300Y128786D01*
X346230Y128784D01*
X343126Y128784D01*
X343056Y128786D01*
X342987Y128792D01*
X342918Y128802D01*
X342850Y128815D01*
X342782Y128833D01*
X342716Y128854D01*
X342651Y128879D01*
X342587Y128907D01*
X342525Y128939D01*
X342465Y128974D01*
X342407Y129013D01*
X342352Y129055D01*
X342298Y129100D01*
X342248Y129148D01*
X342200Y129198D01*
X342155Y129252D01*
X342113Y129307D01*
X342074Y129365D01*
X342039Y129425D01*
X342007Y129487D01*
X341979Y129551D01*
X341954Y129616D01*
X341933Y129682D01*
X341915Y129750D01*
X341902Y129818D01*
X341892Y129887D01*
X341886Y129956D01*
X341884Y130026D01*
X341884Y131267D01*
X341884Y135079D02*
X341886Y135152D01*
X341892Y135225D01*
X341901Y135298D01*
X341915Y135369D01*
X341932Y135441D01*
X341952Y135511D01*
X341977Y135580D01*
X342005Y135647D01*
X342036Y135713D01*
X342071Y135778D01*
X342109Y135840D01*
X342151Y135900D01*
X342195Y135958D01*
X342243Y136014D01*
X342293Y136067D01*
X342346Y136117D01*
X342402Y136165D01*
X342460Y136209D01*
X342520Y136251D01*
X342583Y136289D01*
X342647Y136324D01*
X342713Y136355D01*
X342780Y136383D01*
X342849Y136408D01*
X342919Y136428D01*
X342991Y136445D01*
X343062Y136459D01*
X343135Y136468D01*
X343208Y136474D01*
X343281Y136476D01*
X341884Y135079D02*
X341886Y134995D01*
X341892Y134912D01*
X341901Y134829D01*
X341915Y134746D01*
X341932Y134665D01*
X341954Y134584D01*
X341979Y134504D01*
X342007Y134426D01*
X342039Y134348D01*
X342075Y134273D01*
X342114Y134199D01*
X342157Y134127D01*
X342203Y134057D01*
X342252Y133990D01*
X342305Y133924D01*
X342360Y133862D01*
X342418Y133802D01*
X342479Y133744D01*
X342542Y133690D01*
X342608Y133638D01*
X342676Y133590D01*
X342747Y133545D01*
X342819Y133503D01*
X342894Y133465D01*
X342970Y133430D01*
X343047Y133399D01*
X343126Y133371D01*
X344367Y136010D02*
X344314Y136064D01*
X344257Y136115D01*
X344198Y136163D01*
X344137Y136208D01*
X344074Y136249D01*
X344008Y136288D01*
X343941Y136323D01*
X343872Y136355D01*
X343801Y136383D01*
X343730Y136407D01*
X343657Y136428D01*
X343583Y136445D01*
X343508Y136459D01*
X343433Y136468D01*
X343357Y136474D01*
X343281Y136476D01*
X344368Y136011D02*
X347472Y133372D01*
X347472Y136476D01*
X347472Y140084D02*
X347472Y141326D01*
X347472Y140084D02*
X347470Y140014D01*
X347464Y139945D01*
X347454Y139876D01*
X347441Y139808D01*
X347423Y139740D01*
X347402Y139674D01*
X347377Y139609D01*
X347349Y139545D01*
X347317Y139483D01*
X347282Y139423D01*
X347243Y139365D01*
X347201Y139310D01*
X347156Y139256D01*
X347108Y139206D01*
X347058Y139158D01*
X347004Y139113D01*
X346949Y139071D01*
X346891Y139032D01*
X346831Y138997D01*
X346769Y138965D01*
X346705Y138937D01*
X346640Y138912D01*
X346574Y138891D01*
X346506Y138873D01*
X346438Y138860D01*
X346369Y138850D01*
X346300Y138844D01*
X346230Y138842D01*
X343126Y138842D01*
X343056Y138844D01*
X342987Y138850D01*
X342918Y138860D01*
X342850Y138873D01*
X342782Y138891D01*
X342716Y138912D01*
X342651Y138937D01*
X342587Y138965D01*
X342525Y138997D01*
X342465Y139032D01*
X342407Y139071D01*
X342352Y139113D01*
X342298Y139158D01*
X342248Y139206D01*
X342200Y139256D01*
X342155Y139310D01*
X342113Y139365D01*
X342074Y139423D01*
X342039Y139483D01*
X342007Y139545D01*
X341979Y139609D01*
X341954Y139674D01*
X341933Y139740D01*
X341915Y139808D01*
X341902Y139876D01*
X341892Y139945D01*
X341886Y140014D01*
X341884Y140084D01*
X341884Y141326D01*
X353721Y98857D02*
X354963Y98857D01*
X353721Y98857D02*
X353651Y98859D01*
X353582Y98865D01*
X353513Y98875D01*
X353445Y98888D01*
X353377Y98906D01*
X353311Y98927D01*
X353246Y98952D01*
X353182Y98980D01*
X353120Y99012D01*
X353060Y99047D01*
X353002Y99086D01*
X352947Y99128D01*
X352893Y99173D01*
X352843Y99221D01*
X352795Y99271D01*
X352750Y99325D01*
X352708Y99380D01*
X352669Y99438D01*
X352634Y99498D01*
X352602Y99560D01*
X352574Y99624D01*
X352549Y99689D01*
X352528Y99755D01*
X352510Y99823D01*
X352497Y99891D01*
X352487Y99960D01*
X352481Y100029D01*
X352479Y100099D01*
X352479Y103203D01*
X352481Y103273D01*
X352487Y103342D01*
X352497Y103411D01*
X352510Y103479D01*
X352528Y103547D01*
X352549Y103613D01*
X352574Y103678D01*
X352602Y103742D01*
X352634Y103804D01*
X352669Y103864D01*
X352708Y103922D01*
X352750Y103977D01*
X352795Y104031D01*
X352843Y104081D01*
X352893Y104129D01*
X352947Y104174D01*
X353002Y104216D01*
X353060Y104255D01*
X353120Y104290D01*
X353182Y104322D01*
X353246Y104350D01*
X353311Y104375D01*
X353377Y104396D01*
X353445Y104414D01*
X353513Y104427D01*
X353582Y104437D01*
X353651Y104443D01*
X353721Y104445D01*
X354963Y104445D01*
X357068Y98857D02*
X358620Y98857D01*
X358697Y98859D01*
X358775Y98865D01*
X358851Y98874D01*
X358928Y98888D01*
X359003Y98905D01*
X359077Y98926D01*
X359151Y98951D01*
X359223Y98979D01*
X359293Y99011D01*
X359362Y99046D01*
X359429Y99085D01*
X359494Y99127D01*
X359557Y99172D01*
X359618Y99220D01*
X359676Y99271D01*
X359731Y99325D01*
X359784Y99382D01*
X359833Y99441D01*
X359880Y99503D01*
X359924Y99567D01*
X359964Y99633D01*
X360001Y99701D01*
X360035Y99771D01*
X360065Y99842D01*
X360091Y99915D01*
X360114Y99989D01*
X360133Y100064D01*
X360148Y100139D01*
X360160Y100216D01*
X360168Y100293D01*
X360172Y100370D01*
X360172Y100448D01*
X360168Y100525D01*
X360160Y100602D01*
X360148Y100679D01*
X360133Y100754D01*
X360114Y100829D01*
X360091Y100903D01*
X360065Y100976D01*
X360035Y101047D01*
X360001Y101117D01*
X359964Y101185D01*
X359924Y101251D01*
X359880Y101315D01*
X359833Y101377D01*
X359784Y101436D01*
X359731Y101493D01*
X359676Y101547D01*
X359618Y101598D01*
X359557Y101646D01*
X359494Y101691D01*
X359429Y101733D01*
X359362Y101772D01*
X359293Y101807D01*
X359223Y101839D01*
X359151Y101867D01*
X359077Y101892D01*
X359003Y101913D01*
X358928Y101930D01*
X358851Y101944D01*
X358775Y101953D01*
X358697Y101959D01*
X358620Y101961D01*
X358930Y104445D02*
X357068Y104445D01*
X358930Y104445D02*
X359000Y104443D01*
X359069Y104437D01*
X359138Y104427D01*
X359206Y104414D01*
X359274Y104396D01*
X359340Y104375D01*
X359405Y104350D01*
X359469Y104322D01*
X359531Y104290D01*
X359591Y104255D01*
X359649Y104216D01*
X359704Y104174D01*
X359758Y104129D01*
X359808Y104081D01*
X359856Y104031D01*
X359901Y103977D01*
X359943Y103922D01*
X359982Y103864D01*
X360017Y103804D01*
X360049Y103742D01*
X360077Y103678D01*
X360102Y103613D01*
X360123Y103547D01*
X360141Y103479D01*
X360154Y103411D01*
X360164Y103342D01*
X360170Y103273D01*
X360172Y103203D01*
X360170Y103133D01*
X360164Y103064D01*
X360154Y102995D01*
X360141Y102927D01*
X360123Y102859D01*
X360102Y102793D01*
X360077Y102728D01*
X360049Y102664D01*
X360017Y102602D01*
X359982Y102542D01*
X359943Y102484D01*
X359901Y102429D01*
X359856Y102375D01*
X359808Y102325D01*
X359758Y102277D01*
X359704Y102232D01*
X359649Y102190D01*
X359591Y102151D01*
X359531Y102116D01*
X359469Y102084D01*
X359405Y102056D01*
X359340Y102031D01*
X359274Y102010D01*
X359206Y101992D01*
X359138Y101979D01*
X359069Y101969D01*
X359000Y101963D01*
X358930Y101961D01*
X357688Y101961D01*
D375*
X241650Y236900D02*
X248000Y243250D01*
X222600Y243250D02*
X216250Y236900D01*
X203550Y236900D01*
X197200Y243250D01*
X222600Y243250D02*
X228950Y236900D01*
X241650Y236900D01*
X171800Y243250D02*
X165450Y236900D01*
X190850Y236900D02*
X197200Y243250D01*
X190850Y236900D02*
X178150Y236900D01*
X171800Y243250D01*
X146400Y243250D02*
X140050Y236900D01*
X127350Y236900D01*
X121000Y243250D01*
X146400Y243250D02*
X152750Y236900D01*
X165450Y236900D01*
X95600Y243250D02*
X89250Y236900D01*
X114650Y236900D02*
X121000Y243250D01*
X114650Y236900D02*
X101950Y236900D01*
X95600Y243250D01*
X70200Y243250D02*
X70200Y255950D01*
X76550Y262300D01*
X76550Y236900D02*
X89250Y236900D01*
X394050Y236900D02*
X400400Y243250D01*
X394050Y236900D02*
X381350Y236900D01*
X375000Y243250D01*
X349600Y243250D02*
X343250Y236900D01*
X368650Y236900D02*
X375000Y243250D01*
X368650Y236900D02*
X355950Y236900D01*
X349600Y243250D01*
X324200Y243250D02*
X317850Y236900D01*
X305150Y236900D01*
X298800Y243250D01*
X324200Y243250D02*
X330550Y236900D01*
X343250Y236900D01*
X273400Y243250D02*
X267050Y236900D01*
X292450Y236900D02*
X298800Y243250D01*
X292450Y236900D02*
X279750Y236900D01*
X273400Y243250D01*
X254350Y236900D02*
X248000Y243250D01*
X254350Y236900D02*
X267050Y236900D01*
X241650Y287700D02*
X228950Y287700D01*
X241650Y287700D02*
X248000Y281350D01*
X203550Y287700D02*
X197200Y281350D01*
X203550Y287700D02*
X216250Y287700D01*
X222600Y281350D01*
X228950Y287700D01*
X165450Y287700D02*
X152750Y287700D01*
X165450Y287700D02*
X171800Y281350D01*
X178150Y287700D01*
X190850Y287700D01*
X197200Y281350D01*
X127350Y287700D02*
X121000Y281350D01*
X127350Y287700D02*
X140050Y287700D01*
X146400Y281350D01*
X152750Y287700D01*
X89250Y287700D02*
X76550Y287700D01*
X89250Y287700D02*
X95600Y281350D01*
X101950Y287700D01*
X114650Y287700D01*
X121000Y281350D01*
X70200Y281350D02*
X70200Y268650D01*
X76550Y262300D01*
X375000Y281350D02*
X381350Y287700D01*
X394050Y287700D01*
X400400Y281350D01*
X343250Y287700D02*
X330550Y287700D01*
X343250Y287700D02*
X349600Y281350D01*
X355950Y287700D01*
X368650Y287700D01*
X375000Y281350D01*
X305150Y287700D02*
X298800Y281350D01*
X305150Y287700D02*
X317850Y287700D01*
X324200Y281350D01*
X330550Y287700D01*
X267050Y287700D02*
X254350Y287700D01*
X267050Y287700D02*
X273400Y281350D01*
X279750Y287700D01*
X292450Y287700D01*
X298800Y281350D01*
X254350Y287700D02*
X248000Y281350D01*
X95600Y281350D02*
X95600Y243250D01*
X121000Y243250D02*
X121000Y281350D01*
X146400Y281350D02*
X146400Y243250D01*
X171800Y243250D02*
X171800Y281350D01*
X197200Y281350D02*
X197200Y243250D01*
X222600Y243250D02*
X222600Y281350D01*
X248000Y281350D02*
X248000Y243250D01*
X273400Y243250D02*
X273400Y281350D01*
X298800Y281350D02*
X298800Y243250D01*
X324200Y243250D02*
X324200Y281350D01*
X349600Y281350D02*
X349600Y243250D01*
X375000Y243250D02*
X375000Y281350D01*
X578200Y281350D02*
X578200Y268650D01*
X578200Y255950D02*
X578200Y243250D01*
X578200Y255950D02*
X571850Y262300D01*
X578200Y268650D01*
X419450Y287700D02*
X406750Y287700D01*
X419450Y287700D02*
X425800Y281350D01*
X406750Y287700D02*
X400400Y281350D01*
X552800Y281350D02*
X559150Y287700D01*
X571850Y287700D01*
X578200Y281350D01*
X521050Y287700D02*
X508350Y287700D01*
X521050Y287700D02*
X527400Y281350D01*
X533750Y287700D01*
X546450Y287700D01*
X552800Y281350D01*
X482950Y287700D02*
X476600Y281350D01*
X482950Y287700D02*
X495650Y287700D01*
X502000Y281350D01*
X508350Y287700D01*
X444850Y287700D02*
X432150Y287700D01*
X444850Y287700D02*
X451200Y281350D01*
X457550Y287700D01*
X470250Y287700D01*
X476600Y281350D01*
X432150Y287700D02*
X425800Y281350D01*
X400400Y281350D02*
X400400Y243250D01*
X425800Y243250D02*
X425800Y281350D01*
X451200Y281350D02*
X451200Y243250D01*
X476600Y243250D02*
X476600Y281350D01*
X502000Y281350D02*
X502000Y243250D01*
X527400Y243250D02*
X527400Y281350D01*
X552800Y281350D02*
X552800Y243250D01*
X559150Y236900D02*
X571850Y236900D01*
X559150Y236900D02*
X552800Y243250D01*
X571850Y236900D02*
X578200Y243250D01*
X425800Y243250D02*
X419450Y236900D01*
X406750Y236900D01*
X400400Y243250D01*
X457550Y236900D02*
X470250Y236900D01*
X457550Y236900D02*
X451200Y243250D01*
X444850Y236900D01*
X432150Y236900D01*
X425800Y243250D01*
X495650Y236900D02*
X502000Y243250D01*
X495650Y236900D02*
X482950Y236900D01*
X476600Y243250D01*
X470250Y236900D01*
X533750Y236900D02*
X546450Y236900D01*
X533750Y236900D02*
X527400Y243250D01*
X521050Y236900D01*
X508350Y236900D01*
X502000Y243250D01*
X546450Y236900D02*
X552800Y243250D01*
X76550Y236900D02*
X70200Y243250D01*
X70200Y281350D02*
X76550Y287700D01*
X74010Y233090D02*
X90520Y233090D01*
D376*
X72444Y291947D02*
X72444Y295701D01*
X72443Y291947D02*
X72441Y291882D01*
X72435Y291818D01*
X72425Y291754D01*
X72412Y291690D01*
X72394Y291628D01*
X72373Y291567D01*
X72349Y291507D01*
X72320Y291449D01*
X72288Y291392D01*
X72253Y291338D01*
X72215Y291286D01*
X72173Y291236D01*
X72129Y291189D01*
X72082Y291145D01*
X72032Y291103D01*
X71980Y291065D01*
X71926Y291030D01*
X71869Y290998D01*
X71811Y290969D01*
X71751Y290945D01*
X71690Y290924D01*
X71628Y290906D01*
X71564Y290893D01*
X71500Y290883D01*
X71436Y290877D01*
X71371Y290875D01*
X70835Y290875D01*
X75392Y294629D02*
X76732Y295701D01*
X76732Y290875D01*
X75392Y290875D02*
X78073Y290875D01*
D377*
X425958Y215392D02*
X425958Y203708D01*
X431151Y203708D01*
X435460Y212796D02*
X438706Y215392D01*
X438706Y203708D01*
X435460Y203708D02*
X441952Y203708D01*
D378*
X546350Y39300D03*
X538850Y39300D03*
D379*
X542600Y39300D03*
D377*
X555148Y31597D02*
X566832Y31597D01*
X566832Y36790D01*
X563586Y41099D02*
X558393Y41099D01*
X558280Y41101D01*
X558167Y41107D01*
X558054Y41117D01*
X557941Y41131D01*
X557829Y41148D01*
X557718Y41170D01*
X557608Y41195D01*
X557498Y41225D01*
X557390Y41258D01*
X557283Y41295D01*
X557177Y41335D01*
X557073Y41380D01*
X556970Y41428D01*
X556869Y41479D01*
X556770Y41534D01*
X556673Y41592D01*
X556578Y41654D01*
X556485Y41719D01*
X556395Y41787D01*
X556307Y41858D01*
X556221Y41933D01*
X556138Y42010D01*
X556058Y42090D01*
X555981Y42173D01*
X555906Y42259D01*
X555835Y42347D01*
X555767Y42437D01*
X555702Y42530D01*
X555640Y42625D01*
X555582Y42722D01*
X555527Y42821D01*
X555476Y42922D01*
X555428Y43025D01*
X555383Y43129D01*
X555343Y43235D01*
X555306Y43342D01*
X555273Y43450D01*
X555243Y43560D01*
X555218Y43670D01*
X555196Y43781D01*
X555179Y43893D01*
X555165Y44006D01*
X555155Y44119D01*
X555149Y44232D01*
X555147Y44345D01*
X555149Y44458D01*
X555155Y44571D01*
X555165Y44684D01*
X555179Y44797D01*
X555196Y44909D01*
X555218Y45020D01*
X555243Y45130D01*
X555273Y45240D01*
X555306Y45348D01*
X555343Y45455D01*
X555383Y45561D01*
X555428Y45665D01*
X555476Y45768D01*
X555527Y45869D01*
X555582Y45968D01*
X555640Y46065D01*
X555702Y46160D01*
X555767Y46253D01*
X555835Y46343D01*
X555906Y46431D01*
X555981Y46517D01*
X556058Y46600D01*
X556138Y46680D01*
X556221Y46757D01*
X556307Y46832D01*
X556395Y46903D01*
X556485Y46971D01*
X556578Y47036D01*
X556673Y47098D01*
X556770Y47156D01*
X556869Y47211D01*
X556970Y47262D01*
X557073Y47310D01*
X557177Y47355D01*
X557283Y47395D01*
X557390Y47432D01*
X557498Y47465D01*
X557608Y47495D01*
X557718Y47520D01*
X557829Y47542D01*
X557941Y47559D01*
X558054Y47573D01*
X558167Y47583D01*
X558280Y47589D01*
X558393Y47591D01*
X558393Y47590D02*
X563586Y47590D01*
X563586Y47591D02*
X563699Y47589D01*
X563812Y47583D01*
X563925Y47573D01*
X564038Y47559D01*
X564150Y47542D01*
X564261Y47520D01*
X564371Y47495D01*
X564481Y47465D01*
X564589Y47432D01*
X564696Y47395D01*
X564802Y47355D01*
X564906Y47310D01*
X565009Y47262D01*
X565110Y47211D01*
X565209Y47156D01*
X565306Y47098D01*
X565401Y47036D01*
X565494Y46971D01*
X565584Y46903D01*
X565672Y46832D01*
X565758Y46757D01*
X565841Y46680D01*
X565921Y46600D01*
X565998Y46517D01*
X566073Y46431D01*
X566144Y46343D01*
X566212Y46253D01*
X566277Y46160D01*
X566339Y46065D01*
X566397Y45968D01*
X566452Y45869D01*
X566503Y45768D01*
X566551Y45665D01*
X566596Y45561D01*
X566636Y45455D01*
X566673Y45348D01*
X566706Y45240D01*
X566736Y45130D01*
X566761Y45020D01*
X566783Y44909D01*
X566800Y44797D01*
X566814Y44684D01*
X566824Y44571D01*
X566830Y44458D01*
X566832Y44345D01*
X566830Y44232D01*
X566824Y44119D01*
X566814Y44006D01*
X566800Y43893D01*
X566783Y43781D01*
X566761Y43670D01*
X566736Y43560D01*
X566706Y43450D01*
X566673Y43342D01*
X566636Y43235D01*
X566596Y43129D01*
X566551Y43025D01*
X566503Y42922D01*
X566452Y42821D01*
X566397Y42722D01*
X566339Y42625D01*
X566277Y42530D01*
X566212Y42437D01*
X566144Y42347D01*
X566073Y42259D01*
X565998Y42173D01*
X565921Y42090D01*
X565841Y42010D01*
X565758Y41933D01*
X565672Y41858D01*
X565584Y41787D01*
X565494Y41719D01*
X565401Y41654D01*
X565306Y41592D01*
X565209Y41534D01*
X565110Y41479D01*
X565009Y41428D01*
X564906Y41380D01*
X564802Y41335D01*
X564696Y41295D01*
X564589Y41258D01*
X564481Y41225D01*
X564371Y41195D01*
X564261Y41170D01*
X564150Y41148D01*
X564038Y41131D01*
X563925Y41117D01*
X563812Y41107D01*
X563699Y41101D01*
X563586Y41099D01*
X555148Y52106D02*
X566832Y54702D01*
X559042Y57299D01*
X566832Y59895D01*
X555148Y62492D01*
D375*
X476000Y78500D02*
X470000Y78500D01*
X470000Y70500D01*
X492000Y78500D02*
X498000Y78500D01*
X498000Y70500D01*
D376*
X466855Y56492D02*
X462029Y56492D01*
X464710Y58101D01*
X462029Y59710D01*
X466855Y59710D01*
X466855Y63839D02*
X466855Y64912D01*
X466855Y63839D02*
X466853Y63774D01*
X466847Y63710D01*
X466837Y63646D01*
X466824Y63582D01*
X466806Y63520D01*
X466785Y63459D01*
X466761Y63399D01*
X466732Y63341D01*
X466700Y63284D01*
X466665Y63230D01*
X466627Y63178D01*
X466585Y63128D01*
X466541Y63081D01*
X466494Y63037D01*
X466444Y62995D01*
X466392Y62957D01*
X466338Y62922D01*
X466281Y62890D01*
X466223Y62861D01*
X466163Y62837D01*
X466102Y62816D01*
X466040Y62798D01*
X465976Y62785D01*
X465912Y62775D01*
X465848Y62769D01*
X465783Y62767D01*
X463101Y62767D01*
X463101Y62766D02*
X463036Y62768D01*
X462972Y62774D01*
X462908Y62784D01*
X462844Y62797D01*
X462782Y62815D01*
X462721Y62836D01*
X462661Y62861D01*
X462602Y62889D01*
X462546Y62921D01*
X462491Y62956D01*
X462439Y62994D01*
X462389Y63036D01*
X462342Y63080D01*
X462298Y63127D01*
X462256Y63177D01*
X462218Y63229D01*
X462183Y63284D01*
X462151Y63340D01*
X462123Y63399D01*
X462098Y63458D01*
X462077Y63520D01*
X462059Y63582D01*
X462046Y63646D01*
X462036Y63710D01*
X462030Y63774D01*
X462028Y63839D01*
X462029Y63839D02*
X462029Y64912D01*
X462029Y67697D02*
X466855Y67697D01*
X462029Y67697D02*
X462029Y69037D01*
X462031Y69108D01*
X462037Y69180D01*
X462046Y69250D01*
X462059Y69320D01*
X462076Y69390D01*
X462097Y69458D01*
X462121Y69525D01*
X462149Y69591D01*
X462180Y69655D01*
X462215Y69718D01*
X462253Y69778D01*
X462294Y69837D01*
X462338Y69893D01*
X462385Y69947D01*
X462434Y69998D01*
X462487Y70046D01*
X462542Y70092D01*
X462599Y70134D01*
X462659Y70174D01*
X462720Y70210D01*
X462784Y70243D01*
X462849Y70272D01*
X462915Y70298D01*
X462983Y70321D01*
X463052Y70340D01*
X463122Y70355D01*
X463192Y70366D01*
X463263Y70374D01*
X463334Y70378D01*
X463406Y70378D01*
X463477Y70374D01*
X463548Y70366D01*
X463618Y70355D01*
X463688Y70340D01*
X463757Y70321D01*
X463825Y70298D01*
X463891Y70272D01*
X463956Y70243D01*
X464020Y70210D01*
X464081Y70174D01*
X464141Y70134D01*
X464198Y70092D01*
X464253Y70046D01*
X464306Y69998D01*
X464355Y69947D01*
X464402Y69893D01*
X464446Y69837D01*
X464487Y69778D01*
X464525Y69718D01*
X464560Y69655D01*
X464591Y69591D01*
X464619Y69525D01*
X464643Y69458D01*
X464664Y69390D01*
X464681Y69320D01*
X464694Y69250D01*
X464703Y69180D01*
X464709Y69108D01*
X464711Y69037D01*
X464710Y69037D02*
X464710Y67697D01*
X463101Y72854D02*
X462029Y74194D01*
X466855Y74194D01*
X466855Y72854D02*
X466855Y75535D01*
X464442Y78340D02*
X464322Y78342D01*
X464202Y78347D01*
X464082Y78356D01*
X463962Y78369D01*
X463843Y78385D01*
X463724Y78405D01*
X463606Y78429D01*
X463489Y78456D01*
X463373Y78486D01*
X463258Y78520D01*
X463143Y78558D01*
X463030Y78599D01*
X462919Y78643D01*
X462808Y78691D01*
X462699Y78742D01*
X462699Y78743D02*
X462642Y78764D01*
X462586Y78790D01*
X462531Y78818D01*
X462479Y78850D01*
X462428Y78886D01*
X462380Y78924D01*
X462334Y78965D01*
X462291Y79009D01*
X462251Y79055D01*
X462214Y79104D01*
X462180Y79156D01*
X462149Y79209D01*
X462121Y79264D01*
X462097Y79320D01*
X462076Y79378D01*
X462059Y79437D01*
X462046Y79497D01*
X462037Y79558D01*
X462031Y79620D01*
X462029Y79681D01*
X462031Y79742D01*
X462037Y79804D01*
X462046Y79865D01*
X462059Y79925D01*
X462076Y79984D01*
X462097Y80042D01*
X462121Y80098D01*
X462149Y80153D01*
X462180Y80206D01*
X462214Y80258D01*
X462251Y80307D01*
X462291Y80353D01*
X462334Y80397D01*
X462380Y80438D01*
X462428Y80476D01*
X462479Y80512D01*
X462531Y80544D01*
X462586Y80572D01*
X462642Y80598D01*
X462699Y80619D01*
X462808Y80670D01*
X462919Y80718D01*
X463030Y80762D01*
X463143Y80803D01*
X463258Y80841D01*
X463373Y80875D01*
X463489Y80905D01*
X463606Y80932D01*
X463724Y80956D01*
X463843Y80976D01*
X463962Y80992D01*
X464082Y81005D01*
X464202Y81014D01*
X464322Y81019D01*
X464442Y81021D01*
X464442Y78340D02*
X464562Y78342D01*
X464682Y78347D01*
X464802Y78356D01*
X464922Y78369D01*
X465041Y78385D01*
X465160Y78405D01*
X465278Y78429D01*
X465395Y78456D01*
X465511Y78486D01*
X465626Y78520D01*
X465741Y78558D01*
X465854Y78599D01*
X465965Y78643D01*
X466076Y78691D01*
X466185Y78742D01*
X466185Y78743D02*
X466242Y78764D01*
X466298Y78790D01*
X466353Y78818D01*
X466405Y78850D01*
X466456Y78886D01*
X466504Y78924D01*
X466550Y78965D01*
X466593Y79009D01*
X466633Y79055D01*
X466670Y79104D01*
X466704Y79156D01*
X466735Y79209D01*
X466763Y79264D01*
X466787Y79320D01*
X466808Y79378D01*
X466825Y79437D01*
X466838Y79497D01*
X466847Y79558D01*
X466853Y79620D01*
X466855Y79681D01*
X466185Y80619D02*
X466076Y80670D01*
X465965Y80718D01*
X465854Y80762D01*
X465741Y80803D01*
X465626Y80841D01*
X465511Y80875D01*
X465395Y80905D01*
X465278Y80932D01*
X465160Y80956D01*
X465041Y80976D01*
X464922Y80992D01*
X464802Y81005D01*
X464682Y81014D01*
X464562Y81019D01*
X464442Y81021D01*
X466185Y80619D02*
X466242Y80598D01*
X466298Y80572D01*
X466353Y80544D01*
X466405Y80512D01*
X466456Y80476D01*
X466504Y80438D01*
X466550Y80397D01*
X466593Y80353D01*
X466633Y80306D01*
X466670Y80258D01*
X466704Y80206D01*
X466735Y80153D01*
X466763Y80098D01*
X466787Y80042D01*
X466808Y79984D01*
X466825Y79925D01*
X466838Y79865D01*
X466847Y79804D01*
X466853Y79742D01*
X466855Y79681D01*
X465783Y78608D02*
X463101Y80753D01*
X464442Y83827D02*
X464322Y83829D01*
X464202Y83834D01*
X464082Y83843D01*
X463962Y83856D01*
X463843Y83872D01*
X463724Y83892D01*
X463606Y83916D01*
X463489Y83943D01*
X463373Y83973D01*
X463258Y84007D01*
X463143Y84045D01*
X463030Y84086D01*
X462919Y84130D01*
X462808Y84178D01*
X462699Y84229D01*
X462642Y84250D01*
X462586Y84276D01*
X462531Y84304D01*
X462479Y84336D01*
X462428Y84372D01*
X462380Y84410D01*
X462334Y84451D01*
X462291Y84495D01*
X462251Y84541D01*
X462214Y84590D01*
X462180Y84642D01*
X462149Y84695D01*
X462121Y84750D01*
X462097Y84806D01*
X462076Y84864D01*
X462059Y84923D01*
X462046Y84983D01*
X462037Y85044D01*
X462031Y85106D01*
X462029Y85167D01*
X462031Y85228D01*
X462037Y85290D01*
X462046Y85351D01*
X462059Y85411D01*
X462076Y85470D01*
X462097Y85528D01*
X462121Y85584D01*
X462149Y85639D01*
X462180Y85692D01*
X462214Y85744D01*
X462251Y85793D01*
X462291Y85839D01*
X462334Y85883D01*
X462380Y85924D01*
X462428Y85962D01*
X462479Y85998D01*
X462531Y86030D01*
X462586Y86058D01*
X462642Y86084D01*
X462699Y86105D01*
X462808Y86156D01*
X462919Y86204D01*
X463030Y86248D01*
X463143Y86289D01*
X463258Y86327D01*
X463373Y86361D01*
X463489Y86391D01*
X463606Y86418D01*
X463724Y86442D01*
X463843Y86462D01*
X463962Y86478D01*
X464082Y86491D01*
X464202Y86500D01*
X464322Y86505D01*
X464442Y86507D01*
X464442Y83827D02*
X464562Y83829D01*
X464682Y83834D01*
X464802Y83843D01*
X464922Y83856D01*
X465041Y83872D01*
X465160Y83892D01*
X465278Y83916D01*
X465395Y83943D01*
X465511Y83973D01*
X465626Y84007D01*
X465741Y84045D01*
X465854Y84086D01*
X465965Y84130D01*
X466076Y84178D01*
X466185Y84229D01*
X466242Y84250D01*
X466298Y84276D01*
X466353Y84304D01*
X466405Y84336D01*
X466456Y84372D01*
X466504Y84410D01*
X466550Y84451D01*
X466593Y84495D01*
X466633Y84541D01*
X466670Y84590D01*
X466704Y84642D01*
X466735Y84695D01*
X466763Y84750D01*
X466787Y84806D01*
X466808Y84864D01*
X466825Y84923D01*
X466838Y84983D01*
X466847Y85044D01*
X466853Y85106D01*
X466855Y85167D01*
X466185Y86105D02*
X466076Y86156D01*
X465965Y86204D01*
X465854Y86248D01*
X465741Y86289D01*
X465626Y86327D01*
X465511Y86361D01*
X465395Y86391D01*
X465278Y86418D01*
X465160Y86442D01*
X465041Y86462D01*
X464922Y86478D01*
X464802Y86491D01*
X464682Y86500D01*
X464562Y86505D01*
X464442Y86507D01*
X466185Y86105D02*
X466242Y86084D01*
X466298Y86058D01*
X466353Y86030D01*
X466405Y85998D01*
X466456Y85962D01*
X466504Y85924D01*
X466550Y85883D01*
X466593Y85839D01*
X466633Y85792D01*
X466670Y85744D01*
X466704Y85692D01*
X466735Y85639D01*
X466763Y85584D01*
X466787Y85528D01*
X466808Y85470D01*
X466825Y85411D01*
X466838Y85351D01*
X466847Y85290D01*
X466853Y85228D01*
X466855Y85167D01*
X465783Y84095D02*
X463101Y86240D01*
X106680Y190500D02*
X50800Y190500D01*
X50800Y38100D02*
X106680Y38100D01*
X106680Y190500D01*
X50800Y50800D02*
X50800Y38100D01*
X50800Y50800D02*
X50800Y177800D01*
X50800Y190500D01*
X50800Y177800D02*
X63500Y177800D01*
X63500Y50800D01*
X50800Y50800D01*
D375*
X88900Y171450D02*
X88900Y184150D01*
D376*
X109855Y98880D02*
X114681Y98880D01*
X112536Y100488D02*
X109855Y98880D01*
X112536Y100488D02*
X109855Y102097D01*
X114681Y102097D01*
X114681Y105512D02*
X109855Y105512D01*
X109855Y106853D01*
X109857Y106924D01*
X109863Y106996D01*
X109872Y107066D01*
X109885Y107136D01*
X109902Y107206D01*
X109923Y107274D01*
X109947Y107341D01*
X109975Y107407D01*
X110006Y107471D01*
X110041Y107534D01*
X110079Y107594D01*
X110120Y107653D01*
X110164Y107709D01*
X110211Y107763D01*
X110260Y107814D01*
X110313Y107862D01*
X110368Y107908D01*
X110425Y107950D01*
X110485Y107990D01*
X110546Y108026D01*
X110610Y108059D01*
X110675Y108088D01*
X110741Y108114D01*
X110809Y108137D01*
X110878Y108156D01*
X110948Y108171D01*
X111018Y108182D01*
X111089Y108190D01*
X111160Y108194D01*
X111232Y108194D01*
X111303Y108190D01*
X111374Y108182D01*
X111444Y108171D01*
X111514Y108156D01*
X111583Y108137D01*
X111651Y108114D01*
X111717Y108088D01*
X111782Y108059D01*
X111846Y108026D01*
X111907Y107990D01*
X111967Y107950D01*
X112024Y107908D01*
X112079Y107862D01*
X112132Y107814D01*
X112181Y107763D01*
X112228Y107709D01*
X112272Y107653D01*
X112313Y107594D01*
X112351Y107534D01*
X112386Y107471D01*
X112417Y107407D01*
X112445Y107341D01*
X112469Y107274D01*
X112490Y107206D01*
X112507Y107136D01*
X112520Y107066D01*
X112529Y106996D01*
X112535Y106924D01*
X112537Y106853D01*
X112536Y106853D02*
X112536Y105512D01*
X113340Y110852D02*
X109855Y110852D01*
X113340Y110852D02*
X113411Y110854D01*
X113483Y110860D01*
X113553Y110869D01*
X113623Y110882D01*
X113693Y110899D01*
X113761Y110920D01*
X113828Y110944D01*
X113894Y110972D01*
X113958Y111003D01*
X114021Y111038D01*
X114081Y111076D01*
X114140Y111117D01*
X114196Y111161D01*
X114250Y111208D01*
X114301Y111257D01*
X114349Y111310D01*
X114395Y111365D01*
X114437Y111422D01*
X114477Y111482D01*
X114513Y111543D01*
X114546Y111607D01*
X114575Y111672D01*
X114601Y111738D01*
X114624Y111806D01*
X114643Y111875D01*
X114658Y111945D01*
X114669Y112015D01*
X114677Y112086D01*
X114681Y112157D01*
X114681Y112229D01*
X114677Y112300D01*
X114669Y112371D01*
X114658Y112441D01*
X114643Y112511D01*
X114624Y112580D01*
X114601Y112648D01*
X114575Y112714D01*
X114546Y112779D01*
X114513Y112843D01*
X114477Y112904D01*
X114437Y112964D01*
X114395Y113021D01*
X114349Y113076D01*
X114301Y113129D01*
X114250Y113178D01*
X114196Y113225D01*
X114140Y113269D01*
X114081Y113310D01*
X114021Y113348D01*
X113958Y113383D01*
X113894Y113414D01*
X113828Y113442D01*
X113761Y113466D01*
X113693Y113487D01*
X113623Y113504D01*
X113553Y113517D01*
X113483Y113526D01*
X113411Y113532D01*
X113340Y113534D01*
X113340Y113533D02*
X109855Y113533D01*
X112536Y117594D02*
X112536Y119202D01*
X112536Y117594D02*
X112534Y117529D01*
X112528Y117465D01*
X112518Y117401D01*
X112505Y117337D01*
X112487Y117275D01*
X112466Y117214D01*
X112442Y117154D01*
X112413Y117096D01*
X112381Y117039D01*
X112346Y116985D01*
X112308Y116933D01*
X112266Y116883D01*
X112222Y116836D01*
X112175Y116792D01*
X112125Y116750D01*
X112073Y116712D01*
X112019Y116677D01*
X111962Y116645D01*
X111904Y116616D01*
X111844Y116592D01*
X111783Y116571D01*
X111721Y116553D01*
X111657Y116540D01*
X111593Y116530D01*
X111529Y116524D01*
X111464Y116522D01*
X111464Y116521D02*
X111196Y116521D01*
X111125Y116523D01*
X111053Y116529D01*
X110983Y116538D01*
X110913Y116551D01*
X110843Y116568D01*
X110775Y116589D01*
X110708Y116613D01*
X110642Y116641D01*
X110578Y116672D01*
X110515Y116707D01*
X110455Y116745D01*
X110396Y116786D01*
X110340Y116830D01*
X110286Y116877D01*
X110235Y116926D01*
X110187Y116979D01*
X110141Y117034D01*
X110099Y117091D01*
X110059Y117151D01*
X110023Y117212D01*
X109990Y117276D01*
X109961Y117341D01*
X109935Y117407D01*
X109912Y117475D01*
X109893Y117544D01*
X109878Y117614D01*
X109867Y117684D01*
X109859Y117755D01*
X109855Y117826D01*
X109855Y117898D01*
X109859Y117969D01*
X109867Y118040D01*
X109878Y118110D01*
X109893Y118180D01*
X109912Y118249D01*
X109935Y118317D01*
X109961Y118383D01*
X109990Y118448D01*
X110023Y118512D01*
X110059Y118573D01*
X110099Y118633D01*
X110141Y118690D01*
X110187Y118745D01*
X110235Y118798D01*
X110286Y118847D01*
X110340Y118894D01*
X110396Y118938D01*
X110455Y118979D01*
X110515Y119017D01*
X110578Y119052D01*
X110642Y119083D01*
X110708Y119111D01*
X110775Y119135D01*
X110843Y119156D01*
X110913Y119173D01*
X110983Y119186D01*
X111053Y119195D01*
X111125Y119201D01*
X111196Y119203D01*
X111196Y119202D02*
X112536Y119202D01*
X112627Y119200D01*
X112718Y119194D01*
X112808Y119185D01*
X112899Y119171D01*
X112988Y119154D01*
X113076Y119133D01*
X113164Y119108D01*
X113251Y119079D01*
X113336Y119047D01*
X113420Y119012D01*
X113502Y118972D01*
X113582Y118930D01*
X113661Y118884D01*
X113737Y118834D01*
X113811Y118782D01*
X113884Y118726D01*
X113953Y118667D01*
X114020Y118606D01*
X114085Y118541D01*
X114146Y118474D01*
X114205Y118405D01*
X114261Y118332D01*
X114313Y118258D01*
X114363Y118182D01*
X114409Y118103D01*
X114451Y118023D01*
X114491Y117941D01*
X114526Y117857D01*
X114558Y117772D01*
X114587Y117685D01*
X114612Y117597D01*
X114633Y117509D01*
X114650Y117420D01*
X114664Y117329D01*
X114673Y117239D01*
X114679Y117148D01*
X114681Y117057D01*
X109855Y123482D02*
X109857Y123550D01*
X109863Y123617D01*
X109872Y123684D01*
X109885Y123751D01*
X109902Y123816D01*
X109923Y123881D01*
X109947Y123944D01*
X109975Y124006D01*
X110006Y124066D01*
X110040Y124124D01*
X110078Y124180D01*
X110118Y124235D01*
X110162Y124286D01*
X110209Y124335D01*
X110258Y124382D01*
X110309Y124426D01*
X110364Y124466D01*
X110420Y124504D01*
X110478Y124538D01*
X110538Y124569D01*
X110600Y124597D01*
X110663Y124621D01*
X110728Y124642D01*
X110793Y124659D01*
X110860Y124672D01*
X110927Y124681D01*
X110994Y124687D01*
X111062Y124689D01*
X109855Y123482D02*
X109857Y123404D01*
X109863Y123326D01*
X109873Y123249D01*
X109886Y123172D01*
X109904Y123096D01*
X109925Y123021D01*
X109950Y122947D01*
X109979Y122875D01*
X110011Y122804D01*
X110047Y122735D01*
X110086Y122667D01*
X110129Y122602D01*
X110175Y122539D01*
X110224Y122478D01*
X110276Y122420D01*
X110331Y122365D01*
X110388Y122312D01*
X110448Y122263D01*
X110511Y122216D01*
X110576Y122173D01*
X110642Y122133D01*
X110711Y122096D01*
X110782Y122063D01*
X110854Y122033D01*
X110928Y122007D01*
X112000Y124287D02*
X111951Y124336D01*
X111899Y124383D01*
X111844Y124426D01*
X111787Y124467D01*
X111728Y124505D01*
X111667Y124539D01*
X111604Y124570D01*
X111540Y124598D01*
X111474Y124622D01*
X111408Y124642D01*
X111340Y124659D01*
X111271Y124672D01*
X111202Y124681D01*
X111132Y124687D01*
X111062Y124689D01*
X112000Y124287D02*
X114681Y122008D01*
X114681Y124689D01*
X114681Y127494D02*
X114681Y129103D01*
X114679Y129168D01*
X114673Y129232D01*
X114663Y129296D01*
X114650Y129360D01*
X114632Y129422D01*
X114611Y129483D01*
X114587Y129543D01*
X114558Y129601D01*
X114526Y129658D01*
X114491Y129712D01*
X114453Y129764D01*
X114411Y129814D01*
X114367Y129861D01*
X114320Y129905D01*
X114270Y129947D01*
X114218Y129985D01*
X114164Y130020D01*
X114107Y130052D01*
X114049Y130081D01*
X113989Y130105D01*
X113928Y130126D01*
X113866Y130144D01*
X113802Y130157D01*
X113738Y130167D01*
X113674Y130173D01*
X113609Y130175D01*
X113072Y130175D01*
X113007Y130173D01*
X112943Y130167D01*
X112879Y130157D01*
X112815Y130144D01*
X112753Y130126D01*
X112692Y130105D01*
X112632Y130081D01*
X112574Y130052D01*
X112517Y130020D01*
X112463Y129985D01*
X112411Y129947D01*
X112361Y129905D01*
X112314Y129861D01*
X112270Y129814D01*
X112228Y129764D01*
X112190Y129712D01*
X112155Y129658D01*
X112123Y129601D01*
X112094Y129543D01*
X112070Y129483D01*
X112049Y129422D01*
X112031Y129360D01*
X112018Y129296D01*
X112008Y129232D01*
X112002Y129168D01*
X112000Y129103D01*
X112000Y127494D01*
X109855Y127494D01*
X109855Y130175D01*
X364248Y186055D02*
X364248Y190881D01*
X365589Y190881D01*
X365660Y190879D01*
X365732Y190873D01*
X365802Y190864D01*
X365872Y190851D01*
X365942Y190834D01*
X366010Y190813D01*
X366077Y190789D01*
X366143Y190761D01*
X366207Y190730D01*
X366270Y190695D01*
X366330Y190657D01*
X366389Y190616D01*
X366445Y190572D01*
X366499Y190525D01*
X366550Y190476D01*
X366598Y190423D01*
X366644Y190368D01*
X366686Y190311D01*
X366726Y190251D01*
X366762Y190190D01*
X366795Y190126D01*
X366824Y190061D01*
X366850Y189995D01*
X366873Y189927D01*
X366892Y189858D01*
X366907Y189788D01*
X366918Y189718D01*
X366926Y189647D01*
X366930Y189576D01*
X366930Y189504D01*
X366926Y189433D01*
X366918Y189362D01*
X366907Y189292D01*
X366892Y189222D01*
X366873Y189153D01*
X366850Y189085D01*
X366824Y189019D01*
X366795Y188954D01*
X366762Y188890D01*
X366726Y188829D01*
X366686Y188769D01*
X366644Y188712D01*
X366598Y188657D01*
X366550Y188604D01*
X366499Y188555D01*
X366445Y188508D01*
X366389Y188464D01*
X366330Y188423D01*
X366270Y188385D01*
X366207Y188350D01*
X366143Y188319D01*
X366077Y188291D01*
X366010Y188267D01*
X365942Y188246D01*
X365872Y188229D01*
X365802Y188216D01*
X365732Y188207D01*
X365660Y188201D01*
X365589Y188199D01*
X365589Y188200D02*
X364248Y188200D01*
X365857Y188200D02*
X366929Y186055D01*
X369671Y186055D02*
X371011Y186055D01*
X371082Y186057D01*
X371154Y186063D01*
X371224Y186072D01*
X371294Y186085D01*
X371364Y186102D01*
X371432Y186123D01*
X371499Y186147D01*
X371565Y186175D01*
X371629Y186206D01*
X371692Y186241D01*
X371752Y186279D01*
X371811Y186320D01*
X371867Y186364D01*
X371921Y186411D01*
X371972Y186460D01*
X372020Y186513D01*
X372066Y186568D01*
X372108Y186625D01*
X372148Y186685D01*
X372184Y186746D01*
X372217Y186810D01*
X372246Y186875D01*
X372272Y186941D01*
X372295Y187009D01*
X372314Y187078D01*
X372329Y187148D01*
X372340Y187218D01*
X372348Y187289D01*
X372352Y187360D01*
X372352Y187432D01*
X372348Y187503D01*
X372340Y187574D01*
X372329Y187644D01*
X372314Y187714D01*
X372295Y187783D01*
X372272Y187851D01*
X372246Y187917D01*
X372217Y187982D01*
X372184Y188046D01*
X372148Y188107D01*
X372108Y188167D01*
X372066Y188224D01*
X372020Y188279D01*
X371972Y188332D01*
X371921Y188381D01*
X371867Y188428D01*
X371811Y188472D01*
X371752Y188513D01*
X371692Y188551D01*
X371629Y188586D01*
X371565Y188617D01*
X371499Y188645D01*
X371432Y188669D01*
X371364Y188690D01*
X371294Y188707D01*
X371224Y188720D01*
X371154Y188729D01*
X371082Y188735D01*
X371011Y188737D01*
X371279Y190881D02*
X369671Y190881D01*
X371279Y190881D02*
X371344Y190879D01*
X371408Y190873D01*
X371472Y190863D01*
X371536Y190850D01*
X371598Y190832D01*
X371659Y190811D01*
X371719Y190787D01*
X371777Y190758D01*
X371834Y190726D01*
X371888Y190691D01*
X371940Y190653D01*
X371990Y190611D01*
X372037Y190567D01*
X372081Y190520D01*
X372123Y190470D01*
X372161Y190418D01*
X372196Y190364D01*
X372228Y190307D01*
X372257Y190249D01*
X372281Y190189D01*
X372302Y190128D01*
X372320Y190066D01*
X372333Y190002D01*
X372343Y189938D01*
X372349Y189874D01*
X372351Y189809D01*
X372349Y189744D01*
X372343Y189680D01*
X372333Y189616D01*
X372320Y189552D01*
X372302Y189490D01*
X372281Y189429D01*
X372257Y189369D01*
X372228Y189311D01*
X372196Y189254D01*
X372161Y189200D01*
X372123Y189148D01*
X372081Y189098D01*
X372037Y189051D01*
X371990Y189007D01*
X371940Y188965D01*
X371888Y188927D01*
X371834Y188892D01*
X371777Y188860D01*
X371719Y188831D01*
X371659Y188807D01*
X371598Y188786D01*
X371536Y188768D01*
X371472Y188755D01*
X371408Y188745D01*
X371344Y188739D01*
X371279Y188737D01*
X371279Y188736D02*
X370207Y188736D01*
X483948Y44481D02*
X483948Y39655D01*
X483948Y44481D02*
X485289Y44481D01*
X485360Y44479D01*
X485432Y44473D01*
X485502Y44464D01*
X485572Y44451D01*
X485642Y44434D01*
X485710Y44413D01*
X485777Y44389D01*
X485843Y44361D01*
X485907Y44330D01*
X485970Y44295D01*
X486030Y44257D01*
X486089Y44216D01*
X486145Y44172D01*
X486199Y44125D01*
X486250Y44076D01*
X486298Y44023D01*
X486344Y43968D01*
X486386Y43911D01*
X486426Y43851D01*
X486462Y43790D01*
X486495Y43726D01*
X486524Y43661D01*
X486550Y43595D01*
X486573Y43527D01*
X486592Y43458D01*
X486607Y43388D01*
X486618Y43318D01*
X486626Y43247D01*
X486630Y43176D01*
X486630Y43104D01*
X486626Y43033D01*
X486618Y42962D01*
X486607Y42892D01*
X486592Y42822D01*
X486573Y42753D01*
X486550Y42685D01*
X486524Y42619D01*
X486495Y42554D01*
X486462Y42490D01*
X486426Y42429D01*
X486386Y42369D01*
X486344Y42312D01*
X486298Y42257D01*
X486250Y42204D01*
X486199Y42155D01*
X486145Y42108D01*
X486089Y42064D01*
X486030Y42023D01*
X485970Y41985D01*
X485907Y41950D01*
X485843Y41919D01*
X485777Y41891D01*
X485710Y41867D01*
X485642Y41846D01*
X485572Y41829D01*
X485502Y41816D01*
X485432Y41807D01*
X485360Y41801D01*
X485289Y41799D01*
X485289Y41800D02*
X483948Y41800D01*
X485557Y41800D02*
X486629Y39655D01*
X489371Y40727D02*
X490443Y44481D01*
X489371Y40727D02*
X492052Y40727D01*
X491248Y41800D02*
X491248Y39655D01*
D375*
X177800Y31750D02*
X171450Y25400D01*
X158750Y25400D01*
X152400Y31750D01*
X152400Y44450D02*
X158750Y50800D01*
X171450Y50800D01*
X177800Y44450D01*
X209550Y25400D02*
X222250Y25400D01*
X209550Y25400D02*
X203200Y31750D01*
X203200Y44450D02*
X209550Y50800D01*
X203200Y31750D02*
X196850Y25400D01*
X184150Y25400D01*
X177800Y31750D01*
X177800Y44450D02*
X184150Y50800D01*
X196850Y50800D01*
X203200Y44450D01*
X228600Y44450D02*
X228600Y31750D01*
X222250Y25400D01*
X228600Y44450D02*
X222250Y50800D01*
X209550Y50800D01*
X152400Y44450D02*
X152400Y31750D01*
D376*
X205679Y18669D02*
X205744Y18671D01*
X205808Y18677D01*
X205872Y18687D01*
X205936Y18700D01*
X205998Y18718D01*
X206059Y18739D01*
X206119Y18763D01*
X206177Y18792D01*
X206234Y18824D01*
X206288Y18859D01*
X206340Y18897D01*
X206390Y18939D01*
X206437Y18983D01*
X206481Y19030D01*
X206523Y19080D01*
X206561Y19132D01*
X206596Y19186D01*
X206628Y19243D01*
X206657Y19301D01*
X206681Y19361D01*
X206702Y19422D01*
X206720Y19484D01*
X206733Y19548D01*
X206743Y19612D01*
X206749Y19676D01*
X206751Y19741D01*
X205679Y18669D02*
X205585Y18671D01*
X205491Y18677D01*
X205397Y18687D01*
X205304Y18700D01*
X205212Y18718D01*
X205120Y18739D01*
X205029Y18764D01*
X204939Y18793D01*
X204851Y18826D01*
X204764Y18862D01*
X204679Y18902D01*
X204595Y18945D01*
X204514Y18992D01*
X204434Y19042D01*
X204356Y19095D01*
X204281Y19152D01*
X204208Y19211D01*
X204138Y19274D01*
X204070Y19339D01*
X204204Y22423D02*
X204206Y22488D01*
X204212Y22552D01*
X204222Y22616D01*
X204235Y22680D01*
X204253Y22742D01*
X204274Y22803D01*
X204298Y22863D01*
X204327Y22921D01*
X204359Y22978D01*
X204394Y23032D01*
X204432Y23084D01*
X204474Y23134D01*
X204518Y23181D01*
X204565Y23225D01*
X204615Y23267D01*
X204667Y23305D01*
X204721Y23340D01*
X204778Y23372D01*
X204836Y23401D01*
X204896Y23425D01*
X204957Y23446D01*
X205019Y23464D01*
X205083Y23477D01*
X205147Y23487D01*
X205211Y23493D01*
X205276Y23495D01*
X205362Y23493D01*
X205448Y23488D01*
X205534Y23478D01*
X205619Y23465D01*
X205704Y23449D01*
X205788Y23429D01*
X205871Y23405D01*
X205953Y23378D01*
X206033Y23347D01*
X206113Y23313D01*
X206190Y23275D01*
X206266Y23234D01*
X206340Y23190D01*
X206412Y23143D01*
X206483Y23093D01*
X204740Y21485D02*
X204687Y21518D01*
X204636Y21555D01*
X204587Y21594D01*
X204540Y21636D01*
X204496Y21681D01*
X204455Y21728D01*
X204416Y21777D01*
X204380Y21829D01*
X204347Y21883D01*
X204318Y21938D01*
X204292Y21995D01*
X204269Y22054D01*
X204249Y22113D01*
X204233Y22174D01*
X204220Y22235D01*
X204211Y22298D01*
X204206Y22360D01*
X204204Y22423D01*
X206215Y20679D02*
X206268Y20646D01*
X206319Y20609D01*
X206368Y20570D01*
X206415Y20528D01*
X206459Y20483D01*
X206500Y20436D01*
X206539Y20387D01*
X206575Y20335D01*
X206608Y20281D01*
X206637Y20226D01*
X206663Y20169D01*
X206686Y20110D01*
X206706Y20051D01*
X206722Y19990D01*
X206735Y19929D01*
X206744Y19866D01*
X206749Y19804D01*
X206751Y19741D01*
X206215Y20680D02*
X204740Y21484D01*
X209576Y18669D02*
X211721Y18669D01*
X209576Y18669D02*
X209576Y23495D01*
X211721Y23495D01*
X211185Y21350D02*
X209576Y21350D01*
X214375Y23495D02*
X214375Y18669D01*
X214375Y23495D02*
X215715Y23495D01*
X215786Y23493D01*
X215858Y23487D01*
X215928Y23478D01*
X215998Y23465D01*
X216068Y23448D01*
X216136Y23427D01*
X216203Y23403D01*
X216269Y23375D01*
X216333Y23344D01*
X216396Y23309D01*
X216456Y23271D01*
X216515Y23230D01*
X216571Y23186D01*
X216625Y23139D01*
X216676Y23090D01*
X216724Y23037D01*
X216770Y22982D01*
X216812Y22925D01*
X216852Y22865D01*
X216888Y22804D01*
X216921Y22740D01*
X216950Y22675D01*
X216976Y22609D01*
X216999Y22541D01*
X217018Y22472D01*
X217033Y22402D01*
X217044Y22332D01*
X217052Y22261D01*
X217056Y22190D01*
X217056Y22118D01*
X217052Y22047D01*
X217044Y21976D01*
X217033Y21906D01*
X217018Y21836D01*
X216999Y21767D01*
X216976Y21699D01*
X216950Y21633D01*
X216921Y21568D01*
X216888Y21504D01*
X216852Y21443D01*
X216812Y21383D01*
X216770Y21326D01*
X216724Y21271D01*
X216676Y21218D01*
X216625Y21169D01*
X216571Y21122D01*
X216515Y21078D01*
X216456Y21037D01*
X216396Y20999D01*
X216333Y20964D01*
X216269Y20933D01*
X216203Y20905D01*
X216136Y20881D01*
X216068Y20860D01*
X215998Y20843D01*
X215928Y20830D01*
X215858Y20821D01*
X215786Y20815D01*
X215715Y20813D01*
X215715Y20814D02*
X214375Y20814D01*
X215984Y20814D02*
X217056Y18669D01*
X221138Y18669D02*
X219529Y23495D01*
X222747Y23495D02*
X221138Y18669D01*
X225284Y20010D02*
X225284Y22154D01*
X225283Y22154D02*
X225285Y22225D01*
X225291Y22297D01*
X225300Y22367D01*
X225313Y22437D01*
X225330Y22507D01*
X225351Y22575D01*
X225375Y22642D01*
X225403Y22708D01*
X225434Y22772D01*
X225469Y22835D01*
X225507Y22895D01*
X225548Y22954D01*
X225592Y23010D01*
X225639Y23064D01*
X225688Y23115D01*
X225741Y23163D01*
X225796Y23209D01*
X225853Y23251D01*
X225913Y23291D01*
X225974Y23327D01*
X226038Y23360D01*
X226103Y23389D01*
X226169Y23415D01*
X226237Y23438D01*
X226306Y23457D01*
X226376Y23472D01*
X226446Y23483D01*
X226517Y23491D01*
X226588Y23495D01*
X226660Y23495D01*
X226731Y23491D01*
X226802Y23483D01*
X226872Y23472D01*
X226942Y23457D01*
X227011Y23438D01*
X227079Y23415D01*
X227145Y23389D01*
X227210Y23360D01*
X227274Y23327D01*
X227335Y23291D01*
X227395Y23251D01*
X227452Y23209D01*
X227507Y23163D01*
X227560Y23115D01*
X227609Y23064D01*
X227656Y23010D01*
X227700Y22954D01*
X227741Y22895D01*
X227779Y22835D01*
X227814Y22772D01*
X227845Y22708D01*
X227873Y22642D01*
X227897Y22575D01*
X227918Y22507D01*
X227935Y22437D01*
X227948Y22367D01*
X227957Y22297D01*
X227963Y22225D01*
X227965Y22154D01*
X227965Y20010D01*
X227963Y19939D01*
X227957Y19867D01*
X227948Y19797D01*
X227935Y19727D01*
X227918Y19657D01*
X227897Y19589D01*
X227873Y19522D01*
X227845Y19456D01*
X227814Y19392D01*
X227779Y19329D01*
X227741Y19269D01*
X227700Y19210D01*
X227656Y19154D01*
X227609Y19100D01*
X227560Y19049D01*
X227507Y19001D01*
X227452Y18955D01*
X227395Y18913D01*
X227335Y18873D01*
X227274Y18837D01*
X227210Y18804D01*
X227145Y18775D01*
X227079Y18749D01*
X227011Y18726D01*
X226942Y18707D01*
X226872Y18692D01*
X226802Y18681D01*
X226731Y18673D01*
X226660Y18669D01*
X226588Y18669D01*
X226517Y18673D01*
X226446Y18681D01*
X226376Y18692D01*
X226306Y18707D01*
X226237Y18726D01*
X226169Y18749D01*
X226103Y18775D01*
X226038Y18804D01*
X225974Y18837D01*
X225913Y18873D01*
X225853Y18913D01*
X225796Y18955D01*
X225741Y19001D01*
X225688Y19049D01*
X225639Y19100D01*
X225592Y19154D01*
X225548Y19210D01*
X225507Y19269D01*
X225469Y19329D01*
X225434Y19392D01*
X225403Y19456D01*
X225375Y19522D01*
X225351Y19589D01*
X225330Y19657D01*
X225313Y19727D01*
X225300Y19797D01*
X225291Y19867D01*
X225285Y19939D01*
X225283Y20010D01*
X421400Y112000D02*
X421400Y142000D01*
X391400Y142000D02*
X391400Y112000D01*
D380*
X416400Y150750D03*
D381*
X420519Y123779D02*
X423271Y123779D01*
X423335Y123781D01*
X423399Y123787D01*
X423462Y123796D01*
X423524Y123810D01*
X423586Y123827D01*
X423646Y123848D01*
X423705Y123872D01*
X423763Y123900D01*
X423818Y123932D01*
X423872Y123966D01*
X423923Y124004D01*
X423973Y124045D01*
X424019Y124089D01*
X424063Y124135D01*
X424104Y124185D01*
X424142Y124236D01*
X424176Y124290D01*
X424208Y124345D01*
X424236Y124403D01*
X424260Y124462D01*
X424281Y124522D01*
X424298Y124584D01*
X424312Y124646D01*
X424321Y124709D01*
X424327Y124773D01*
X424329Y124837D01*
X424327Y124901D01*
X424321Y124965D01*
X424312Y125028D01*
X424298Y125090D01*
X424281Y125152D01*
X424260Y125212D01*
X424236Y125271D01*
X424208Y125329D01*
X424176Y125384D01*
X424142Y125438D01*
X424104Y125489D01*
X424063Y125539D01*
X424019Y125585D01*
X423973Y125629D01*
X423923Y125670D01*
X423872Y125708D01*
X423818Y125742D01*
X423763Y125774D01*
X423705Y125802D01*
X423646Y125826D01*
X423586Y125847D01*
X423524Y125864D01*
X423462Y125878D01*
X423399Y125887D01*
X423335Y125893D01*
X423271Y125895D01*
X420519Y125895D01*
X421366Y127558D02*
X420519Y128617D01*
X424329Y128617D01*
X424329Y129675D02*
X424329Y127558D01*
D375*
X560000Y189000D02*
X595000Y189000D01*
X560000Y189000D02*
X560000Y181000D01*
X585000Y181000D01*
X585000Y169000D01*
X585000Y129000D02*
X585000Y117000D01*
X560000Y117000D01*
X560000Y109000D01*
X595000Y109000D01*
X635000Y129000D02*
X635000Y169000D01*
D376*
X627169Y156706D02*
X623415Y156706D01*
X627169Y156706D02*
X627234Y156704D01*
X627298Y156698D01*
X627362Y156688D01*
X627426Y156675D01*
X627488Y156657D01*
X627549Y156636D01*
X627609Y156612D01*
X627667Y156583D01*
X627724Y156551D01*
X627778Y156516D01*
X627830Y156478D01*
X627880Y156436D01*
X627927Y156392D01*
X627971Y156345D01*
X628013Y156295D01*
X628051Y156243D01*
X628086Y156189D01*
X628118Y156132D01*
X628147Y156074D01*
X628171Y156014D01*
X628192Y155953D01*
X628210Y155891D01*
X628223Y155827D01*
X628233Y155763D01*
X628239Y155699D01*
X628241Y155634D01*
X628241Y155097D01*
X623415Y161128D02*
X623417Y161196D01*
X623423Y161263D01*
X623432Y161330D01*
X623445Y161397D01*
X623462Y161462D01*
X623483Y161527D01*
X623507Y161590D01*
X623535Y161652D01*
X623566Y161712D01*
X623600Y161770D01*
X623638Y161826D01*
X623678Y161881D01*
X623722Y161932D01*
X623769Y161981D01*
X623818Y162028D01*
X623869Y162072D01*
X623924Y162112D01*
X623980Y162150D01*
X624038Y162184D01*
X624098Y162215D01*
X624160Y162243D01*
X624223Y162267D01*
X624288Y162288D01*
X624353Y162305D01*
X624420Y162318D01*
X624487Y162327D01*
X624554Y162333D01*
X624622Y162335D01*
X623415Y161128D02*
X623417Y161050D01*
X623423Y160972D01*
X623433Y160895D01*
X623446Y160818D01*
X623464Y160742D01*
X623485Y160667D01*
X623510Y160593D01*
X623539Y160521D01*
X623571Y160450D01*
X623607Y160381D01*
X623646Y160313D01*
X623689Y160248D01*
X623735Y160185D01*
X623784Y160124D01*
X623836Y160066D01*
X623891Y160011D01*
X623948Y159958D01*
X624008Y159909D01*
X624071Y159862D01*
X624136Y159819D01*
X624202Y159779D01*
X624271Y159742D01*
X624342Y159709D01*
X624414Y159679D01*
X624488Y159653D01*
X625560Y161933D02*
X625511Y161982D01*
X625459Y162029D01*
X625404Y162072D01*
X625347Y162113D01*
X625288Y162151D01*
X625227Y162185D01*
X625164Y162216D01*
X625100Y162244D01*
X625034Y162268D01*
X624968Y162288D01*
X624900Y162305D01*
X624831Y162318D01*
X624762Y162327D01*
X624692Y162333D01*
X624622Y162335D01*
X625560Y161933D02*
X628241Y159654D01*
X628241Y162335D01*
D375*
X502300Y150350D02*
X502300Y137650D01*
X502300Y150350D02*
X508650Y156700D01*
X521350Y156700D02*
X527700Y150350D01*
X508650Y156700D02*
X502300Y163050D01*
X502300Y175750D01*
X508650Y182100D01*
X521350Y182100D02*
X527700Y175750D01*
X527700Y163050D01*
X521350Y156700D01*
X521350Y131300D02*
X508650Y131300D01*
X502300Y137650D01*
X521350Y131300D02*
X527700Y137650D01*
X527700Y150350D01*
X521350Y182100D02*
X508650Y182100D01*
D376*
X499323Y133544D02*
X495569Y133544D01*
X499323Y133543D02*
X499388Y133541D01*
X499452Y133535D01*
X499516Y133525D01*
X499580Y133512D01*
X499642Y133494D01*
X499703Y133473D01*
X499763Y133449D01*
X499821Y133420D01*
X499878Y133388D01*
X499932Y133353D01*
X499984Y133315D01*
X500034Y133273D01*
X500081Y133229D01*
X500125Y133182D01*
X500167Y133132D01*
X500205Y133080D01*
X500240Y133026D01*
X500272Y132969D01*
X500301Y132911D01*
X500325Y132851D01*
X500346Y132790D01*
X500364Y132728D01*
X500377Y132664D01*
X500387Y132600D01*
X500393Y132536D01*
X500395Y132471D01*
X500395Y131935D01*
X499323Y136492D02*
X495569Y137564D01*
X499323Y136492D02*
X499323Y139173D01*
X500395Y138368D02*
X498250Y138368D01*
D378*
X377384Y32282D03*
X369884Y32282D03*
D379*
X373634Y32282D03*
D377*
X387497Y28231D02*
X392690Y28231D01*
X387497Y28230D02*
X387384Y28232D01*
X387271Y28238D01*
X387158Y28248D01*
X387045Y28262D01*
X386933Y28279D01*
X386822Y28301D01*
X386712Y28326D01*
X386602Y28356D01*
X386494Y28389D01*
X386387Y28426D01*
X386281Y28466D01*
X386177Y28511D01*
X386074Y28559D01*
X385973Y28610D01*
X385874Y28665D01*
X385777Y28723D01*
X385682Y28785D01*
X385589Y28850D01*
X385499Y28918D01*
X385411Y28989D01*
X385325Y29064D01*
X385242Y29141D01*
X385162Y29221D01*
X385085Y29304D01*
X385010Y29390D01*
X384939Y29478D01*
X384871Y29568D01*
X384806Y29661D01*
X384744Y29756D01*
X384686Y29853D01*
X384631Y29952D01*
X384580Y30053D01*
X384532Y30156D01*
X384487Y30260D01*
X384447Y30366D01*
X384410Y30473D01*
X384377Y30581D01*
X384347Y30691D01*
X384322Y30801D01*
X384300Y30912D01*
X384283Y31024D01*
X384269Y31137D01*
X384259Y31250D01*
X384253Y31363D01*
X384251Y31476D01*
X384253Y31589D01*
X384259Y31702D01*
X384269Y31815D01*
X384283Y31928D01*
X384300Y32040D01*
X384322Y32151D01*
X384347Y32261D01*
X384377Y32371D01*
X384410Y32479D01*
X384447Y32586D01*
X384487Y32692D01*
X384532Y32796D01*
X384580Y32899D01*
X384631Y33000D01*
X384686Y33099D01*
X384744Y33196D01*
X384806Y33291D01*
X384871Y33384D01*
X384939Y33474D01*
X385010Y33562D01*
X385085Y33648D01*
X385162Y33731D01*
X385242Y33811D01*
X385325Y33888D01*
X385411Y33963D01*
X385499Y34034D01*
X385589Y34102D01*
X385682Y34167D01*
X385777Y34229D01*
X385874Y34287D01*
X385973Y34342D01*
X386074Y34393D01*
X386177Y34441D01*
X386281Y34486D01*
X386387Y34526D01*
X386494Y34563D01*
X386602Y34596D01*
X386712Y34626D01*
X386822Y34651D01*
X386933Y34673D01*
X387045Y34690D01*
X387158Y34704D01*
X387271Y34714D01*
X387384Y34720D01*
X387497Y34722D01*
X392690Y34722D01*
X392803Y34720D01*
X392916Y34714D01*
X393029Y34704D01*
X393142Y34690D01*
X393254Y34673D01*
X393365Y34651D01*
X393475Y34626D01*
X393585Y34596D01*
X393693Y34563D01*
X393800Y34526D01*
X393906Y34486D01*
X394010Y34441D01*
X394113Y34393D01*
X394214Y34342D01*
X394313Y34287D01*
X394410Y34229D01*
X394505Y34167D01*
X394598Y34102D01*
X394688Y34034D01*
X394776Y33963D01*
X394862Y33888D01*
X394945Y33811D01*
X395025Y33731D01*
X395102Y33648D01*
X395177Y33562D01*
X395248Y33474D01*
X395316Y33384D01*
X395381Y33291D01*
X395443Y33196D01*
X395501Y33099D01*
X395556Y33000D01*
X395607Y32899D01*
X395655Y32796D01*
X395700Y32692D01*
X395740Y32586D01*
X395777Y32479D01*
X395810Y32371D01*
X395840Y32261D01*
X395865Y32151D01*
X395887Y32040D01*
X395904Y31928D01*
X395918Y31815D01*
X395928Y31702D01*
X395934Y31589D01*
X395936Y31476D01*
X395934Y31363D01*
X395928Y31250D01*
X395918Y31137D01*
X395904Y31024D01*
X395887Y30912D01*
X395865Y30801D01*
X395840Y30691D01*
X395810Y30581D01*
X395777Y30473D01*
X395740Y30366D01*
X395700Y30260D01*
X395655Y30156D01*
X395607Y30053D01*
X395556Y29952D01*
X395501Y29853D01*
X395443Y29756D01*
X395381Y29661D01*
X395316Y29568D01*
X395248Y29478D01*
X395177Y29390D01*
X395102Y29304D01*
X395025Y29221D01*
X394945Y29141D01*
X394862Y29064D01*
X394776Y28989D01*
X394688Y28918D01*
X394598Y28850D01*
X394505Y28785D01*
X394410Y28723D01*
X394313Y28665D01*
X394214Y28610D01*
X394113Y28559D01*
X394010Y28511D01*
X393906Y28466D01*
X393800Y28426D01*
X393693Y28389D01*
X393585Y28356D01*
X393475Y28326D01*
X393365Y28301D01*
X393254Y28279D01*
X393142Y28262D01*
X393029Y28248D01*
X392916Y28238D01*
X392803Y28232D01*
X392690Y28230D01*
X395935Y40042D02*
X384251Y40042D01*
X395935Y46533D01*
X384251Y46533D01*
D376*
X406273Y28968D02*
X411099Y28968D01*
X406273Y28968D02*
X406273Y30309D01*
X406275Y30380D01*
X406281Y30452D01*
X406290Y30522D01*
X406303Y30592D01*
X406320Y30662D01*
X406341Y30730D01*
X406365Y30797D01*
X406393Y30863D01*
X406424Y30927D01*
X406459Y30990D01*
X406497Y31050D01*
X406538Y31109D01*
X406582Y31165D01*
X406629Y31219D01*
X406678Y31270D01*
X406731Y31318D01*
X406786Y31364D01*
X406843Y31406D01*
X406903Y31446D01*
X406964Y31482D01*
X407028Y31515D01*
X407093Y31544D01*
X407159Y31570D01*
X407227Y31593D01*
X407296Y31612D01*
X407366Y31627D01*
X407436Y31638D01*
X407507Y31646D01*
X407578Y31650D01*
X407650Y31650D01*
X407721Y31646D01*
X407792Y31638D01*
X407862Y31627D01*
X407932Y31612D01*
X408001Y31593D01*
X408069Y31570D01*
X408135Y31544D01*
X408200Y31515D01*
X408264Y31482D01*
X408325Y31446D01*
X408385Y31406D01*
X408442Y31364D01*
X408497Y31318D01*
X408550Y31270D01*
X408599Y31219D01*
X408646Y31165D01*
X408690Y31109D01*
X408731Y31050D01*
X408769Y30990D01*
X408804Y30927D01*
X408835Y30863D01*
X408863Y30797D01*
X408887Y30730D01*
X408908Y30662D01*
X408925Y30592D01*
X408938Y30522D01*
X408947Y30452D01*
X408953Y30380D01*
X408955Y30309D01*
X408954Y30309D02*
X408954Y28968D01*
X408954Y30577D02*
X411099Y31649D01*
X407345Y34391D02*
X406273Y35731D01*
X411099Y35731D01*
X411099Y34391D02*
X411099Y37072D01*
M02*
