G04 EAGLE Gerber X2 export*
%TF.Part,Single*%
%TF.FileFunction,Legend,Top,1*%
%TF.FilePolarity,Positive*%
%TF.GenerationSoftware,Autodesk,EAGLE,9.1.0*%
%TF.CreationDate,2019-04-25T21:03:21Z*%
G75*
%MOMM*%
%FSLAX34Y34*%
%LPD*%
%AMOC8*
5,1,8,0,0,1.08239X$1,22.5*%
G01*
%ADD10C,0.101600*%
%ADD11C,0.203200*%
%ADD12C,0.127000*%
%ADD13R,0.150000X0.300000*%
%ADD14R,0.300000X0.300000*%
%ADD15C,0.025400*%
%ADD16C,0.254000*%


D10*
X437642Y113651D02*
X437642Y111054D01*
X437640Y110955D01*
X437634Y110855D01*
X437625Y110756D01*
X437612Y110658D01*
X437595Y110560D01*
X437574Y110462D01*
X437549Y110366D01*
X437521Y110271D01*
X437489Y110177D01*
X437454Y110084D01*
X437415Y109992D01*
X437372Y109902D01*
X437327Y109814D01*
X437277Y109727D01*
X437225Y109643D01*
X437169Y109560D01*
X437111Y109480D01*
X437049Y109402D01*
X436984Y109327D01*
X436916Y109254D01*
X436846Y109184D01*
X436773Y109116D01*
X436698Y109051D01*
X436620Y108989D01*
X436540Y108931D01*
X436457Y108875D01*
X436373Y108823D01*
X436286Y108773D01*
X436198Y108728D01*
X436108Y108685D01*
X436016Y108646D01*
X435923Y108611D01*
X435829Y108579D01*
X435734Y108551D01*
X435638Y108526D01*
X435540Y108505D01*
X435442Y108488D01*
X435344Y108475D01*
X435245Y108466D01*
X435145Y108460D01*
X435046Y108458D01*
X428554Y108458D01*
X428455Y108460D01*
X428355Y108466D01*
X428256Y108475D01*
X428158Y108488D01*
X428060Y108506D01*
X427962Y108526D01*
X427866Y108551D01*
X427770Y108579D01*
X427676Y108611D01*
X427583Y108646D01*
X427492Y108685D01*
X427402Y108728D01*
X427313Y108773D01*
X427227Y108823D01*
X427142Y108875D01*
X427060Y108931D01*
X426980Y108990D01*
X426902Y109051D01*
X426826Y109116D01*
X426753Y109184D01*
X426683Y109254D01*
X426615Y109327D01*
X426550Y109403D01*
X426489Y109481D01*
X426430Y109561D01*
X426374Y109643D01*
X426322Y109728D01*
X426273Y109814D01*
X426227Y109903D01*
X426184Y109993D01*
X426145Y110084D01*
X426110Y110177D01*
X426078Y110271D01*
X426050Y110367D01*
X426025Y110463D01*
X426005Y110561D01*
X425987Y110659D01*
X425974Y110757D01*
X425965Y110856D01*
X425959Y110955D01*
X425957Y111055D01*
X425958Y111054D02*
X425958Y113651D01*
X428554Y118016D02*
X425958Y121262D01*
X437642Y121262D01*
X437642Y124507D02*
X437642Y118016D01*
X348742Y109653D02*
X348742Y107056D01*
X348740Y106957D01*
X348734Y106857D01*
X348725Y106758D01*
X348712Y106660D01*
X348695Y106562D01*
X348674Y106464D01*
X348649Y106368D01*
X348621Y106273D01*
X348589Y106179D01*
X348554Y106086D01*
X348515Y105994D01*
X348472Y105904D01*
X348427Y105816D01*
X348377Y105729D01*
X348325Y105645D01*
X348269Y105562D01*
X348211Y105482D01*
X348149Y105404D01*
X348084Y105329D01*
X348016Y105256D01*
X347946Y105186D01*
X347873Y105118D01*
X347798Y105053D01*
X347720Y104991D01*
X347640Y104933D01*
X347557Y104877D01*
X347473Y104825D01*
X347386Y104775D01*
X347298Y104730D01*
X347208Y104687D01*
X347116Y104648D01*
X347023Y104613D01*
X346929Y104581D01*
X346834Y104553D01*
X346738Y104528D01*
X346640Y104507D01*
X346542Y104490D01*
X346444Y104477D01*
X346345Y104468D01*
X346245Y104462D01*
X346146Y104460D01*
X339654Y104460D01*
X339654Y104459D02*
X339555Y104461D01*
X339455Y104467D01*
X339356Y104476D01*
X339258Y104489D01*
X339160Y104507D01*
X339062Y104527D01*
X338966Y104552D01*
X338870Y104580D01*
X338776Y104612D01*
X338683Y104647D01*
X338592Y104686D01*
X338502Y104729D01*
X338413Y104774D01*
X338327Y104824D01*
X338242Y104876D01*
X338160Y104932D01*
X338080Y104991D01*
X338002Y105052D01*
X337926Y105117D01*
X337853Y105185D01*
X337783Y105255D01*
X337715Y105328D01*
X337650Y105404D01*
X337589Y105482D01*
X337530Y105562D01*
X337474Y105644D01*
X337422Y105729D01*
X337373Y105815D01*
X337327Y105904D01*
X337284Y105994D01*
X337245Y106085D01*
X337210Y106178D01*
X337178Y106272D01*
X337150Y106368D01*
X337125Y106464D01*
X337105Y106562D01*
X337087Y106660D01*
X337074Y106758D01*
X337065Y106857D01*
X337059Y106956D01*
X337057Y107056D01*
X337058Y107056D02*
X337058Y109653D01*
X337058Y117588D02*
X337060Y117695D01*
X337066Y117801D01*
X337076Y117907D01*
X337089Y118013D01*
X337107Y118119D01*
X337128Y118223D01*
X337153Y118327D01*
X337182Y118430D01*
X337214Y118531D01*
X337251Y118631D01*
X337291Y118730D01*
X337334Y118828D01*
X337381Y118924D01*
X337432Y119018D01*
X337486Y119110D01*
X337543Y119200D01*
X337603Y119288D01*
X337667Y119373D01*
X337734Y119456D01*
X337804Y119537D01*
X337876Y119615D01*
X337952Y119691D01*
X338030Y119763D01*
X338111Y119833D01*
X338194Y119900D01*
X338279Y119964D01*
X338367Y120024D01*
X338457Y120081D01*
X338549Y120135D01*
X338643Y120186D01*
X338739Y120233D01*
X338837Y120276D01*
X338936Y120316D01*
X339036Y120353D01*
X339137Y120385D01*
X339240Y120414D01*
X339344Y120439D01*
X339448Y120460D01*
X339554Y120478D01*
X339660Y120491D01*
X339766Y120501D01*
X339872Y120507D01*
X339979Y120509D01*
X337058Y117588D02*
X337060Y117467D01*
X337066Y117346D01*
X337076Y117226D01*
X337089Y117105D01*
X337107Y116986D01*
X337128Y116866D01*
X337153Y116748D01*
X337182Y116631D01*
X337215Y116514D01*
X337251Y116399D01*
X337292Y116285D01*
X337335Y116172D01*
X337383Y116060D01*
X337434Y115951D01*
X337489Y115843D01*
X337547Y115736D01*
X337608Y115632D01*
X337673Y115530D01*
X337741Y115430D01*
X337812Y115332D01*
X337886Y115236D01*
X337963Y115143D01*
X338044Y115053D01*
X338127Y114965D01*
X338213Y114880D01*
X338302Y114797D01*
X338393Y114718D01*
X338487Y114641D01*
X338583Y114568D01*
X338681Y114498D01*
X338782Y114431D01*
X338885Y114367D01*
X338990Y114307D01*
X339097Y114249D01*
X339205Y114196D01*
X339315Y114146D01*
X339427Y114100D01*
X339540Y114057D01*
X339655Y114018D01*
X342251Y119535D02*
X342173Y119614D01*
X342093Y119690D01*
X342010Y119763D01*
X341924Y119833D01*
X341837Y119900D01*
X341746Y119964D01*
X341654Y120024D01*
X341560Y120082D01*
X341463Y120136D01*
X341365Y120186D01*
X341265Y120233D01*
X341164Y120277D01*
X341061Y120317D01*
X340956Y120353D01*
X340851Y120385D01*
X340744Y120414D01*
X340637Y120439D01*
X340528Y120461D01*
X340419Y120478D01*
X340310Y120492D01*
X340200Y120501D01*
X340089Y120507D01*
X339979Y120509D01*
X342251Y119535D02*
X348742Y114018D01*
X348742Y120509D01*
X344198Y125561D02*
X344198Y133350D01*
X348742Y137753D02*
X337058Y141647D01*
X348742Y145542D01*
X345821Y144568D02*
X345821Y138726D01*
X399542Y109751D02*
X399542Y107155D01*
X399540Y107056D01*
X399534Y106956D01*
X399525Y106857D01*
X399512Y106759D01*
X399495Y106661D01*
X399474Y106563D01*
X399449Y106467D01*
X399421Y106372D01*
X399389Y106278D01*
X399354Y106185D01*
X399315Y106093D01*
X399272Y106003D01*
X399227Y105915D01*
X399177Y105828D01*
X399125Y105744D01*
X399069Y105661D01*
X399011Y105581D01*
X398949Y105503D01*
X398884Y105428D01*
X398816Y105355D01*
X398746Y105285D01*
X398673Y105217D01*
X398598Y105152D01*
X398520Y105090D01*
X398440Y105032D01*
X398357Y104976D01*
X398273Y104924D01*
X398186Y104874D01*
X398098Y104829D01*
X398008Y104786D01*
X397916Y104747D01*
X397823Y104712D01*
X397729Y104680D01*
X397634Y104652D01*
X397538Y104627D01*
X397440Y104606D01*
X397342Y104589D01*
X397244Y104576D01*
X397145Y104567D01*
X397045Y104561D01*
X396946Y104559D01*
X396946Y104558D02*
X390454Y104558D01*
X390355Y104560D01*
X390255Y104566D01*
X390156Y104575D01*
X390058Y104588D01*
X389960Y104606D01*
X389862Y104626D01*
X389766Y104651D01*
X389670Y104679D01*
X389576Y104711D01*
X389483Y104746D01*
X389392Y104785D01*
X389302Y104828D01*
X389213Y104873D01*
X389127Y104923D01*
X389042Y104975D01*
X388960Y105031D01*
X388880Y105090D01*
X388802Y105151D01*
X388726Y105216D01*
X388653Y105284D01*
X388583Y105354D01*
X388515Y105427D01*
X388450Y105503D01*
X388389Y105581D01*
X388330Y105661D01*
X388274Y105743D01*
X388222Y105828D01*
X388173Y105914D01*
X388127Y106003D01*
X388084Y106093D01*
X388045Y106184D01*
X388010Y106277D01*
X387978Y106371D01*
X387950Y106467D01*
X387925Y106563D01*
X387905Y106661D01*
X387887Y106759D01*
X387874Y106857D01*
X387865Y106956D01*
X387859Y107055D01*
X387857Y107155D01*
X387858Y107155D02*
X387858Y109751D01*
X387858Y117687D02*
X387860Y117794D01*
X387866Y117900D01*
X387876Y118006D01*
X387889Y118112D01*
X387907Y118218D01*
X387928Y118322D01*
X387953Y118426D01*
X387982Y118529D01*
X388014Y118630D01*
X388051Y118730D01*
X388091Y118829D01*
X388134Y118927D01*
X388181Y119023D01*
X388232Y119117D01*
X388286Y119209D01*
X388343Y119299D01*
X388403Y119387D01*
X388467Y119472D01*
X388534Y119555D01*
X388604Y119636D01*
X388676Y119714D01*
X388752Y119790D01*
X388830Y119862D01*
X388911Y119932D01*
X388994Y119999D01*
X389079Y120063D01*
X389167Y120123D01*
X389257Y120180D01*
X389349Y120234D01*
X389443Y120285D01*
X389539Y120332D01*
X389637Y120375D01*
X389736Y120415D01*
X389836Y120452D01*
X389937Y120484D01*
X390040Y120513D01*
X390144Y120538D01*
X390248Y120559D01*
X390354Y120577D01*
X390460Y120590D01*
X390566Y120600D01*
X390672Y120606D01*
X390779Y120608D01*
X387858Y117687D02*
X387860Y117566D01*
X387866Y117445D01*
X387876Y117325D01*
X387889Y117204D01*
X387907Y117085D01*
X387928Y116965D01*
X387953Y116847D01*
X387982Y116730D01*
X388015Y116613D01*
X388051Y116498D01*
X388092Y116384D01*
X388135Y116271D01*
X388183Y116159D01*
X388234Y116050D01*
X388289Y115942D01*
X388347Y115835D01*
X388408Y115731D01*
X388473Y115629D01*
X388541Y115529D01*
X388612Y115431D01*
X388686Y115335D01*
X388763Y115242D01*
X388844Y115152D01*
X388927Y115064D01*
X389013Y114979D01*
X389102Y114896D01*
X389193Y114817D01*
X389287Y114740D01*
X389383Y114667D01*
X389481Y114597D01*
X389582Y114530D01*
X389685Y114466D01*
X389790Y114406D01*
X389897Y114348D01*
X390005Y114295D01*
X390115Y114245D01*
X390227Y114199D01*
X390340Y114156D01*
X390455Y114117D01*
X393051Y119633D02*
X392973Y119712D01*
X392893Y119788D01*
X392810Y119861D01*
X392724Y119931D01*
X392637Y119998D01*
X392546Y120062D01*
X392454Y120122D01*
X392360Y120180D01*
X392263Y120234D01*
X392165Y120284D01*
X392065Y120331D01*
X391964Y120375D01*
X391861Y120415D01*
X391756Y120451D01*
X391651Y120483D01*
X391544Y120512D01*
X391437Y120537D01*
X391328Y120559D01*
X391219Y120576D01*
X391110Y120590D01*
X391000Y120599D01*
X390889Y120605D01*
X390779Y120607D01*
X393051Y119634D02*
X399542Y114117D01*
X399542Y120608D01*
X394998Y125659D02*
X394998Y133449D01*
X393051Y139051D02*
X393051Y142296D01*
X393050Y142296D02*
X393052Y142409D01*
X393058Y142522D01*
X393068Y142635D01*
X393082Y142748D01*
X393099Y142860D01*
X393121Y142971D01*
X393146Y143081D01*
X393176Y143191D01*
X393209Y143299D01*
X393246Y143406D01*
X393286Y143512D01*
X393331Y143616D01*
X393379Y143719D01*
X393430Y143820D01*
X393485Y143919D01*
X393543Y144016D01*
X393605Y144111D01*
X393670Y144204D01*
X393738Y144294D01*
X393809Y144382D01*
X393884Y144468D01*
X393961Y144551D01*
X394041Y144631D01*
X394124Y144708D01*
X394210Y144783D01*
X394298Y144854D01*
X394388Y144922D01*
X394481Y144987D01*
X394576Y145049D01*
X394673Y145107D01*
X394772Y145162D01*
X394873Y145213D01*
X394976Y145261D01*
X395080Y145306D01*
X395186Y145346D01*
X395293Y145383D01*
X395401Y145416D01*
X395511Y145446D01*
X395621Y145471D01*
X395732Y145493D01*
X395844Y145510D01*
X395957Y145524D01*
X396070Y145534D01*
X396183Y145540D01*
X396296Y145542D01*
X396409Y145540D01*
X396522Y145534D01*
X396635Y145524D01*
X396748Y145510D01*
X396860Y145493D01*
X396971Y145471D01*
X397081Y145446D01*
X397191Y145416D01*
X397299Y145383D01*
X397406Y145346D01*
X397512Y145306D01*
X397616Y145261D01*
X397719Y145213D01*
X397820Y145162D01*
X397919Y145107D01*
X398016Y145049D01*
X398111Y144987D01*
X398204Y144922D01*
X398294Y144854D01*
X398382Y144783D01*
X398468Y144708D01*
X398551Y144631D01*
X398631Y144551D01*
X398708Y144468D01*
X398783Y144382D01*
X398854Y144294D01*
X398922Y144204D01*
X398987Y144111D01*
X399049Y144016D01*
X399107Y143919D01*
X399162Y143820D01*
X399213Y143719D01*
X399261Y143616D01*
X399306Y143512D01*
X399346Y143406D01*
X399383Y143299D01*
X399416Y143191D01*
X399446Y143081D01*
X399471Y142971D01*
X399493Y142860D01*
X399510Y142748D01*
X399524Y142635D01*
X399534Y142522D01*
X399540Y142409D01*
X399542Y142296D01*
X399542Y139051D01*
X387858Y139051D01*
X387858Y142296D01*
X387860Y142397D01*
X387866Y142497D01*
X387876Y142597D01*
X387889Y142697D01*
X387907Y142796D01*
X387928Y142895D01*
X387953Y142992D01*
X387982Y143089D01*
X388015Y143184D01*
X388051Y143278D01*
X388091Y143370D01*
X388134Y143461D01*
X388181Y143550D01*
X388231Y143637D01*
X388285Y143723D01*
X388342Y143806D01*
X388402Y143886D01*
X388465Y143965D01*
X388532Y144041D01*
X388601Y144114D01*
X388673Y144184D01*
X388747Y144252D01*
X388824Y144317D01*
X388904Y144378D01*
X388986Y144437D01*
X389070Y144492D01*
X389156Y144544D01*
X389244Y144593D01*
X389334Y144638D01*
X389426Y144680D01*
X389519Y144718D01*
X389614Y144752D01*
X389709Y144783D01*
X389806Y144810D01*
X389904Y144833D01*
X390003Y144853D01*
X390103Y144868D01*
X390203Y144880D01*
X390303Y144888D01*
X390404Y144892D01*
X390504Y144892D01*
X390605Y144888D01*
X390705Y144880D01*
X390805Y144868D01*
X390905Y144853D01*
X391004Y144833D01*
X391102Y144810D01*
X391199Y144783D01*
X391294Y144752D01*
X391389Y144718D01*
X391482Y144680D01*
X391574Y144638D01*
X391664Y144593D01*
X391752Y144544D01*
X391838Y144492D01*
X391922Y144437D01*
X392004Y144378D01*
X392084Y144317D01*
X392161Y144252D01*
X392235Y144184D01*
X392307Y144114D01*
X392376Y144041D01*
X392443Y143965D01*
X392506Y143886D01*
X392566Y143806D01*
X392623Y143723D01*
X392677Y143637D01*
X392727Y143550D01*
X392774Y143461D01*
X392817Y143370D01*
X392857Y143278D01*
X392893Y143184D01*
X392926Y143089D01*
X392955Y142992D01*
X392980Y142895D01*
X393001Y142796D01*
X393019Y142697D01*
X393032Y142597D01*
X393042Y142497D01*
X393048Y142397D01*
X393050Y142296D01*
X374142Y111633D02*
X374142Y109037D01*
X374140Y108938D01*
X374134Y108838D01*
X374125Y108739D01*
X374112Y108641D01*
X374095Y108543D01*
X374074Y108445D01*
X374049Y108349D01*
X374021Y108254D01*
X373989Y108160D01*
X373954Y108067D01*
X373915Y107975D01*
X373872Y107885D01*
X373827Y107797D01*
X373777Y107710D01*
X373725Y107626D01*
X373669Y107543D01*
X373611Y107463D01*
X373549Y107385D01*
X373484Y107310D01*
X373416Y107237D01*
X373346Y107167D01*
X373273Y107099D01*
X373198Y107034D01*
X373120Y106972D01*
X373040Y106914D01*
X372957Y106858D01*
X372873Y106806D01*
X372786Y106756D01*
X372698Y106711D01*
X372608Y106668D01*
X372516Y106629D01*
X372423Y106594D01*
X372329Y106562D01*
X372234Y106534D01*
X372138Y106509D01*
X372040Y106488D01*
X371942Y106471D01*
X371844Y106458D01*
X371745Y106449D01*
X371645Y106443D01*
X371546Y106441D01*
X371546Y106440D02*
X365054Y106440D01*
X364955Y106442D01*
X364855Y106448D01*
X364756Y106457D01*
X364658Y106470D01*
X364560Y106488D01*
X364462Y106508D01*
X364366Y106533D01*
X364270Y106561D01*
X364176Y106593D01*
X364083Y106628D01*
X363992Y106667D01*
X363902Y106710D01*
X363813Y106755D01*
X363727Y106805D01*
X363642Y106857D01*
X363560Y106913D01*
X363480Y106972D01*
X363402Y107033D01*
X363326Y107098D01*
X363253Y107166D01*
X363183Y107236D01*
X363115Y107309D01*
X363050Y107385D01*
X362989Y107463D01*
X362930Y107543D01*
X362874Y107625D01*
X362822Y107710D01*
X362773Y107796D01*
X362727Y107885D01*
X362684Y107975D01*
X362645Y108066D01*
X362610Y108159D01*
X362578Y108253D01*
X362550Y108349D01*
X362525Y108445D01*
X362505Y108543D01*
X362487Y108641D01*
X362474Y108739D01*
X362465Y108838D01*
X362459Y108937D01*
X362457Y109037D01*
X362458Y109037D02*
X362458Y111633D01*
X362458Y119568D02*
X362460Y119675D01*
X362466Y119781D01*
X362476Y119887D01*
X362489Y119993D01*
X362507Y120099D01*
X362528Y120203D01*
X362553Y120307D01*
X362582Y120410D01*
X362614Y120511D01*
X362651Y120611D01*
X362691Y120710D01*
X362734Y120808D01*
X362781Y120904D01*
X362832Y120998D01*
X362886Y121090D01*
X362943Y121180D01*
X363003Y121268D01*
X363067Y121353D01*
X363134Y121436D01*
X363204Y121517D01*
X363276Y121595D01*
X363352Y121671D01*
X363430Y121743D01*
X363511Y121813D01*
X363594Y121880D01*
X363679Y121944D01*
X363767Y122004D01*
X363857Y122061D01*
X363949Y122115D01*
X364043Y122166D01*
X364139Y122213D01*
X364237Y122256D01*
X364336Y122296D01*
X364436Y122333D01*
X364537Y122365D01*
X364640Y122394D01*
X364744Y122419D01*
X364848Y122440D01*
X364954Y122458D01*
X365060Y122471D01*
X365166Y122481D01*
X365272Y122487D01*
X365379Y122489D01*
X362458Y119568D02*
X362460Y119447D01*
X362466Y119326D01*
X362476Y119206D01*
X362489Y119085D01*
X362507Y118966D01*
X362528Y118846D01*
X362553Y118728D01*
X362582Y118611D01*
X362615Y118494D01*
X362651Y118379D01*
X362692Y118265D01*
X362735Y118152D01*
X362783Y118040D01*
X362834Y117931D01*
X362889Y117823D01*
X362947Y117716D01*
X363008Y117612D01*
X363073Y117510D01*
X363141Y117410D01*
X363212Y117312D01*
X363286Y117216D01*
X363363Y117123D01*
X363444Y117033D01*
X363527Y116945D01*
X363613Y116860D01*
X363702Y116777D01*
X363793Y116698D01*
X363887Y116621D01*
X363983Y116548D01*
X364081Y116478D01*
X364182Y116411D01*
X364285Y116347D01*
X364390Y116287D01*
X364497Y116229D01*
X364605Y116176D01*
X364715Y116126D01*
X364827Y116080D01*
X364940Y116037D01*
X365055Y115998D01*
X367651Y121515D02*
X367573Y121594D01*
X367493Y121670D01*
X367410Y121743D01*
X367324Y121813D01*
X367237Y121880D01*
X367146Y121944D01*
X367054Y122004D01*
X366960Y122062D01*
X366863Y122116D01*
X366765Y122166D01*
X366665Y122213D01*
X366564Y122257D01*
X366461Y122297D01*
X366356Y122333D01*
X366251Y122365D01*
X366144Y122394D01*
X366037Y122419D01*
X365928Y122441D01*
X365819Y122458D01*
X365710Y122472D01*
X365600Y122481D01*
X365489Y122487D01*
X365379Y122489D01*
X367651Y121516D02*
X374142Y115998D01*
X374142Y122489D01*
X369598Y127541D02*
X369598Y135331D01*
X374142Y142946D02*
X374142Y145542D01*
X374142Y142946D02*
X374140Y142847D01*
X374134Y142747D01*
X374125Y142648D01*
X374112Y142550D01*
X374095Y142452D01*
X374074Y142354D01*
X374049Y142258D01*
X374021Y142163D01*
X373989Y142069D01*
X373954Y141976D01*
X373915Y141884D01*
X373872Y141794D01*
X373827Y141706D01*
X373777Y141619D01*
X373725Y141535D01*
X373669Y141452D01*
X373611Y141372D01*
X373549Y141294D01*
X373484Y141219D01*
X373416Y141146D01*
X373346Y141076D01*
X373273Y141008D01*
X373198Y140943D01*
X373120Y140881D01*
X373040Y140823D01*
X372957Y140767D01*
X372873Y140715D01*
X372786Y140665D01*
X372698Y140620D01*
X372608Y140577D01*
X372516Y140538D01*
X372423Y140503D01*
X372329Y140471D01*
X372234Y140443D01*
X372138Y140418D01*
X372040Y140397D01*
X371942Y140380D01*
X371844Y140367D01*
X371745Y140358D01*
X371645Y140352D01*
X371546Y140350D01*
X371546Y140349D02*
X365054Y140349D01*
X364955Y140351D01*
X364855Y140357D01*
X364756Y140366D01*
X364658Y140379D01*
X364560Y140397D01*
X364462Y140417D01*
X364366Y140442D01*
X364270Y140470D01*
X364176Y140502D01*
X364083Y140537D01*
X363992Y140576D01*
X363902Y140619D01*
X363813Y140664D01*
X363727Y140714D01*
X363642Y140766D01*
X363560Y140822D01*
X363480Y140881D01*
X363402Y140942D01*
X363326Y141007D01*
X363253Y141075D01*
X363183Y141145D01*
X363115Y141218D01*
X363050Y141294D01*
X362989Y141372D01*
X362930Y141452D01*
X362874Y141534D01*
X362822Y141619D01*
X362773Y141705D01*
X362727Y141794D01*
X362684Y141884D01*
X362645Y141975D01*
X362610Y142068D01*
X362578Y142162D01*
X362550Y142258D01*
X362525Y142354D01*
X362505Y142452D01*
X362487Y142550D01*
X362474Y142648D01*
X362465Y142747D01*
X362459Y142846D01*
X362457Y142946D01*
X362458Y142946D02*
X362458Y145542D01*
X363286Y95758D02*
X360689Y95758D01*
X360590Y95760D01*
X360490Y95766D01*
X360391Y95775D01*
X360293Y95788D01*
X360195Y95805D01*
X360097Y95826D01*
X360001Y95851D01*
X359906Y95879D01*
X359812Y95911D01*
X359719Y95946D01*
X359627Y95985D01*
X359537Y96028D01*
X359449Y96073D01*
X359362Y96123D01*
X359278Y96175D01*
X359195Y96231D01*
X359115Y96289D01*
X359037Y96351D01*
X358962Y96416D01*
X358889Y96484D01*
X358819Y96554D01*
X358751Y96627D01*
X358686Y96702D01*
X358624Y96780D01*
X358566Y96860D01*
X358510Y96943D01*
X358458Y97027D01*
X358408Y97114D01*
X358363Y97202D01*
X358320Y97292D01*
X358281Y97384D01*
X358246Y97477D01*
X358214Y97571D01*
X358186Y97666D01*
X358161Y97762D01*
X358140Y97860D01*
X358123Y97958D01*
X358110Y98056D01*
X358101Y98155D01*
X358095Y98255D01*
X358093Y98354D01*
X358093Y104846D01*
X358095Y104945D01*
X358101Y105045D01*
X358110Y105144D01*
X358123Y105242D01*
X358140Y105340D01*
X358161Y105438D01*
X358186Y105534D01*
X358214Y105629D01*
X358246Y105723D01*
X358281Y105816D01*
X358320Y105908D01*
X358363Y105998D01*
X358408Y106086D01*
X358458Y106173D01*
X358510Y106257D01*
X358566Y106340D01*
X358624Y106420D01*
X358686Y106498D01*
X358751Y106573D01*
X358819Y106646D01*
X358889Y106716D01*
X358962Y106784D01*
X359037Y106849D01*
X359115Y106911D01*
X359195Y106969D01*
X359278Y107025D01*
X359362Y107077D01*
X359449Y107127D01*
X359537Y107172D01*
X359627Y107215D01*
X359719Y107254D01*
X359811Y107289D01*
X359906Y107321D01*
X360001Y107349D01*
X360097Y107374D01*
X360195Y107395D01*
X360293Y107412D01*
X360391Y107425D01*
X360490Y107434D01*
X360590Y107440D01*
X360689Y107442D01*
X363286Y107442D01*
X367651Y95758D02*
X370896Y95758D01*
X371009Y95760D01*
X371122Y95766D01*
X371235Y95776D01*
X371348Y95790D01*
X371460Y95807D01*
X371571Y95829D01*
X371681Y95854D01*
X371791Y95884D01*
X371899Y95917D01*
X372006Y95954D01*
X372112Y95994D01*
X372216Y96039D01*
X372319Y96087D01*
X372420Y96138D01*
X372519Y96193D01*
X372616Y96251D01*
X372711Y96313D01*
X372804Y96378D01*
X372894Y96446D01*
X372982Y96517D01*
X373068Y96592D01*
X373151Y96669D01*
X373231Y96749D01*
X373308Y96832D01*
X373383Y96918D01*
X373454Y97006D01*
X373522Y97096D01*
X373587Y97189D01*
X373649Y97284D01*
X373707Y97381D01*
X373762Y97480D01*
X373813Y97581D01*
X373861Y97684D01*
X373906Y97788D01*
X373946Y97894D01*
X373983Y98001D01*
X374016Y98109D01*
X374046Y98219D01*
X374071Y98329D01*
X374093Y98440D01*
X374110Y98552D01*
X374124Y98665D01*
X374134Y98778D01*
X374140Y98891D01*
X374142Y99004D01*
X374140Y99117D01*
X374134Y99230D01*
X374124Y99343D01*
X374110Y99456D01*
X374093Y99568D01*
X374071Y99679D01*
X374046Y99789D01*
X374016Y99899D01*
X373983Y100007D01*
X373946Y100114D01*
X373906Y100220D01*
X373861Y100324D01*
X373813Y100427D01*
X373762Y100528D01*
X373707Y100627D01*
X373649Y100724D01*
X373587Y100819D01*
X373522Y100912D01*
X373454Y101002D01*
X373383Y101090D01*
X373308Y101176D01*
X373231Y101259D01*
X373151Y101339D01*
X373068Y101416D01*
X372982Y101491D01*
X372894Y101562D01*
X372804Y101630D01*
X372711Y101695D01*
X372616Y101757D01*
X372519Y101815D01*
X372420Y101870D01*
X372319Y101921D01*
X372216Y101969D01*
X372112Y102014D01*
X372006Y102054D01*
X371899Y102091D01*
X371791Y102124D01*
X371681Y102154D01*
X371571Y102179D01*
X371460Y102201D01*
X371348Y102218D01*
X371235Y102232D01*
X371122Y102242D01*
X371009Y102248D01*
X370896Y102250D01*
X371546Y107442D02*
X367651Y107442D01*
X371546Y107442D02*
X371647Y107440D01*
X371747Y107434D01*
X371847Y107424D01*
X371947Y107411D01*
X372046Y107393D01*
X372145Y107372D01*
X372242Y107347D01*
X372339Y107318D01*
X372434Y107285D01*
X372528Y107249D01*
X372620Y107209D01*
X372711Y107166D01*
X372800Y107119D01*
X372887Y107069D01*
X372973Y107015D01*
X373056Y106958D01*
X373136Y106898D01*
X373215Y106835D01*
X373291Y106768D01*
X373364Y106699D01*
X373434Y106627D01*
X373502Y106553D01*
X373567Y106476D01*
X373628Y106396D01*
X373687Y106314D01*
X373742Y106230D01*
X373794Y106144D01*
X373843Y106056D01*
X373888Y105966D01*
X373930Y105874D01*
X373968Y105781D01*
X374002Y105686D01*
X374033Y105591D01*
X374060Y105494D01*
X374083Y105396D01*
X374103Y105297D01*
X374118Y105197D01*
X374130Y105097D01*
X374138Y104997D01*
X374142Y104896D01*
X374142Y104796D01*
X374138Y104695D01*
X374130Y104595D01*
X374118Y104495D01*
X374103Y104395D01*
X374083Y104296D01*
X374060Y104198D01*
X374033Y104101D01*
X374002Y104006D01*
X373968Y103911D01*
X373930Y103818D01*
X373888Y103726D01*
X373843Y103636D01*
X373794Y103548D01*
X373742Y103462D01*
X373687Y103378D01*
X373628Y103296D01*
X373567Y103216D01*
X373502Y103139D01*
X373434Y103065D01*
X373364Y102993D01*
X373291Y102924D01*
X373215Y102857D01*
X373136Y102794D01*
X373056Y102734D01*
X372973Y102677D01*
X372887Y102623D01*
X372800Y102573D01*
X372711Y102526D01*
X372620Y102483D01*
X372528Y102443D01*
X372434Y102407D01*
X372339Y102374D01*
X372242Y102345D01*
X372145Y102320D01*
X372046Y102299D01*
X371947Y102281D01*
X371847Y102268D01*
X371747Y102258D01*
X371647Y102252D01*
X371546Y102250D01*
X371546Y102249D02*
X368949Y102249D01*
D11*
X241650Y236900D02*
X248000Y243250D01*
X222600Y243250D02*
X216250Y236900D01*
X203550Y236900D01*
X197200Y243250D01*
X222600Y243250D02*
X228950Y236900D01*
X241650Y236900D01*
X171800Y243250D02*
X165450Y236900D01*
X190850Y236900D02*
X197200Y243250D01*
X190850Y236900D02*
X178150Y236900D01*
X171800Y243250D01*
X146400Y243250D02*
X140050Y236900D01*
X127350Y236900D01*
X121000Y243250D01*
X146400Y243250D02*
X152750Y236900D01*
X165450Y236900D01*
X95600Y243250D02*
X89250Y236900D01*
X114650Y236900D02*
X121000Y243250D01*
X114650Y236900D02*
X101950Y236900D01*
X95600Y243250D01*
X70200Y243250D02*
X70200Y255950D01*
X76550Y262300D01*
X76550Y236900D02*
X89250Y236900D01*
X394050Y236900D02*
X400400Y243250D01*
X394050Y236900D02*
X381350Y236900D01*
X375000Y243250D01*
X349600Y243250D02*
X343250Y236900D01*
X368650Y236900D02*
X375000Y243250D01*
X368650Y236900D02*
X355950Y236900D01*
X349600Y243250D01*
X324200Y243250D02*
X317850Y236900D01*
X305150Y236900D01*
X298800Y243250D01*
X324200Y243250D02*
X330550Y236900D01*
X343250Y236900D01*
X273400Y243250D02*
X267050Y236900D01*
X292450Y236900D02*
X298800Y243250D01*
X292450Y236900D02*
X279750Y236900D01*
X273400Y243250D01*
X254350Y236900D02*
X248000Y243250D01*
X254350Y236900D02*
X267050Y236900D01*
X241650Y287700D02*
X228950Y287700D01*
X241650Y287700D02*
X248000Y281350D01*
X203550Y287700D02*
X197200Y281350D01*
X203550Y287700D02*
X216250Y287700D01*
X222600Y281350D01*
X228950Y287700D01*
X165450Y287700D02*
X152750Y287700D01*
X165450Y287700D02*
X171800Y281350D01*
X178150Y287700D01*
X190850Y287700D01*
X197200Y281350D01*
X127350Y287700D02*
X121000Y281350D01*
X127350Y287700D02*
X140050Y287700D01*
X146400Y281350D01*
X152750Y287700D01*
X89250Y287700D02*
X76550Y287700D01*
X89250Y287700D02*
X95600Y281350D01*
X101950Y287700D01*
X114650Y287700D01*
X121000Y281350D01*
X70200Y281350D02*
X70200Y268650D01*
X76550Y262300D01*
X375000Y281350D02*
X381350Y287700D01*
X394050Y287700D01*
X400400Y281350D01*
X343250Y287700D02*
X330550Y287700D01*
X343250Y287700D02*
X349600Y281350D01*
X355950Y287700D01*
X368650Y287700D01*
X375000Y281350D01*
X305150Y287700D02*
X298800Y281350D01*
X305150Y287700D02*
X317850Y287700D01*
X324200Y281350D01*
X330550Y287700D01*
X267050Y287700D02*
X254350Y287700D01*
X267050Y287700D02*
X273400Y281350D01*
X279750Y287700D01*
X292450Y287700D01*
X298800Y281350D01*
X254350Y287700D02*
X248000Y281350D01*
X95600Y281350D02*
X95600Y243250D01*
X121000Y243250D02*
X121000Y281350D01*
X146400Y281350D02*
X146400Y243250D01*
X171800Y243250D02*
X171800Y281350D01*
X197200Y281350D02*
X197200Y243250D01*
X222600Y243250D02*
X222600Y281350D01*
X248000Y281350D02*
X248000Y243250D01*
X273400Y243250D02*
X273400Y281350D01*
X298800Y281350D02*
X298800Y243250D01*
X324200Y243250D02*
X324200Y281350D01*
X349600Y281350D02*
X349600Y243250D01*
X375000Y243250D02*
X375000Y281350D01*
X578200Y281350D02*
X578200Y268650D01*
X578200Y255950D02*
X578200Y243250D01*
X578200Y255950D02*
X571850Y262300D01*
X578200Y268650D01*
X419450Y287700D02*
X406750Y287700D01*
X419450Y287700D02*
X425800Y281350D01*
X406750Y287700D02*
X400400Y281350D01*
X552800Y281350D02*
X559150Y287700D01*
X571850Y287700D01*
X578200Y281350D01*
X521050Y287700D02*
X508350Y287700D01*
X521050Y287700D02*
X527400Y281350D01*
X533750Y287700D01*
X546450Y287700D01*
X552800Y281350D01*
X482950Y287700D02*
X476600Y281350D01*
X482950Y287700D02*
X495650Y287700D01*
X502000Y281350D01*
X508350Y287700D01*
X444850Y287700D02*
X432150Y287700D01*
X444850Y287700D02*
X451200Y281350D01*
X457550Y287700D01*
X470250Y287700D01*
X476600Y281350D01*
X432150Y287700D02*
X425800Y281350D01*
X400400Y281350D02*
X400400Y243250D01*
X425800Y243250D02*
X425800Y281350D01*
X451200Y281350D02*
X451200Y243250D01*
X476600Y243250D02*
X476600Y281350D01*
X502000Y281350D02*
X502000Y243250D01*
X527400Y243250D02*
X527400Y281350D01*
X552800Y281350D02*
X552800Y243250D01*
X559150Y236900D02*
X571850Y236900D01*
X559150Y236900D02*
X552800Y243250D01*
X571850Y236900D02*
X578200Y243250D01*
X425800Y243250D02*
X419450Y236900D01*
X406750Y236900D01*
X400400Y243250D01*
X457550Y236900D02*
X470250Y236900D01*
X457550Y236900D02*
X451200Y243250D01*
X444850Y236900D01*
X432150Y236900D01*
X425800Y243250D01*
X495650Y236900D02*
X502000Y243250D01*
X495650Y236900D02*
X482950Y236900D01*
X476600Y243250D01*
X470250Y236900D01*
X533750Y236900D02*
X546450Y236900D01*
X533750Y236900D02*
X527400Y243250D01*
X521050Y236900D01*
X508350Y236900D01*
X502000Y243250D01*
X546450Y236900D02*
X552800Y243250D01*
X76550Y236900D02*
X70200Y243250D01*
X70200Y281350D02*
X76550Y287700D01*
X74010Y233090D02*
X90520Y233090D01*
D12*
X72444Y291947D02*
X72444Y295701D01*
X72443Y291947D02*
X72441Y291882D01*
X72435Y291818D01*
X72425Y291754D01*
X72412Y291690D01*
X72394Y291628D01*
X72373Y291567D01*
X72349Y291507D01*
X72320Y291449D01*
X72288Y291392D01*
X72253Y291338D01*
X72215Y291286D01*
X72173Y291236D01*
X72129Y291189D01*
X72082Y291145D01*
X72032Y291103D01*
X71980Y291065D01*
X71926Y291030D01*
X71869Y290998D01*
X71811Y290969D01*
X71751Y290945D01*
X71690Y290924D01*
X71628Y290906D01*
X71564Y290893D01*
X71500Y290883D01*
X71436Y290877D01*
X71371Y290875D01*
X70835Y290875D01*
X75392Y294629D02*
X76732Y295701D01*
X76732Y290875D01*
X75392Y290875D02*
X78073Y290875D01*
D11*
X551900Y167000D02*
X586900Y167000D01*
X551900Y167000D02*
X551900Y159000D01*
X576900Y159000D01*
X576900Y147000D01*
X576900Y107000D02*
X576900Y95000D01*
X551900Y95000D01*
X551900Y87000D01*
X586900Y87000D01*
X626900Y107000D02*
X626900Y147000D01*
D12*
X619069Y134706D02*
X615315Y134706D01*
X619069Y134706D02*
X619134Y134704D01*
X619198Y134698D01*
X619262Y134688D01*
X619326Y134675D01*
X619388Y134657D01*
X619449Y134636D01*
X619509Y134612D01*
X619567Y134583D01*
X619624Y134551D01*
X619678Y134516D01*
X619730Y134478D01*
X619780Y134436D01*
X619827Y134392D01*
X619871Y134345D01*
X619913Y134295D01*
X619951Y134243D01*
X619986Y134189D01*
X620018Y134132D01*
X620047Y134074D01*
X620071Y134014D01*
X620092Y133953D01*
X620110Y133891D01*
X620123Y133827D01*
X620133Y133763D01*
X620139Y133699D01*
X620141Y133634D01*
X620141Y133097D01*
X615315Y139128D02*
X615317Y139196D01*
X615323Y139263D01*
X615332Y139330D01*
X615345Y139397D01*
X615362Y139462D01*
X615383Y139527D01*
X615407Y139590D01*
X615435Y139652D01*
X615466Y139712D01*
X615500Y139770D01*
X615538Y139826D01*
X615578Y139881D01*
X615622Y139932D01*
X615669Y139981D01*
X615718Y140028D01*
X615769Y140072D01*
X615824Y140112D01*
X615880Y140150D01*
X615938Y140184D01*
X615998Y140215D01*
X616060Y140243D01*
X616123Y140267D01*
X616188Y140288D01*
X616253Y140305D01*
X616320Y140318D01*
X616387Y140327D01*
X616454Y140333D01*
X616522Y140335D01*
X615315Y139128D02*
X615317Y139050D01*
X615323Y138972D01*
X615333Y138895D01*
X615346Y138818D01*
X615364Y138742D01*
X615385Y138667D01*
X615410Y138593D01*
X615439Y138521D01*
X615471Y138450D01*
X615507Y138381D01*
X615546Y138313D01*
X615589Y138248D01*
X615635Y138185D01*
X615684Y138124D01*
X615736Y138066D01*
X615791Y138011D01*
X615848Y137958D01*
X615908Y137909D01*
X615971Y137862D01*
X616036Y137819D01*
X616102Y137779D01*
X616171Y137742D01*
X616242Y137709D01*
X616314Y137679D01*
X616388Y137653D01*
X617460Y139933D02*
X617411Y139982D01*
X617359Y140029D01*
X617304Y140072D01*
X617247Y140113D01*
X617188Y140151D01*
X617127Y140185D01*
X617064Y140216D01*
X617000Y140244D01*
X616934Y140268D01*
X616868Y140288D01*
X616800Y140305D01*
X616731Y140318D01*
X616662Y140327D01*
X616592Y140333D01*
X616522Y140335D01*
X617460Y139933D02*
X620141Y137654D01*
X620141Y140335D01*
D10*
X425958Y203708D02*
X425958Y215392D01*
X425958Y203708D02*
X431151Y203708D01*
X435460Y212796D02*
X438706Y215392D01*
X438706Y203708D01*
X435460Y203708D02*
X441952Y203708D01*
X569458Y28551D02*
X581142Y28551D01*
X581142Y33743D01*
X581142Y38457D02*
X581142Y43649D01*
X581142Y38457D02*
X569458Y38457D01*
X569458Y43649D01*
X574651Y42351D02*
X574651Y38457D01*
X569458Y48340D02*
X581142Y48340D01*
X569458Y48340D02*
X569458Y51585D01*
X569460Y51698D01*
X569466Y51811D01*
X569476Y51924D01*
X569490Y52037D01*
X569507Y52149D01*
X569529Y52260D01*
X569554Y52370D01*
X569584Y52480D01*
X569617Y52588D01*
X569654Y52695D01*
X569694Y52801D01*
X569739Y52905D01*
X569787Y53008D01*
X569838Y53109D01*
X569893Y53208D01*
X569951Y53305D01*
X570013Y53400D01*
X570078Y53493D01*
X570146Y53583D01*
X570217Y53671D01*
X570292Y53757D01*
X570369Y53840D01*
X570449Y53920D01*
X570532Y53997D01*
X570618Y54072D01*
X570706Y54143D01*
X570796Y54211D01*
X570889Y54276D01*
X570984Y54338D01*
X571081Y54396D01*
X571180Y54451D01*
X571281Y54502D01*
X571384Y54550D01*
X571488Y54595D01*
X571594Y54635D01*
X571701Y54672D01*
X571809Y54705D01*
X571919Y54735D01*
X572029Y54760D01*
X572140Y54782D01*
X572252Y54799D01*
X572365Y54813D01*
X572478Y54823D01*
X572591Y54829D01*
X572704Y54831D01*
X577896Y54831D01*
X577896Y54832D02*
X578009Y54830D01*
X578122Y54824D01*
X578235Y54814D01*
X578348Y54800D01*
X578460Y54783D01*
X578571Y54761D01*
X578681Y54736D01*
X578791Y54706D01*
X578899Y54673D01*
X579006Y54636D01*
X579112Y54596D01*
X579216Y54551D01*
X579319Y54503D01*
X579420Y54452D01*
X579519Y54397D01*
X579616Y54339D01*
X579711Y54277D01*
X579804Y54212D01*
X579894Y54144D01*
X579982Y54073D01*
X580068Y53998D01*
X580151Y53921D01*
X580231Y53841D01*
X580308Y53758D01*
X580383Y53672D01*
X580454Y53584D01*
X580522Y53494D01*
X580587Y53401D01*
X580649Y53306D01*
X580707Y53209D01*
X580762Y53110D01*
X580813Y53009D01*
X580861Y52906D01*
X580906Y52802D01*
X580946Y52696D01*
X580983Y52589D01*
X581016Y52481D01*
X581046Y52371D01*
X581071Y52261D01*
X581093Y52150D01*
X581110Y52038D01*
X581124Y51925D01*
X581134Y51812D01*
X581140Y51699D01*
X581142Y51586D01*
X581142Y51585D02*
X581142Y48340D01*
X572054Y60151D02*
X569458Y63396D01*
X581142Y63396D01*
X581142Y60151D02*
X581142Y66642D01*
D13*
X566350Y59300D03*
X558850Y59300D03*
D14*
X562600Y59300D03*
D11*
X500000Y70500D02*
X494000Y70500D01*
X494000Y62500D01*
X516000Y70500D02*
X522000Y70500D01*
X522000Y62500D01*
D12*
X490855Y48492D02*
X486029Y48492D01*
X488710Y50101D01*
X486029Y51710D01*
X490855Y51710D01*
X490855Y55839D02*
X490855Y56912D01*
X490855Y55839D02*
X490853Y55774D01*
X490847Y55710D01*
X490837Y55646D01*
X490824Y55582D01*
X490806Y55520D01*
X490785Y55459D01*
X490761Y55399D01*
X490732Y55341D01*
X490700Y55284D01*
X490665Y55230D01*
X490627Y55178D01*
X490585Y55128D01*
X490541Y55081D01*
X490494Y55037D01*
X490444Y54995D01*
X490392Y54957D01*
X490338Y54922D01*
X490281Y54890D01*
X490223Y54861D01*
X490163Y54837D01*
X490102Y54816D01*
X490040Y54798D01*
X489976Y54785D01*
X489912Y54775D01*
X489848Y54769D01*
X489783Y54767D01*
X487101Y54767D01*
X487101Y54766D02*
X487036Y54768D01*
X486972Y54774D01*
X486908Y54784D01*
X486844Y54797D01*
X486782Y54815D01*
X486721Y54836D01*
X486661Y54861D01*
X486602Y54889D01*
X486546Y54921D01*
X486491Y54956D01*
X486439Y54994D01*
X486389Y55036D01*
X486342Y55080D01*
X486298Y55127D01*
X486256Y55177D01*
X486218Y55229D01*
X486183Y55284D01*
X486151Y55340D01*
X486123Y55399D01*
X486098Y55458D01*
X486077Y55520D01*
X486059Y55582D01*
X486046Y55646D01*
X486036Y55710D01*
X486030Y55774D01*
X486028Y55839D01*
X486029Y55839D02*
X486029Y56912D01*
X486029Y59697D02*
X490855Y59697D01*
X486029Y59697D02*
X486029Y61037D01*
X486031Y61108D01*
X486037Y61180D01*
X486046Y61250D01*
X486059Y61320D01*
X486076Y61390D01*
X486097Y61458D01*
X486121Y61525D01*
X486149Y61591D01*
X486180Y61655D01*
X486215Y61718D01*
X486253Y61778D01*
X486294Y61837D01*
X486338Y61893D01*
X486385Y61947D01*
X486434Y61998D01*
X486487Y62046D01*
X486542Y62092D01*
X486599Y62134D01*
X486659Y62174D01*
X486720Y62210D01*
X486784Y62243D01*
X486849Y62272D01*
X486915Y62298D01*
X486983Y62321D01*
X487052Y62340D01*
X487122Y62355D01*
X487192Y62366D01*
X487263Y62374D01*
X487334Y62378D01*
X487406Y62378D01*
X487477Y62374D01*
X487548Y62366D01*
X487618Y62355D01*
X487688Y62340D01*
X487757Y62321D01*
X487825Y62298D01*
X487891Y62272D01*
X487956Y62243D01*
X488020Y62210D01*
X488081Y62174D01*
X488141Y62134D01*
X488198Y62092D01*
X488253Y62046D01*
X488306Y61998D01*
X488355Y61947D01*
X488402Y61893D01*
X488446Y61837D01*
X488487Y61778D01*
X488525Y61718D01*
X488560Y61655D01*
X488591Y61591D01*
X488619Y61525D01*
X488643Y61458D01*
X488664Y61390D01*
X488681Y61320D01*
X488694Y61250D01*
X488703Y61180D01*
X488709Y61108D01*
X488711Y61037D01*
X488710Y61037D02*
X488710Y59697D01*
X487101Y64854D02*
X486029Y66194D01*
X490855Y66194D01*
X490855Y64854D02*
X490855Y67535D01*
X488442Y70340D02*
X488322Y70342D01*
X488202Y70347D01*
X488082Y70356D01*
X487962Y70369D01*
X487843Y70385D01*
X487724Y70405D01*
X487606Y70429D01*
X487489Y70456D01*
X487373Y70486D01*
X487258Y70520D01*
X487143Y70558D01*
X487030Y70599D01*
X486919Y70643D01*
X486808Y70691D01*
X486699Y70742D01*
X486699Y70743D02*
X486642Y70764D01*
X486586Y70790D01*
X486531Y70818D01*
X486479Y70850D01*
X486428Y70886D01*
X486380Y70924D01*
X486334Y70965D01*
X486291Y71009D01*
X486251Y71055D01*
X486214Y71104D01*
X486180Y71156D01*
X486149Y71209D01*
X486121Y71264D01*
X486097Y71320D01*
X486076Y71378D01*
X486059Y71437D01*
X486046Y71497D01*
X486037Y71558D01*
X486031Y71620D01*
X486029Y71681D01*
X486031Y71742D01*
X486037Y71804D01*
X486046Y71865D01*
X486059Y71925D01*
X486076Y71984D01*
X486097Y72042D01*
X486121Y72098D01*
X486149Y72153D01*
X486180Y72206D01*
X486214Y72258D01*
X486251Y72307D01*
X486291Y72353D01*
X486334Y72397D01*
X486380Y72438D01*
X486428Y72476D01*
X486479Y72512D01*
X486531Y72544D01*
X486586Y72572D01*
X486642Y72598D01*
X486699Y72619D01*
X486808Y72670D01*
X486919Y72718D01*
X487030Y72762D01*
X487143Y72803D01*
X487258Y72841D01*
X487373Y72875D01*
X487489Y72905D01*
X487606Y72932D01*
X487724Y72956D01*
X487843Y72976D01*
X487962Y72992D01*
X488082Y73005D01*
X488202Y73014D01*
X488322Y73019D01*
X488442Y73021D01*
X488442Y70340D02*
X488562Y70342D01*
X488682Y70347D01*
X488802Y70356D01*
X488922Y70369D01*
X489041Y70385D01*
X489160Y70405D01*
X489278Y70429D01*
X489395Y70456D01*
X489511Y70486D01*
X489626Y70520D01*
X489741Y70558D01*
X489854Y70599D01*
X489965Y70643D01*
X490076Y70691D01*
X490185Y70742D01*
X490185Y70743D02*
X490242Y70764D01*
X490298Y70790D01*
X490353Y70818D01*
X490405Y70850D01*
X490456Y70886D01*
X490504Y70924D01*
X490550Y70965D01*
X490593Y71009D01*
X490633Y71055D01*
X490670Y71104D01*
X490704Y71156D01*
X490735Y71209D01*
X490763Y71264D01*
X490787Y71320D01*
X490808Y71378D01*
X490825Y71437D01*
X490838Y71497D01*
X490847Y71558D01*
X490853Y71620D01*
X490855Y71681D01*
X490185Y72619D02*
X490076Y72670D01*
X489965Y72718D01*
X489854Y72762D01*
X489741Y72803D01*
X489626Y72841D01*
X489511Y72875D01*
X489395Y72905D01*
X489278Y72932D01*
X489160Y72956D01*
X489041Y72976D01*
X488922Y72992D01*
X488802Y73005D01*
X488682Y73014D01*
X488562Y73019D01*
X488442Y73021D01*
X490185Y72619D02*
X490242Y72598D01*
X490298Y72572D01*
X490353Y72544D01*
X490405Y72512D01*
X490456Y72476D01*
X490504Y72438D01*
X490550Y72397D01*
X490593Y72353D01*
X490633Y72306D01*
X490670Y72258D01*
X490704Y72206D01*
X490735Y72153D01*
X490763Y72098D01*
X490787Y72042D01*
X490808Y71984D01*
X490825Y71925D01*
X490838Y71865D01*
X490847Y71804D01*
X490853Y71742D01*
X490855Y71681D01*
X489783Y70608D02*
X487101Y72753D01*
X488442Y75827D02*
X488322Y75829D01*
X488202Y75834D01*
X488082Y75843D01*
X487962Y75856D01*
X487843Y75872D01*
X487724Y75892D01*
X487606Y75916D01*
X487489Y75943D01*
X487373Y75973D01*
X487258Y76007D01*
X487143Y76045D01*
X487030Y76086D01*
X486919Y76130D01*
X486808Y76178D01*
X486699Y76229D01*
X486642Y76250D01*
X486586Y76276D01*
X486531Y76304D01*
X486479Y76336D01*
X486428Y76372D01*
X486380Y76410D01*
X486334Y76451D01*
X486291Y76495D01*
X486251Y76541D01*
X486214Y76590D01*
X486180Y76642D01*
X486149Y76695D01*
X486121Y76750D01*
X486097Y76806D01*
X486076Y76864D01*
X486059Y76923D01*
X486046Y76983D01*
X486037Y77044D01*
X486031Y77106D01*
X486029Y77167D01*
X486031Y77228D01*
X486037Y77290D01*
X486046Y77351D01*
X486059Y77411D01*
X486076Y77470D01*
X486097Y77528D01*
X486121Y77584D01*
X486149Y77639D01*
X486180Y77692D01*
X486214Y77744D01*
X486251Y77793D01*
X486291Y77839D01*
X486334Y77883D01*
X486380Y77924D01*
X486428Y77962D01*
X486479Y77998D01*
X486531Y78030D01*
X486586Y78058D01*
X486642Y78084D01*
X486699Y78105D01*
X486808Y78156D01*
X486919Y78204D01*
X487030Y78248D01*
X487143Y78289D01*
X487258Y78327D01*
X487373Y78361D01*
X487489Y78391D01*
X487606Y78418D01*
X487724Y78442D01*
X487843Y78462D01*
X487962Y78478D01*
X488082Y78491D01*
X488202Y78500D01*
X488322Y78505D01*
X488442Y78507D01*
X488442Y75827D02*
X488562Y75829D01*
X488682Y75834D01*
X488802Y75843D01*
X488922Y75856D01*
X489041Y75872D01*
X489160Y75892D01*
X489278Y75916D01*
X489395Y75943D01*
X489511Y75973D01*
X489626Y76007D01*
X489741Y76045D01*
X489854Y76086D01*
X489965Y76130D01*
X490076Y76178D01*
X490185Y76229D01*
X490242Y76250D01*
X490298Y76276D01*
X490353Y76304D01*
X490405Y76336D01*
X490456Y76372D01*
X490504Y76410D01*
X490550Y76451D01*
X490593Y76495D01*
X490633Y76541D01*
X490670Y76590D01*
X490704Y76642D01*
X490735Y76695D01*
X490763Y76750D01*
X490787Y76806D01*
X490808Y76864D01*
X490825Y76923D01*
X490838Y76983D01*
X490847Y77044D01*
X490853Y77106D01*
X490855Y77167D01*
X490185Y78105D02*
X490076Y78156D01*
X489965Y78204D01*
X489854Y78248D01*
X489741Y78289D01*
X489626Y78327D01*
X489511Y78361D01*
X489395Y78391D01*
X489278Y78418D01*
X489160Y78442D01*
X489041Y78462D01*
X488922Y78478D01*
X488802Y78491D01*
X488682Y78500D01*
X488562Y78505D01*
X488442Y78507D01*
X490185Y78105D02*
X490242Y78084D01*
X490298Y78058D01*
X490353Y78030D01*
X490405Y77998D01*
X490456Y77962D01*
X490504Y77924D01*
X490550Y77883D01*
X490593Y77839D01*
X490633Y77792D01*
X490670Y77744D01*
X490704Y77692D01*
X490735Y77639D01*
X490763Y77584D01*
X490787Y77528D01*
X490808Y77470D01*
X490825Y77411D01*
X490838Y77351D01*
X490847Y77290D01*
X490853Y77228D01*
X490855Y77167D01*
X489783Y76095D02*
X487101Y78240D01*
X106680Y190500D02*
X50800Y190500D01*
X50800Y38100D02*
X106680Y38100D01*
X106680Y190500D01*
X50800Y50800D02*
X50800Y38100D01*
X50800Y50800D02*
X50800Y177800D01*
X50800Y190500D01*
X50800Y177800D02*
X63500Y177800D01*
X63500Y50800D01*
X50800Y50800D01*
D11*
X88900Y171450D02*
X88900Y184150D01*
D12*
X109855Y98880D02*
X114681Y98880D01*
X112536Y100488D02*
X109855Y98880D01*
X112536Y100488D02*
X109855Y102097D01*
X114681Y102097D01*
X114681Y105512D02*
X109855Y105512D01*
X109855Y106853D01*
X109857Y106924D01*
X109863Y106996D01*
X109872Y107066D01*
X109885Y107136D01*
X109902Y107206D01*
X109923Y107274D01*
X109947Y107341D01*
X109975Y107407D01*
X110006Y107471D01*
X110041Y107534D01*
X110079Y107594D01*
X110120Y107653D01*
X110164Y107709D01*
X110211Y107763D01*
X110260Y107814D01*
X110313Y107862D01*
X110368Y107908D01*
X110425Y107950D01*
X110485Y107990D01*
X110546Y108026D01*
X110610Y108059D01*
X110675Y108088D01*
X110741Y108114D01*
X110809Y108137D01*
X110878Y108156D01*
X110948Y108171D01*
X111018Y108182D01*
X111089Y108190D01*
X111160Y108194D01*
X111232Y108194D01*
X111303Y108190D01*
X111374Y108182D01*
X111444Y108171D01*
X111514Y108156D01*
X111583Y108137D01*
X111651Y108114D01*
X111717Y108088D01*
X111782Y108059D01*
X111846Y108026D01*
X111907Y107990D01*
X111967Y107950D01*
X112024Y107908D01*
X112079Y107862D01*
X112132Y107814D01*
X112181Y107763D01*
X112228Y107709D01*
X112272Y107653D01*
X112313Y107594D01*
X112351Y107534D01*
X112386Y107471D01*
X112417Y107407D01*
X112445Y107341D01*
X112469Y107274D01*
X112490Y107206D01*
X112507Y107136D01*
X112520Y107066D01*
X112529Y106996D01*
X112535Y106924D01*
X112537Y106853D01*
X112536Y106853D02*
X112536Y105512D01*
X113340Y110852D02*
X109855Y110852D01*
X113340Y110852D02*
X113411Y110854D01*
X113483Y110860D01*
X113553Y110869D01*
X113623Y110882D01*
X113693Y110899D01*
X113761Y110920D01*
X113828Y110944D01*
X113894Y110972D01*
X113958Y111003D01*
X114021Y111038D01*
X114081Y111076D01*
X114140Y111117D01*
X114196Y111161D01*
X114250Y111208D01*
X114301Y111257D01*
X114349Y111310D01*
X114395Y111365D01*
X114437Y111422D01*
X114477Y111482D01*
X114513Y111543D01*
X114546Y111607D01*
X114575Y111672D01*
X114601Y111738D01*
X114624Y111806D01*
X114643Y111875D01*
X114658Y111945D01*
X114669Y112015D01*
X114677Y112086D01*
X114681Y112157D01*
X114681Y112229D01*
X114677Y112300D01*
X114669Y112371D01*
X114658Y112441D01*
X114643Y112511D01*
X114624Y112580D01*
X114601Y112648D01*
X114575Y112714D01*
X114546Y112779D01*
X114513Y112843D01*
X114477Y112904D01*
X114437Y112964D01*
X114395Y113021D01*
X114349Y113076D01*
X114301Y113129D01*
X114250Y113178D01*
X114196Y113225D01*
X114140Y113269D01*
X114081Y113310D01*
X114021Y113348D01*
X113958Y113383D01*
X113894Y113414D01*
X113828Y113442D01*
X113761Y113466D01*
X113693Y113487D01*
X113623Y113504D01*
X113553Y113517D01*
X113483Y113526D01*
X113411Y113532D01*
X113340Y113534D01*
X113340Y113533D02*
X109855Y113533D01*
X112536Y117594D02*
X112536Y119202D01*
X112536Y117594D02*
X112534Y117529D01*
X112528Y117465D01*
X112518Y117401D01*
X112505Y117337D01*
X112487Y117275D01*
X112466Y117214D01*
X112442Y117154D01*
X112413Y117096D01*
X112381Y117039D01*
X112346Y116985D01*
X112308Y116933D01*
X112266Y116883D01*
X112222Y116836D01*
X112175Y116792D01*
X112125Y116750D01*
X112073Y116712D01*
X112019Y116677D01*
X111962Y116645D01*
X111904Y116616D01*
X111844Y116592D01*
X111783Y116571D01*
X111721Y116553D01*
X111657Y116540D01*
X111593Y116530D01*
X111529Y116524D01*
X111464Y116522D01*
X111464Y116521D02*
X111196Y116521D01*
X111125Y116523D01*
X111053Y116529D01*
X110983Y116538D01*
X110913Y116551D01*
X110843Y116568D01*
X110775Y116589D01*
X110708Y116613D01*
X110642Y116641D01*
X110578Y116672D01*
X110515Y116707D01*
X110455Y116745D01*
X110396Y116786D01*
X110340Y116830D01*
X110286Y116877D01*
X110235Y116926D01*
X110187Y116979D01*
X110141Y117034D01*
X110099Y117091D01*
X110059Y117151D01*
X110023Y117212D01*
X109990Y117276D01*
X109961Y117341D01*
X109935Y117407D01*
X109912Y117475D01*
X109893Y117544D01*
X109878Y117614D01*
X109867Y117684D01*
X109859Y117755D01*
X109855Y117826D01*
X109855Y117898D01*
X109859Y117969D01*
X109867Y118040D01*
X109878Y118110D01*
X109893Y118180D01*
X109912Y118249D01*
X109935Y118317D01*
X109961Y118383D01*
X109990Y118448D01*
X110023Y118512D01*
X110059Y118573D01*
X110099Y118633D01*
X110141Y118690D01*
X110187Y118745D01*
X110235Y118798D01*
X110286Y118847D01*
X110340Y118894D01*
X110396Y118938D01*
X110455Y118979D01*
X110515Y119017D01*
X110578Y119052D01*
X110642Y119083D01*
X110708Y119111D01*
X110775Y119135D01*
X110843Y119156D01*
X110913Y119173D01*
X110983Y119186D01*
X111053Y119195D01*
X111125Y119201D01*
X111196Y119203D01*
X111196Y119202D02*
X112536Y119202D01*
X112627Y119200D01*
X112718Y119194D01*
X112808Y119185D01*
X112899Y119171D01*
X112988Y119154D01*
X113076Y119133D01*
X113164Y119108D01*
X113251Y119079D01*
X113336Y119047D01*
X113420Y119012D01*
X113502Y118972D01*
X113582Y118930D01*
X113661Y118884D01*
X113737Y118834D01*
X113811Y118782D01*
X113884Y118726D01*
X113953Y118667D01*
X114020Y118606D01*
X114085Y118541D01*
X114146Y118474D01*
X114205Y118405D01*
X114261Y118332D01*
X114313Y118258D01*
X114363Y118182D01*
X114409Y118103D01*
X114451Y118023D01*
X114491Y117941D01*
X114526Y117857D01*
X114558Y117772D01*
X114587Y117685D01*
X114612Y117597D01*
X114633Y117509D01*
X114650Y117420D01*
X114664Y117329D01*
X114673Y117239D01*
X114679Y117148D01*
X114681Y117057D01*
X109855Y123482D02*
X109857Y123550D01*
X109863Y123617D01*
X109872Y123684D01*
X109885Y123751D01*
X109902Y123816D01*
X109923Y123881D01*
X109947Y123944D01*
X109975Y124006D01*
X110006Y124066D01*
X110040Y124124D01*
X110078Y124180D01*
X110118Y124235D01*
X110162Y124286D01*
X110209Y124335D01*
X110258Y124382D01*
X110309Y124426D01*
X110364Y124466D01*
X110420Y124504D01*
X110478Y124538D01*
X110538Y124569D01*
X110600Y124597D01*
X110663Y124621D01*
X110728Y124642D01*
X110793Y124659D01*
X110860Y124672D01*
X110927Y124681D01*
X110994Y124687D01*
X111062Y124689D01*
X109855Y123482D02*
X109857Y123404D01*
X109863Y123326D01*
X109873Y123249D01*
X109886Y123172D01*
X109904Y123096D01*
X109925Y123021D01*
X109950Y122947D01*
X109979Y122875D01*
X110011Y122804D01*
X110047Y122735D01*
X110086Y122667D01*
X110129Y122602D01*
X110175Y122539D01*
X110224Y122478D01*
X110276Y122420D01*
X110331Y122365D01*
X110388Y122312D01*
X110448Y122263D01*
X110511Y122216D01*
X110576Y122173D01*
X110642Y122133D01*
X110711Y122096D01*
X110782Y122063D01*
X110854Y122033D01*
X110928Y122007D01*
X112000Y124287D02*
X111951Y124336D01*
X111899Y124383D01*
X111844Y124426D01*
X111787Y124467D01*
X111728Y124505D01*
X111667Y124539D01*
X111604Y124570D01*
X111540Y124598D01*
X111474Y124622D01*
X111408Y124642D01*
X111340Y124659D01*
X111271Y124672D01*
X111202Y124681D01*
X111132Y124687D01*
X111062Y124689D01*
X112000Y124287D02*
X114681Y122008D01*
X114681Y124689D01*
X114681Y127494D02*
X114681Y129103D01*
X114679Y129168D01*
X114673Y129232D01*
X114663Y129296D01*
X114650Y129360D01*
X114632Y129422D01*
X114611Y129483D01*
X114587Y129543D01*
X114558Y129601D01*
X114526Y129658D01*
X114491Y129712D01*
X114453Y129764D01*
X114411Y129814D01*
X114367Y129861D01*
X114320Y129905D01*
X114270Y129947D01*
X114218Y129985D01*
X114164Y130020D01*
X114107Y130052D01*
X114049Y130081D01*
X113989Y130105D01*
X113928Y130126D01*
X113866Y130144D01*
X113802Y130157D01*
X113738Y130167D01*
X113674Y130173D01*
X113609Y130175D01*
X113072Y130175D01*
X113007Y130173D01*
X112943Y130167D01*
X112879Y130157D01*
X112815Y130144D01*
X112753Y130126D01*
X112692Y130105D01*
X112632Y130081D01*
X112574Y130052D01*
X112517Y130020D01*
X112463Y129985D01*
X112411Y129947D01*
X112361Y129905D01*
X112314Y129861D01*
X112270Y129814D01*
X112228Y129764D01*
X112190Y129712D01*
X112155Y129658D01*
X112123Y129601D01*
X112094Y129543D01*
X112070Y129483D01*
X112049Y129422D01*
X112031Y129360D01*
X112018Y129296D01*
X112008Y129232D01*
X112002Y129168D01*
X112000Y129103D01*
X112000Y127494D01*
X109855Y127494D01*
X109855Y130175D01*
X364248Y186055D02*
X364248Y190881D01*
X365589Y190881D01*
X365660Y190879D01*
X365732Y190873D01*
X365802Y190864D01*
X365872Y190851D01*
X365942Y190834D01*
X366010Y190813D01*
X366077Y190789D01*
X366143Y190761D01*
X366207Y190730D01*
X366270Y190695D01*
X366330Y190657D01*
X366389Y190616D01*
X366445Y190572D01*
X366499Y190525D01*
X366550Y190476D01*
X366598Y190423D01*
X366644Y190368D01*
X366686Y190311D01*
X366726Y190251D01*
X366762Y190190D01*
X366795Y190126D01*
X366824Y190061D01*
X366850Y189995D01*
X366873Y189927D01*
X366892Y189858D01*
X366907Y189788D01*
X366918Y189718D01*
X366926Y189647D01*
X366930Y189576D01*
X366930Y189504D01*
X366926Y189433D01*
X366918Y189362D01*
X366907Y189292D01*
X366892Y189222D01*
X366873Y189153D01*
X366850Y189085D01*
X366824Y189019D01*
X366795Y188954D01*
X366762Y188890D01*
X366726Y188829D01*
X366686Y188769D01*
X366644Y188712D01*
X366598Y188657D01*
X366550Y188604D01*
X366499Y188555D01*
X366445Y188508D01*
X366389Y188464D01*
X366330Y188423D01*
X366270Y188385D01*
X366207Y188350D01*
X366143Y188319D01*
X366077Y188291D01*
X366010Y188267D01*
X365942Y188246D01*
X365872Y188229D01*
X365802Y188216D01*
X365732Y188207D01*
X365660Y188201D01*
X365589Y188199D01*
X365589Y188200D02*
X364248Y188200D01*
X365857Y188200D02*
X366929Y186055D01*
X369671Y186055D02*
X371011Y186055D01*
X371082Y186057D01*
X371154Y186063D01*
X371224Y186072D01*
X371294Y186085D01*
X371364Y186102D01*
X371432Y186123D01*
X371499Y186147D01*
X371565Y186175D01*
X371629Y186206D01*
X371692Y186241D01*
X371752Y186279D01*
X371811Y186320D01*
X371867Y186364D01*
X371921Y186411D01*
X371972Y186460D01*
X372020Y186513D01*
X372066Y186568D01*
X372108Y186625D01*
X372148Y186685D01*
X372184Y186746D01*
X372217Y186810D01*
X372246Y186875D01*
X372272Y186941D01*
X372295Y187009D01*
X372314Y187078D01*
X372329Y187148D01*
X372340Y187218D01*
X372348Y187289D01*
X372352Y187360D01*
X372352Y187432D01*
X372348Y187503D01*
X372340Y187574D01*
X372329Y187644D01*
X372314Y187714D01*
X372295Y187783D01*
X372272Y187851D01*
X372246Y187917D01*
X372217Y187982D01*
X372184Y188046D01*
X372148Y188107D01*
X372108Y188167D01*
X372066Y188224D01*
X372020Y188279D01*
X371972Y188332D01*
X371921Y188381D01*
X371867Y188428D01*
X371811Y188472D01*
X371752Y188513D01*
X371692Y188551D01*
X371629Y188586D01*
X371565Y188617D01*
X371499Y188645D01*
X371432Y188669D01*
X371364Y188690D01*
X371294Y188707D01*
X371224Y188720D01*
X371154Y188729D01*
X371082Y188735D01*
X371011Y188737D01*
X371279Y190881D02*
X369671Y190881D01*
X371279Y190881D02*
X371344Y190879D01*
X371408Y190873D01*
X371472Y190863D01*
X371536Y190850D01*
X371598Y190832D01*
X371659Y190811D01*
X371719Y190787D01*
X371777Y190758D01*
X371834Y190726D01*
X371888Y190691D01*
X371940Y190653D01*
X371990Y190611D01*
X372037Y190567D01*
X372081Y190520D01*
X372123Y190470D01*
X372161Y190418D01*
X372196Y190364D01*
X372228Y190307D01*
X372257Y190249D01*
X372281Y190189D01*
X372302Y190128D01*
X372320Y190066D01*
X372333Y190002D01*
X372343Y189938D01*
X372349Y189874D01*
X372351Y189809D01*
X372349Y189744D01*
X372343Y189680D01*
X372333Y189616D01*
X372320Y189552D01*
X372302Y189490D01*
X372281Y189429D01*
X372257Y189369D01*
X372228Y189311D01*
X372196Y189254D01*
X372161Y189200D01*
X372123Y189148D01*
X372081Y189098D01*
X372037Y189051D01*
X371990Y189007D01*
X371940Y188965D01*
X371888Y188927D01*
X371834Y188892D01*
X371777Y188860D01*
X371719Y188831D01*
X371659Y188807D01*
X371598Y188786D01*
X371536Y188768D01*
X371472Y188755D01*
X371408Y188745D01*
X371344Y188739D01*
X371279Y188737D01*
X371279Y188736D02*
X370207Y188736D01*
X503948Y38481D02*
X503948Y33655D01*
X503948Y38481D02*
X505289Y38481D01*
X505360Y38479D01*
X505432Y38473D01*
X505502Y38464D01*
X505572Y38451D01*
X505642Y38434D01*
X505710Y38413D01*
X505777Y38389D01*
X505843Y38361D01*
X505907Y38330D01*
X505970Y38295D01*
X506030Y38257D01*
X506089Y38216D01*
X506145Y38172D01*
X506199Y38125D01*
X506250Y38076D01*
X506298Y38023D01*
X506344Y37968D01*
X506386Y37911D01*
X506426Y37851D01*
X506462Y37790D01*
X506495Y37726D01*
X506524Y37661D01*
X506550Y37595D01*
X506573Y37527D01*
X506592Y37458D01*
X506607Y37388D01*
X506618Y37318D01*
X506626Y37247D01*
X506630Y37176D01*
X506630Y37104D01*
X506626Y37033D01*
X506618Y36962D01*
X506607Y36892D01*
X506592Y36822D01*
X506573Y36753D01*
X506550Y36685D01*
X506524Y36619D01*
X506495Y36554D01*
X506462Y36490D01*
X506426Y36429D01*
X506386Y36369D01*
X506344Y36312D01*
X506298Y36257D01*
X506250Y36204D01*
X506199Y36155D01*
X506145Y36108D01*
X506089Y36064D01*
X506030Y36023D01*
X505970Y35985D01*
X505907Y35950D01*
X505843Y35919D01*
X505777Y35891D01*
X505710Y35867D01*
X505642Y35846D01*
X505572Y35829D01*
X505502Y35816D01*
X505432Y35807D01*
X505360Y35801D01*
X505289Y35799D01*
X505289Y35800D02*
X503948Y35800D01*
X505557Y35800D02*
X506629Y33655D01*
X509371Y34727D02*
X510443Y38481D01*
X509371Y34727D02*
X512052Y34727D01*
X511248Y35800D02*
X511248Y33655D01*
D11*
X177800Y31750D02*
X171450Y25400D01*
X158750Y25400D01*
X152400Y31750D01*
X152400Y44450D02*
X158750Y50800D01*
X171450Y50800D01*
X177800Y44450D01*
X209550Y25400D02*
X222250Y25400D01*
X209550Y25400D02*
X203200Y31750D01*
X203200Y44450D02*
X209550Y50800D01*
X203200Y31750D02*
X196850Y25400D01*
X184150Y25400D01*
X177800Y31750D01*
X177800Y44450D02*
X184150Y50800D01*
X196850Y50800D01*
X203200Y44450D01*
X228600Y44450D02*
X228600Y31750D01*
X222250Y25400D01*
X228600Y44450D02*
X222250Y50800D01*
X209550Y50800D01*
X152400Y44450D02*
X152400Y31750D01*
D12*
X205679Y18669D02*
X205744Y18671D01*
X205808Y18677D01*
X205872Y18687D01*
X205936Y18700D01*
X205998Y18718D01*
X206059Y18739D01*
X206119Y18763D01*
X206177Y18792D01*
X206234Y18824D01*
X206288Y18859D01*
X206340Y18897D01*
X206390Y18939D01*
X206437Y18983D01*
X206481Y19030D01*
X206523Y19080D01*
X206561Y19132D01*
X206596Y19186D01*
X206628Y19243D01*
X206657Y19301D01*
X206681Y19361D01*
X206702Y19422D01*
X206720Y19484D01*
X206733Y19548D01*
X206743Y19612D01*
X206749Y19676D01*
X206751Y19741D01*
X205679Y18669D02*
X205585Y18671D01*
X205491Y18677D01*
X205397Y18687D01*
X205304Y18700D01*
X205212Y18718D01*
X205120Y18739D01*
X205029Y18764D01*
X204939Y18793D01*
X204851Y18826D01*
X204764Y18862D01*
X204679Y18902D01*
X204595Y18945D01*
X204514Y18992D01*
X204434Y19042D01*
X204356Y19095D01*
X204281Y19152D01*
X204208Y19211D01*
X204138Y19274D01*
X204070Y19339D01*
X204204Y22423D02*
X204206Y22488D01*
X204212Y22552D01*
X204222Y22616D01*
X204235Y22680D01*
X204253Y22742D01*
X204274Y22803D01*
X204298Y22863D01*
X204327Y22921D01*
X204359Y22978D01*
X204394Y23032D01*
X204432Y23084D01*
X204474Y23134D01*
X204518Y23181D01*
X204565Y23225D01*
X204615Y23267D01*
X204667Y23305D01*
X204721Y23340D01*
X204778Y23372D01*
X204836Y23401D01*
X204896Y23425D01*
X204957Y23446D01*
X205019Y23464D01*
X205083Y23477D01*
X205147Y23487D01*
X205211Y23493D01*
X205276Y23495D01*
X205362Y23493D01*
X205448Y23488D01*
X205534Y23478D01*
X205619Y23465D01*
X205704Y23449D01*
X205788Y23429D01*
X205871Y23405D01*
X205953Y23378D01*
X206033Y23347D01*
X206113Y23313D01*
X206190Y23275D01*
X206266Y23234D01*
X206340Y23190D01*
X206412Y23143D01*
X206483Y23093D01*
X204740Y21485D02*
X204687Y21518D01*
X204636Y21555D01*
X204587Y21594D01*
X204540Y21636D01*
X204496Y21681D01*
X204455Y21728D01*
X204416Y21777D01*
X204380Y21829D01*
X204347Y21883D01*
X204318Y21938D01*
X204292Y21995D01*
X204269Y22054D01*
X204249Y22113D01*
X204233Y22174D01*
X204220Y22235D01*
X204211Y22298D01*
X204206Y22360D01*
X204204Y22423D01*
X206215Y20679D02*
X206268Y20646D01*
X206319Y20609D01*
X206368Y20570D01*
X206415Y20528D01*
X206459Y20483D01*
X206500Y20436D01*
X206539Y20387D01*
X206575Y20335D01*
X206608Y20281D01*
X206637Y20226D01*
X206663Y20169D01*
X206686Y20110D01*
X206706Y20051D01*
X206722Y19990D01*
X206735Y19929D01*
X206744Y19866D01*
X206749Y19804D01*
X206751Y19741D01*
X206215Y20680D02*
X204740Y21484D01*
X209576Y18669D02*
X211721Y18669D01*
X209576Y18669D02*
X209576Y23495D01*
X211721Y23495D01*
X211185Y21350D02*
X209576Y21350D01*
X214375Y23495D02*
X214375Y18669D01*
X214375Y23495D02*
X215715Y23495D01*
X215786Y23493D01*
X215858Y23487D01*
X215928Y23478D01*
X215998Y23465D01*
X216068Y23448D01*
X216136Y23427D01*
X216203Y23403D01*
X216269Y23375D01*
X216333Y23344D01*
X216396Y23309D01*
X216456Y23271D01*
X216515Y23230D01*
X216571Y23186D01*
X216625Y23139D01*
X216676Y23090D01*
X216724Y23037D01*
X216770Y22982D01*
X216812Y22925D01*
X216852Y22865D01*
X216888Y22804D01*
X216921Y22740D01*
X216950Y22675D01*
X216976Y22609D01*
X216999Y22541D01*
X217018Y22472D01*
X217033Y22402D01*
X217044Y22332D01*
X217052Y22261D01*
X217056Y22190D01*
X217056Y22118D01*
X217052Y22047D01*
X217044Y21976D01*
X217033Y21906D01*
X217018Y21836D01*
X216999Y21767D01*
X216976Y21699D01*
X216950Y21633D01*
X216921Y21568D01*
X216888Y21504D01*
X216852Y21443D01*
X216812Y21383D01*
X216770Y21326D01*
X216724Y21271D01*
X216676Y21218D01*
X216625Y21169D01*
X216571Y21122D01*
X216515Y21078D01*
X216456Y21037D01*
X216396Y20999D01*
X216333Y20964D01*
X216269Y20933D01*
X216203Y20905D01*
X216136Y20881D01*
X216068Y20860D01*
X215998Y20843D01*
X215928Y20830D01*
X215858Y20821D01*
X215786Y20815D01*
X215715Y20813D01*
X215715Y20814D02*
X214375Y20814D01*
X215984Y20814D02*
X217056Y18669D01*
X221138Y18669D02*
X219529Y23495D01*
X222747Y23495D02*
X221138Y18669D01*
X225284Y20010D02*
X225284Y22154D01*
X225283Y22154D02*
X225285Y22225D01*
X225291Y22297D01*
X225300Y22367D01*
X225313Y22437D01*
X225330Y22507D01*
X225351Y22575D01*
X225375Y22642D01*
X225403Y22708D01*
X225434Y22772D01*
X225469Y22835D01*
X225507Y22895D01*
X225548Y22954D01*
X225592Y23010D01*
X225639Y23064D01*
X225688Y23115D01*
X225741Y23163D01*
X225796Y23209D01*
X225853Y23251D01*
X225913Y23291D01*
X225974Y23327D01*
X226038Y23360D01*
X226103Y23389D01*
X226169Y23415D01*
X226237Y23438D01*
X226306Y23457D01*
X226376Y23472D01*
X226446Y23483D01*
X226517Y23491D01*
X226588Y23495D01*
X226660Y23495D01*
X226731Y23491D01*
X226802Y23483D01*
X226872Y23472D01*
X226942Y23457D01*
X227011Y23438D01*
X227079Y23415D01*
X227145Y23389D01*
X227210Y23360D01*
X227274Y23327D01*
X227335Y23291D01*
X227395Y23251D01*
X227452Y23209D01*
X227507Y23163D01*
X227560Y23115D01*
X227609Y23064D01*
X227656Y23010D01*
X227700Y22954D01*
X227741Y22895D01*
X227779Y22835D01*
X227814Y22772D01*
X227845Y22708D01*
X227873Y22642D01*
X227897Y22575D01*
X227918Y22507D01*
X227935Y22437D01*
X227948Y22367D01*
X227957Y22297D01*
X227963Y22225D01*
X227965Y22154D01*
X227965Y20010D01*
X227963Y19939D01*
X227957Y19867D01*
X227948Y19797D01*
X227935Y19727D01*
X227918Y19657D01*
X227897Y19589D01*
X227873Y19522D01*
X227845Y19456D01*
X227814Y19392D01*
X227779Y19329D01*
X227741Y19269D01*
X227700Y19210D01*
X227656Y19154D01*
X227609Y19100D01*
X227560Y19049D01*
X227507Y19001D01*
X227452Y18955D01*
X227395Y18913D01*
X227335Y18873D01*
X227274Y18837D01*
X227210Y18804D01*
X227145Y18775D01*
X227079Y18749D01*
X227011Y18726D01*
X226942Y18707D01*
X226872Y18692D01*
X226802Y18681D01*
X226731Y18673D01*
X226660Y18669D01*
X226588Y18669D01*
X226517Y18673D01*
X226446Y18681D01*
X226376Y18692D01*
X226306Y18707D01*
X226237Y18726D01*
X226169Y18749D01*
X226103Y18775D01*
X226038Y18804D01*
X225974Y18837D01*
X225913Y18873D01*
X225853Y18913D01*
X225796Y18955D01*
X225741Y19001D01*
X225688Y19049D01*
X225639Y19100D01*
X225592Y19154D01*
X225548Y19210D01*
X225507Y19269D01*
X225469Y19329D01*
X225434Y19392D01*
X225403Y19456D01*
X225375Y19522D01*
X225351Y19589D01*
X225330Y19657D01*
X225313Y19727D01*
X225300Y19797D01*
X225291Y19867D01*
X225285Y19939D01*
X225283Y20010D01*
X421400Y112000D02*
X421400Y142000D01*
X391400Y142000D02*
X391400Y112000D01*
D15*
X424278Y142778D02*
X427030Y142778D01*
X427094Y142780D01*
X427158Y142786D01*
X427221Y142795D01*
X427283Y142809D01*
X427345Y142826D01*
X427405Y142847D01*
X427464Y142871D01*
X427522Y142899D01*
X427577Y142931D01*
X427631Y142965D01*
X427682Y143003D01*
X427732Y143044D01*
X427778Y143088D01*
X427822Y143134D01*
X427863Y143184D01*
X427901Y143235D01*
X427935Y143289D01*
X427967Y143344D01*
X427995Y143402D01*
X428019Y143461D01*
X428040Y143521D01*
X428057Y143583D01*
X428071Y143645D01*
X428080Y143708D01*
X428086Y143772D01*
X428088Y143836D01*
X428086Y143900D01*
X428080Y143964D01*
X428071Y144027D01*
X428057Y144089D01*
X428040Y144151D01*
X428019Y144211D01*
X427995Y144270D01*
X427967Y144328D01*
X427935Y144383D01*
X427901Y144437D01*
X427863Y144488D01*
X427822Y144538D01*
X427778Y144584D01*
X427732Y144628D01*
X427682Y144669D01*
X427631Y144707D01*
X427577Y144741D01*
X427522Y144773D01*
X427464Y144801D01*
X427405Y144825D01*
X427345Y144846D01*
X427283Y144863D01*
X427221Y144877D01*
X427158Y144886D01*
X427094Y144892D01*
X427030Y144894D01*
X427030Y144895D02*
X424278Y144895D01*
X425125Y146558D02*
X424278Y147616D01*
X428088Y147616D01*
X428088Y146558D02*
X428088Y148674D01*
D16*
X416400Y150750D03*
M02*
