G04 EAGLE Gerber X2 export*
%TF.Part,Single*%
%TF.FileFunction,Soldermask,Bot,1*%
%TF.FilePolarity,Negative*%
%TF.GenerationSoftware,Autodesk,EAGLE,9.1.0*%
%TF.CreationDate,2019-04-25T21:03:21Z*%
G75*
%MOMM*%
%FSLAX34Y34*%
%LPD*%
%AMOC8*
5,1,8,0,0,1.08239X$1,22.5*%
G01*
%ADD10C,3.203200*%
%ADD11C,2.082800*%
%ADD12C,0.911200*%
%ADD13C,0.959600*%


D10*
X35000Y262000D03*
X615000Y262000D03*
X615000Y35000D03*
X35000Y35000D03*
D11*
X82900Y249600D03*
X108300Y249600D03*
X133700Y249600D03*
X159100Y249600D03*
X184500Y249600D03*
X209900Y249600D03*
X235300Y249600D03*
X260700Y249600D03*
X286100Y249600D03*
X311500Y249600D03*
X336900Y249600D03*
X362300Y249600D03*
X387700Y249600D03*
X387700Y275000D03*
X362300Y275000D03*
X336900Y275000D03*
X311500Y275000D03*
X286100Y275000D03*
X260700Y275000D03*
X235300Y275000D03*
X209900Y275000D03*
X184500Y275000D03*
X159100Y275000D03*
X133700Y275000D03*
X108300Y275000D03*
X82900Y275000D03*
X413100Y249600D03*
X413100Y275000D03*
X438500Y249600D03*
X438500Y275000D03*
X463900Y249600D03*
X463900Y275000D03*
X489300Y249600D03*
X489300Y275000D03*
X514700Y249600D03*
X514700Y275000D03*
X540100Y249600D03*
X540100Y275000D03*
X565500Y249600D03*
X565500Y275000D03*
X76200Y177800D03*
X76200Y152400D03*
X76200Y127000D03*
X76200Y101600D03*
X76200Y76200D03*
X76200Y50800D03*
X215900Y38100D03*
X190500Y38100D03*
X165100Y38100D03*
D12*
X406400Y127000D03*
X413900Y122000D03*
X413900Y132000D03*
X398900Y132000D03*
X398900Y122000D03*
D13*
X330000Y162500D03*
X527500Y60000D03*
X532500Y107500D03*
X146000Y201000D03*
X153000Y179000D03*
X284000Y202000D03*
X527000Y187000D03*
X609000Y203000D03*
X521000Y149000D03*
X384000Y204000D03*
X464000Y33000D03*
X207000Y213000D03*
X289000Y98000D03*
X153000Y135000D03*
X152000Y97000D03*
X133000Y28000D03*
X298000Y25000D03*
X372000Y87000D03*
X422000Y92000D03*
X31000Y207000D03*
X82000Y212000D03*
X33000Y100000D03*
X457000Y130000D03*
X406000Y131000D03*
M02*
