G04 EAGLE Gerber RS-274X export*
G75*
%MOMM*%
%FSLAX34Y34*%
%LPD*%
%AMOC8*
5,1,8,0,0,1.08239X$1,22.5*%
G01*
%ADD10C,3.203200*%
%ADD11R,1.203200X1.303200*%
%ADD12R,1.303200X1.203200*%
%ADD13C,2.082800*%
%ADD14R,2.203200X2.603200*%
%ADD15R,1.003200X1.003200*%
%ADD16R,1.003200X1.103200*%
%ADD17C,0.342766*%
%ADD18R,2.353200X1.803200*%
%ADD19C,0.911200*%
%ADD20R,4.803200X1.203200*%
%ADD21R,3.603200X1.803200*%


D10*
X35000Y262000D03*
X615000Y262000D03*
X615000Y35000D03*
X35000Y35000D03*
D11*
X444500Y105800D03*
X444500Y122800D03*
X330200Y148200D03*
X330200Y131200D03*
X381000Y148200D03*
X381000Y131200D03*
X355600Y148200D03*
X355600Y131200D03*
D12*
X376800Y114300D03*
X359800Y114300D03*
D13*
X82900Y249600D03*
X108300Y249600D03*
X133700Y249600D03*
X159100Y249600D03*
X184500Y249600D03*
X209900Y249600D03*
X235300Y249600D03*
X260700Y249600D03*
X286100Y249600D03*
X311500Y249600D03*
X336900Y249600D03*
X362300Y249600D03*
X387700Y249600D03*
X387700Y275000D03*
X362300Y275000D03*
X336900Y275000D03*
X311500Y275000D03*
X286100Y275000D03*
X260700Y275000D03*
X235300Y275000D03*
X209900Y275000D03*
X184500Y275000D03*
X159100Y275000D03*
X133700Y275000D03*
X108300Y275000D03*
X82900Y275000D03*
X413100Y249600D03*
X413100Y275000D03*
X438500Y249600D03*
X438500Y275000D03*
X463900Y249600D03*
X463900Y275000D03*
X489300Y249600D03*
X489300Y275000D03*
X514700Y249600D03*
X514700Y275000D03*
X540100Y249600D03*
X540100Y275000D03*
X565500Y249600D03*
X565500Y275000D03*
D14*
X425500Y177800D03*
X463500Y177800D03*
D15*
X542600Y33300D03*
X542600Y48300D03*
D16*
X474500Y61500D03*
X493500Y61500D03*
X484000Y82500D03*
D13*
X76200Y177800D03*
X76200Y152400D03*
X76200Y127000D03*
X76200Y101600D03*
X76200Y76200D03*
X76200Y50800D03*
D12*
X359800Y177800D03*
X376800Y177800D03*
X479500Y31400D03*
X496500Y31400D03*
D13*
X215900Y38100D03*
X190500Y38100D03*
X165100Y38100D03*
D17*
X415798Y137748D02*
X415798Y143952D01*
X417002Y143952D01*
X417002Y137748D01*
X415798Y137748D01*
X415798Y141005D02*
X417002Y141005D01*
X410798Y143952D02*
X410798Y137748D01*
X410798Y143952D02*
X412002Y143952D01*
X412002Y137748D01*
X410798Y137748D01*
X410798Y141005D02*
X412002Y141005D01*
X405798Y143952D02*
X405798Y137748D01*
X405798Y143952D02*
X407002Y143952D01*
X407002Y137748D01*
X405798Y137748D01*
X405798Y141005D02*
X407002Y141005D01*
X400798Y143952D02*
X400798Y137748D01*
X400798Y143952D02*
X402002Y143952D01*
X402002Y137748D01*
X400798Y137748D01*
X400798Y141005D02*
X402002Y141005D01*
X395798Y143952D02*
X395798Y137748D01*
X395798Y143952D02*
X397002Y143952D01*
X397002Y137748D01*
X395798Y137748D01*
X395798Y141005D02*
X397002Y141005D01*
X397002Y116252D02*
X397002Y110048D01*
X395798Y110048D01*
X395798Y116252D01*
X397002Y116252D01*
X397002Y113305D02*
X395798Y113305D01*
X402002Y116252D02*
X402002Y110048D01*
X400798Y110048D01*
X400798Y116252D01*
X402002Y116252D01*
X402002Y113305D02*
X400798Y113305D01*
X407002Y116252D02*
X407002Y110048D01*
X405798Y110048D01*
X405798Y116252D01*
X407002Y116252D01*
X407002Y113305D02*
X405798Y113305D01*
X412002Y116252D02*
X412002Y110048D01*
X410798Y110048D01*
X410798Y116252D01*
X412002Y116252D01*
X412002Y113305D02*
X410798Y113305D01*
X417002Y116252D02*
X417002Y110048D01*
X415798Y110048D01*
X415798Y116252D01*
X417002Y116252D01*
X417002Y113305D02*
X415798Y113305D01*
D18*
X406400Y127000D03*
D19*
X406400Y127000D03*
X413900Y122000D03*
X413900Y132000D03*
X398900Y132000D03*
X398900Y122000D03*
D20*
X568000Y159000D03*
X568000Y139000D03*
D21*
X620000Y183000D03*
X620000Y115000D03*
D13*
X515000Y142222D03*
X515000Y171178D03*
D15*
X373634Y26282D03*
X373634Y41282D03*
D11*
X419354Y24520D03*
X419354Y41520D03*
M02*
