G04 EAGLE Gerber RS-274X export*
G75*
%MOMM*%
%FSLAX34Y34*%
%LPD*%
%AMOC8*
5,1,8,0,0,1.08239X$1,22.5*%
G01*
%ADD10C,0.130000*%
%ADD11C,0.152400*%
%ADD12R,1.500000X1.300000*%
%ADD13R,0.900000X0.700000*%
%ADD14C,1.850000*%
%ADD15R,1.000000X1.400000*%
%ADD16R,2.200000X0.600000*%
%ADD17R,1.000000X4.600000*%
%ADD18R,1.600000X3.400000*%
%ADD19R,0.800000X0.900000*%
%ADD20R,1.000000X1.100000*%
%ADD21R,1.100000X1.000000*%
%ADD22C,1.800000*%
%ADD23P,2.336880X8X22.500000*%
%ADD24C,0.756400*%

G36*
X11495Y555462D02*
X11495Y555462D01*
X11641Y555468D01*
X11654Y555471D01*
X11667Y555472D01*
X11805Y555517D01*
X11945Y555559D01*
X11957Y555566D01*
X11969Y555570D01*
X12093Y555648D01*
X12217Y555724D01*
X12227Y555733D01*
X12238Y555740D01*
X12338Y555847D01*
X12440Y555951D01*
X12450Y555966D01*
X12456Y555972D01*
X12464Y555987D01*
X12529Y556085D01*
X12566Y556149D01*
X17251Y560834D01*
X22988Y564146D01*
X29388Y565861D01*
X34731Y565861D01*
X34800Y565869D01*
X34870Y565868D01*
X34958Y565889D01*
X35047Y565901D01*
X35112Y565926D01*
X35180Y565943D01*
X35259Y565985D01*
X35342Y566018D01*
X35399Y566059D01*
X35461Y566091D01*
X35527Y566152D01*
X35600Y566204D01*
X35644Y566258D01*
X35696Y566305D01*
X35745Y566380D01*
X35803Y566449D01*
X35832Y566513D01*
X35871Y566571D01*
X35900Y566656D01*
X35938Y566737D01*
X35951Y566806D01*
X35974Y566872D01*
X35981Y566961D01*
X35998Y567049D01*
X35994Y567119D01*
X35999Y567189D01*
X35984Y567277D01*
X35978Y567367D01*
X35957Y567433D01*
X35945Y567502D01*
X35908Y567584D01*
X35880Y567669D01*
X35843Y567728D01*
X35814Y567792D01*
X35758Y567862D01*
X35710Y567938D01*
X35659Y567986D01*
X35616Y568040D01*
X35544Y568095D01*
X35478Y568156D01*
X35417Y568190D01*
X35361Y568232D01*
X35217Y568303D01*
X31563Y569816D01*
X28316Y573063D01*
X26559Y577304D01*
X26559Y581896D01*
X28316Y586137D01*
X31563Y589384D01*
X35804Y591141D01*
X40396Y591141D01*
X44637Y589384D01*
X47884Y586137D01*
X49729Y581682D01*
X49744Y581657D01*
X49753Y581629D01*
X49822Y581519D01*
X49887Y581406D01*
X49907Y581385D01*
X49923Y581360D01*
X50017Y581271D01*
X50108Y581178D01*
X50133Y581162D01*
X50155Y581142D01*
X50268Y581079D01*
X50379Y581011D01*
X50407Y581003D01*
X50433Y580988D01*
X50559Y580956D01*
X50683Y580918D01*
X50712Y580916D01*
X50741Y580909D01*
X50902Y580899D01*
X51660Y580899D01*
X71100Y561458D01*
X71179Y561398D01*
X71251Y561330D01*
X71304Y561301D01*
X71352Y561264D01*
X71443Y561224D01*
X71529Y561176D01*
X71588Y561161D01*
X71643Y561137D01*
X71741Y561122D01*
X71837Y561097D01*
X71937Y561091D01*
X71958Y561087D01*
X71970Y561089D01*
X71998Y561087D01*
X149490Y561087D01*
X149608Y561102D01*
X149727Y561109D01*
X149765Y561122D01*
X149806Y561127D01*
X149916Y561170D01*
X150029Y561207D01*
X150064Y561229D01*
X150101Y561244D01*
X150197Y561313D01*
X150298Y561377D01*
X150326Y561407D01*
X150359Y561430D01*
X150435Y561522D01*
X150516Y561609D01*
X150536Y561644D01*
X150561Y561675D01*
X150612Y561783D01*
X150670Y561887D01*
X150680Y561927D01*
X150697Y561963D01*
X150719Y562080D01*
X150749Y562195D01*
X150753Y562255D01*
X150757Y562275D01*
X150755Y562296D01*
X150759Y562356D01*
X150759Y565852D01*
X152248Y567341D01*
X156444Y567341D01*
X156582Y567358D01*
X156721Y567371D01*
X156740Y567378D01*
X156760Y567381D01*
X156889Y567432D01*
X157020Y567479D01*
X157037Y567490D01*
X157055Y567498D01*
X157168Y567579D01*
X157283Y567657D01*
X157296Y567673D01*
X157313Y567684D01*
X157402Y567792D01*
X157494Y567896D01*
X157503Y567914D01*
X157516Y567929D01*
X157575Y568055D01*
X157638Y568179D01*
X157643Y568199D01*
X157651Y568217D01*
X157677Y568353D01*
X157708Y568489D01*
X157707Y568510D01*
X157711Y568529D01*
X157702Y568668D01*
X157698Y568807D01*
X157692Y568827D01*
X157691Y568847D01*
X157648Y568979D01*
X157610Y569113D01*
X157599Y569130D01*
X157593Y569149D01*
X157519Y569267D01*
X157448Y569387D01*
X157430Y569408D01*
X157423Y569418D01*
X157408Y569432D01*
X157342Y569507D01*
X61488Y665362D01*
X61409Y665422D01*
X61337Y665490D01*
X61284Y665519D01*
X61236Y665556D01*
X61145Y665596D01*
X61059Y665644D01*
X61000Y665659D01*
X60945Y665683D01*
X60847Y665698D01*
X60751Y665723D01*
X60651Y665729D01*
X60630Y665733D01*
X60618Y665731D01*
X60590Y665733D01*
X51972Y665733D01*
X47772Y669934D01*
X47693Y669994D01*
X47621Y670062D01*
X47568Y670091D01*
X47520Y670128D01*
X47429Y670168D01*
X47343Y670216D01*
X47284Y670231D01*
X47229Y670255D01*
X47131Y670270D01*
X47035Y670295D01*
X46935Y670301D01*
X46914Y670305D01*
X46902Y670303D01*
X46874Y670305D01*
X45652Y670305D01*
X45554Y670293D01*
X45455Y670290D01*
X45397Y670273D01*
X45337Y670265D01*
X45244Y670229D01*
X45149Y670201D01*
X45097Y670171D01*
X45041Y670148D01*
X44961Y670090D01*
X44875Y670040D01*
X44800Y669974D01*
X44784Y669962D01*
X44776Y669952D01*
X44755Y669934D01*
X44637Y669816D01*
X40396Y668059D01*
X35804Y668059D01*
X31563Y669816D01*
X28316Y673063D01*
X26559Y677304D01*
X26559Y681896D01*
X28316Y686137D01*
X31563Y689384D01*
X35804Y691141D01*
X40396Y691141D01*
X44637Y689384D01*
X47884Y686137D01*
X49641Y681896D01*
X49641Y677932D01*
X49653Y677834D01*
X49656Y677735D01*
X49673Y677676D01*
X49681Y677616D01*
X49717Y677524D01*
X49745Y677429D01*
X49775Y677377D01*
X49798Y677321D01*
X49856Y677240D01*
X49906Y677155D01*
X49972Y677080D01*
X49984Y677063D01*
X49994Y677055D01*
X50012Y677034D01*
X52442Y674604D01*
X54336Y672710D01*
X54415Y672650D01*
X54487Y672582D01*
X54540Y672553D01*
X54588Y672516D01*
X54679Y672476D01*
X54765Y672428D01*
X54824Y672413D01*
X54879Y672389D01*
X54977Y672374D01*
X55073Y672349D01*
X55173Y672343D01*
X55194Y672339D01*
X55206Y672341D01*
X55234Y672339D01*
X63852Y672339D01*
X66158Y670032D01*
X158093Y578098D01*
X158202Y578013D01*
X158309Y577924D01*
X158328Y577916D01*
X158344Y577903D01*
X158472Y577848D01*
X158597Y577789D01*
X158617Y577785D01*
X158636Y577777D01*
X158774Y577755D01*
X158910Y577729D01*
X158930Y577730D01*
X158950Y577727D01*
X159089Y577740D01*
X159227Y577749D01*
X159246Y577755D01*
X159266Y577757D01*
X159398Y577804D01*
X159529Y577847D01*
X159547Y577858D01*
X159566Y577865D01*
X159681Y577943D01*
X159798Y578017D01*
X159812Y578032D01*
X159829Y578043D01*
X159921Y578147D01*
X160016Y578249D01*
X160026Y578266D01*
X160039Y578282D01*
X160103Y578405D01*
X160170Y578527D01*
X160175Y578547D01*
X160184Y578565D01*
X160214Y578701D01*
X160249Y578835D01*
X160251Y578863D01*
X160254Y578875D01*
X160253Y578896D01*
X160259Y578996D01*
X160259Y587852D01*
X161748Y589341D01*
X163068Y589341D01*
X163186Y589356D01*
X163305Y589363D01*
X163343Y589376D01*
X163384Y589381D01*
X163494Y589424D01*
X163607Y589461D01*
X163642Y589483D01*
X163679Y589498D01*
X163775Y589567D01*
X163876Y589631D01*
X163904Y589661D01*
X163937Y589684D01*
X164013Y589776D01*
X164094Y589863D01*
X164114Y589898D01*
X164139Y589929D01*
X164190Y590037D01*
X164248Y590141D01*
X164258Y590181D01*
X164275Y590217D01*
X164297Y590334D01*
X164327Y590449D01*
X164331Y590509D01*
X164335Y590529D01*
X164333Y590550D01*
X164337Y590610D01*
X164337Y592680D01*
X173110Y601452D01*
X173170Y601531D01*
X173238Y601603D01*
X173267Y601656D01*
X173304Y601704D01*
X173344Y601795D01*
X173392Y601881D01*
X173407Y601940D01*
X173431Y601995D01*
X173446Y602093D01*
X173471Y602189D01*
X173477Y602289D01*
X173481Y602310D01*
X173479Y602322D01*
X173481Y602350D01*
X173481Y604490D01*
X173466Y604608D01*
X173459Y604727D01*
X173446Y604765D01*
X173441Y604806D01*
X173398Y604916D01*
X173361Y605029D01*
X173339Y605064D01*
X173324Y605101D01*
X173255Y605197D01*
X173191Y605298D01*
X173161Y605326D01*
X173138Y605359D01*
X173046Y605435D01*
X172959Y605516D01*
X172924Y605536D01*
X172893Y605561D01*
X172785Y605612D01*
X172681Y605670D01*
X172641Y605680D01*
X172605Y605697D01*
X172488Y605719D01*
X172373Y605749D01*
X172313Y605753D01*
X172293Y605757D01*
X172272Y605755D01*
X172212Y605759D01*
X171748Y605759D01*
X170259Y607248D01*
X170259Y620352D01*
X171309Y621402D01*
X171382Y621497D01*
X171461Y621586D01*
X171480Y621622D01*
X171504Y621654D01*
X171552Y621763D01*
X171606Y621869D01*
X171615Y621908D01*
X171631Y621946D01*
X171649Y622063D01*
X171675Y622179D01*
X171674Y622220D01*
X171680Y622260D01*
X171669Y622378D01*
X171666Y622497D01*
X171654Y622536D01*
X171651Y622576D01*
X171610Y622689D01*
X171577Y622803D01*
X171557Y622837D01*
X171543Y622876D01*
X171476Y622974D01*
X171416Y623077D01*
X171376Y623122D01*
X171364Y623139D01*
X171349Y623152D01*
X171309Y623197D01*
X170259Y624248D01*
X170259Y627888D01*
X170244Y628006D01*
X170237Y628125D01*
X170224Y628163D01*
X170219Y628204D01*
X170176Y628314D01*
X170139Y628427D01*
X170117Y628462D01*
X170102Y628499D01*
X170033Y628595D01*
X169969Y628696D01*
X169939Y628724D01*
X169916Y628757D01*
X169824Y628833D01*
X169737Y628914D01*
X169702Y628934D01*
X169671Y628959D01*
X169563Y629010D01*
X169459Y629068D01*
X169419Y629078D01*
X169383Y629095D01*
X169266Y629117D01*
X169151Y629147D01*
X169091Y629151D01*
X169071Y629155D01*
X169050Y629153D01*
X168990Y629157D01*
X112932Y629157D01*
X68325Y673764D01*
X68325Y703895D01*
X68310Y704013D01*
X68303Y704132D01*
X68290Y704170D01*
X68285Y704211D01*
X68242Y704321D01*
X68205Y704434D01*
X68183Y704469D01*
X68168Y704506D01*
X68099Y704602D01*
X68035Y704703D01*
X68005Y704731D01*
X67982Y704764D01*
X67890Y704840D01*
X67803Y704921D01*
X67768Y704941D01*
X67737Y704966D01*
X67629Y705017D01*
X67525Y705075D01*
X67485Y705085D01*
X67449Y705102D01*
X67332Y705124D01*
X67217Y705154D01*
X67157Y705158D01*
X67137Y705162D01*
X67116Y705160D01*
X67056Y705164D01*
X65276Y705164D01*
X57464Y712976D01*
X57464Y724024D01*
X65276Y731836D01*
X76324Y731836D01*
X84136Y724024D01*
X84136Y712976D01*
X76324Y705164D01*
X76200Y705164D01*
X76082Y705149D01*
X75963Y705142D01*
X75925Y705129D01*
X75884Y705124D01*
X75774Y705081D01*
X75661Y705044D01*
X75626Y705022D01*
X75589Y705007D01*
X75493Y704938D01*
X75392Y704874D01*
X75364Y704844D01*
X75331Y704821D01*
X75255Y704729D01*
X75174Y704642D01*
X75154Y704607D01*
X75129Y704576D01*
X75078Y704468D01*
X75020Y704364D01*
X75010Y704324D01*
X74993Y704288D01*
X74971Y704171D01*
X74941Y704056D01*
X74937Y703996D01*
X74933Y703976D01*
X74935Y703955D01*
X74931Y703895D01*
X74931Y677026D01*
X74943Y676928D01*
X74946Y676829D01*
X74963Y676770D01*
X74971Y676710D01*
X75007Y676618D01*
X75035Y676523D01*
X75065Y676471D01*
X75088Y676415D01*
X75146Y676335D01*
X75196Y676249D01*
X75262Y676174D01*
X75274Y676157D01*
X75284Y676149D01*
X75302Y676128D01*
X115296Y636134D01*
X115375Y636074D01*
X115447Y636006D01*
X115500Y635977D01*
X115548Y635940D01*
X115639Y635900D01*
X115725Y635852D01*
X115784Y635837D01*
X115839Y635813D01*
X115937Y635798D01*
X116033Y635773D01*
X116133Y635767D01*
X116154Y635763D01*
X116166Y635765D01*
X116194Y635763D01*
X168990Y635763D01*
X169108Y635778D01*
X169227Y635785D01*
X169265Y635798D01*
X169306Y635803D01*
X169416Y635846D01*
X169529Y635883D01*
X169564Y635905D01*
X169601Y635920D01*
X169697Y635989D01*
X169798Y636053D01*
X169826Y636083D01*
X169859Y636106D01*
X169935Y636198D01*
X170016Y636285D01*
X170036Y636320D01*
X170061Y636351D01*
X170112Y636459D01*
X170170Y636563D01*
X170180Y636603D01*
X170197Y636639D01*
X170219Y636756D01*
X170249Y636871D01*
X170253Y636931D01*
X170257Y636951D01*
X170255Y636972D01*
X170259Y637032D01*
X170259Y637352D01*
X171748Y638841D01*
X183852Y638841D01*
X185341Y637352D01*
X185341Y636560D01*
X185358Y636422D01*
X185371Y636283D01*
X185378Y636264D01*
X185381Y636244D01*
X185432Y636115D01*
X185479Y635984D01*
X185490Y635967D01*
X185498Y635949D01*
X185579Y635836D01*
X185657Y635721D01*
X185673Y635708D01*
X185684Y635691D01*
X185792Y635602D01*
X185896Y635510D01*
X185914Y635501D01*
X185929Y635488D01*
X186055Y635429D01*
X186179Y635366D01*
X186199Y635361D01*
X186217Y635353D01*
X186353Y635327D01*
X186489Y635296D01*
X186510Y635297D01*
X186529Y635293D01*
X186668Y635302D01*
X186807Y635306D01*
X186827Y635312D01*
X186847Y635313D01*
X186979Y635356D01*
X187113Y635394D01*
X187130Y635405D01*
X187149Y635411D01*
X187267Y635485D01*
X187387Y635556D01*
X187408Y635574D01*
X187418Y635581D01*
X187432Y635596D01*
X187507Y635662D01*
X226450Y674604D01*
X226510Y674683D01*
X226578Y674755D01*
X226607Y674808D01*
X226644Y674856D01*
X226684Y674947D01*
X226732Y675033D01*
X226747Y675092D01*
X226771Y675147D01*
X226786Y675245D01*
X226811Y675341D01*
X226817Y675441D01*
X226821Y675462D01*
X226819Y675474D01*
X226821Y675502D01*
X226821Y681072D01*
X233328Y687579D01*
X236190Y687579D01*
X236308Y687594D01*
X236427Y687601D01*
X236465Y687614D01*
X236506Y687619D01*
X236616Y687662D01*
X236729Y687699D01*
X236764Y687721D01*
X236801Y687736D01*
X236897Y687805D01*
X236998Y687869D01*
X237026Y687899D01*
X237059Y687922D01*
X237135Y688014D01*
X237216Y688101D01*
X237236Y688136D01*
X237261Y688167D01*
X237312Y688275D01*
X237370Y688379D01*
X237380Y688419D01*
X237397Y688455D01*
X237419Y688572D01*
X237449Y688687D01*
X237453Y688747D01*
X237457Y688767D01*
X237455Y688788D01*
X237459Y688848D01*
X237459Y691852D01*
X238948Y693341D01*
X252052Y693341D01*
X253103Y692291D01*
X253197Y692218D01*
X253286Y692139D01*
X253322Y692121D01*
X253354Y692096D01*
X253463Y692048D01*
X253569Y691994D01*
X253608Y691985D01*
X253646Y691969D01*
X253763Y691951D01*
X253879Y691925D01*
X253920Y691926D01*
X253960Y691920D01*
X254078Y691931D01*
X254197Y691934D01*
X254236Y691946D01*
X254276Y691949D01*
X254388Y691990D01*
X254503Y692023D01*
X254538Y692043D01*
X254576Y692057D01*
X254674Y692124D01*
X254777Y692184D01*
X254822Y692224D01*
X254839Y692236D01*
X254852Y692251D01*
X254898Y692291D01*
X255948Y693341D01*
X257556Y693341D01*
X257674Y693356D01*
X257793Y693363D01*
X257831Y693376D01*
X257872Y693381D01*
X257982Y693424D01*
X258095Y693461D01*
X258130Y693483D01*
X258167Y693498D01*
X258263Y693567D01*
X258364Y693631D01*
X258392Y693661D01*
X258425Y693684D01*
X258501Y693776D01*
X258582Y693863D01*
X258602Y693898D01*
X258627Y693929D01*
X258678Y694037D01*
X258736Y694141D01*
X258746Y694181D01*
X258763Y694217D01*
X258785Y694334D01*
X258815Y694449D01*
X258819Y694509D01*
X258823Y694529D01*
X258821Y694550D01*
X258825Y694610D01*
X258825Y698190D01*
X258810Y698308D01*
X258803Y698427D01*
X258790Y698465D01*
X258785Y698506D01*
X258742Y698616D01*
X258705Y698729D01*
X258683Y698764D01*
X258668Y698801D01*
X258599Y698897D01*
X258535Y698998D01*
X258505Y699026D01*
X258482Y699059D01*
X258390Y699135D01*
X258303Y699216D01*
X258268Y699236D01*
X258237Y699261D01*
X258129Y699312D01*
X258053Y699354D01*
X256459Y700948D01*
X256459Y749052D01*
X257948Y750541D01*
X270052Y750541D01*
X271541Y749052D01*
X271541Y700948D01*
X270052Y699459D01*
X266700Y699459D01*
X266582Y699444D01*
X266463Y699437D01*
X266425Y699424D01*
X266384Y699419D01*
X266274Y699376D01*
X266161Y699339D01*
X266126Y699317D01*
X266089Y699302D01*
X265993Y699233D01*
X265892Y699169D01*
X265864Y699139D01*
X265831Y699116D01*
X265755Y699024D01*
X265674Y698937D01*
X265654Y698902D01*
X265629Y698871D01*
X265578Y698763D01*
X265520Y698659D01*
X265510Y698619D01*
X265493Y698583D01*
X265471Y698466D01*
X265441Y698351D01*
X265437Y698291D01*
X265433Y698271D01*
X265435Y698250D01*
X265431Y698190D01*
X265431Y694610D01*
X265446Y694492D01*
X265453Y694373D01*
X265466Y694335D01*
X265471Y694294D01*
X265514Y694184D01*
X265551Y694071D01*
X265573Y694036D01*
X265588Y693999D01*
X265657Y693903D01*
X265721Y693802D01*
X265751Y693774D01*
X265774Y693741D01*
X265866Y693665D01*
X265953Y693584D01*
X265988Y693564D01*
X266019Y693539D01*
X266127Y693488D01*
X266231Y693430D01*
X266271Y693420D01*
X266307Y693403D01*
X266424Y693381D01*
X266539Y693351D01*
X266599Y693347D01*
X266619Y693343D01*
X266640Y693345D01*
X266700Y693341D01*
X269052Y693341D01*
X270541Y691852D01*
X270541Y679748D01*
X270307Y679514D01*
X270234Y679420D01*
X270156Y679331D01*
X270137Y679295D01*
X270113Y679263D01*
X270065Y679154D01*
X270011Y679048D01*
X270002Y679008D01*
X269986Y678971D01*
X269967Y678853D01*
X269941Y678737D01*
X269943Y678697D01*
X269936Y678657D01*
X269947Y678539D01*
X269951Y678420D01*
X269962Y678381D01*
X269966Y678341D01*
X270006Y678228D01*
X270040Y678114D01*
X270060Y678079D01*
X270074Y678041D01*
X270140Y677943D01*
X270201Y677840D01*
X270241Y677795D01*
X270252Y677778D01*
X270268Y677765D01*
X270307Y677719D01*
X279888Y668138D01*
X279967Y668078D01*
X280039Y668010D01*
X280092Y667981D01*
X280140Y667944D01*
X280231Y667904D01*
X280317Y667856D01*
X280376Y667841D01*
X280431Y667817D01*
X280529Y667802D01*
X280625Y667777D01*
X280725Y667771D01*
X280746Y667767D01*
X280758Y667769D01*
X280786Y667767D01*
X334090Y667767D01*
X334208Y667782D01*
X334327Y667789D01*
X334365Y667802D01*
X334406Y667807D01*
X334516Y667850D01*
X334629Y667887D01*
X334664Y667909D01*
X334701Y667924D01*
X334797Y667993D01*
X334898Y668057D01*
X334926Y668087D01*
X334959Y668110D01*
X335035Y668202D01*
X335116Y668289D01*
X335136Y668324D01*
X335161Y668355D01*
X335212Y668463D01*
X335270Y668567D01*
X335280Y668607D01*
X335297Y668643D01*
X335319Y668760D01*
X335349Y668875D01*
X335353Y668935D01*
X335357Y668955D01*
X335355Y668976D01*
X335359Y669036D01*
X335359Y671152D01*
X336409Y672203D01*
X336482Y672297D01*
X336561Y672386D01*
X336579Y672422D01*
X336604Y672454D01*
X336652Y672563D01*
X336706Y672669D01*
X336715Y672708D01*
X336731Y672746D01*
X336749Y672863D01*
X336775Y672979D01*
X336774Y673020D01*
X336780Y673060D01*
X336769Y673178D01*
X336766Y673297D01*
X336754Y673336D01*
X336751Y673376D01*
X336710Y673488D01*
X336677Y673603D01*
X336657Y673638D01*
X336643Y673676D01*
X336576Y673774D01*
X336516Y673877D01*
X336476Y673922D01*
X336464Y673939D01*
X336449Y673952D01*
X336409Y673998D01*
X335359Y675048D01*
X335359Y688152D01*
X336848Y689641D01*
X348952Y689641D01*
X349736Y688857D01*
X349760Y688839D01*
X349779Y688816D01*
X349886Y688741D01*
X349988Y688662D01*
X350015Y688650D01*
X350039Y688633D01*
X350160Y688587D01*
X350280Y688535D01*
X350309Y688531D01*
X350336Y688520D01*
X350465Y688506D01*
X350594Y688486D01*
X350623Y688488D01*
X350652Y688485D01*
X350781Y688503D01*
X350910Y688515D01*
X350938Y688525D01*
X350967Y688529D01*
X351120Y688582D01*
X351214Y688621D01*
X351258Y688645D01*
X351304Y688662D01*
X351395Y688724D01*
X351491Y688778D01*
X351526Y688813D01*
X351568Y688841D01*
X351640Y688923D01*
X351719Y689000D01*
X351745Y689042D01*
X351778Y689079D01*
X351828Y689177D01*
X351885Y689271D01*
X351900Y689318D01*
X351923Y689363D01*
X351947Y689470D01*
X351979Y689575D01*
X351981Y689624D01*
X351992Y689673D01*
X351989Y689783D01*
X351994Y689892D01*
X351984Y689941D01*
X351983Y689991D01*
X351952Y690096D01*
X351930Y690204D01*
X351908Y690248D01*
X351894Y690296D01*
X351839Y690391D01*
X351790Y690489D01*
X351758Y690527D01*
X351733Y690570D01*
X351626Y690691D01*
X343428Y698890D01*
X343230Y699088D01*
X343151Y699148D01*
X343079Y699216D01*
X343026Y699245D01*
X342978Y699282D01*
X342887Y699322D01*
X342801Y699370D01*
X342742Y699385D01*
X342687Y699409D01*
X342589Y699424D01*
X342493Y699449D01*
X342393Y699455D01*
X342372Y699459D01*
X342360Y699457D01*
X342332Y699459D01*
X339548Y699459D01*
X338059Y700948D01*
X338059Y725068D01*
X338047Y725166D01*
X338044Y725265D01*
X338027Y725324D01*
X338019Y725384D01*
X337983Y725476D01*
X337955Y725571D01*
X337925Y725623D01*
X337902Y725679D01*
X337844Y725759D01*
X337794Y725845D01*
X337728Y725920D01*
X337716Y725937D01*
X337706Y725945D01*
X337688Y725966D01*
X334284Y729370D01*
X334205Y729430D01*
X334133Y729498D01*
X334080Y729527D01*
X334032Y729564D01*
X333941Y729604D01*
X333855Y729652D01*
X333796Y729667D01*
X333741Y729691D01*
X333643Y729706D01*
X333547Y729731D01*
X333447Y729737D01*
X333426Y729741D01*
X333414Y729739D01*
X333386Y729741D01*
X295812Y729741D01*
X271800Y753754D01*
X271721Y753814D01*
X271649Y753882D01*
X271596Y753911D01*
X271548Y753948D01*
X271457Y753988D01*
X271371Y754036D01*
X271312Y754051D01*
X271257Y754075D01*
X271159Y754090D01*
X271063Y754115D01*
X270963Y754121D01*
X270942Y754125D01*
X270930Y754123D01*
X270902Y754125D01*
X250306Y754125D01*
X250208Y754113D01*
X250109Y754110D01*
X250050Y754093D01*
X249990Y754085D01*
X249898Y754049D01*
X249803Y754021D01*
X249751Y753991D01*
X249695Y753968D01*
X249615Y753910D01*
X249529Y753860D01*
X249454Y753794D01*
X249437Y753782D01*
X249429Y753772D01*
X249408Y753754D01*
X249038Y753384D01*
X248978Y753305D01*
X248910Y753233D01*
X248881Y753180D01*
X248844Y753132D01*
X248804Y753041D01*
X248756Y752955D01*
X248741Y752896D01*
X248717Y752841D01*
X248702Y752743D01*
X248677Y752647D01*
X248671Y752547D01*
X248667Y752526D01*
X248669Y752514D01*
X248667Y752486D01*
X248667Y751810D01*
X248682Y751692D01*
X248689Y751573D01*
X248702Y751535D01*
X248707Y751494D01*
X248750Y751384D01*
X248787Y751271D01*
X248809Y751236D01*
X248824Y751199D01*
X248894Y751102D01*
X248957Y751002D01*
X248987Y750974D01*
X249010Y750941D01*
X249102Y750865D01*
X249189Y750784D01*
X249224Y750764D01*
X249255Y750739D01*
X249363Y750688D01*
X249467Y750630D01*
X249507Y750620D01*
X249543Y750603D01*
X249660Y750581D01*
X249775Y750551D01*
X249835Y750547D01*
X249855Y750543D01*
X249876Y750545D01*
X249936Y750541D01*
X250052Y750541D01*
X251541Y749052D01*
X251541Y700948D01*
X250052Y699459D01*
X237948Y699459D01*
X236459Y700948D01*
X236459Y749052D01*
X237948Y750541D01*
X240792Y750541D01*
X240910Y750556D01*
X241029Y750563D01*
X241067Y750576D01*
X241108Y750581D01*
X241218Y750624D01*
X241331Y750661D01*
X241366Y750683D01*
X241403Y750698D01*
X241499Y750767D01*
X241600Y750831D01*
X241628Y750861D01*
X241661Y750884D01*
X241737Y750976D01*
X241818Y751063D01*
X241838Y751098D01*
X241863Y751129D01*
X241914Y751237D01*
X241972Y751341D01*
X241982Y751381D01*
X241999Y751417D01*
X242021Y751534D01*
X242051Y751649D01*
X242055Y751709D01*
X242059Y751729D01*
X242057Y751750D01*
X242061Y751810D01*
X242061Y755748D01*
X247044Y760731D01*
X274164Y760731D01*
X275293Y759602D01*
X275402Y759517D01*
X275509Y759428D01*
X275528Y759420D01*
X275544Y759407D01*
X275671Y759352D01*
X275797Y759293D01*
X275817Y759289D01*
X275836Y759281D01*
X275974Y759259D01*
X276110Y759233D01*
X276130Y759234D01*
X276150Y759231D01*
X276289Y759244D01*
X276427Y759253D01*
X276446Y759259D01*
X276466Y759261D01*
X276598Y759308D01*
X276729Y759351D01*
X276747Y759362D01*
X276766Y759369D01*
X276881Y759447D01*
X276998Y759521D01*
X277012Y759536D01*
X277029Y759547D01*
X277121Y759651D01*
X277216Y759753D01*
X277226Y759770D01*
X277239Y759786D01*
X277303Y759910D01*
X277370Y760031D01*
X277375Y760051D01*
X277384Y760069D01*
X277414Y760205D01*
X277449Y760339D01*
X277451Y760367D01*
X277454Y760379D01*
X277453Y760400D01*
X277459Y760500D01*
X277459Y788570D01*
X277444Y788688D01*
X277437Y788807D01*
X277424Y788845D01*
X277419Y788886D01*
X277376Y788996D01*
X277339Y789109D01*
X277317Y789144D01*
X277302Y789181D01*
X277233Y789277D01*
X277169Y789378D01*
X277139Y789406D01*
X277116Y789439D01*
X277024Y789515D01*
X276937Y789596D01*
X276902Y789616D01*
X276871Y789641D01*
X276763Y789692D01*
X276659Y789750D01*
X276619Y789760D01*
X276583Y789777D01*
X276466Y789799D01*
X276351Y789829D01*
X276291Y789833D01*
X276271Y789837D01*
X276250Y789835D01*
X276190Y789839D01*
X231810Y789839D01*
X231692Y789824D01*
X231573Y789817D01*
X231535Y789804D01*
X231494Y789799D01*
X231384Y789756D01*
X231271Y789719D01*
X231236Y789697D01*
X231199Y789682D01*
X231103Y789613D01*
X231002Y789549D01*
X230974Y789519D01*
X230941Y789496D01*
X230865Y789404D01*
X230784Y789317D01*
X230764Y789282D01*
X230739Y789251D01*
X230688Y789143D01*
X230630Y789039D01*
X230620Y788999D01*
X230603Y788963D01*
X230581Y788846D01*
X230551Y788731D01*
X230547Y788671D01*
X230543Y788651D01*
X230545Y788630D01*
X230541Y788570D01*
X230541Y758948D01*
X229052Y757459D01*
X210948Y757459D01*
X209459Y758948D01*
X209459Y788570D01*
X209444Y788688D01*
X209437Y788807D01*
X209424Y788845D01*
X209419Y788886D01*
X209376Y788996D01*
X209339Y789109D01*
X209317Y789144D01*
X209302Y789181D01*
X209233Y789277D01*
X209169Y789378D01*
X209139Y789406D01*
X209116Y789439D01*
X209024Y789515D01*
X208937Y789596D01*
X208902Y789616D01*
X208871Y789641D01*
X208763Y789692D01*
X208659Y789750D01*
X208619Y789760D01*
X208583Y789777D01*
X208466Y789799D01*
X208351Y789829D01*
X208291Y789833D01*
X208271Y789837D01*
X208250Y789835D01*
X208190Y789839D01*
X198210Y789839D01*
X198092Y789824D01*
X197973Y789817D01*
X197935Y789804D01*
X197894Y789799D01*
X197784Y789756D01*
X197671Y789719D01*
X197636Y789697D01*
X197599Y789682D01*
X197503Y789613D01*
X197402Y789549D01*
X197374Y789519D01*
X197341Y789496D01*
X197265Y789404D01*
X197184Y789317D01*
X197164Y789282D01*
X197139Y789251D01*
X197088Y789143D01*
X197030Y789039D01*
X197020Y788999D01*
X197003Y788963D01*
X196981Y788846D01*
X196951Y788731D01*
X196947Y788671D01*
X196943Y788651D01*
X196945Y788630D01*
X196941Y788570D01*
X196941Y758948D01*
X195452Y757459D01*
X177348Y757459D01*
X175859Y758948D01*
X175859Y788570D01*
X175844Y788688D01*
X175837Y788807D01*
X175824Y788845D01*
X175819Y788886D01*
X175776Y788996D01*
X175739Y789109D01*
X175717Y789144D01*
X175702Y789181D01*
X175633Y789277D01*
X175569Y789378D01*
X175539Y789406D01*
X175516Y789439D01*
X175424Y789515D01*
X175337Y789596D01*
X175302Y789616D01*
X175271Y789641D01*
X175163Y789692D01*
X175059Y789750D01*
X175019Y789760D01*
X174983Y789777D01*
X174866Y789799D01*
X174751Y789829D01*
X174691Y789833D01*
X174671Y789837D01*
X174650Y789835D01*
X174590Y789839D01*
X130210Y789839D01*
X130092Y789824D01*
X129973Y789817D01*
X129935Y789804D01*
X129894Y789799D01*
X129784Y789756D01*
X129671Y789719D01*
X129636Y789697D01*
X129599Y789682D01*
X129503Y789613D01*
X129402Y789549D01*
X129374Y789519D01*
X129341Y789496D01*
X129265Y789404D01*
X129184Y789317D01*
X129164Y789282D01*
X129139Y789251D01*
X129088Y789143D01*
X129030Y789039D01*
X129020Y788999D01*
X129003Y788963D01*
X128981Y788846D01*
X128951Y788731D01*
X128947Y788671D01*
X128943Y788651D01*
X128945Y788630D01*
X128941Y788570D01*
X128941Y758948D01*
X127452Y757459D01*
X109348Y757459D01*
X107859Y758948D01*
X107859Y788570D01*
X107844Y788688D01*
X107837Y788807D01*
X107824Y788845D01*
X107819Y788886D01*
X107776Y788996D01*
X107739Y789109D01*
X107717Y789144D01*
X107702Y789181D01*
X107633Y789277D01*
X107569Y789378D01*
X107539Y789406D01*
X107516Y789439D01*
X107424Y789515D01*
X107337Y789596D01*
X107302Y789616D01*
X107271Y789641D01*
X107163Y789692D01*
X107059Y789750D01*
X107019Y789760D01*
X106983Y789777D01*
X106866Y789799D01*
X106751Y789829D01*
X106691Y789833D01*
X106671Y789837D01*
X106650Y789835D01*
X106590Y789839D01*
X34216Y789839D01*
X34072Y789821D01*
X33926Y789806D01*
X33914Y789801D01*
X33900Y789799D01*
X33765Y789746D01*
X33628Y789695D01*
X33617Y789687D01*
X33605Y789682D01*
X33487Y789597D01*
X33367Y789514D01*
X33358Y789503D01*
X33347Y789496D01*
X33255Y789384D01*
X33159Y789273D01*
X33153Y789261D01*
X33144Y789251D01*
X33083Y789119D01*
X33018Y788988D01*
X33015Y788975D01*
X33009Y788963D01*
X32982Y788821D01*
X32951Y788677D01*
X32952Y788664D01*
X32949Y788651D01*
X32958Y788506D01*
X32964Y788360D01*
X32968Y788346D01*
X32969Y788333D01*
X33014Y788195D01*
X33056Y788055D01*
X33063Y788043D01*
X33067Y788031D01*
X33145Y787908D01*
X33220Y787783D01*
X33230Y787773D01*
X33237Y787762D01*
X33343Y787662D01*
X33447Y787560D01*
X33463Y787550D01*
X33469Y787544D01*
X33484Y787536D01*
X33581Y787471D01*
X38149Y784834D01*
X42834Y780149D01*
X46146Y774412D01*
X47861Y768012D01*
X47861Y761388D01*
X46146Y754988D01*
X42834Y749251D01*
X38149Y744566D01*
X32412Y741254D01*
X26012Y739539D01*
X19388Y739539D01*
X12988Y741254D01*
X12065Y741787D01*
X11943Y741839D01*
X11823Y741895D01*
X11796Y741900D01*
X11771Y741910D01*
X11640Y741930D01*
X11510Y741955D01*
X11484Y741953D01*
X11457Y741957D01*
X11325Y741943D01*
X11193Y741935D01*
X11167Y741927D01*
X11141Y741924D01*
X11017Y741878D01*
X10891Y741837D01*
X10868Y741822D01*
X10842Y741813D01*
X10734Y741738D01*
X10622Y741667D01*
X10603Y741647D01*
X10581Y741632D01*
X10495Y741532D01*
X10404Y741435D01*
X10391Y741412D01*
X10373Y741391D01*
X10314Y741273D01*
X10250Y741157D01*
X10244Y741131D01*
X10232Y741106D01*
X10204Y740977D01*
X10171Y740849D01*
X10169Y740811D01*
X10165Y740795D01*
X10166Y740773D01*
X10161Y740688D01*
X10161Y556719D01*
X10179Y556574D01*
X10194Y556430D01*
X10199Y556417D01*
X10201Y556404D01*
X10254Y556268D01*
X10305Y556131D01*
X10313Y556120D01*
X10318Y556108D01*
X10403Y555990D01*
X10486Y555870D01*
X10497Y555861D01*
X10504Y555851D01*
X10617Y555758D01*
X10727Y555662D01*
X10739Y555656D01*
X10749Y555648D01*
X10881Y555586D01*
X11012Y555521D01*
X11025Y555518D01*
X11037Y555512D01*
X11180Y555485D01*
X11323Y555454D01*
X11336Y555455D01*
X11349Y555452D01*
X11495Y555462D01*
G37*
G36*
X479426Y518179D02*
X479426Y518179D01*
X479570Y518194D01*
X479583Y518199D01*
X479596Y518201D01*
X479732Y518254D01*
X479869Y518305D01*
X479880Y518313D01*
X479892Y518318D01*
X480010Y518403D01*
X480130Y518486D01*
X480139Y518497D01*
X480149Y518504D01*
X480242Y518617D01*
X480338Y518727D01*
X480344Y518739D01*
X480352Y518749D01*
X480414Y518881D01*
X480479Y519012D01*
X480482Y519025D01*
X480488Y519037D01*
X480515Y519180D01*
X480546Y519323D01*
X480545Y519336D01*
X480548Y519349D01*
X480538Y519495D01*
X480532Y519641D01*
X480529Y519654D01*
X480528Y519667D01*
X480483Y519805D01*
X480441Y519945D01*
X480434Y519957D01*
X480430Y519969D01*
X480352Y520093D01*
X480276Y520217D01*
X480267Y520227D01*
X480260Y520238D01*
X480153Y520338D01*
X480049Y520440D01*
X480034Y520450D01*
X480028Y520456D01*
X480013Y520464D01*
X479915Y520529D01*
X479851Y520566D01*
X475166Y525251D01*
X471854Y530988D01*
X470139Y537388D01*
X470139Y544012D01*
X471854Y550412D01*
X475166Y556149D01*
X479851Y560834D01*
X485588Y564146D01*
X491988Y565861D01*
X498612Y565861D01*
X505012Y564146D01*
X505335Y563959D01*
X505457Y563908D01*
X505577Y563851D01*
X505604Y563846D01*
X505628Y563836D01*
X505760Y563817D01*
X505890Y563792D01*
X505916Y563793D01*
X505943Y563789D01*
X506075Y563803D01*
X506207Y563811D01*
X506233Y563820D01*
X506259Y563823D01*
X506384Y563869D01*
X506509Y563909D01*
X506532Y563924D01*
X506558Y563933D01*
X506666Y564009D01*
X506778Y564080D01*
X506797Y564099D01*
X506819Y564115D01*
X506905Y564215D01*
X506996Y564311D01*
X507009Y564335D01*
X507027Y564355D01*
X507086Y564474D01*
X507150Y564590D01*
X507156Y564616D01*
X507168Y564640D01*
X507196Y564769D01*
X507229Y564898D01*
X507231Y564936D01*
X507235Y564951D01*
X507234Y564973D01*
X507239Y565058D01*
X507239Y664142D01*
X507223Y664273D01*
X507222Y664283D01*
X507217Y664361D01*
X507215Y664368D01*
X507212Y664405D01*
X507203Y664430D01*
X507199Y664457D01*
X507151Y664580D01*
X507107Y664705D01*
X507092Y664728D01*
X507082Y664753D01*
X507005Y664860D01*
X506931Y664970D01*
X506911Y664988D01*
X506896Y665010D01*
X506793Y665095D01*
X506695Y665183D01*
X506671Y665196D01*
X506651Y665213D01*
X506531Y665269D01*
X506414Y665331D01*
X506387Y665337D01*
X506363Y665349D01*
X506233Y665373D01*
X506104Y665404D01*
X506077Y665403D01*
X506051Y665408D01*
X505919Y665400D01*
X505786Y665397D01*
X505760Y665390D01*
X505733Y665389D01*
X505627Y665354D01*
X505625Y665354D01*
X505619Y665352D01*
X505607Y665348D01*
X505480Y665312D01*
X505445Y665295D01*
X505431Y665291D01*
X505412Y665279D01*
X505335Y665241D01*
X505012Y665054D01*
X498612Y663339D01*
X491988Y663339D01*
X485588Y665054D01*
X479851Y668366D01*
X475166Y673051D01*
X471854Y678788D01*
X470139Y685188D01*
X470139Y691812D01*
X471760Y697862D01*
X471777Y697986D01*
X471801Y698110D01*
X471799Y698143D01*
X471803Y698177D01*
X471789Y698302D01*
X471781Y698427D01*
X471771Y698459D01*
X471767Y698493D01*
X471722Y698610D01*
X471683Y698729D01*
X471665Y698758D01*
X471653Y698789D01*
X471580Y698892D01*
X471513Y698998D01*
X471488Y699021D01*
X471469Y699049D01*
X471373Y699130D01*
X471281Y699216D01*
X471252Y699232D01*
X471226Y699254D01*
X471113Y699309D01*
X471003Y699370D01*
X470970Y699378D01*
X470940Y699393D01*
X470816Y699418D01*
X470695Y699449D01*
X470646Y699452D01*
X470628Y699456D01*
X470606Y699455D01*
X470534Y699459D01*
X469960Y699459D01*
X469862Y699447D01*
X469763Y699444D01*
X469704Y699427D01*
X469644Y699419D01*
X469552Y699383D01*
X469457Y699355D01*
X469405Y699325D01*
X469349Y699302D01*
X469269Y699244D01*
X469183Y699194D01*
X469108Y699128D01*
X469091Y699116D01*
X469083Y699106D01*
X469062Y699088D01*
X444110Y674136D01*
X444050Y674057D01*
X443982Y673985D01*
X443953Y673932D01*
X443916Y673884D01*
X443876Y673793D01*
X443828Y673707D01*
X443813Y673648D01*
X443789Y673593D01*
X443774Y673495D01*
X443749Y673399D01*
X443743Y673299D01*
X443739Y673278D01*
X443741Y673266D01*
X443739Y673238D01*
X443739Y649210D01*
X443754Y649092D01*
X443761Y648973D01*
X443774Y648935D01*
X443779Y648894D01*
X443822Y648784D01*
X443859Y648671D01*
X443881Y648636D01*
X443896Y648599D01*
X443965Y648503D01*
X444029Y648402D01*
X444059Y648374D01*
X444082Y648341D01*
X444174Y648265D01*
X444261Y648184D01*
X444296Y648164D01*
X444327Y648139D01*
X444435Y648088D01*
X444539Y648030D01*
X444579Y648020D01*
X444615Y648003D01*
X444732Y647981D01*
X444847Y647951D01*
X444907Y647947D01*
X444927Y647943D01*
X444948Y647945D01*
X445008Y647941D01*
X446852Y647941D01*
X448341Y646452D01*
X448341Y634348D01*
X446852Y632859D01*
X433748Y632859D01*
X432698Y633909D01*
X432603Y633982D01*
X432514Y634061D01*
X432478Y634080D01*
X432446Y634104D01*
X432337Y634152D01*
X432231Y634206D01*
X432192Y634215D01*
X432154Y634231D01*
X432037Y634249D01*
X431921Y634275D01*
X431880Y634274D01*
X431840Y634280D01*
X431722Y634269D01*
X431603Y634266D01*
X431564Y634254D01*
X431524Y634251D01*
X431411Y634210D01*
X431297Y634177D01*
X431263Y634157D01*
X431224Y634143D01*
X431126Y634076D01*
X431023Y634016D01*
X430978Y633976D01*
X430961Y633964D01*
X430948Y633949D01*
X430903Y633909D01*
X429852Y632859D01*
X416748Y632859D01*
X415259Y634348D01*
X415259Y637032D01*
X415244Y637150D01*
X415237Y637269D01*
X415224Y637307D01*
X415219Y637348D01*
X415176Y637458D01*
X415139Y637571D01*
X415117Y637606D01*
X415102Y637643D01*
X415033Y637739D01*
X414969Y637840D01*
X414939Y637868D01*
X414916Y637901D01*
X414824Y637977D01*
X414737Y638058D01*
X414702Y638078D01*
X414671Y638103D01*
X414563Y638154D01*
X414459Y638212D01*
X414419Y638222D01*
X414383Y638239D01*
X414266Y638261D01*
X414151Y638291D01*
X414091Y638295D01*
X414071Y638299D01*
X414050Y638297D01*
X413990Y638301D01*
X410112Y638301D01*
X400557Y647856D01*
X400557Y656474D01*
X400545Y656572D01*
X400542Y656671D01*
X400525Y656730D01*
X400517Y656790D01*
X400481Y656882D01*
X400453Y656977D01*
X400423Y657029D01*
X400400Y657085D01*
X400342Y657165D01*
X400292Y657251D01*
X400226Y657326D01*
X400214Y657343D01*
X400204Y657351D01*
X400186Y657372D01*
X393720Y663838D01*
X393641Y663898D01*
X393569Y663966D01*
X393516Y663995D01*
X393468Y664032D01*
X393377Y664072D01*
X393291Y664120D01*
X393232Y664135D01*
X393177Y664159D01*
X393079Y664174D01*
X392983Y664199D01*
X392883Y664205D01*
X392862Y664209D01*
X392850Y664207D01*
X392822Y664209D01*
X392038Y664209D01*
X391940Y664197D01*
X391841Y664194D01*
X391782Y664177D01*
X391722Y664169D01*
X391630Y664133D01*
X391535Y664105D01*
X391483Y664075D01*
X391427Y664052D01*
X391347Y663994D01*
X391261Y663944D01*
X391186Y663878D01*
X391169Y663866D01*
X391161Y663856D01*
X391140Y663838D01*
X388464Y661161D01*
X373536Y661161D01*
X367812Y666886D01*
X367733Y666946D01*
X367661Y667014D01*
X367608Y667043D01*
X367560Y667080D01*
X367469Y667120D01*
X367383Y667168D01*
X367324Y667183D01*
X367269Y667207D01*
X367171Y667222D01*
X367075Y667247D01*
X366975Y667253D01*
X366954Y667257D01*
X366942Y667255D01*
X366914Y667257D01*
X360034Y667257D01*
X359936Y667245D01*
X359837Y667242D01*
X359778Y667225D01*
X359718Y667217D01*
X359626Y667181D01*
X359531Y667153D01*
X359479Y667123D01*
X359423Y667100D01*
X359343Y667042D01*
X359257Y666992D01*
X359182Y666926D01*
X359165Y666914D01*
X359157Y666904D01*
X359136Y666886D01*
X353412Y661161D01*
X351710Y661161D01*
X351592Y661146D01*
X351473Y661139D01*
X351435Y661126D01*
X351394Y661121D01*
X351284Y661078D01*
X351171Y661041D01*
X351136Y661019D01*
X351099Y661004D01*
X351003Y660935D01*
X350902Y660871D01*
X350874Y660841D01*
X350841Y660818D01*
X350765Y660726D01*
X350684Y660639D01*
X350664Y660604D01*
X350639Y660573D01*
X350588Y660465D01*
X350530Y660361D01*
X350520Y660321D01*
X350503Y660285D01*
X350481Y660168D01*
X350451Y660053D01*
X350447Y659993D01*
X350443Y659973D01*
X350445Y659952D01*
X350441Y659892D01*
X350441Y658048D01*
X348952Y656559D01*
X336848Y656559D01*
X335359Y658048D01*
X335359Y659892D01*
X335344Y660010D01*
X335337Y660129D01*
X335324Y660167D01*
X335319Y660208D01*
X335276Y660318D01*
X335239Y660431D01*
X335217Y660466D01*
X335202Y660503D01*
X335133Y660599D01*
X335069Y660700D01*
X335039Y660728D01*
X335016Y660761D01*
X334924Y660837D01*
X334837Y660918D01*
X334802Y660938D01*
X334771Y660963D01*
X334663Y661014D01*
X334559Y661072D01*
X334519Y661082D01*
X334483Y661099D01*
X334366Y661121D01*
X334251Y661151D01*
X334191Y661155D01*
X334171Y661159D01*
X334150Y661157D01*
X334090Y661161D01*
X298704Y661161D01*
X298586Y661146D01*
X298467Y661139D01*
X298429Y661126D01*
X298388Y661121D01*
X298278Y661078D01*
X298165Y661041D01*
X298130Y661019D01*
X298093Y661004D01*
X297997Y660935D01*
X297896Y660871D01*
X297868Y660841D01*
X297835Y660818D01*
X297759Y660726D01*
X297678Y660639D01*
X297658Y660604D01*
X297633Y660573D01*
X297582Y660465D01*
X297524Y660361D01*
X297514Y660321D01*
X297497Y660285D01*
X297475Y660168D01*
X297445Y660053D01*
X297441Y659993D01*
X297437Y659973D01*
X297439Y659952D01*
X297435Y659892D01*
X297435Y619114D01*
X297452Y618976D01*
X297465Y618837D01*
X297472Y618818D01*
X297475Y618798D01*
X297526Y618669D01*
X297573Y618538D01*
X297584Y618521D01*
X297592Y618503D01*
X297673Y618390D01*
X297751Y618275D01*
X297767Y618262D01*
X297778Y618245D01*
X297886Y618156D01*
X297990Y618064D01*
X298008Y618055D01*
X298023Y618042D01*
X298149Y617983D01*
X298273Y617920D01*
X298293Y617915D01*
X298311Y617907D01*
X298447Y617881D01*
X298583Y617850D01*
X298604Y617851D01*
X298623Y617847D01*
X298762Y617856D01*
X298901Y617860D01*
X298921Y617866D01*
X298941Y617867D01*
X299073Y617910D01*
X299207Y617948D01*
X299224Y617959D01*
X299243Y617965D01*
X299361Y618039D01*
X299481Y618110D01*
X299502Y618128D01*
X299512Y618135D01*
X299526Y618150D01*
X299601Y618216D01*
X304174Y622788D01*
X304234Y622867D01*
X304302Y622939D01*
X304331Y622992D01*
X304368Y623040D01*
X304408Y623131D01*
X304456Y623217D01*
X304471Y623276D01*
X304495Y623331D01*
X304510Y623429D01*
X304535Y623525D01*
X304541Y623625D01*
X304545Y623646D01*
X304543Y623658D01*
X304545Y623686D01*
X304545Y626190D01*
X304530Y626308D01*
X304523Y626427D01*
X304510Y626465D01*
X304505Y626506D01*
X304462Y626616D01*
X304425Y626729D01*
X304403Y626764D01*
X304388Y626801D01*
X304319Y626897D01*
X304255Y626998D01*
X304225Y627026D01*
X304202Y627059D01*
X304110Y627135D01*
X304023Y627216D01*
X303988Y627236D01*
X303957Y627261D01*
X303849Y627312D01*
X303745Y627370D01*
X303705Y627380D01*
X303669Y627397D01*
X303552Y627419D01*
X303437Y627449D01*
X303377Y627453D01*
X303357Y627457D01*
X303336Y627455D01*
X303276Y627459D01*
X302448Y627459D01*
X300959Y628948D01*
X300959Y641052D01*
X302448Y642541D01*
X315552Y642541D01*
X316603Y641491D01*
X316697Y641418D01*
X316786Y641339D01*
X316822Y641321D01*
X316854Y641296D01*
X316963Y641248D01*
X317069Y641194D01*
X317108Y641185D01*
X317146Y641169D01*
X317263Y641151D01*
X317379Y641125D01*
X317420Y641126D01*
X317460Y641120D01*
X317578Y641131D01*
X317697Y641134D01*
X317736Y641146D01*
X317776Y641149D01*
X317888Y641190D01*
X318003Y641223D01*
X318038Y641243D01*
X318076Y641257D01*
X318174Y641324D01*
X318277Y641384D01*
X318322Y641424D01*
X318339Y641436D01*
X318352Y641451D01*
X318398Y641491D01*
X319448Y642541D01*
X332552Y642541D01*
X334041Y641052D01*
X334041Y640480D01*
X334058Y640342D01*
X334071Y640203D01*
X334078Y640184D01*
X334081Y640164D01*
X334132Y640035D01*
X334179Y639904D01*
X334190Y639887D01*
X334198Y639869D01*
X334279Y639756D01*
X334357Y639641D01*
X334373Y639628D01*
X334384Y639611D01*
X334492Y639523D01*
X334596Y639430D01*
X334614Y639421D01*
X334629Y639408D01*
X334755Y639349D01*
X334879Y639286D01*
X334899Y639281D01*
X334917Y639273D01*
X335053Y639247D01*
X335189Y639216D01*
X335210Y639217D01*
X335229Y639213D01*
X335368Y639222D01*
X335507Y639226D01*
X335527Y639232D01*
X335547Y639233D01*
X335679Y639276D01*
X335813Y639314D01*
X335830Y639325D01*
X335849Y639331D01*
X335967Y639405D01*
X336087Y639476D01*
X336108Y639494D01*
X336118Y639501D01*
X336132Y639516D01*
X336207Y639582D01*
X350676Y654051D01*
X363690Y654051D01*
X363808Y654066D01*
X363927Y654073D01*
X363965Y654086D01*
X364006Y654091D01*
X364116Y654134D01*
X364229Y654171D01*
X364264Y654193D01*
X364301Y654208D01*
X364397Y654277D01*
X364498Y654341D01*
X364526Y654371D01*
X364559Y654394D01*
X364635Y654486D01*
X364716Y654573D01*
X364736Y654608D01*
X364761Y654639D01*
X364812Y654747D01*
X364870Y654851D01*
X364880Y654891D01*
X364897Y654927D01*
X364919Y655044D01*
X364949Y655159D01*
X364953Y655219D01*
X364957Y655239D01*
X364955Y655260D01*
X364959Y655320D01*
X364959Y655952D01*
X366448Y657441D01*
X376552Y657441D01*
X378041Y655952D01*
X378041Y644848D01*
X376552Y643359D01*
X366448Y643359D01*
X364959Y644848D01*
X364959Y646176D01*
X364944Y646294D01*
X364937Y646413D01*
X364924Y646451D01*
X364919Y646492D01*
X364876Y646602D01*
X364839Y646715D01*
X364817Y646750D01*
X364802Y646787D01*
X364733Y646883D01*
X364669Y646984D01*
X364639Y647012D01*
X364616Y647045D01*
X364524Y647121D01*
X364437Y647202D01*
X364402Y647222D01*
X364371Y647247D01*
X364263Y647298D01*
X364159Y647356D01*
X364119Y647366D01*
X364083Y647383D01*
X363966Y647405D01*
X363851Y647435D01*
X363791Y647439D01*
X363771Y647443D01*
X363750Y647441D01*
X363690Y647445D01*
X353938Y647445D01*
X353840Y647433D01*
X353741Y647430D01*
X353682Y647413D01*
X353622Y647405D01*
X353530Y647369D01*
X353435Y647341D01*
X353383Y647311D01*
X353327Y647288D01*
X353247Y647230D01*
X353161Y647180D01*
X353086Y647114D01*
X353069Y647102D01*
X353061Y647092D01*
X353040Y647074D01*
X338172Y632205D01*
X335310Y632205D01*
X335192Y632190D01*
X335073Y632183D01*
X335035Y632170D01*
X334994Y632165D01*
X334884Y632122D01*
X334771Y632085D01*
X334736Y632063D01*
X334699Y632048D01*
X334603Y631979D01*
X334502Y631915D01*
X334474Y631885D01*
X334441Y631862D01*
X334365Y631770D01*
X334284Y631683D01*
X334264Y631648D01*
X334239Y631617D01*
X334188Y631509D01*
X334130Y631405D01*
X334120Y631365D01*
X334103Y631329D01*
X334081Y631212D01*
X334051Y631097D01*
X334047Y631037D01*
X334043Y631017D01*
X334045Y630996D01*
X334041Y630936D01*
X334041Y628948D01*
X332552Y627459D01*
X319448Y627459D01*
X318398Y628509D01*
X318303Y628582D01*
X318214Y628661D01*
X318178Y628680D01*
X318146Y628704D01*
X318037Y628752D01*
X317931Y628806D01*
X317892Y628815D01*
X317854Y628831D01*
X317737Y628849D01*
X317621Y628875D01*
X317580Y628874D01*
X317540Y628880D01*
X317422Y628869D01*
X317303Y628866D01*
X317264Y628854D01*
X317224Y628851D01*
X317111Y628810D01*
X316997Y628777D01*
X316963Y628757D01*
X316924Y628743D01*
X316826Y628676D01*
X316723Y628616D01*
X316678Y628576D01*
X316661Y628564D01*
X316648Y628549D01*
X316603Y628509D01*
X315552Y627459D01*
X312420Y627459D01*
X312302Y627444D01*
X312183Y627437D01*
X312145Y627424D01*
X312104Y627419D01*
X311994Y627376D01*
X311881Y627339D01*
X311846Y627317D01*
X311809Y627302D01*
X311713Y627233D01*
X311612Y627169D01*
X311584Y627139D01*
X311551Y627116D01*
X311475Y627024D01*
X311394Y626937D01*
X311374Y626902D01*
X311349Y626871D01*
X311298Y626763D01*
X311240Y626659D01*
X311230Y626619D01*
X311213Y626583D01*
X311191Y626466D01*
X311161Y626351D01*
X311157Y626291D01*
X311153Y626271D01*
X311155Y626250D01*
X311151Y626190D01*
X311151Y620424D01*
X300854Y610128D01*
X300794Y610049D01*
X300726Y609977D01*
X300697Y609924D01*
X300660Y609876D01*
X300620Y609785D01*
X300572Y609699D01*
X300557Y609640D01*
X300533Y609585D01*
X300518Y609487D01*
X300493Y609391D01*
X300487Y609291D01*
X300483Y609270D01*
X300485Y609258D01*
X300483Y609230D01*
X300483Y585586D01*
X300495Y585488D01*
X300498Y585389D01*
X300515Y585330D01*
X300523Y585270D01*
X300559Y585178D01*
X300587Y585083D01*
X300617Y585031D01*
X300640Y584975D01*
X300698Y584895D01*
X300748Y584809D01*
X300814Y584734D01*
X300826Y584717D01*
X300836Y584709D01*
X300854Y584688D01*
X302602Y582940D01*
X302696Y582867D01*
X302786Y582789D01*
X302822Y582770D01*
X302854Y582746D01*
X302963Y582698D01*
X303069Y582644D01*
X303108Y582635D01*
X303145Y582619D01*
X303263Y582600D01*
X303379Y582574D01*
X303419Y582576D01*
X303460Y582569D01*
X303578Y582580D01*
X303697Y582584D01*
X303736Y582595D01*
X303776Y582599D01*
X303888Y582639D01*
X304003Y582673D01*
X304037Y582693D01*
X304075Y582707D01*
X304174Y582774D01*
X304276Y582834D01*
X304322Y582874D01*
X304339Y582885D01*
X304352Y582901D01*
X304397Y582940D01*
X304759Y583303D01*
X304832Y583397D01*
X304911Y583486D01*
X304929Y583522D01*
X304954Y583554D01*
X305002Y583663D01*
X305056Y583769D01*
X305065Y583808D01*
X305081Y583846D01*
X305099Y583963D01*
X305125Y584079D01*
X305124Y584120D01*
X305130Y584160D01*
X305119Y584278D01*
X305116Y584397D01*
X305104Y584436D01*
X305101Y584476D01*
X305060Y584588D01*
X305027Y584703D01*
X305007Y584738D01*
X304993Y584776D01*
X304926Y584874D01*
X304866Y584977D01*
X304826Y585022D01*
X304814Y585039D01*
X304799Y585052D01*
X304759Y585098D01*
X303359Y586498D01*
X303359Y594602D01*
X304840Y596083D01*
X304917Y596183D01*
X304999Y596278D01*
X305014Y596308D01*
X305035Y596335D01*
X305085Y596450D01*
X305141Y596562D01*
X305148Y596595D01*
X305161Y596626D01*
X305181Y596751D01*
X305207Y596873D01*
X305206Y596907D01*
X305211Y596940D01*
X305199Y597066D01*
X305194Y597191D01*
X305185Y597223D01*
X305181Y597257D01*
X305139Y597376D01*
X305103Y597496D01*
X305085Y597525D01*
X305074Y597556D01*
X305003Y597660D01*
X304938Y597768D01*
X304914Y597792D01*
X304895Y597819D01*
X304801Y597903D01*
X304711Y597991D01*
X304671Y598018D01*
X304657Y598030D01*
X304637Y598040D01*
X304577Y598080D01*
X304340Y598217D01*
X303867Y598690D01*
X303532Y599269D01*
X303359Y599916D01*
X303359Y601751D01*
X316670Y601751D01*
X316788Y601766D01*
X316907Y601773D01*
X316914Y601775D01*
X316970Y601761D01*
X317030Y601757D01*
X317050Y601753D01*
X317070Y601755D01*
X317130Y601751D01*
X330441Y601751D01*
X330441Y599916D01*
X330268Y599269D01*
X330196Y599145D01*
X330171Y599087D01*
X330138Y599033D01*
X330110Y598940D01*
X330072Y598851D01*
X330063Y598789D01*
X330045Y598729D01*
X330040Y598632D01*
X330026Y598537D01*
X330032Y598474D01*
X330029Y598411D01*
X330049Y598317D01*
X330059Y598221D01*
X330081Y598161D01*
X330094Y598100D01*
X330136Y598013D01*
X330170Y597922D01*
X330206Y597871D01*
X330233Y597814D01*
X330296Y597741D01*
X330351Y597661D01*
X330399Y597620D01*
X330440Y597572D01*
X330519Y597516D01*
X330592Y597453D01*
X330648Y597425D01*
X330700Y597389D01*
X330790Y597355D01*
X330876Y597312D01*
X330938Y597298D01*
X330997Y597276D01*
X331093Y597265D01*
X331187Y597245D01*
X331251Y597248D01*
X331313Y597241D01*
X331409Y597254D01*
X331505Y597258D01*
X331566Y597276D01*
X331628Y597285D01*
X331781Y597337D01*
X332498Y597635D01*
X335014Y597635D01*
X335587Y597397D01*
X335615Y597390D01*
X335641Y597376D01*
X335768Y597348D01*
X335893Y597313D01*
X335923Y597313D01*
X335952Y597307D01*
X336081Y597310D01*
X336211Y597308D01*
X336240Y597315D01*
X336270Y597316D01*
X336394Y597352D01*
X336521Y597383D01*
X336547Y597396D01*
X336575Y597405D01*
X336687Y597470D01*
X336802Y597531D01*
X336824Y597551D01*
X336849Y597566D01*
X336970Y597673D01*
X345322Y606024D01*
X345382Y606103D01*
X345450Y606175D01*
X345479Y606228D01*
X345516Y606276D01*
X345556Y606367D01*
X345604Y606453D01*
X345619Y606512D01*
X345643Y606567D01*
X345658Y606665D01*
X345683Y606761D01*
X345689Y606861D01*
X345693Y606882D01*
X345691Y606894D01*
X345693Y606922D01*
X345693Y610968D01*
X353724Y618999D01*
X383892Y618999D01*
X391923Y610968D01*
X391923Y582168D01*
X391938Y582050D01*
X391945Y581931D01*
X391958Y581893D01*
X391963Y581852D01*
X392006Y581742D01*
X392043Y581629D01*
X392065Y581594D01*
X392080Y581557D01*
X392149Y581461D01*
X392213Y581360D01*
X392243Y581332D01*
X392266Y581299D01*
X392358Y581223D01*
X392445Y581142D01*
X392480Y581122D01*
X392511Y581097D01*
X392619Y581046D01*
X392723Y580988D01*
X392763Y580978D01*
X392799Y580961D01*
X392916Y580939D01*
X393031Y580909D01*
X393091Y580905D01*
X393111Y580901D01*
X393132Y580903D01*
X393192Y580899D01*
X395090Y580899D01*
X395208Y580914D01*
X395327Y580921D01*
X395365Y580934D01*
X395406Y580939D01*
X395516Y580982D01*
X395629Y581019D01*
X395664Y581041D01*
X395701Y581056D01*
X395797Y581125D01*
X395898Y581189D01*
X395926Y581219D01*
X395959Y581242D01*
X396035Y581334D01*
X396116Y581421D01*
X396136Y581456D01*
X396161Y581487D01*
X396212Y581595D01*
X396270Y581699D01*
X396280Y581739D01*
X396297Y581775D01*
X396319Y581892D01*
X396349Y582007D01*
X396353Y582067D01*
X396357Y582087D01*
X396355Y582108D01*
X396359Y582168D01*
X396359Y584952D01*
X397409Y586003D01*
X397482Y586097D01*
X397561Y586186D01*
X397580Y586222D01*
X397604Y586254D01*
X397652Y586363D01*
X397706Y586469D01*
X397715Y586508D01*
X397731Y586546D01*
X397749Y586663D01*
X397775Y586779D01*
X397774Y586820D01*
X397781Y586860D01*
X397769Y586978D01*
X397766Y587097D01*
X397754Y587136D01*
X397751Y587176D01*
X397710Y587288D01*
X397677Y587403D01*
X397657Y587438D01*
X397643Y587476D01*
X397576Y587574D01*
X397516Y587677D01*
X397476Y587722D01*
X397465Y587739D01*
X397449Y587752D01*
X397409Y587798D01*
X396867Y588340D01*
X396532Y588919D01*
X396359Y589566D01*
X396359Y593861D01*
X405130Y593861D01*
X405248Y593876D01*
X405367Y593883D01*
X405405Y593896D01*
X405445Y593901D01*
X405556Y593944D01*
X405669Y593981D01*
X405704Y594003D01*
X405741Y594018D01*
X405837Y594088D01*
X405938Y594151D01*
X405966Y594181D01*
X405998Y594205D01*
X406074Y594296D01*
X406156Y594383D01*
X406175Y594418D01*
X406201Y594449D01*
X406252Y594557D01*
X406309Y594661D01*
X406320Y594701D01*
X406337Y594737D01*
X406359Y594854D01*
X406389Y594969D01*
X406393Y595030D01*
X406397Y595050D01*
X406395Y595070D01*
X406399Y595130D01*
X406399Y596401D01*
X406401Y596401D01*
X406401Y595130D01*
X406416Y595012D01*
X406423Y594893D01*
X406436Y594855D01*
X406441Y594815D01*
X406485Y594704D01*
X406521Y594591D01*
X406543Y594556D01*
X406558Y594519D01*
X406628Y594423D01*
X406691Y594322D01*
X406721Y594294D01*
X406745Y594261D01*
X406836Y594186D01*
X406923Y594104D01*
X406958Y594084D01*
X406990Y594059D01*
X407097Y594008D01*
X407201Y593950D01*
X407241Y593940D01*
X407277Y593923D01*
X407394Y593901D01*
X407509Y593871D01*
X407570Y593867D01*
X407590Y593863D01*
X407610Y593865D01*
X407670Y593861D01*
X416441Y593861D01*
X416441Y589566D01*
X416268Y588919D01*
X415933Y588340D01*
X415391Y587798D01*
X415318Y587703D01*
X415239Y587614D01*
X415220Y587578D01*
X415196Y587546D01*
X415148Y587437D01*
X415094Y587331D01*
X415085Y587292D01*
X415069Y587254D01*
X415051Y587136D01*
X415025Y587021D01*
X415026Y586980D01*
X415019Y586940D01*
X415031Y586822D01*
X415034Y586703D01*
X415046Y586664D01*
X415049Y586624D01*
X415090Y586512D01*
X415123Y586397D01*
X415143Y586362D01*
X415157Y586324D01*
X415224Y586226D01*
X415284Y586123D01*
X415324Y586078D01*
X415335Y586061D01*
X415351Y586048D01*
X415391Y586003D01*
X416441Y584952D01*
X416441Y569848D01*
X414952Y568359D01*
X397848Y568359D01*
X396359Y569848D01*
X396359Y573024D01*
X396344Y573142D01*
X396337Y573261D01*
X396324Y573299D01*
X396319Y573340D01*
X396276Y573450D01*
X396239Y573563D01*
X396217Y573598D01*
X396202Y573635D01*
X396133Y573731D01*
X396069Y573832D01*
X396039Y573860D01*
X396016Y573893D01*
X395924Y573969D01*
X395837Y574050D01*
X395802Y574070D01*
X395771Y574095D01*
X395663Y574146D01*
X395559Y574204D01*
X395519Y574214D01*
X395483Y574231D01*
X395366Y574253D01*
X395251Y574283D01*
X395191Y574287D01*
X395171Y574291D01*
X395150Y574289D01*
X395090Y574293D01*
X383462Y574293D01*
X383364Y574281D01*
X383265Y574278D01*
X383207Y574261D01*
X383147Y574253D01*
X383055Y574217D01*
X382959Y574189D01*
X382907Y574159D01*
X382851Y574136D01*
X382771Y574078D01*
X382685Y574028D01*
X382610Y573962D01*
X382594Y573950D01*
X382586Y573940D01*
X382565Y573922D01*
X381041Y572398D01*
X380968Y572303D01*
X380889Y572214D01*
X380871Y572178D01*
X380846Y572146D01*
X380798Y572037D01*
X380744Y571931D01*
X380735Y571892D01*
X380719Y571854D01*
X380701Y571737D01*
X380675Y571621D01*
X380676Y571580D01*
X380670Y571540D01*
X380681Y571422D01*
X380684Y571303D01*
X380696Y571264D01*
X380699Y571224D01*
X380740Y571111D01*
X380773Y570997D01*
X380793Y570963D01*
X380807Y570924D01*
X380874Y570826D01*
X380934Y570723D01*
X380974Y570678D01*
X380986Y570661D01*
X381001Y570648D01*
X381041Y570603D01*
X382441Y569202D01*
X382441Y569160D01*
X382453Y569062D01*
X382456Y568963D01*
X382473Y568904D01*
X382481Y568844D01*
X382517Y568752D01*
X382545Y568657D01*
X382575Y568605D01*
X382598Y568549D01*
X382656Y568469D01*
X382706Y568383D01*
X382772Y568308D01*
X382784Y568291D01*
X382794Y568283D01*
X382812Y568262D01*
X392664Y558410D01*
X392743Y558350D01*
X392815Y558282D01*
X392868Y558253D01*
X392916Y558216D01*
X393007Y558176D01*
X393093Y558128D01*
X393152Y558113D01*
X393207Y558089D01*
X393305Y558074D01*
X393401Y558049D01*
X393501Y558043D01*
X393522Y558039D01*
X393534Y558041D01*
X393562Y558039D01*
X428890Y558039D01*
X429008Y558054D01*
X429127Y558061D01*
X429165Y558074D01*
X429206Y558079D01*
X429316Y558122D01*
X429429Y558159D01*
X429464Y558181D01*
X429501Y558196D01*
X429597Y558265D01*
X429698Y558329D01*
X429726Y558359D01*
X429759Y558382D01*
X429835Y558474D01*
X429916Y558561D01*
X429936Y558596D01*
X429961Y558627D01*
X430012Y558735D01*
X430070Y558839D01*
X430080Y558879D01*
X430097Y558915D01*
X430119Y559032D01*
X430149Y559147D01*
X430153Y559207D01*
X430157Y559227D01*
X430155Y559248D01*
X430159Y559308D01*
X430159Y559552D01*
X431209Y560603D01*
X431282Y560697D01*
X431361Y560786D01*
X431380Y560822D01*
X431404Y560854D01*
X431452Y560963D01*
X431506Y561069D01*
X431515Y561108D01*
X431531Y561146D01*
X431549Y561263D01*
X431575Y561379D01*
X431574Y561420D01*
X431581Y561460D01*
X431569Y561578D01*
X431566Y561697D01*
X431554Y561736D01*
X431551Y561776D01*
X431510Y561888D01*
X431477Y562003D01*
X431457Y562038D01*
X431443Y562076D01*
X431376Y562174D01*
X431316Y562277D01*
X431276Y562322D01*
X431265Y562339D01*
X431249Y562352D01*
X431209Y562398D01*
X430667Y562940D01*
X430332Y563519D01*
X430159Y564166D01*
X430159Y566251D01*
X436720Y566251D01*
X436838Y566266D01*
X436957Y566273D01*
X436995Y566285D01*
X437035Y566291D01*
X437146Y566334D01*
X437194Y566350D01*
X437212Y566340D01*
X437251Y566330D01*
X437287Y566313D01*
X437404Y566291D01*
X437520Y566261D01*
X437580Y566257D01*
X437600Y566253D01*
X437620Y566255D01*
X437680Y566251D01*
X444241Y566251D01*
X444241Y564166D01*
X444068Y563519D01*
X443733Y562940D01*
X443191Y562398D01*
X443118Y562303D01*
X443039Y562214D01*
X443020Y562178D01*
X442996Y562146D01*
X442948Y562037D01*
X442894Y561931D01*
X442885Y561892D01*
X442869Y561854D01*
X442851Y561736D01*
X442825Y561621D01*
X442826Y561580D01*
X442819Y561540D01*
X442831Y561422D01*
X442834Y561303D01*
X442846Y561264D01*
X442849Y561224D01*
X442890Y561112D01*
X442923Y560997D01*
X442943Y560962D01*
X442957Y560924D01*
X443024Y560826D01*
X443084Y560723D01*
X443124Y560678D01*
X443135Y560661D01*
X443151Y560648D01*
X443191Y560603D01*
X444241Y559552D01*
X444241Y550448D01*
X442752Y548959D01*
X431648Y548959D01*
X430114Y550493D01*
X430076Y550590D01*
X430039Y550703D01*
X430017Y550738D01*
X430002Y550775D01*
X429933Y550871D01*
X429869Y550972D01*
X429839Y551000D01*
X429816Y551033D01*
X429724Y551109D01*
X429637Y551190D01*
X429602Y551210D01*
X429571Y551235D01*
X429463Y551286D01*
X429359Y551344D01*
X429319Y551354D01*
X429283Y551371D01*
X429166Y551393D01*
X429051Y551423D01*
X428991Y551427D01*
X428971Y551431D01*
X428950Y551429D01*
X428890Y551433D01*
X390300Y551433D01*
X382436Y559298D01*
X382341Y559371D01*
X382252Y559449D01*
X382216Y559468D01*
X382184Y559492D01*
X382075Y559540D01*
X381969Y559594D01*
X381929Y559603D01*
X381893Y559619D01*
X381775Y559638D01*
X381658Y559664D01*
X381618Y559662D01*
X381578Y559669D01*
X381460Y559657D01*
X381341Y559654D01*
X381302Y559643D01*
X381262Y559639D01*
X381180Y559609D01*
X356848Y559609D01*
X355359Y561098D01*
X355359Y569202D01*
X356759Y570603D01*
X356832Y570697D01*
X356911Y570786D01*
X356929Y570822D01*
X356954Y570854D01*
X357002Y570963D01*
X357056Y571069D01*
X357065Y571108D01*
X357081Y571146D01*
X357099Y571263D01*
X357125Y571379D01*
X357124Y571420D01*
X357130Y571460D01*
X357119Y571578D01*
X357116Y571697D01*
X357104Y571736D01*
X357101Y571776D01*
X357060Y571888D01*
X357027Y572003D01*
X357007Y572038D01*
X356993Y572076D01*
X356926Y572174D01*
X356866Y572277D01*
X356826Y572322D01*
X356814Y572339D01*
X356799Y572352D01*
X356759Y572398D01*
X355359Y573798D01*
X355359Y574700D01*
X355342Y574838D01*
X355329Y574977D01*
X355322Y574996D01*
X355319Y575016D01*
X355268Y575145D01*
X355221Y575276D01*
X355210Y575293D01*
X355202Y575311D01*
X355121Y575424D01*
X355043Y575539D01*
X355027Y575552D01*
X355016Y575569D01*
X354908Y575658D01*
X354804Y575750D01*
X354786Y575759D01*
X354771Y575772D01*
X354645Y575831D01*
X354521Y575894D01*
X354501Y575899D01*
X354483Y575907D01*
X354347Y575933D01*
X354211Y575964D01*
X354190Y575963D01*
X354171Y575967D01*
X354032Y575958D01*
X353893Y575954D01*
X353873Y575948D01*
X353853Y575947D01*
X353721Y575904D01*
X353587Y575866D01*
X353570Y575855D01*
X353551Y575849D01*
X353433Y575775D01*
X353313Y575704D01*
X353292Y575686D01*
X353282Y575679D01*
X353268Y575664D01*
X353192Y575598D01*
X352670Y575076D01*
X352610Y574997D01*
X352542Y574925D01*
X352513Y574872D01*
X352476Y574824D01*
X352436Y574734D01*
X352388Y574647D01*
X352373Y574588D01*
X352349Y574533D01*
X352334Y574435D01*
X352309Y574339D01*
X352303Y574239D01*
X352299Y574218D01*
X352301Y574206D01*
X352299Y574178D01*
X352299Y564036D01*
X335124Y546861D01*
X298860Y546861D01*
X296184Y549538D01*
X296105Y549598D01*
X296033Y549666D01*
X295980Y549695D01*
X295932Y549732D01*
X295841Y549772D01*
X295755Y549820D01*
X295696Y549835D01*
X295641Y549859D01*
X295543Y549874D01*
X295447Y549899D01*
X295347Y549905D01*
X295326Y549909D01*
X295314Y549907D01*
X295286Y549909D01*
X273610Y549909D01*
X273492Y549894D01*
X273373Y549887D01*
X273335Y549874D01*
X273294Y549869D01*
X273184Y549826D01*
X273071Y549789D01*
X273036Y549767D01*
X272999Y549752D01*
X272903Y549683D01*
X272802Y549619D01*
X272774Y549589D01*
X272741Y549566D01*
X272665Y549474D01*
X272584Y549387D01*
X272564Y549352D01*
X272539Y549321D01*
X272488Y549213D01*
X272430Y549109D01*
X272420Y549069D01*
X272403Y549033D01*
X272381Y548916D01*
X272351Y548801D01*
X272347Y548741D01*
X272343Y548721D01*
X272344Y548707D01*
X272343Y548703D01*
X272344Y548692D01*
X272341Y548640D01*
X272341Y535805D01*
X270546Y531471D01*
X267229Y528154D01*
X262895Y526359D01*
X239705Y526359D01*
X235371Y528154D01*
X232054Y531471D01*
X230259Y535805D01*
X230259Y568995D01*
X232054Y573329D01*
X235371Y576646D01*
X239705Y578441D01*
X262895Y578441D01*
X267229Y576646D01*
X270546Y573329D01*
X272341Y568995D01*
X272341Y557784D01*
X272356Y557666D01*
X272363Y557547D01*
X272376Y557509D01*
X272381Y557468D01*
X272424Y557358D01*
X272461Y557245D01*
X272483Y557210D01*
X272498Y557173D01*
X272568Y557076D01*
X272631Y556976D01*
X272661Y556948D01*
X272684Y556915D01*
X272776Y556839D01*
X272863Y556758D01*
X272898Y556738D01*
X272929Y556713D01*
X273037Y556662D01*
X273141Y556604D01*
X273181Y556594D01*
X273217Y556577D01*
X273334Y556555D01*
X273449Y556525D01*
X273509Y556521D01*
X273529Y556517D01*
X273550Y556519D01*
X273610Y556515D01*
X290714Y556515D01*
X290852Y556532D01*
X290991Y556545D01*
X291010Y556552D01*
X291030Y556555D01*
X291159Y556606D01*
X291290Y556653D01*
X291307Y556664D01*
X291325Y556672D01*
X291438Y556753D01*
X291553Y556831D01*
X291566Y556847D01*
X291583Y556858D01*
X291671Y556966D01*
X291764Y557070D01*
X291773Y557088D01*
X291786Y557103D01*
X291845Y557229D01*
X291908Y557353D01*
X291913Y557373D01*
X291921Y557391D01*
X291947Y557527D01*
X291978Y557663D01*
X291977Y557684D01*
X291981Y557703D01*
X291972Y557842D01*
X291968Y557981D01*
X291962Y558001D01*
X291961Y558021D01*
X291918Y558153D01*
X291880Y558287D01*
X291869Y558304D01*
X291863Y558323D01*
X291789Y558441D01*
X291718Y558561D01*
X291700Y558582D01*
X291693Y558592D01*
X291678Y558606D01*
X291612Y558681D01*
X255036Y595258D01*
X254957Y595318D01*
X254885Y595386D01*
X254832Y595415D01*
X254784Y595452D01*
X254693Y595492D01*
X254607Y595540D01*
X254548Y595555D01*
X254493Y595579D01*
X254395Y595594D01*
X254299Y595619D01*
X254199Y595625D01*
X254178Y595629D01*
X254166Y595627D01*
X254138Y595629D01*
X177154Y595629D01*
X177056Y595617D01*
X176957Y595614D01*
X176898Y595597D01*
X176838Y595589D01*
X176746Y595553D01*
X176651Y595525D01*
X176599Y595495D01*
X176543Y595472D01*
X176463Y595414D01*
X176377Y595364D01*
X176302Y595298D01*
X176285Y595286D01*
X176277Y595276D01*
X176256Y595258D01*
X172506Y591507D01*
X172421Y591398D01*
X172332Y591291D01*
X172324Y591272D01*
X172311Y591256D01*
X172256Y591128D01*
X172197Y591003D01*
X172193Y590983D01*
X172185Y590964D01*
X172163Y590826D01*
X172137Y590690D01*
X172138Y590670D01*
X172135Y590650D01*
X172148Y590511D01*
X172157Y590373D01*
X172163Y590354D01*
X172165Y590334D01*
X172212Y590202D01*
X172255Y590071D01*
X172266Y590053D01*
X172273Y590034D01*
X172351Y589919D01*
X172425Y589802D01*
X172440Y589788D01*
X172451Y589771D01*
X172555Y589679D01*
X172657Y589584D01*
X172674Y589574D01*
X172690Y589561D01*
X172814Y589497D01*
X172935Y589430D01*
X172955Y589425D01*
X172973Y589416D01*
X173109Y589386D01*
X173243Y589351D01*
X173271Y589349D01*
X173283Y589346D01*
X173304Y589347D01*
X173404Y589341D01*
X173852Y589341D01*
X175341Y587852D01*
X175341Y571748D01*
X173852Y570259D01*
X168996Y570259D01*
X168858Y570242D01*
X168719Y570229D01*
X168700Y570222D01*
X168680Y570219D01*
X168551Y570168D01*
X168420Y570121D01*
X168403Y570110D01*
X168385Y570102D01*
X168272Y570021D01*
X168157Y569943D01*
X168144Y569927D01*
X168127Y569916D01*
X168038Y569808D01*
X167946Y569704D01*
X167937Y569686D01*
X167924Y569671D01*
X167865Y569545D01*
X167802Y569421D01*
X167797Y569401D01*
X167789Y569383D01*
X167763Y569247D01*
X167732Y569111D01*
X167733Y569090D01*
X167729Y569071D01*
X167738Y568932D01*
X167742Y568793D01*
X167748Y568773D01*
X167749Y568753D01*
X167792Y568621D01*
X167830Y568487D01*
X167841Y568470D01*
X167847Y568451D01*
X167921Y568333D01*
X167992Y568213D01*
X168010Y568192D01*
X168017Y568182D01*
X168032Y568168D01*
X168098Y568093D01*
X169151Y567039D01*
X169245Y566966D01*
X169335Y566888D01*
X169371Y566869D01*
X169403Y566845D01*
X169512Y566797D01*
X169618Y566743D01*
X169657Y566734D01*
X169694Y566718D01*
X169812Y566699D01*
X169928Y566673D01*
X169968Y566675D01*
X170009Y566668D01*
X170127Y566679D01*
X170246Y566683D01*
X170285Y566694D01*
X170325Y566698D01*
X170437Y566738D01*
X170552Y566772D01*
X170586Y566792D01*
X170624Y566806D01*
X170723Y566873D01*
X170825Y566933D01*
X170871Y566973D01*
X170888Y566984D01*
X170901Y567000D01*
X170946Y567039D01*
X171248Y567341D01*
X183352Y567341D01*
X184841Y565852D01*
X184841Y549748D01*
X183352Y548259D01*
X171248Y548259D01*
X169759Y549748D01*
X169759Y556564D01*
X169747Y556662D01*
X169744Y556761D01*
X169727Y556820D01*
X169719Y556880D01*
X169683Y556972D01*
X169655Y557067D01*
X169625Y557119D01*
X169602Y557175D01*
X169544Y557255D01*
X169494Y557341D01*
X169428Y557416D01*
X169416Y557433D01*
X169406Y557441D01*
X169388Y557462D01*
X168007Y558842D01*
X167898Y558927D01*
X167791Y559016D01*
X167772Y559024D01*
X167756Y559037D01*
X167629Y559092D01*
X167503Y559151D01*
X167483Y559155D01*
X167464Y559163D01*
X167326Y559185D01*
X167190Y559211D01*
X167170Y559210D01*
X167150Y559213D01*
X167011Y559200D01*
X166873Y559191D01*
X166854Y559185D01*
X166834Y559183D01*
X166702Y559136D01*
X166571Y559093D01*
X166553Y559082D01*
X166534Y559075D01*
X166419Y558997D01*
X166302Y558923D01*
X166288Y558908D01*
X166271Y558897D01*
X166179Y558793D01*
X166084Y558691D01*
X166074Y558674D01*
X166061Y558658D01*
X165997Y558534D01*
X165930Y558413D01*
X165925Y558393D01*
X165916Y558375D01*
X165886Y558239D01*
X165851Y558105D01*
X165849Y558077D01*
X165846Y558065D01*
X165847Y558044D01*
X165841Y557944D01*
X165841Y549748D01*
X164352Y548259D01*
X152248Y548259D01*
X150759Y549748D01*
X150759Y553212D01*
X150744Y553330D01*
X150737Y553449D01*
X150724Y553487D01*
X150719Y553528D01*
X150676Y553638D01*
X150639Y553751D01*
X150617Y553786D01*
X150602Y553823D01*
X150533Y553919D01*
X150469Y554020D01*
X150439Y554048D01*
X150416Y554081D01*
X150324Y554157D01*
X150237Y554238D01*
X150202Y554258D01*
X150171Y554283D01*
X150063Y554334D01*
X149959Y554392D01*
X149919Y554402D01*
X149883Y554419D01*
X149766Y554441D01*
X149651Y554471D01*
X149591Y554475D01*
X149571Y554479D01*
X149550Y554477D01*
X149490Y554481D01*
X68736Y554481D01*
X49892Y573325D01*
X49853Y573356D01*
X49819Y573393D01*
X49727Y573453D01*
X49641Y573520D01*
X49595Y573540D01*
X49553Y573567D01*
X49450Y573603D01*
X49349Y573646D01*
X49300Y573654D01*
X49253Y573670D01*
X49143Y573679D01*
X49035Y573696D01*
X48985Y573692D01*
X48936Y573696D01*
X48828Y573677D01*
X48718Y573666D01*
X48671Y573650D01*
X48622Y573641D01*
X48522Y573596D01*
X48419Y573559D01*
X48378Y573531D01*
X48332Y573510D01*
X48247Y573442D01*
X48156Y573380D01*
X48123Y573343D01*
X48084Y573312D01*
X48018Y573224D01*
X47945Y573142D01*
X47927Y573106D01*
X44637Y569816D01*
X40396Y568059D01*
X37448Y568059D01*
X37298Y568040D01*
X37146Y568023D01*
X37139Y568020D01*
X37133Y568019D01*
X36992Y567964D01*
X36849Y567909D01*
X36843Y567905D01*
X36837Y567902D01*
X36714Y567813D01*
X36590Y567725D01*
X36585Y567720D01*
X36580Y567716D01*
X36482Y567598D01*
X36384Y567482D01*
X36381Y567476D01*
X36377Y567471D01*
X36312Y567333D01*
X36246Y567196D01*
X36244Y567189D01*
X36241Y567183D01*
X36213Y567034D01*
X36182Y566884D01*
X36183Y566877D01*
X36182Y566871D01*
X36191Y566718D01*
X36199Y566566D01*
X36201Y566560D01*
X36201Y566553D01*
X36248Y566409D01*
X36294Y566263D01*
X36297Y566257D01*
X36299Y566251D01*
X36381Y566122D01*
X36461Y565992D01*
X36466Y565988D01*
X36470Y565982D01*
X36581Y565877D01*
X36690Y565772D01*
X36696Y565769D01*
X36701Y565764D01*
X36834Y565691D01*
X36967Y565615D01*
X36976Y565613D01*
X36980Y565610D01*
X36990Y565608D01*
X37120Y565564D01*
X42412Y564146D01*
X48149Y560834D01*
X52834Y556149D01*
X56146Y550412D01*
X57861Y544012D01*
X57861Y537388D01*
X56146Y530988D01*
X52834Y525251D01*
X48149Y520566D01*
X48085Y520529D01*
X47968Y520441D01*
X47851Y520356D01*
X47842Y520345D01*
X47831Y520337D01*
X47741Y520223D01*
X47648Y520111D01*
X47642Y520098D01*
X47634Y520088D01*
X47574Y519954D01*
X47512Y519823D01*
X47510Y519810D01*
X47504Y519797D01*
X47480Y519653D01*
X47452Y519510D01*
X47453Y519497D01*
X47451Y519484D01*
X47463Y519339D01*
X47472Y519193D01*
X47476Y519180D01*
X47477Y519167D01*
X47525Y519029D01*
X47570Y518891D01*
X47577Y518879D01*
X47582Y518867D01*
X47662Y518745D01*
X47740Y518622D01*
X47750Y518613D01*
X47758Y518601D01*
X47866Y518504D01*
X47972Y518404D01*
X47984Y518397D01*
X47994Y518388D01*
X48123Y518321D01*
X48251Y518250D01*
X48263Y518247D01*
X48275Y518241D01*
X48417Y518207D01*
X48558Y518171D01*
X48577Y518170D01*
X48585Y518168D01*
X48602Y518168D01*
X48719Y518161D01*
X479281Y518161D01*
X479426Y518179D01*
G37*
G36*
X414108Y644922D02*
X414108Y644922D01*
X414227Y644929D01*
X414265Y644942D01*
X414306Y644947D01*
X414416Y644990D01*
X414529Y645027D01*
X414564Y645049D01*
X414601Y645064D01*
X414697Y645133D01*
X414798Y645197D01*
X414826Y645227D01*
X414859Y645250D01*
X414935Y645342D01*
X415016Y645429D01*
X415036Y645464D01*
X415061Y645495D01*
X415112Y645603D01*
X415170Y645707D01*
X415180Y645747D01*
X415197Y645783D01*
X415219Y645900D01*
X415249Y646015D01*
X415253Y646075D01*
X415257Y646095D01*
X415255Y646116D01*
X415259Y646176D01*
X415259Y646452D01*
X416748Y647941D01*
X429852Y647941D01*
X430903Y646891D01*
X430997Y646818D01*
X431086Y646739D01*
X431122Y646721D01*
X431154Y646696D01*
X431263Y646648D01*
X431369Y646594D01*
X431408Y646585D01*
X431446Y646569D01*
X431563Y646551D01*
X431679Y646525D01*
X431720Y646526D01*
X431760Y646520D01*
X431878Y646531D01*
X431997Y646534D01*
X432036Y646546D01*
X432076Y646549D01*
X432188Y646590D01*
X432303Y646623D01*
X432338Y646643D01*
X432376Y646657D01*
X432474Y646724D01*
X432577Y646784D01*
X432622Y646824D01*
X432639Y646836D01*
X432652Y646851D01*
X432698Y646891D01*
X433748Y647941D01*
X435864Y647941D01*
X435982Y647956D01*
X436101Y647963D01*
X436139Y647976D01*
X436180Y647981D01*
X436290Y648024D01*
X436403Y648061D01*
X436438Y648083D01*
X436475Y648098D01*
X436571Y648167D01*
X436672Y648231D01*
X436700Y648261D01*
X436733Y648284D01*
X436809Y648376D01*
X436890Y648463D01*
X436910Y648498D01*
X436935Y648529D01*
X436986Y648637D01*
X437044Y648741D01*
X437054Y648781D01*
X437071Y648817D01*
X437093Y648934D01*
X437123Y649049D01*
X437127Y649109D01*
X437131Y649129D01*
X437129Y649150D01*
X437133Y649210D01*
X437133Y676500D01*
X459723Y699089D01*
X459796Y699183D01*
X459874Y699273D01*
X459893Y699309D01*
X459917Y699341D01*
X459965Y699450D01*
X460019Y699556D01*
X460028Y699595D01*
X460044Y699632D01*
X460063Y699750D01*
X460089Y699866D01*
X460087Y699907D01*
X460094Y699947D01*
X460082Y700065D01*
X460079Y700184D01*
X460068Y700223D01*
X460064Y700263D01*
X460024Y700375D01*
X459990Y700490D01*
X459970Y700524D01*
X459956Y700562D01*
X459889Y700661D01*
X459829Y700764D01*
X459789Y700809D01*
X459778Y700826D01*
X459762Y700839D01*
X459723Y700884D01*
X459659Y700948D01*
X459659Y749052D01*
X461148Y750541D01*
X473252Y750541D01*
X474741Y749052D01*
X474741Y706588D01*
X474758Y706450D01*
X474771Y706311D01*
X474778Y706292D01*
X474781Y706272D01*
X474832Y706143D01*
X474879Y706012D01*
X474890Y705995D01*
X474898Y705976D01*
X474979Y705864D01*
X475057Y705749D01*
X475073Y705735D01*
X475084Y705719D01*
X475192Y705630D01*
X475296Y705538D01*
X475314Y705529D01*
X475329Y705516D01*
X475455Y705457D01*
X475579Y705394D01*
X475599Y705389D01*
X475617Y705381D01*
X475753Y705355D01*
X475889Y705324D01*
X475910Y705325D01*
X475929Y705321D01*
X476068Y705330D01*
X476207Y705334D01*
X476227Y705339D01*
X476247Y705341D01*
X476379Y705383D01*
X476513Y705422D01*
X476530Y705432D01*
X476549Y705439D01*
X476667Y705513D01*
X476787Y705584D01*
X476808Y705602D01*
X476818Y705609D01*
X476832Y705624D01*
X476907Y705690D01*
X479851Y708634D01*
X485588Y711946D01*
X491988Y713661D01*
X498612Y713661D01*
X505012Y711946D01*
X505335Y711759D01*
X505457Y711708D01*
X505577Y711651D01*
X505604Y711646D01*
X505628Y711636D01*
X505760Y711617D01*
X505890Y711592D01*
X505916Y711593D01*
X505943Y711589D01*
X506075Y711603D01*
X506207Y711611D01*
X506233Y711620D01*
X506259Y711623D01*
X506384Y711669D01*
X506509Y711709D01*
X506532Y711724D01*
X506558Y711733D01*
X506666Y711809D01*
X506778Y711880D01*
X506797Y711899D01*
X506819Y711915D01*
X506905Y712015D01*
X506996Y712111D01*
X507009Y712135D01*
X507027Y712155D01*
X507086Y712274D01*
X507150Y712390D01*
X507156Y712416D01*
X507168Y712440D01*
X507196Y712569D01*
X507229Y712698D01*
X507231Y712736D01*
X507235Y712751D01*
X507234Y712773D01*
X507239Y712858D01*
X507239Y788570D01*
X507224Y788688D01*
X507217Y788807D01*
X507204Y788845D01*
X507199Y788886D01*
X507156Y788996D01*
X507119Y789109D01*
X507097Y789144D01*
X507082Y789181D01*
X507013Y789277D01*
X506949Y789378D01*
X506919Y789406D01*
X506896Y789439D01*
X506804Y789515D01*
X506717Y789596D01*
X506682Y789616D01*
X506651Y789641D01*
X506543Y789692D01*
X506439Y789750D01*
X506399Y789760D01*
X506363Y789777D01*
X506246Y789799D01*
X506131Y789829D01*
X506071Y789833D01*
X506051Y789837D01*
X506030Y789835D01*
X505970Y789839D01*
X503010Y789839D01*
X502892Y789824D01*
X502773Y789817D01*
X502735Y789804D01*
X502694Y789799D01*
X502584Y789756D01*
X502471Y789719D01*
X502436Y789697D01*
X502399Y789682D01*
X502303Y789613D01*
X502202Y789549D01*
X502174Y789519D01*
X502141Y789496D01*
X502065Y789404D01*
X501984Y789317D01*
X501964Y789282D01*
X501939Y789251D01*
X501888Y789143D01*
X501830Y789039D01*
X501820Y788999D01*
X501803Y788963D01*
X501781Y788846D01*
X501751Y788731D01*
X501747Y788671D01*
X501743Y788651D01*
X501745Y788630D01*
X501741Y788570D01*
X501741Y758948D01*
X500252Y757459D01*
X482148Y757459D01*
X480659Y758948D01*
X480659Y788570D01*
X480644Y788688D01*
X480637Y788807D01*
X480624Y788845D01*
X480619Y788886D01*
X480576Y788996D01*
X480539Y789109D01*
X480517Y789144D01*
X480502Y789181D01*
X480433Y789277D01*
X480369Y789378D01*
X480339Y789406D01*
X480316Y789439D01*
X480224Y789515D01*
X480137Y789596D01*
X480102Y789616D01*
X480071Y789641D01*
X479963Y789692D01*
X479859Y789750D01*
X479819Y789760D01*
X479783Y789777D01*
X479666Y789799D01*
X479551Y789829D01*
X479491Y789833D01*
X479471Y789837D01*
X479450Y789835D01*
X479390Y789839D01*
X435010Y789839D01*
X434892Y789824D01*
X434773Y789817D01*
X434735Y789804D01*
X434694Y789799D01*
X434584Y789756D01*
X434471Y789719D01*
X434436Y789697D01*
X434399Y789682D01*
X434303Y789613D01*
X434202Y789549D01*
X434174Y789519D01*
X434141Y789496D01*
X434065Y789404D01*
X433984Y789317D01*
X433964Y789282D01*
X433939Y789251D01*
X433888Y789143D01*
X433830Y789039D01*
X433820Y788999D01*
X433803Y788963D01*
X433781Y788846D01*
X433751Y788731D01*
X433747Y788671D01*
X433743Y788651D01*
X433745Y788630D01*
X433741Y788570D01*
X433741Y758948D01*
X432252Y757459D01*
X414148Y757459D01*
X412659Y758948D01*
X412659Y788570D01*
X412644Y788688D01*
X412637Y788807D01*
X412624Y788845D01*
X412619Y788886D01*
X412576Y788996D01*
X412539Y789109D01*
X412517Y789144D01*
X412502Y789181D01*
X412433Y789277D01*
X412369Y789378D01*
X412339Y789406D01*
X412316Y789439D01*
X412224Y789515D01*
X412137Y789596D01*
X412102Y789616D01*
X412071Y789641D01*
X411963Y789692D01*
X411859Y789750D01*
X411819Y789760D01*
X411783Y789777D01*
X411666Y789799D01*
X411551Y789829D01*
X411491Y789833D01*
X411471Y789837D01*
X411450Y789835D01*
X411390Y789839D01*
X401410Y789839D01*
X401292Y789824D01*
X401173Y789817D01*
X401135Y789804D01*
X401094Y789799D01*
X400984Y789756D01*
X400871Y789719D01*
X400836Y789697D01*
X400799Y789682D01*
X400703Y789613D01*
X400602Y789549D01*
X400574Y789519D01*
X400541Y789496D01*
X400465Y789404D01*
X400384Y789317D01*
X400364Y789282D01*
X400339Y789251D01*
X400288Y789143D01*
X400230Y789039D01*
X400220Y788999D01*
X400203Y788963D01*
X400181Y788846D01*
X400151Y788731D01*
X400147Y788671D01*
X400143Y788651D01*
X400145Y788630D01*
X400141Y788570D01*
X400141Y758948D01*
X398652Y757459D01*
X380548Y757459D01*
X379059Y758948D01*
X379059Y788570D01*
X379044Y788688D01*
X379037Y788807D01*
X379024Y788845D01*
X379019Y788886D01*
X378976Y788996D01*
X378939Y789109D01*
X378917Y789144D01*
X378902Y789181D01*
X378833Y789277D01*
X378769Y789378D01*
X378739Y789406D01*
X378716Y789439D01*
X378624Y789515D01*
X378537Y789596D01*
X378502Y789616D01*
X378471Y789641D01*
X378363Y789692D01*
X378259Y789750D01*
X378219Y789760D01*
X378183Y789777D01*
X378066Y789799D01*
X377951Y789829D01*
X377891Y789833D01*
X377871Y789837D01*
X377850Y789835D01*
X377790Y789839D01*
X333410Y789839D01*
X333292Y789824D01*
X333173Y789817D01*
X333135Y789804D01*
X333094Y789799D01*
X332984Y789756D01*
X332871Y789719D01*
X332836Y789697D01*
X332799Y789682D01*
X332703Y789613D01*
X332602Y789549D01*
X332574Y789519D01*
X332541Y789496D01*
X332465Y789404D01*
X332384Y789317D01*
X332364Y789282D01*
X332339Y789251D01*
X332288Y789143D01*
X332230Y789039D01*
X332220Y788999D01*
X332203Y788963D01*
X332181Y788846D01*
X332151Y788731D01*
X332147Y788671D01*
X332143Y788651D01*
X332145Y788630D01*
X332141Y788570D01*
X332141Y758948D01*
X330652Y757459D01*
X312548Y757459D01*
X311059Y758948D01*
X311059Y788570D01*
X311044Y788688D01*
X311037Y788807D01*
X311024Y788845D01*
X311019Y788886D01*
X310976Y788996D01*
X310939Y789109D01*
X310917Y789144D01*
X310902Y789181D01*
X310833Y789277D01*
X310769Y789378D01*
X310739Y789406D01*
X310716Y789439D01*
X310624Y789515D01*
X310537Y789596D01*
X310502Y789616D01*
X310471Y789641D01*
X310363Y789692D01*
X310259Y789750D01*
X310219Y789760D01*
X310183Y789777D01*
X310066Y789799D01*
X309951Y789829D01*
X309891Y789833D01*
X309871Y789837D01*
X309850Y789835D01*
X309790Y789839D01*
X299810Y789839D01*
X299692Y789824D01*
X299573Y789817D01*
X299535Y789804D01*
X299494Y789799D01*
X299384Y789756D01*
X299271Y789719D01*
X299236Y789697D01*
X299199Y789682D01*
X299103Y789613D01*
X299002Y789549D01*
X298974Y789519D01*
X298941Y789496D01*
X298865Y789404D01*
X298784Y789317D01*
X298764Y789282D01*
X298739Y789251D01*
X298688Y789143D01*
X298630Y789039D01*
X298620Y788999D01*
X298603Y788963D01*
X298581Y788846D01*
X298551Y788731D01*
X298547Y788671D01*
X298543Y788651D01*
X298545Y788630D01*
X298541Y788570D01*
X298541Y758948D01*
X297052Y757459D01*
X280500Y757459D01*
X280362Y757442D01*
X280223Y757429D01*
X280204Y757422D01*
X280184Y757419D01*
X280055Y757368D01*
X279924Y757321D01*
X279907Y757310D01*
X279889Y757302D01*
X279776Y757221D01*
X279661Y757143D01*
X279648Y757127D01*
X279631Y757116D01*
X279543Y757008D01*
X279450Y756904D01*
X279441Y756886D01*
X279428Y756871D01*
X279369Y756745D01*
X279306Y756621D01*
X279301Y756601D01*
X279293Y756583D01*
X279267Y756447D01*
X279236Y756311D01*
X279237Y756290D01*
X279233Y756271D01*
X279242Y756132D01*
X279246Y755993D01*
X279252Y755973D01*
X279253Y755953D01*
X279296Y755821D01*
X279334Y755687D01*
X279345Y755670D01*
X279351Y755651D01*
X279425Y755533D01*
X279496Y755413D01*
X279514Y755392D01*
X279521Y755382D01*
X279536Y755368D01*
X279602Y755293D01*
X298176Y736718D01*
X298255Y736658D01*
X298327Y736590D01*
X298380Y736561D01*
X298428Y736524D01*
X298519Y736484D01*
X298605Y736436D01*
X298664Y736421D01*
X298719Y736397D01*
X298817Y736382D01*
X298913Y736357D01*
X299013Y736351D01*
X299034Y736347D01*
X299046Y736349D01*
X299074Y736347D01*
X336790Y736347D01*
X336908Y736362D01*
X337027Y736369D01*
X337065Y736382D01*
X337106Y736387D01*
X337216Y736430D01*
X337329Y736467D01*
X337364Y736489D01*
X337401Y736504D01*
X337497Y736573D01*
X337598Y736637D01*
X337626Y736667D01*
X337659Y736690D01*
X337735Y736782D01*
X337816Y736869D01*
X337836Y736904D01*
X337861Y736935D01*
X337912Y737043D01*
X337970Y737147D01*
X337980Y737187D01*
X337997Y737223D01*
X338019Y737340D01*
X338049Y737455D01*
X338053Y737515D01*
X338057Y737535D01*
X338055Y737556D01*
X338059Y737616D01*
X338059Y749052D01*
X339548Y750541D01*
X351652Y750541D01*
X353141Y749052D01*
X353141Y700948D01*
X352823Y700630D01*
X352751Y700536D01*
X352672Y700447D01*
X352653Y700411D01*
X352629Y700379D01*
X352581Y700270D01*
X352527Y700164D01*
X352518Y700124D01*
X352502Y700087D01*
X352483Y699969D01*
X352457Y699853D01*
X352459Y699813D01*
X352452Y699773D01*
X352464Y699654D01*
X352467Y699536D01*
X352478Y699497D01*
X352482Y699457D01*
X352522Y699344D01*
X352556Y699230D01*
X352576Y699195D01*
X352590Y699157D01*
X352656Y699059D01*
X352717Y698956D01*
X352757Y698911D01*
X352768Y698894D01*
X352784Y698881D01*
X352823Y698835D01*
X359640Y692018D01*
X359696Y691976D01*
X359744Y691926D01*
X359821Y691879D01*
X359892Y691823D01*
X359956Y691796D01*
X360015Y691759D01*
X360101Y691733D01*
X360183Y691697D01*
X360252Y691686D01*
X360319Y691666D01*
X360409Y691661D01*
X360498Y691647D01*
X360567Y691654D01*
X360637Y691651D01*
X360725Y691669D01*
X360814Y691677D01*
X360880Y691701D01*
X360948Y691715D01*
X361029Y691754D01*
X361113Y691785D01*
X361171Y691824D01*
X361234Y691855D01*
X361302Y691913D01*
X361377Y691963D01*
X361423Y692016D01*
X361476Y692061D01*
X361528Y692134D01*
X361587Y692202D01*
X361619Y692264D01*
X361659Y692321D01*
X361691Y692405D01*
X361732Y692485D01*
X361747Y692553D01*
X361772Y692618D01*
X361782Y692708D01*
X361801Y692795D01*
X361799Y692865D01*
X361807Y692934D01*
X361794Y693023D01*
X361792Y693113D01*
X361772Y693180D01*
X361763Y693249D01*
X361710Y693402D01*
X360961Y695210D01*
X360961Y697737D01*
X360966Y697752D01*
X360987Y697797D01*
X361007Y697905D01*
X361036Y698011D01*
X361037Y698061D01*
X361046Y698110D01*
X361040Y698219D01*
X361041Y698329D01*
X361030Y698377D01*
X361027Y698427D01*
X360993Y698531D01*
X360967Y698638D01*
X360944Y698682D01*
X360929Y698729D01*
X360870Y698822D01*
X360819Y698919D01*
X360785Y698956D01*
X360759Y698998D01*
X360679Y699073D01*
X360605Y699155D01*
X360563Y699182D01*
X360527Y699216D01*
X360431Y699269D01*
X360339Y699329D01*
X360292Y699346D01*
X360248Y699370D01*
X360142Y699397D01*
X360038Y699433D01*
X359989Y699437D01*
X359940Y699449D01*
X359780Y699459D01*
X359548Y699459D01*
X358059Y700948D01*
X358059Y749052D01*
X359548Y750541D01*
X371652Y750541D01*
X373141Y749052D01*
X373141Y700948D01*
X373126Y700933D01*
X373108Y700910D01*
X373086Y700891D01*
X373011Y700785D01*
X372931Y700682D01*
X372920Y700655D01*
X372903Y700631D01*
X372856Y700509D01*
X372805Y700390D01*
X372800Y700361D01*
X372790Y700333D01*
X372775Y700204D01*
X372755Y700076D01*
X372758Y700047D01*
X372755Y700017D01*
X372773Y699888D01*
X372785Y699759D01*
X372795Y699731D01*
X372799Y699702D01*
X372851Y699550D01*
X373607Y697726D01*
X373607Y695210D01*
X372644Y692886D01*
X370866Y691108D01*
X368542Y690145D01*
X366026Y690145D01*
X364218Y690894D01*
X364150Y690913D01*
X364086Y690941D01*
X363997Y690955D01*
X363911Y690978D01*
X363841Y690980D01*
X363772Y690990D01*
X363683Y690982D01*
X363593Y690983D01*
X363525Y690967D01*
X363456Y690961D01*
X363371Y690930D01*
X363284Y690909D01*
X363222Y690877D01*
X363156Y690853D01*
X363082Y690803D01*
X363003Y690761D01*
X362951Y690714D01*
X362893Y690674D01*
X362834Y690607D01*
X362767Y690547D01*
X362729Y690488D01*
X362683Y690436D01*
X362642Y690356D01*
X362592Y690281D01*
X362570Y690215D01*
X362538Y690153D01*
X362518Y690065D01*
X362489Y689980D01*
X362484Y689911D01*
X362468Y689842D01*
X362471Y689753D01*
X362464Y689663D01*
X362476Y689594D01*
X362478Y689525D01*
X362503Y689438D01*
X362518Y689350D01*
X362547Y689286D01*
X362566Y689219D01*
X362612Y689142D01*
X362649Y689060D01*
X362693Y689005D01*
X362728Y688945D01*
X362834Y688824D01*
X362967Y688692D01*
X362967Y686170D01*
X362979Y686072D01*
X362982Y685973D01*
X362999Y685914D01*
X363007Y685854D01*
X363043Y685762D01*
X363071Y685667D01*
X363101Y685615D01*
X363124Y685559D01*
X363182Y685479D01*
X363232Y685393D01*
X363298Y685318D01*
X363310Y685301D01*
X363320Y685293D01*
X363338Y685272D01*
X372293Y676318D01*
X372402Y676233D01*
X372509Y676144D01*
X372528Y676136D01*
X372544Y676123D01*
X372672Y676068D01*
X372797Y676009D01*
X372817Y676005D01*
X372836Y675997D01*
X372974Y675975D01*
X373110Y675949D01*
X373130Y675950D01*
X373150Y675947D01*
X373289Y675960D01*
X373427Y675969D01*
X373446Y675975D01*
X373466Y675977D01*
X373598Y676024D01*
X373729Y676067D01*
X373747Y676078D01*
X373766Y676085D01*
X373881Y676163D01*
X373998Y676237D01*
X374012Y676252D01*
X374029Y676263D01*
X374121Y676367D01*
X374216Y676469D01*
X374226Y676486D01*
X374239Y676502D01*
X374303Y676626D01*
X374370Y676747D01*
X374375Y676767D01*
X374384Y676785D01*
X374411Y676904D01*
X375948Y678441D01*
X386052Y678441D01*
X387579Y676914D01*
X387581Y676900D01*
X387632Y676771D01*
X387679Y676640D01*
X387690Y676623D01*
X387698Y676605D01*
X387779Y676492D01*
X387857Y676377D01*
X387873Y676364D01*
X387884Y676347D01*
X387992Y676259D01*
X388096Y676166D01*
X388114Y676157D01*
X388129Y676144D01*
X388255Y676085D01*
X388379Y676022D01*
X388399Y676017D01*
X388417Y676009D01*
X388553Y675983D01*
X388689Y675952D01*
X388710Y675953D01*
X388729Y675949D01*
X388868Y675958D01*
X389007Y675962D01*
X389027Y675968D01*
X389047Y675969D01*
X389179Y676012D01*
X389313Y676050D01*
X389330Y676061D01*
X389349Y676067D01*
X389467Y676141D01*
X389587Y676212D01*
X389608Y676230D01*
X389618Y676237D01*
X389632Y676252D01*
X389707Y676318D01*
X439288Y725898D01*
X439348Y725977D01*
X439416Y726049D01*
X439445Y726102D01*
X439482Y726150D01*
X439522Y726241D01*
X439570Y726327D01*
X439585Y726386D01*
X439609Y726441D01*
X439624Y726539D01*
X439649Y726635D01*
X439655Y726735D01*
X439659Y726756D01*
X439657Y726768D01*
X439659Y726796D01*
X439659Y749052D01*
X441148Y750541D01*
X453252Y750541D01*
X454741Y749052D01*
X454741Y700948D01*
X453252Y699459D01*
X441148Y699459D01*
X439659Y700948D01*
X439659Y713864D01*
X439642Y714002D01*
X439629Y714141D01*
X439622Y714160D01*
X439619Y714180D01*
X439568Y714309D01*
X439521Y714440D01*
X439510Y714457D01*
X439502Y714475D01*
X439421Y714588D01*
X439343Y714703D01*
X439327Y714716D01*
X439316Y714733D01*
X439208Y714822D01*
X439104Y714914D01*
X439086Y714923D01*
X439071Y714936D01*
X438945Y714995D01*
X438821Y715058D01*
X438801Y715063D01*
X438783Y715071D01*
X438647Y715097D01*
X438511Y715128D01*
X438490Y715127D01*
X438471Y715131D01*
X438332Y715122D01*
X438193Y715118D01*
X438173Y715112D01*
X438153Y715111D01*
X438021Y715068D01*
X437887Y715030D01*
X437870Y715019D01*
X437851Y715013D01*
X437733Y714939D01*
X437613Y714868D01*
X437592Y714850D01*
X437582Y714843D01*
X437568Y714828D01*
X437493Y714762D01*
X395712Y672981D01*
X395639Y672887D01*
X395561Y672798D01*
X395551Y672780D01*
X395538Y672765D01*
X395530Y672746D01*
X395517Y672730D01*
X395470Y672620D01*
X395416Y672515D01*
X395412Y672495D01*
X395403Y672477D01*
X395399Y672457D01*
X395391Y672438D01*
X395372Y672320D01*
X395346Y672205D01*
X395347Y672185D01*
X395343Y672164D01*
X395344Y672144D01*
X395341Y672124D01*
X395352Y672005D01*
X395356Y671887D01*
X395362Y671868D01*
X395363Y671847D01*
X395369Y671828D01*
X395371Y671808D01*
X395412Y671695D01*
X395444Y671581D01*
X395455Y671564D01*
X395461Y671545D01*
X395472Y671527D01*
X395479Y671508D01*
X395546Y671409D01*
X395606Y671307D01*
X395624Y671286D01*
X395631Y671276D01*
X395646Y671262D01*
X395657Y671245D01*
X395673Y671232D01*
X395712Y671186D01*
X407163Y659736D01*
X407163Y651118D01*
X407175Y651020D01*
X407178Y650921D01*
X407195Y650862D01*
X407203Y650802D01*
X407239Y650710D01*
X407267Y650615D01*
X407297Y650563D01*
X407320Y650507D01*
X407378Y650427D01*
X407428Y650341D01*
X407494Y650266D01*
X407506Y650249D01*
X407516Y650241D01*
X407534Y650220D01*
X412476Y645278D01*
X412555Y645218D01*
X412627Y645150D01*
X412680Y645121D01*
X412728Y645084D01*
X412819Y645044D01*
X412905Y644996D01*
X412964Y644981D01*
X413019Y644957D01*
X413117Y644942D01*
X413213Y644917D01*
X413313Y644911D01*
X413334Y644907D01*
X413346Y644909D01*
X413374Y644907D01*
X413990Y644907D01*
X414108Y644922D01*
G37*
G36*
X289659Y570614D02*
X289659Y570614D01*
X289797Y570623D01*
X289816Y570629D01*
X289836Y570631D01*
X289968Y570678D01*
X290099Y570721D01*
X290117Y570732D01*
X290136Y570739D01*
X290251Y570817D01*
X290368Y570891D01*
X290382Y570906D01*
X290399Y570917D01*
X290491Y571021D01*
X290586Y571123D01*
X290596Y571140D01*
X290609Y571156D01*
X290673Y571279D01*
X290740Y571401D01*
X290745Y571421D01*
X290754Y571439D01*
X290784Y571575D01*
X290819Y571709D01*
X290821Y571737D01*
X290824Y571749D01*
X290823Y571770D01*
X290829Y571870D01*
X290829Y659892D01*
X290814Y660010D01*
X290807Y660129D01*
X290794Y660167D01*
X290789Y660208D01*
X290746Y660318D01*
X290709Y660431D01*
X290687Y660466D01*
X290672Y660503D01*
X290603Y660599D01*
X290539Y660700D01*
X290509Y660728D01*
X290486Y660761D01*
X290394Y660837D01*
X290307Y660918D01*
X290272Y660938D01*
X290241Y660963D01*
X290133Y661014D01*
X290029Y661072D01*
X289989Y661082D01*
X289953Y661099D01*
X289836Y661121D01*
X289721Y661151D01*
X289661Y661155D01*
X289641Y661159D01*
X289620Y661157D01*
X289560Y661161D01*
X277524Y661161D01*
X264180Y674506D01*
X264101Y674566D01*
X264029Y674634D01*
X263976Y674663D01*
X263928Y674700D01*
X263837Y674740D01*
X263751Y674788D01*
X263692Y674803D01*
X263637Y674827D01*
X263539Y674842D01*
X263443Y674867D01*
X263343Y674873D01*
X263322Y674877D01*
X263310Y674875D01*
X263282Y674877D01*
X254664Y674877D01*
X251654Y677888D01*
X251575Y677948D01*
X251503Y678016D01*
X251450Y678045D01*
X251402Y678082D01*
X251311Y678122D01*
X251225Y678170D01*
X251166Y678185D01*
X251111Y678209D01*
X251013Y678224D01*
X250917Y678249D01*
X250817Y678255D01*
X250797Y678259D01*
X250784Y678257D01*
X250756Y678259D01*
X238948Y678259D01*
X237310Y679897D01*
X237302Y679915D01*
X237221Y680028D01*
X237143Y680143D01*
X237127Y680156D01*
X237116Y680173D01*
X237008Y680262D01*
X236904Y680354D01*
X236886Y680363D01*
X236871Y680376D01*
X236745Y680435D01*
X236621Y680498D01*
X236601Y680503D01*
X236583Y680511D01*
X236446Y680537D01*
X236311Y680568D01*
X236290Y680567D01*
X236271Y680571D01*
X236132Y680562D01*
X235993Y680558D01*
X235973Y680552D01*
X235953Y680551D01*
X235821Y680508D01*
X235687Y680470D01*
X235670Y680459D01*
X235651Y680453D01*
X235533Y680379D01*
X235413Y680308D01*
X235392Y680290D01*
X235382Y680283D01*
X235368Y680268D01*
X235293Y680202D01*
X233798Y678708D01*
X233738Y678629D01*
X233670Y678557D01*
X233641Y678504D01*
X233604Y678456D01*
X233564Y678365D01*
X233516Y678279D01*
X233501Y678220D01*
X233477Y678165D01*
X233462Y678067D01*
X233437Y677971D01*
X233431Y677871D01*
X233427Y677850D01*
X233429Y677838D01*
X233427Y677810D01*
X233427Y672240D01*
X188820Y627633D01*
X186610Y627633D01*
X186492Y627618D01*
X186373Y627611D01*
X186335Y627598D01*
X186294Y627593D01*
X186184Y627550D01*
X186071Y627513D01*
X186036Y627491D01*
X185999Y627476D01*
X185903Y627407D01*
X185802Y627343D01*
X185774Y627313D01*
X185741Y627290D01*
X185665Y627198D01*
X185584Y627111D01*
X185564Y627076D01*
X185539Y627045D01*
X185488Y626937D01*
X185430Y626833D01*
X185420Y626793D01*
X185403Y626757D01*
X185381Y626640D01*
X185351Y626525D01*
X185347Y626465D01*
X185343Y626445D01*
X185345Y626424D01*
X185341Y626364D01*
X185341Y624248D01*
X184291Y623197D01*
X184218Y623103D01*
X184139Y623014D01*
X184121Y622978D01*
X184096Y622946D01*
X184048Y622837D01*
X183994Y622731D01*
X183985Y622692D01*
X183969Y622654D01*
X183951Y622537D01*
X183925Y622421D01*
X183926Y622380D01*
X183920Y622340D01*
X183931Y622222D01*
X183934Y622103D01*
X183946Y622064D01*
X183949Y622024D01*
X183990Y621912D01*
X184023Y621797D01*
X184043Y621762D01*
X184057Y621724D01*
X184124Y621626D01*
X184184Y621523D01*
X184224Y621478D01*
X184236Y621461D01*
X184251Y621448D01*
X184291Y621402D01*
X185341Y620352D01*
X185341Y607248D01*
X183852Y605759D01*
X181356Y605759D01*
X181238Y605744D01*
X181119Y605737D01*
X181081Y605724D01*
X181040Y605719D01*
X180930Y605676D01*
X180817Y605639D01*
X180782Y605617D01*
X180745Y605602D01*
X180649Y605533D01*
X180548Y605469D01*
X180520Y605439D01*
X180487Y605416D01*
X180411Y605324D01*
X180330Y605237D01*
X180310Y605202D01*
X180285Y605171D01*
X180234Y605063D01*
X180176Y604959D01*
X180166Y604919D01*
X180149Y604883D01*
X180127Y604766D01*
X180097Y604651D01*
X180093Y604591D01*
X180089Y604571D01*
X180090Y604555D01*
X180089Y604550D01*
X180090Y604540D01*
X180087Y604490D01*
X180087Y603504D01*
X180102Y603386D01*
X180109Y603267D01*
X180122Y603229D01*
X180127Y603188D01*
X180170Y603078D01*
X180207Y602965D01*
X180229Y602930D01*
X180244Y602893D01*
X180313Y602797D01*
X180377Y602696D01*
X180407Y602668D01*
X180430Y602635D01*
X180522Y602559D01*
X180609Y602478D01*
X180644Y602458D01*
X180675Y602433D01*
X180783Y602382D01*
X180887Y602324D01*
X180927Y602314D01*
X180963Y602297D01*
X181080Y602275D01*
X181195Y602245D01*
X181255Y602241D01*
X181275Y602237D01*
X181296Y602239D01*
X181356Y602235D01*
X257400Y602235D01*
X288663Y570972D01*
X288772Y570887D01*
X288879Y570798D01*
X288898Y570790D01*
X288914Y570777D01*
X289042Y570722D01*
X289167Y570663D01*
X289187Y570659D01*
X289206Y570651D01*
X289344Y570629D01*
X289480Y570603D01*
X289500Y570604D01*
X289520Y570601D01*
X289659Y570614D01*
G37*
%LPC*%
G36*
X90804Y668059D02*
X90804Y668059D01*
X86563Y669816D01*
X83316Y673063D01*
X81559Y677304D01*
X81559Y681896D01*
X83316Y686137D01*
X86563Y689384D01*
X90804Y691141D01*
X95396Y691141D01*
X99637Y689384D01*
X100194Y688827D01*
X100288Y688755D01*
X100377Y688676D01*
X100413Y688657D01*
X100445Y688632D01*
X100554Y688585D01*
X100660Y688531D01*
X100700Y688522D01*
X100737Y688506D01*
X100855Y688487D01*
X100970Y688461D01*
X101011Y688463D01*
X101051Y688456D01*
X101169Y688467D01*
X101288Y688471D01*
X101327Y688482D01*
X101367Y688486D01*
X101479Y688526D01*
X101594Y688559D01*
X101629Y688580D01*
X101667Y688594D01*
X101765Y688661D01*
X101868Y688721D01*
X101913Y688761D01*
X101930Y688772D01*
X101943Y688788D01*
X101989Y688827D01*
X106054Y692892D01*
X108360Y695199D01*
X150506Y695199D01*
X150604Y695211D01*
X150703Y695214D01*
X150762Y695231D01*
X150822Y695239D01*
X150914Y695275D01*
X151009Y695303D01*
X151061Y695333D01*
X151117Y695356D01*
X151197Y695414D01*
X151283Y695464D01*
X151358Y695530D01*
X151375Y695542D01*
X151383Y695552D01*
X151404Y695570D01*
X154923Y699089D01*
X154996Y699183D01*
X155074Y699273D01*
X155093Y699309D01*
X155117Y699341D01*
X155165Y699450D01*
X155219Y699556D01*
X155228Y699595D01*
X155244Y699632D01*
X155263Y699750D01*
X155289Y699866D01*
X155287Y699907D01*
X155294Y699947D01*
X155282Y700065D01*
X155279Y700184D01*
X155268Y700223D01*
X155264Y700263D01*
X155224Y700375D01*
X155190Y700490D01*
X155170Y700524D01*
X155156Y700562D01*
X155089Y700661D01*
X155029Y700764D01*
X154989Y700809D01*
X154978Y700826D01*
X154962Y700839D01*
X154923Y700884D01*
X154859Y700948D01*
X154859Y749052D01*
X156348Y750541D01*
X168452Y750541D01*
X169941Y749052D01*
X169941Y700948D01*
X168452Y699459D01*
X164592Y699459D01*
X164474Y699444D01*
X164355Y699437D01*
X164317Y699424D01*
X164276Y699419D01*
X164166Y699376D01*
X164053Y699339D01*
X164018Y699317D01*
X163981Y699302D01*
X163885Y699233D01*
X163784Y699169D01*
X163756Y699139D01*
X163723Y699116D01*
X163647Y699024D01*
X163566Y698937D01*
X163546Y698902D01*
X163521Y698871D01*
X163470Y698763D01*
X163412Y698659D01*
X163402Y698619D01*
X163385Y698583D01*
X163363Y698466D01*
X163333Y698351D01*
X163329Y698291D01*
X163325Y698271D01*
X163327Y698250D01*
X163323Y698190D01*
X163323Y698148D01*
X153768Y688593D01*
X111622Y688593D01*
X111524Y688581D01*
X111425Y688578D01*
X111366Y688561D01*
X111306Y688553D01*
X111214Y688517D01*
X111119Y688489D01*
X111067Y688459D01*
X111011Y688436D01*
X110931Y688378D01*
X110845Y688328D01*
X110770Y688262D01*
X110753Y688250D01*
X110745Y688240D01*
X110724Y688222D01*
X105012Y682510D01*
X104952Y682431D01*
X104884Y682359D01*
X104855Y682306D01*
X104818Y682258D01*
X104778Y682167D01*
X104730Y682081D01*
X104715Y682022D01*
X104691Y681967D01*
X104676Y681869D01*
X104651Y681773D01*
X104645Y681673D01*
X104641Y681653D01*
X104643Y681640D01*
X104641Y681612D01*
X104641Y677304D01*
X102884Y673063D01*
X99637Y669816D01*
X95396Y668059D01*
X90804Y668059D01*
G37*
%LPD*%
%LPC*%
G36*
X65276Y751364D02*
X65276Y751364D01*
X57464Y759176D01*
X57464Y770224D01*
X65276Y778036D01*
X76324Y778036D01*
X84136Y770224D01*
X84136Y759176D01*
X76324Y751364D01*
X65276Y751364D01*
G37*
%LPD*%
%LPC*%
G36*
X90804Y568059D02*
X90804Y568059D01*
X86563Y569816D01*
X83316Y573063D01*
X81559Y577304D01*
X81559Y581896D01*
X83316Y586137D01*
X86563Y589384D01*
X90804Y591141D01*
X95396Y591141D01*
X99637Y589384D01*
X102884Y586137D01*
X104641Y581896D01*
X104641Y577304D01*
X102884Y573063D01*
X99637Y569816D01*
X95396Y568059D01*
X90804Y568059D01*
G37*
%LPD*%
%LPC*%
G36*
X35804Y618059D02*
X35804Y618059D01*
X31563Y619816D01*
X28316Y623063D01*
X26559Y627304D01*
X26559Y631896D01*
X28316Y636137D01*
X31563Y639384D01*
X35804Y641141D01*
X40396Y641141D01*
X44637Y639384D01*
X47884Y636137D01*
X49641Y631896D01*
X49641Y627304D01*
X47884Y623063D01*
X44637Y619816D01*
X40396Y618059D01*
X35804Y618059D01*
G37*
%LPD*%
%LPC*%
G36*
X253839Y643939D02*
X253839Y643939D01*
X253839Y667441D01*
X261478Y667441D01*
X263311Y667150D01*
X265076Y666577D01*
X266730Y665734D01*
X266864Y665637D01*
X268231Y664644D01*
X269544Y663331D01*
X270634Y661830D01*
X271477Y660176D01*
X272050Y658411D01*
X272341Y656578D01*
X272341Y643939D01*
X253839Y643939D01*
G37*
%LPD*%
%LPC*%
G36*
X253839Y615359D02*
X253839Y615359D01*
X253839Y638861D01*
X272341Y638861D01*
X272341Y626222D01*
X272050Y624389D01*
X271477Y622624D01*
X270634Y620970D01*
X269544Y619469D01*
X268231Y618156D01*
X266730Y617066D01*
X265076Y616223D01*
X263311Y615650D01*
X261478Y615359D01*
X253839Y615359D01*
G37*
%LPD*%
%LPC*%
G36*
X230259Y643939D02*
X230259Y643939D01*
X230259Y656578D01*
X230550Y658411D01*
X231123Y660176D01*
X231966Y661830D01*
X233056Y663331D01*
X234369Y664644D01*
X235870Y665734D01*
X237524Y666577D01*
X239289Y667150D01*
X241122Y667441D01*
X248761Y667441D01*
X248761Y643939D01*
X230259Y643939D01*
G37*
%LPD*%
%LPC*%
G36*
X241122Y615359D02*
X241122Y615359D01*
X239289Y615650D01*
X237524Y616223D01*
X235870Y617066D01*
X234369Y618156D01*
X233056Y619469D01*
X231966Y620970D01*
X231123Y622624D01*
X230550Y624389D01*
X230259Y626222D01*
X230259Y638861D01*
X248761Y638861D01*
X248761Y615359D01*
X241122Y615359D01*
G37*
%LPD*%
%LPC*%
G36*
X144899Y727499D02*
X144899Y727499D01*
X144899Y750541D01*
X147734Y750541D01*
X148381Y750368D01*
X148960Y750033D01*
X149433Y749560D01*
X149768Y748981D01*
X149941Y748334D01*
X149941Y727499D01*
X144899Y727499D01*
G37*
%LPD*%
%LPC*%
G36*
X144899Y699459D02*
X144899Y699459D01*
X144899Y722501D01*
X149941Y722501D01*
X149941Y701666D01*
X149768Y701019D01*
X149433Y700440D01*
X148960Y699967D01*
X148381Y699632D01*
X147734Y699459D01*
X144899Y699459D01*
G37*
%LPD*%
%LPC*%
G36*
X134859Y727499D02*
X134859Y727499D01*
X134859Y748334D01*
X135032Y748981D01*
X135367Y749560D01*
X135840Y750033D01*
X136419Y750368D01*
X137066Y750541D01*
X139901Y750541D01*
X139901Y727499D01*
X134859Y727499D01*
G37*
%LPD*%
%LPC*%
G36*
X137066Y699459D02*
X137066Y699459D01*
X136419Y699632D01*
X135840Y699967D01*
X135367Y700440D01*
X135032Y701019D01*
X134859Y701666D01*
X134859Y722501D01*
X139901Y722501D01*
X139901Y699459D01*
X137066Y699459D01*
G37*
%LPD*%
%LPC*%
G36*
X408939Y598939D02*
X408939Y598939D01*
X408939Y605441D01*
X414234Y605441D01*
X414881Y605268D01*
X415460Y604933D01*
X415933Y604460D01*
X416268Y603881D01*
X416441Y603234D01*
X416441Y598939D01*
X408939Y598939D01*
G37*
%LPD*%
%LPC*%
G36*
X396359Y598939D02*
X396359Y598939D01*
X396359Y603234D01*
X396532Y603881D01*
X396867Y604460D01*
X397340Y604933D01*
X397919Y605268D01*
X398566Y605441D01*
X403861Y605441D01*
X403861Y598939D01*
X396359Y598939D01*
G37*
%LPD*%
%LPC*%
G36*
X318399Y604749D02*
X318399Y604749D01*
X318399Y608791D01*
X328234Y608791D01*
X328881Y608618D01*
X329460Y608283D01*
X329933Y607810D01*
X330268Y607231D01*
X330441Y606584D01*
X330441Y604749D01*
X318399Y604749D01*
G37*
%LPD*%
%LPC*%
G36*
X303359Y604749D02*
X303359Y604749D01*
X303359Y606584D01*
X303532Y607231D01*
X303867Y607810D01*
X304340Y608283D01*
X304919Y608618D01*
X305566Y608791D01*
X315401Y608791D01*
X315401Y604749D01*
X303359Y604749D01*
G37*
%LPD*%
%LPC*%
G36*
X392499Y652399D02*
X392499Y652399D01*
X392499Y657441D01*
X394834Y657441D01*
X395481Y657268D01*
X396060Y656933D01*
X396533Y656460D01*
X396868Y655881D01*
X397041Y655234D01*
X397041Y652399D01*
X392499Y652399D01*
G37*
%LPD*%
%LPC*%
G36*
X383959Y652399D02*
X383959Y652399D01*
X383959Y655234D01*
X384132Y655881D01*
X384467Y656460D01*
X384940Y656933D01*
X385519Y657268D01*
X386166Y657441D01*
X388501Y657441D01*
X388501Y652399D01*
X383959Y652399D01*
G37*
%LPD*%
%LPC*%
G36*
X392499Y643359D02*
X392499Y643359D01*
X392499Y648401D01*
X397041Y648401D01*
X397041Y645566D01*
X396868Y644919D01*
X396533Y644340D01*
X396060Y643867D01*
X395481Y643532D01*
X394834Y643359D01*
X392499Y643359D01*
G37*
%LPD*%
%LPC*%
G36*
X386166Y643359D02*
X386166Y643359D01*
X385519Y643532D01*
X384940Y643867D01*
X384467Y644340D01*
X384132Y644919D01*
X383959Y645566D01*
X383959Y648401D01*
X388501Y648401D01*
X388501Y643359D01*
X386166Y643359D01*
G37*
%LPD*%
%LPC*%
G36*
X438949Y569749D02*
X438949Y569749D01*
X438949Y574041D01*
X442034Y574041D01*
X442681Y573868D01*
X443260Y573533D01*
X443733Y573060D01*
X444068Y572481D01*
X444241Y571834D01*
X444241Y569749D01*
X438949Y569749D01*
G37*
%LPD*%
%LPC*%
G36*
X430159Y569749D02*
X430159Y569749D01*
X430159Y571834D01*
X430332Y572481D01*
X430667Y573060D01*
X431140Y573533D01*
X431719Y573868D01*
X432366Y574041D01*
X435451Y574041D01*
X435451Y569749D01*
X430159Y569749D01*
G37*
%LPD*%
%LPC*%
G36*
X251299Y641399D02*
X251299Y641399D01*
X251299Y641401D01*
X251301Y641401D01*
X251301Y641399D01*
X251299Y641399D01*
G37*
%LPD*%
D10*
X0Y830000D02*
X0Y879500D01*
X520000Y879500D02*
X520000Y830000D01*
X519350Y860000D02*
X650Y860000D01*
X26000Y863192D01*
X26000Y856808D01*
X650Y860000D01*
X26000Y861300D01*
X26000Y858700D02*
X650Y860000D01*
X26000Y862600D01*
X26000Y857400D02*
X650Y860000D01*
X494000Y863192D02*
X519350Y860000D01*
X494000Y863192D02*
X494000Y856808D01*
X519350Y860000D01*
X494000Y861300D01*
X494000Y858700D02*
X519350Y860000D01*
X494000Y862600D01*
X494000Y857400D02*
X519350Y860000D01*
D11*
X234360Y866507D02*
X228941Y866507D01*
X234360Y866507D02*
X234478Y866509D01*
X234596Y866515D01*
X234714Y866524D01*
X234831Y866538D01*
X234948Y866555D01*
X235065Y866576D01*
X235180Y866601D01*
X235295Y866630D01*
X235409Y866663D01*
X235521Y866699D01*
X235632Y866739D01*
X235742Y866782D01*
X235851Y866829D01*
X235958Y866879D01*
X236063Y866934D01*
X236166Y866991D01*
X236267Y867052D01*
X236367Y867116D01*
X236464Y867183D01*
X236559Y867253D01*
X236651Y867327D01*
X236742Y867403D01*
X236829Y867483D01*
X236914Y867565D01*
X236996Y867650D01*
X237076Y867737D01*
X237152Y867828D01*
X237226Y867920D01*
X237296Y868015D01*
X237363Y868112D01*
X237427Y868212D01*
X237488Y868313D01*
X237545Y868416D01*
X237600Y868521D01*
X237650Y868628D01*
X237697Y868737D01*
X237740Y868847D01*
X237780Y868958D01*
X237816Y869070D01*
X237849Y869184D01*
X237878Y869299D01*
X237903Y869414D01*
X237924Y869531D01*
X237941Y869648D01*
X237955Y869765D01*
X237964Y869883D01*
X237970Y870001D01*
X237972Y870119D01*
X237972Y871926D01*
X237970Y872044D01*
X237964Y872162D01*
X237955Y872280D01*
X237941Y872397D01*
X237924Y872514D01*
X237903Y872631D01*
X237878Y872746D01*
X237849Y872861D01*
X237816Y872975D01*
X237780Y873087D01*
X237740Y873198D01*
X237697Y873308D01*
X237650Y873417D01*
X237600Y873524D01*
X237545Y873629D01*
X237488Y873732D01*
X237427Y873833D01*
X237363Y873933D01*
X237296Y874030D01*
X237226Y874125D01*
X237152Y874217D01*
X237076Y874308D01*
X236996Y874395D01*
X236914Y874480D01*
X236829Y874562D01*
X236742Y874642D01*
X236651Y874718D01*
X236559Y874792D01*
X236464Y874862D01*
X236367Y874929D01*
X236267Y874993D01*
X236166Y875054D01*
X236063Y875111D01*
X235958Y875166D01*
X235851Y875216D01*
X235742Y875263D01*
X235632Y875306D01*
X235521Y875346D01*
X235409Y875382D01*
X235295Y875415D01*
X235180Y875444D01*
X235065Y875469D01*
X234948Y875490D01*
X234831Y875507D01*
X234714Y875521D01*
X234596Y875530D01*
X234478Y875536D01*
X234360Y875538D01*
X228941Y875538D01*
X228941Y882763D01*
X237972Y882763D01*
X249540Y882763D02*
X249665Y882761D01*
X249790Y882755D01*
X249915Y882746D01*
X250039Y882732D01*
X250163Y882715D01*
X250287Y882694D01*
X250409Y882669D01*
X250531Y882640D01*
X250652Y882608D01*
X250772Y882572D01*
X250891Y882532D01*
X251008Y882489D01*
X251124Y882442D01*
X251239Y882391D01*
X251351Y882337D01*
X251463Y882279D01*
X251572Y882219D01*
X251679Y882154D01*
X251785Y882087D01*
X251888Y882016D01*
X251989Y881942D01*
X252088Y881865D01*
X252184Y881785D01*
X252278Y881702D01*
X252369Y881617D01*
X252458Y881528D01*
X252543Y881437D01*
X252626Y881343D01*
X252706Y881247D01*
X252783Y881148D01*
X252857Y881047D01*
X252928Y880944D01*
X252995Y880838D01*
X253060Y880731D01*
X253120Y880622D01*
X253178Y880510D01*
X253232Y880398D01*
X253283Y880283D01*
X253330Y880167D01*
X253373Y880050D01*
X253413Y879931D01*
X253449Y879811D01*
X253481Y879690D01*
X253510Y879568D01*
X253535Y879446D01*
X253556Y879322D01*
X253573Y879198D01*
X253587Y879074D01*
X253596Y878949D01*
X253602Y878824D01*
X253604Y878699D01*
X249540Y882763D02*
X249397Y882761D01*
X249255Y882755D01*
X249112Y882745D01*
X248970Y882732D01*
X248829Y882714D01*
X248687Y882693D01*
X248547Y882668D01*
X248407Y882639D01*
X248268Y882606D01*
X248130Y882569D01*
X247993Y882529D01*
X247858Y882485D01*
X247723Y882437D01*
X247590Y882385D01*
X247458Y882330D01*
X247328Y882271D01*
X247200Y882209D01*
X247073Y882143D01*
X246948Y882074D01*
X246825Y882002D01*
X246705Y881926D01*
X246586Y881847D01*
X246469Y881764D01*
X246355Y881679D01*
X246243Y881590D01*
X246134Y881499D01*
X246027Y881404D01*
X245922Y881307D01*
X245821Y881206D01*
X245722Y881103D01*
X245626Y880998D01*
X245533Y880889D01*
X245443Y880778D01*
X245356Y880665D01*
X245272Y880550D01*
X245192Y880432D01*
X245114Y880312D01*
X245040Y880190D01*
X244970Y880066D01*
X244902Y879940D01*
X244839Y879812D01*
X244778Y879683D01*
X244721Y879552D01*
X244668Y879420D01*
X244619Y879286D01*
X244573Y879151D01*
X252248Y875538D02*
X252342Y875630D01*
X252432Y875724D01*
X252520Y875821D01*
X252605Y875921D01*
X252687Y876023D01*
X252766Y876128D01*
X252841Y876235D01*
X252913Y876344D01*
X252982Y876455D01*
X253048Y876569D01*
X253110Y876684D01*
X253169Y876801D01*
X253224Y876920D01*
X253275Y877040D01*
X253323Y877162D01*
X253368Y877285D01*
X253408Y877409D01*
X253445Y877535D01*
X253478Y877662D01*
X253507Y877789D01*
X253533Y877918D01*
X253554Y878047D01*
X253572Y878177D01*
X253585Y878307D01*
X253595Y878437D01*
X253601Y878568D01*
X253603Y878699D01*
X252249Y875538D02*
X244573Y866507D01*
X253604Y866507D01*
X259578Y866507D02*
X259578Y867410D01*
X260481Y867410D01*
X260481Y866507D01*
X259578Y866507D01*
X266456Y874635D02*
X266460Y874955D01*
X266471Y875274D01*
X266490Y875594D01*
X266517Y875912D01*
X266551Y876230D01*
X266593Y876547D01*
X266643Y876863D01*
X266700Y877178D01*
X266764Y877491D01*
X266836Y877803D01*
X266915Y878113D01*
X267002Y878420D01*
X267096Y878726D01*
X267197Y879029D01*
X267306Y879330D01*
X267421Y879628D01*
X267544Y879924D01*
X267674Y880216D01*
X267811Y880505D01*
X267811Y880506D02*
X267850Y880614D01*
X267893Y880721D01*
X267939Y880826D01*
X267990Y880930D01*
X268043Y881032D01*
X268100Y881132D01*
X268161Y881230D01*
X268225Y881325D01*
X268292Y881419D01*
X268363Y881510D01*
X268436Y881599D01*
X268513Y881685D01*
X268592Y881768D01*
X268674Y881849D01*
X268759Y881927D01*
X268847Y882001D01*
X268937Y882073D01*
X269029Y882141D01*
X269124Y882207D01*
X269221Y882269D01*
X269320Y882327D01*
X269422Y882383D01*
X269524Y882434D01*
X269629Y882482D01*
X269735Y882527D01*
X269843Y882568D01*
X269952Y882605D01*
X270062Y882638D01*
X270174Y882667D01*
X270286Y882693D01*
X270399Y882715D01*
X270513Y882732D01*
X270627Y882746D01*
X270742Y882756D01*
X270857Y882762D01*
X270972Y882764D01*
X270972Y882763D02*
X271087Y882761D01*
X271202Y882755D01*
X271317Y882745D01*
X271431Y882731D01*
X271545Y882714D01*
X271658Y882692D01*
X271770Y882666D01*
X271882Y882637D01*
X271992Y882604D01*
X272101Y882567D01*
X272209Y882526D01*
X272315Y882481D01*
X272420Y882433D01*
X272522Y882382D01*
X272623Y882326D01*
X272723Y882268D01*
X272820Y882206D01*
X272914Y882141D01*
X273007Y882072D01*
X273097Y882000D01*
X273185Y881926D01*
X273270Y881848D01*
X273352Y881767D01*
X273431Y881684D01*
X273508Y881598D01*
X273581Y881509D01*
X273652Y881418D01*
X273719Y881324D01*
X273783Y881229D01*
X273844Y881131D01*
X273901Y881031D01*
X273954Y880929D01*
X274005Y880825D01*
X274051Y880720D01*
X274094Y880613D01*
X274133Y880505D01*
X274132Y880505D02*
X274269Y880216D01*
X274399Y879924D01*
X274522Y879628D01*
X274637Y879330D01*
X274746Y879029D01*
X274847Y878726D01*
X274941Y878420D01*
X275028Y878113D01*
X275107Y877803D01*
X275179Y877491D01*
X275243Y877178D01*
X275300Y876863D01*
X275350Y876547D01*
X275392Y876230D01*
X275426Y875912D01*
X275453Y875594D01*
X275472Y875274D01*
X275483Y874955D01*
X275487Y874635D01*
X266457Y874635D02*
X266461Y874315D01*
X266472Y873996D01*
X266491Y873676D01*
X266518Y873358D01*
X266552Y873040D01*
X266594Y872723D01*
X266644Y872407D01*
X266701Y872092D01*
X266765Y871779D01*
X266837Y871467D01*
X266916Y871157D01*
X267003Y870850D01*
X267097Y870544D01*
X267198Y870241D01*
X267307Y869940D01*
X267422Y869642D01*
X267545Y869346D01*
X267675Y869054D01*
X267812Y868765D01*
X267811Y868765D02*
X267850Y868657D01*
X267893Y868550D01*
X267939Y868445D01*
X267990Y868341D01*
X268043Y868239D01*
X268100Y868139D01*
X268161Y868041D01*
X268225Y867946D01*
X268292Y867852D01*
X268363Y867761D01*
X268436Y867672D01*
X268513Y867586D01*
X268592Y867503D01*
X268674Y867422D01*
X268759Y867344D01*
X268847Y867270D01*
X268937Y867198D01*
X269030Y867129D01*
X269124Y867064D01*
X269221Y867002D01*
X269321Y866944D01*
X269422Y866888D01*
X269524Y866837D01*
X269629Y866789D01*
X269735Y866744D01*
X269843Y866703D01*
X269952Y866666D01*
X270062Y866633D01*
X270174Y866604D01*
X270286Y866578D01*
X270399Y866556D01*
X270513Y866539D01*
X270627Y866525D01*
X270742Y866515D01*
X270857Y866509D01*
X270972Y866507D01*
X274132Y868765D02*
X274269Y869054D01*
X274399Y869346D01*
X274522Y869642D01*
X274637Y869940D01*
X274746Y870241D01*
X274847Y870544D01*
X274941Y870850D01*
X275028Y871157D01*
X275107Y871467D01*
X275179Y871779D01*
X275243Y872092D01*
X275300Y872407D01*
X275350Y872723D01*
X275392Y873040D01*
X275426Y873358D01*
X275453Y873676D01*
X275472Y873996D01*
X275483Y874315D01*
X275487Y874635D01*
X274133Y868765D02*
X274094Y868657D01*
X274051Y868550D01*
X274005Y868445D01*
X273954Y868341D01*
X273901Y868239D01*
X273844Y868139D01*
X273783Y868041D01*
X273719Y867946D01*
X273652Y867852D01*
X273581Y867761D01*
X273508Y867672D01*
X273431Y867586D01*
X273352Y867503D01*
X273270Y867422D01*
X273185Y867344D01*
X273097Y867270D01*
X273007Y867198D01*
X272914Y867129D01*
X272820Y867064D01*
X272723Y867002D01*
X272623Y866944D01*
X272522Y866888D01*
X272419Y866837D01*
X272315Y866789D01*
X272209Y866744D01*
X272101Y866703D01*
X271992Y866666D01*
X271882Y866633D01*
X271770Y866604D01*
X271658Y866578D01*
X271545Y866556D01*
X271431Y866539D01*
X271317Y866525D01*
X271202Y866515D01*
X271087Y866509D01*
X270972Y866507D01*
X267359Y870119D02*
X274584Y879151D01*
X282088Y874635D02*
X282092Y874955D01*
X282103Y875274D01*
X282122Y875594D01*
X282149Y875912D01*
X282183Y876230D01*
X282225Y876547D01*
X282275Y876863D01*
X282332Y877178D01*
X282396Y877491D01*
X282468Y877803D01*
X282547Y878113D01*
X282634Y878420D01*
X282728Y878726D01*
X282829Y879029D01*
X282938Y879330D01*
X283053Y879628D01*
X283176Y879924D01*
X283306Y880216D01*
X283443Y880505D01*
X283442Y880506D02*
X283481Y880614D01*
X283524Y880721D01*
X283570Y880826D01*
X283621Y880930D01*
X283674Y881032D01*
X283731Y881132D01*
X283792Y881230D01*
X283856Y881325D01*
X283923Y881419D01*
X283994Y881510D01*
X284067Y881599D01*
X284144Y881685D01*
X284223Y881768D01*
X284305Y881849D01*
X284390Y881927D01*
X284478Y882001D01*
X284568Y882073D01*
X284660Y882141D01*
X284755Y882207D01*
X284852Y882269D01*
X284951Y882327D01*
X285053Y882383D01*
X285155Y882434D01*
X285260Y882482D01*
X285366Y882527D01*
X285474Y882568D01*
X285583Y882605D01*
X285693Y882638D01*
X285805Y882667D01*
X285917Y882693D01*
X286030Y882715D01*
X286144Y882732D01*
X286258Y882746D01*
X286373Y882756D01*
X286488Y882762D01*
X286603Y882764D01*
X286603Y882763D02*
X286718Y882761D01*
X286833Y882755D01*
X286948Y882745D01*
X287062Y882731D01*
X287176Y882714D01*
X287289Y882692D01*
X287401Y882666D01*
X287513Y882637D01*
X287623Y882604D01*
X287732Y882567D01*
X287840Y882526D01*
X287946Y882481D01*
X288051Y882433D01*
X288153Y882382D01*
X288254Y882326D01*
X288354Y882268D01*
X288451Y882206D01*
X288545Y882141D01*
X288638Y882072D01*
X288728Y882000D01*
X288816Y881926D01*
X288901Y881848D01*
X288983Y881767D01*
X289062Y881684D01*
X289139Y881598D01*
X289212Y881509D01*
X289283Y881418D01*
X289350Y881324D01*
X289414Y881229D01*
X289475Y881131D01*
X289532Y881031D01*
X289585Y880929D01*
X289636Y880825D01*
X289682Y880720D01*
X289725Y880613D01*
X289764Y880505D01*
X289763Y880505D02*
X289900Y880216D01*
X290030Y879924D01*
X290153Y879628D01*
X290268Y879330D01*
X290377Y879029D01*
X290478Y878726D01*
X290572Y878420D01*
X290659Y878113D01*
X290738Y877803D01*
X290810Y877491D01*
X290874Y877178D01*
X290931Y876863D01*
X290981Y876547D01*
X291023Y876230D01*
X291057Y875912D01*
X291084Y875594D01*
X291103Y875274D01*
X291114Y874955D01*
X291118Y874635D01*
X282088Y874635D02*
X282092Y874315D01*
X282103Y873996D01*
X282122Y873676D01*
X282149Y873358D01*
X282183Y873040D01*
X282225Y872723D01*
X282275Y872407D01*
X282332Y872092D01*
X282396Y871779D01*
X282468Y871467D01*
X282547Y871157D01*
X282634Y870850D01*
X282728Y870544D01*
X282829Y870241D01*
X282938Y869940D01*
X283053Y869642D01*
X283176Y869346D01*
X283306Y869054D01*
X283443Y868765D01*
X283442Y868765D02*
X283481Y868657D01*
X283524Y868550D01*
X283570Y868445D01*
X283621Y868341D01*
X283674Y868239D01*
X283731Y868139D01*
X283792Y868041D01*
X283856Y867946D01*
X283923Y867852D01*
X283994Y867761D01*
X284067Y867672D01*
X284144Y867586D01*
X284223Y867503D01*
X284305Y867422D01*
X284390Y867344D01*
X284478Y867270D01*
X284568Y867198D01*
X284661Y867129D01*
X284755Y867064D01*
X284852Y867002D01*
X284952Y866944D01*
X285053Y866888D01*
X285155Y866837D01*
X285260Y866789D01*
X285366Y866744D01*
X285474Y866703D01*
X285583Y866666D01*
X285693Y866633D01*
X285805Y866604D01*
X285917Y866578D01*
X286030Y866556D01*
X286144Y866539D01*
X286258Y866525D01*
X286373Y866515D01*
X286488Y866509D01*
X286603Y866507D01*
X289763Y868765D02*
X289900Y869054D01*
X290030Y869346D01*
X290153Y869642D01*
X290268Y869940D01*
X290377Y870241D01*
X290478Y870544D01*
X290572Y870850D01*
X290659Y871157D01*
X290738Y871467D01*
X290810Y871779D01*
X290874Y872092D01*
X290931Y872407D01*
X290981Y872723D01*
X291023Y873040D01*
X291057Y873358D01*
X291084Y873676D01*
X291103Y873996D01*
X291114Y874315D01*
X291118Y874635D01*
X289764Y868765D02*
X289725Y868657D01*
X289682Y868550D01*
X289636Y868445D01*
X289585Y868341D01*
X289532Y868239D01*
X289475Y868139D01*
X289414Y868041D01*
X289350Y867946D01*
X289283Y867852D01*
X289212Y867761D01*
X289139Y867672D01*
X289062Y867586D01*
X288983Y867503D01*
X288901Y867422D01*
X288816Y867344D01*
X288728Y867270D01*
X288638Y867198D01*
X288545Y867129D01*
X288451Y867064D01*
X288354Y867002D01*
X288254Y866944D01*
X288153Y866888D01*
X288050Y866837D01*
X287946Y866789D01*
X287840Y866744D01*
X287732Y866703D01*
X287623Y866666D01*
X287513Y866633D01*
X287401Y866604D01*
X287289Y866578D01*
X287176Y866556D01*
X287062Y866539D01*
X286948Y866525D01*
X286833Y866515D01*
X286718Y866509D01*
X286603Y866507D01*
X282991Y870119D02*
X290215Y879151D01*
D10*
X550000Y800000D02*
X579500Y800000D01*
X579500Y510000D02*
X550000Y510000D01*
X560000Y510650D02*
X560000Y799350D01*
X556808Y774000D01*
X563192Y774000D01*
X560000Y799350D01*
X558700Y774000D01*
X561300Y774000D02*
X560000Y799350D01*
X557400Y774000D01*
X562600Y774000D02*
X560000Y799350D01*
X556808Y536000D02*
X560000Y510650D01*
X556808Y536000D02*
X563192Y536000D01*
X560000Y510650D01*
X558700Y536000D01*
X561300Y536000D02*
X560000Y510650D01*
X557400Y536000D01*
X562600Y536000D02*
X560000Y510650D01*
D11*
X537237Y628908D02*
X537239Y629033D01*
X537245Y629158D01*
X537254Y629283D01*
X537268Y629407D01*
X537285Y629531D01*
X537306Y629655D01*
X537331Y629777D01*
X537360Y629899D01*
X537392Y630020D01*
X537428Y630140D01*
X537468Y630259D01*
X537511Y630376D01*
X537558Y630492D01*
X537609Y630607D01*
X537663Y630719D01*
X537721Y630831D01*
X537781Y630940D01*
X537846Y631047D01*
X537913Y631153D01*
X537984Y631256D01*
X538058Y631357D01*
X538135Y631456D01*
X538215Y631552D01*
X538298Y631646D01*
X538383Y631737D01*
X538472Y631826D01*
X538563Y631911D01*
X538657Y631994D01*
X538753Y632074D01*
X538852Y632151D01*
X538953Y632225D01*
X539056Y632296D01*
X539162Y632363D01*
X539269Y632428D01*
X539378Y632488D01*
X539490Y632546D01*
X539602Y632600D01*
X539717Y632651D01*
X539833Y632698D01*
X539950Y632741D01*
X540069Y632781D01*
X540189Y632817D01*
X540310Y632849D01*
X540432Y632878D01*
X540554Y632903D01*
X540678Y632924D01*
X540802Y632941D01*
X540926Y632955D01*
X541051Y632964D01*
X541176Y632970D01*
X541301Y632972D01*
X537237Y628908D02*
X537239Y628765D01*
X537245Y628623D01*
X537255Y628480D01*
X537268Y628338D01*
X537286Y628197D01*
X537307Y628055D01*
X537332Y627915D01*
X537361Y627775D01*
X537394Y627636D01*
X537431Y627498D01*
X537471Y627361D01*
X537515Y627226D01*
X537563Y627091D01*
X537615Y626958D01*
X537670Y626826D01*
X537729Y626696D01*
X537791Y626568D01*
X537857Y626441D01*
X537926Y626316D01*
X537998Y626193D01*
X538074Y626072D01*
X538153Y625954D01*
X538236Y625837D01*
X538321Y625723D01*
X538410Y625611D01*
X538501Y625502D01*
X538596Y625395D01*
X538693Y625290D01*
X538794Y625189D01*
X538897Y625090D01*
X539002Y624994D01*
X539111Y624901D01*
X539222Y624811D01*
X539335Y624724D01*
X539450Y624640D01*
X539568Y624560D01*
X539688Y624482D01*
X539810Y624408D01*
X539934Y624338D01*
X540060Y624270D01*
X540188Y624207D01*
X540317Y624146D01*
X540448Y624089D01*
X540580Y624036D01*
X540714Y623987D01*
X540849Y623941D01*
X544462Y631617D02*
X544370Y631711D01*
X544276Y631801D01*
X544179Y631889D01*
X544079Y631974D01*
X543977Y632056D01*
X543872Y632134D01*
X543765Y632210D01*
X543656Y632282D01*
X543545Y632351D01*
X543431Y632417D01*
X543316Y632479D01*
X543199Y632538D01*
X543080Y632593D01*
X542960Y632644D01*
X542838Y632692D01*
X542715Y632737D01*
X542591Y632777D01*
X542465Y632814D01*
X542338Y632847D01*
X542211Y632876D01*
X542082Y632902D01*
X541953Y632923D01*
X541823Y632941D01*
X541693Y632954D01*
X541563Y632964D01*
X541432Y632970D01*
X541301Y632972D01*
X544462Y631618D02*
X553493Y623941D01*
X553493Y632972D01*
X546268Y643185D02*
X546268Y648604D01*
X546268Y643185D02*
X546266Y643067D01*
X546260Y642949D01*
X546251Y642831D01*
X546237Y642714D01*
X546220Y642597D01*
X546199Y642480D01*
X546174Y642365D01*
X546145Y642250D01*
X546112Y642136D01*
X546076Y642024D01*
X546036Y641913D01*
X545993Y641803D01*
X545946Y641694D01*
X545896Y641587D01*
X545841Y641482D01*
X545784Y641379D01*
X545723Y641278D01*
X545659Y641178D01*
X545592Y641081D01*
X545522Y640986D01*
X545448Y640894D01*
X545372Y640803D01*
X545292Y640716D01*
X545210Y640631D01*
X545125Y640549D01*
X545038Y640469D01*
X544947Y640393D01*
X544855Y640319D01*
X544760Y640249D01*
X544663Y640182D01*
X544563Y640118D01*
X544462Y640057D01*
X544359Y640000D01*
X544254Y639945D01*
X544147Y639895D01*
X544038Y639848D01*
X543928Y639805D01*
X543817Y639765D01*
X543705Y639729D01*
X543591Y639696D01*
X543476Y639667D01*
X543361Y639642D01*
X543244Y639621D01*
X543127Y639604D01*
X543010Y639590D01*
X542892Y639581D01*
X542774Y639575D01*
X542656Y639573D01*
X541753Y639573D01*
X541753Y639572D02*
X541620Y639574D01*
X541488Y639580D01*
X541356Y639590D01*
X541224Y639603D01*
X541092Y639621D01*
X540962Y639642D01*
X540831Y639667D01*
X540702Y639696D01*
X540574Y639729D01*
X540446Y639765D01*
X540320Y639805D01*
X540195Y639849D01*
X540071Y639897D01*
X539949Y639948D01*
X539828Y640003D01*
X539709Y640061D01*
X539591Y640123D01*
X539476Y640188D01*
X539362Y640257D01*
X539251Y640328D01*
X539142Y640404D01*
X539035Y640482D01*
X538930Y640563D01*
X538828Y640648D01*
X538728Y640735D01*
X538631Y640825D01*
X538536Y640918D01*
X538445Y641014D01*
X538356Y641112D01*
X538270Y641213D01*
X538187Y641317D01*
X538107Y641423D01*
X538031Y641531D01*
X537957Y641641D01*
X537887Y641754D01*
X537820Y641868D01*
X537757Y641985D01*
X537697Y642103D01*
X537640Y642223D01*
X537587Y642345D01*
X537538Y642468D01*
X537492Y642592D01*
X537450Y642718D01*
X537412Y642845D01*
X537377Y642973D01*
X537346Y643102D01*
X537319Y643231D01*
X537296Y643362D01*
X537276Y643493D01*
X537261Y643625D01*
X537249Y643757D01*
X537241Y643889D01*
X537237Y644022D01*
X537237Y644154D01*
X537241Y644287D01*
X537249Y644419D01*
X537261Y644551D01*
X537276Y644683D01*
X537296Y644814D01*
X537319Y644945D01*
X537346Y645074D01*
X537377Y645203D01*
X537412Y645331D01*
X537450Y645458D01*
X537492Y645584D01*
X537538Y645708D01*
X537587Y645831D01*
X537640Y645953D01*
X537697Y646073D01*
X537757Y646191D01*
X537820Y646308D01*
X537887Y646422D01*
X537957Y646535D01*
X538031Y646645D01*
X538107Y646753D01*
X538187Y646859D01*
X538270Y646963D01*
X538356Y647064D01*
X538445Y647162D01*
X538536Y647258D01*
X538631Y647351D01*
X538728Y647441D01*
X538828Y647528D01*
X538930Y647613D01*
X539035Y647694D01*
X539142Y647772D01*
X539251Y647848D01*
X539362Y647919D01*
X539476Y647988D01*
X539591Y648053D01*
X539709Y648115D01*
X539828Y648173D01*
X539949Y648228D01*
X540071Y648279D01*
X540195Y648327D01*
X540320Y648371D01*
X540446Y648411D01*
X540574Y648447D01*
X540702Y648480D01*
X540831Y648509D01*
X540962Y648534D01*
X541092Y648555D01*
X541224Y648573D01*
X541356Y648586D01*
X541488Y648596D01*
X541620Y648602D01*
X541753Y648604D01*
X546268Y648604D01*
X546443Y648602D01*
X546617Y648596D01*
X546791Y648585D01*
X546965Y648570D01*
X547139Y648551D01*
X547312Y648528D01*
X547484Y648501D01*
X547656Y648469D01*
X547827Y648434D01*
X547997Y648394D01*
X548166Y648350D01*
X548334Y648302D01*
X548501Y648250D01*
X548666Y648194D01*
X548830Y648134D01*
X548993Y648071D01*
X549153Y648003D01*
X549313Y647931D01*
X549470Y647856D01*
X549626Y647776D01*
X549779Y647693D01*
X549931Y647607D01*
X550080Y647516D01*
X550227Y647422D01*
X550372Y647325D01*
X550515Y647224D01*
X550655Y647120D01*
X550792Y647012D01*
X550927Y646901D01*
X551059Y646787D01*
X551188Y646670D01*
X551315Y646549D01*
X551438Y646426D01*
X551559Y646299D01*
X551676Y646170D01*
X551790Y646038D01*
X551901Y645903D01*
X552009Y645766D01*
X552113Y645626D01*
X552214Y645483D01*
X552311Y645338D01*
X552405Y645191D01*
X552496Y645042D01*
X552582Y644890D01*
X552665Y644737D01*
X552745Y644581D01*
X552820Y644424D01*
X552892Y644264D01*
X552960Y644104D01*
X553023Y643941D01*
X553083Y643777D01*
X553139Y643612D01*
X553191Y643445D01*
X553239Y643277D01*
X553283Y643108D01*
X553323Y642938D01*
X553358Y642767D01*
X553390Y642595D01*
X553417Y642423D01*
X553440Y642250D01*
X553459Y642076D01*
X553474Y641902D01*
X553485Y641728D01*
X553491Y641554D01*
X553493Y641379D01*
X553493Y654578D02*
X552590Y654578D01*
X552590Y655481D01*
X553493Y655481D01*
X553493Y654578D01*
X545365Y661456D02*
X545045Y661460D01*
X544726Y661471D01*
X544406Y661490D01*
X544088Y661517D01*
X543770Y661551D01*
X543453Y661593D01*
X543137Y661643D01*
X542822Y661700D01*
X542509Y661764D01*
X542197Y661836D01*
X541887Y661915D01*
X541580Y662002D01*
X541274Y662096D01*
X540971Y662197D01*
X540670Y662306D01*
X540372Y662421D01*
X540076Y662544D01*
X539784Y662674D01*
X539495Y662811D01*
X539494Y662812D02*
X539386Y662851D01*
X539279Y662894D01*
X539174Y662940D01*
X539071Y662990D01*
X538969Y663044D01*
X538869Y663101D01*
X538771Y663162D01*
X538675Y663226D01*
X538582Y663293D01*
X538491Y663363D01*
X538402Y663437D01*
X538316Y663513D01*
X538233Y663593D01*
X538152Y663675D01*
X538074Y663760D01*
X538000Y663847D01*
X537928Y663938D01*
X537859Y664030D01*
X537794Y664125D01*
X537732Y664222D01*
X537673Y664321D01*
X537618Y664422D01*
X537567Y664525D01*
X537519Y664630D01*
X537474Y664736D01*
X537433Y664843D01*
X537396Y664952D01*
X537363Y665063D01*
X537334Y665174D01*
X537308Y665286D01*
X537286Y665399D01*
X537269Y665513D01*
X537255Y665627D01*
X537245Y665742D01*
X537239Y665857D01*
X537237Y665972D01*
X537239Y666087D01*
X537245Y666202D01*
X537255Y666317D01*
X537269Y666431D01*
X537286Y666545D01*
X537308Y666658D01*
X537334Y666770D01*
X537363Y666882D01*
X537396Y666992D01*
X537433Y667101D01*
X537474Y667209D01*
X537519Y667315D01*
X537567Y667420D01*
X537618Y667522D01*
X537674Y667624D01*
X537732Y667723D01*
X537794Y667820D01*
X537860Y667915D01*
X537928Y668007D01*
X538000Y668097D01*
X538074Y668185D01*
X538152Y668270D01*
X538233Y668352D01*
X538316Y668431D01*
X538402Y668508D01*
X538491Y668581D01*
X538582Y668652D01*
X538676Y668719D01*
X538771Y668783D01*
X538869Y668844D01*
X538969Y668901D01*
X539071Y668954D01*
X539175Y669005D01*
X539280Y669051D01*
X539387Y669094D01*
X539495Y669133D01*
X539495Y669132D02*
X539784Y669269D01*
X540076Y669399D01*
X540372Y669522D01*
X540670Y669637D01*
X540971Y669746D01*
X541274Y669847D01*
X541580Y669941D01*
X541887Y670028D01*
X542197Y670107D01*
X542509Y670179D01*
X542822Y670243D01*
X543137Y670300D01*
X543453Y670350D01*
X543770Y670392D01*
X544088Y670426D01*
X544406Y670453D01*
X544726Y670472D01*
X545045Y670483D01*
X545365Y670487D01*
X545365Y661457D02*
X545685Y661461D01*
X546004Y661472D01*
X546324Y661491D01*
X546642Y661518D01*
X546960Y661552D01*
X547277Y661594D01*
X547593Y661644D01*
X547908Y661701D01*
X548221Y661765D01*
X548533Y661837D01*
X548843Y661916D01*
X549150Y662003D01*
X549456Y662097D01*
X549759Y662198D01*
X550060Y662307D01*
X550358Y662422D01*
X550654Y662545D01*
X550946Y662675D01*
X551235Y662812D01*
X551236Y662811D02*
X551344Y662850D01*
X551451Y662893D01*
X551556Y662939D01*
X551660Y662990D01*
X551762Y663043D01*
X551862Y663100D01*
X551960Y663161D01*
X552055Y663225D01*
X552149Y663292D01*
X552240Y663363D01*
X552329Y663436D01*
X552415Y663513D01*
X552498Y663592D01*
X552579Y663674D01*
X552657Y663759D01*
X552731Y663847D01*
X552803Y663937D01*
X552872Y664030D01*
X552937Y664124D01*
X552999Y664221D01*
X553057Y664321D01*
X553113Y664422D01*
X553164Y664524D01*
X553212Y664629D01*
X553257Y664735D01*
X553298Y664843D01*
X553335Y664952D01*
X553368Y665062D01*
X553397Y665174D01*
X553423Y665286D01*
X553445Y665399D01*
X553462Y665513D01*
X553476Y665627D01*
X553486Y665742D01*
X553492Y665857D01*
X553494Y665972D01*
X551235Y669132D02*
X550946Y669269D01*
X550654Y669399D01*
X550358Y669522D01*
X550060Y669637D01*
X549759Y669746D01*
X549456Y669847D01*
X549150Y669941D01*
X548843Y670028D01*
X548533Y670107D01*
X548221Y670179D01*
X547908Y670243D01*
X547593Y670300D01*
X547277Y670350D01*
X546960Y670392D01*
X546642Y670426D01*
X546324Y670453D01*
X546004Y670472D01*
X545685Y670483D01*
X545365Y670487D01*
X551235Y669133D02*
X551343Y669094D01*
X551450Y669051D01*
X551555Y669005D01*
X551659Y668954D01*
X551761Y668901D01*
X551861Y668844D01*
X551959Y668783D01*
X552054Y668719D01*
X552148Y668652D01*
X552239Y668581D01*
X552328Y668508D01*
X552414Y668431D01*
X552497Y668352D01*
X552578Y668270D01*
X552656Y668185D01*
X552730Y668097D01*
X552802Y668007D01*
X552871Y667914D01*
X552936Y667820D01*
X552998Y667723D01*
X553056Y667623D01*
X553112Y667522D01*
X553163Y667419D01*
X553211Y667315D01*
X553256Y667209D01*
X553297Y667101D01*
X553334Y666992D01*
X553367Y666882D01*
X553396Y666770D01*
X553422Y666658D01*
X553444Y666545D01*
X553461Y666431D01*
X553475Y666317D01*
X553485Y666202D01*
X553491Y666087D01*
X553493Y665972D01*
X549881Y662359D02*
X540849Y669584D01*
X545365Y677088D02*
X545045Y677092D01*
X544726Y677103D01*
X544406Y677122D01*
X544088Y677149D01*
X543770Y677183D01*
X543453Y677225D01*
X543137Y677275D01*
X542822Y677332D01*
X542509Y677396D01*
X542197Y677468D01*
X541887Y677547D01*
X541580Y677634D01*
X541274Y677728D01*
X540971Y677829D01*
X540670Y677938D01*
X540372Y678053D01*
X540076Y678176D01*
X539784Y678306D01*
X539495Y678443D01*
X539494Y678443D02*
X539386Y678482D01*
X539279Y678525D01*
X539174Y678571D01*
X539071Y678621D01*
X538969Y678675D01*
X538869Y678732D01*
X538771Y678793D01*
X538675Y678857D01*
X538582Y678924D01*
X538491Y678994D01*
X538402Y679068D01*
X538316Y679144D01*
X538233Y679224D01*
X538152Y679306D01*
X538074Y679391D01*
X538000Y679478D01*
X537928Y679569D01*
X537859Y679661D01*
X537794Y679756D01*
X537732Y679853D01*
X537673Y679952D01*
X537618Y680053D01*
X537567Y680156D01*
X537519Y680261D01*
X537474Y680367D01*
X537433Y680474D01*
X537396Y680583D01*
X537363Y680694D01*
X537334Y680805D01*
X537308Y680917D01*
X537286Y681030D01*
X537269Y681144D01*
X537255Y681258D01*
X537245Y681373D01*
X537239Y681488D01*
X537237Y681603D01*
X537239Y681718D01*
X537245Y681833D01*
X537255Y681948D01*
X537269Y682062D01*
X537286Y682176D01*
X537308Y682289D01*
X537334Y682401D01*
X537363Y682513D01*
X537396Y682623D01*
X537433Y682732D01*
X537474Y682840D01*
X537519Y682946D01*
X537567Y683051D01*
X537618Y683153D01*
X537674Y683255D01*
X537732Y683354D01*
X537794Y683451D01*
X537860Y683546D01*
X537928Y683638D01*
X538000Y683728D01*
X538074Y683816D01*
X538152Y683901D01*
X538233Y683983D01*
X538316Y684062D01*
X538402Y684139D01*
X538491Y684212D01*
X538582Y684283D01*
X538676Y684350D01*
X538771Y684414D01*
X538869Y684475D01*
X538969Y684532D01*
X539071Y684585D01*
X539175Y684636D01*
X539280Y684682D01*
X539387Y684725D01*
X539495Y684764D01*
X539495Y684763D02*
X539784Y684900D01*
X540076Y685030D01*
X540372Y685153D01*
X540670Y685268D01*
X540971Y685377D01*
X541274Y685478D01*
X541580Y685572D01*
X541887Y685659D01*
X542197Y685738D01*
X542509Y685810D01*
X542822Y685874D01*
X543137Y685931D01*
X543453Y685981D01*
X543770Y686023D01*
X544088Y686057D01*
X544406Y686084D01*
X544726Y686103D01*
X545045Y686114D01*
X545365Y686118D01*
X545365Y677088D02*
X545685Y677092D01*
X546004Y677103D01*
X546324Y677122D01*
X546642Y677149D01*
X546960Y677183D01*
X547277Y677225D01*
X547593Y677275D01*
X547908Y677332D01*
X548221Y677396D01*
X548533Y677468D01*
X548843Y677547D01*
X549150Y677634D01*
X549456Y677728D01*
X549759Y677829D01*
X550060Y677938D01*
X550358Y678053D01*
X550654Y678176D01*
X550946Y678306D01*
X551235Y678443D01*
X551236Y678442D02*
X551344Y678481D01*
X551451Y678524D01*
X551556Y678570D01*
X551660Y678621D01*
X551762Y678674D01*
X551862Y678731D01*
X551960Y678792D01*
X552055Y678856D01*
X552149Y678923D01*
X552240Y678994D01*
X552329Y679067D01*
X552415Y679144D01*
X552498Y679223D01*
X552579Y679305D01*
X552657Y679390D01*
X552731Y679478D01*
X552803Y679568D01*
X552872Y679661D01*
X552937Y679755D01*
X552999Y679852D01*
X553057Y679952D01*
X553113Y680053D01*
X553164Y680155D01*
X553212Y680260D01*
X553257Y680366D01*
X553298Y680474D01*
X553335Y680583D01*
X553368Y680693D01*
X553397Y680805D01*
X553423Y680917D01*
X553445Y681030D01*
X553462Y681144D01*
X553476Y681258D01*
X553486Y681373D01*
X553492Y681488D01*
X553494Y681603D01*
X551235Y684763D02*
X550946Y684900D01*
X550654Y685030D01*
X550358Y685153D01*
X550060Y685268D01*
X549759Y685377D01*
X549456Y685478D01*
X549150Y685572D01*
X548843Y685659D01*
X548533Y685738D01*
X548221Y685810D01*
X547908Y685874D01*
X547593Y685931D01*
X547277Y685981D01*
X546960Y686023D01*
X546642Y686057D01*
X546324Y686084D01*
X546004Y686103D01*
X545685Y686114D01*
X545365Y686118D01*
X551235Y684764D02*
X551343Y684725D01*
X551450Y684682D01*
X551555Y684636D01*
X551659Y684585D01*
X551761Y684532D01*
X551861Y684475D01*
X551959Y684414D01*
X552054Y684350D01*
X552148Y684283D01*
X552239Y684212D01*
X552328Y684139D01*
X552414Y684062D01*
X552497Y683983D01*
X552578Y683901D01*
X552656Y683816D01*
X552730Y683728D01*
X552802Y683638D01*
X552871Y683545D01*
X552936Y683451D01*
X552998Y683354D01*
X553056Y683254D01*
X553112Y683153D01*
X553163Y683050D01*
X553211Y682946D01*
X553256Y682840D01*
X553297Y682732D01*
X553334Y682623D01*
X553367Y682513D01*
X553396Y682401D01*
X553422Y682289D01*
X553444Y682176D01*
X553461Y682062D01*
X553475Y681948D01*
X553485Y681833D01*
X553491Y681718D01*
X553493Y681603D01*
X549881Y677991D02*
X540849Y685215D01*
D12*
X406400Y577400D03*
X406400Y596400D03*
D13*
X437200Y555000D03*
X437200Y568000D03*
D14*
X242050Y566650D02*
X242050Y538150D01*
X242050Y566650D02*
X260550Y566650D01*
X260550Y538150D01*
X242050Y538150D01*
X242050Y555725D02*
X260550Y555725D01*
X242050Y627150D02*
X242050Y655650D01*
X260550Y655650D01*
X260550Y627150D01*
X242050Y627150D01*
X242050Y644725D02*
X260550Y644725D01*
D15*
X167800Y579800D03*
X177300Y557800D03*
X158300Y557800D03*
D16*
X316900Y590550D03*
X368900Y590550D03*
X316900Y603250D03*
X316900Y577850D03*
X316900Y565150D03*
X368900Y603250D03*
X368900Y577850D03*
X368900Y565150D03*
D17*
X447200Y725000D03*
X467200Y725000D03*
D18*
X423200Y777000D03*
X491200Y777000D03*
D17*
X345600Y725000D03*
X365600Y725000D03*
D18*
X321600Y777000D03*
X389600Y777000D03*
D17*
X244000Y725000D03*
X264000Y725000D03*
D18*
X220000Y777000D03*
X288000Y777000D03*
D19*
X371500Y650400D03*
X390500Y650400D03*
X381000Y671400D03*
D20*
X177800Y613800D03*
X177800Y630800D03*
D21*
X326000Y635000D03*
X309000Y635000D03*
X262500Y685800D03*
X245500Y685800D03*
X440300Y640400D03*
X423300Y640400D03*
D20*
X342900Y681600D03*
X342900Y664600D03*
D22*
X38100Y629600D03*
X38100Y579600D03*
X38100Y679600D03*
X93100Y679600D03*
X93100Y579600D03*
D23*
X70800Y718500D03*
X70800Y764700D03*
D17*
X142400Y725000D03*
X162400Y725000D03*
D18*
X118400Y777000D03*
X186400Y777000D03*
D11*
X156972Y557784D02*
X70104Y557784D01*
X50292Y577596D01*
X39624Y577596D01*
X38100Y579120D01*
X156972Y557784D02*
X158300Y557800D01*
X38100Y579120D02*
X38100Y579600D01*
X172212Y559308D02*
X176784Y559308D01*
X172212Y559308D02*
X62484Y669036D01*
X53340Y669036D01*
X48768Y673608D01*
X45720Y673608D01*
X41148Y678180D01*
X38100Y678180D01*
X176784Y559308D02*
X177300Y557800D01*
X38100Y678180D02*
X38100Y679600D01*
X176784Y612648D02*
X176784Y600456D01*
X167640Y591312D01*
X167640Y580644D01*
X176784Y612648D02*
X177800Y613800D01*
X167640Y580644D02*
X167800Y579800D01*
X350520Y589788D02*
X368808Y589788D01*
X350520Y589788D02*
X336804Y576072D01*
X336804Y557784D01*
X332232Y553212D01*
X301752Y553212D01*
X256032Y598932D01*
X178308Y598932D01*
X176784Y600456D01*
X368808Y589788D02*
X368900Y590550D01*
X323088Y565404D02*
X316992Y565404D01*
X323088Y565404D02*
X330708Y573024D01*
X330708Y574548D01*
X348996Y592836D01*
X348996Y597408D01*
X355092Y603504D01*
X368808Y603504D01*
X316992Y565404D02*
X316900Y565150D01*
X368900Y603250D02*
X368808Y603504D01*
X297180Y553212D02*
X251460Y553212D01*
X297180Y553212D02*
X300228Y550164D01*
X333756Y550164D01*
X348996Y565404D01*
X348996Y576072D01*
X358140Y585216D01*
X381000Y585216D01*
X382524Y586740D01*
X382524Y594360D01*
X374904Y601980D01*
X370332Y601980D01*
X251460Y553212D02*
X251300Y552400D01*
X368900Y603250D02*
X370332Y601980D01*
X187452Y630936D02*
X178308Y630936D01*
X187452Y630936D02*
X230124Y673608D01*
X230124Y679704D01*
X234696Y684276D01*
X243840Y684276D01*
X245364Y685800D01*
X178308Y630936D02*
X177800Y630800D01*
X245364Y685800D02*
X245500Y685800D01*
X278892Y664464D02*
X294132Y664464D01*
X342900Y664464D01*
X278892Y664464D02*
X265176Y678180D01*
X256032Y678180D01*
X248412Y685800D01*
X246888Y685800D01*
X342900Y664600D02*
X342900Y664464D01*
X246888Y685800D02*
X245500Y685800D01*
X411480Y641604D02*
X422148Y641604D01*
X411480Y641604D02*
X403860Y649224D01*
X403860Y658368D01*
X394716Y667512D01*
X390144Y667512D01*
X387096Y664464D01*
X374904Y664464D01*
X368808Y670560D01*
X358140Y670560D01*
X352044Y664464D01*
X342900Y664464D01*
X422148Y641604D02*
X423300Y640400D01*
X342900Y664464D02*
X342900Y664600D01*
X71628Y675132D02*
X71628Y717804D01*
X71628Y675132D02*
X114300Y632460D01*
X175260Y632460D01*
X176784Y630936D01*
X71628Y717804D02*
X70800Y718500D01*
X176784Y630936D02*
X177800Y630800D01*
X298704Y565404D02*
X315468Y565404D01*
X298704Y565404D02*
X294132Y569976D01*
X294132Y664464D01*
X315468Y565404D02*
X316900Y565150D01*
X391668Y554736D02*
X435864Y554736D01*
X391668Y554736D02*
X379476Y566928D01*
X371856Y566928D01*
X370332Y565404D01*
X435864Y554736D02*
X437200Y555000D01*
X370332Y565404D02*
X368900Y565150D01*
X370332Y577596D02*
X388620Y577596D01*
X405384Y577596D01*
X406400Y577400D01*
X370332Y577596D02*
X368900Y577850D01*
X335280Y591312D02*
X333756Y591312D01*
X316992Y591312D01*
X335280Y591312D02*
X348996Y605028D01*
X348996Y609600D01*
X355092Y615696D01*
X382524Y615696D01*
X388620Y609600D01*
X388620Y577596D01*
X316900Y590550D02*
X316992Y591312D01*
D24*
X333756Y591312D03*
D11*
X371856Y672084D02*
X381000Y672084D01*
X371856Y672084D02*
X359664Y684276D01*
X359664Y687324D01*
X344424Y702564D01*
X344424Y723900D01*
X381000Y672084D02*
X381000Y671400D01*
X344424Y723900D02*
X345600Y725000D01*
X245364Y725424D02*
X245364Y754380D01*
X248412Y757428D01*
X272796Y757428D01*
X297180Y733044D01*
X335280Y733044D01*
X344424Y723900D01*
X245364Y725424D02*
X244000Y725000D01*
X344424Y723900D02*
X345600Y725000D01*
X441960Y723900D02*
X446532Y723900D01*
X441960Y723900D02*
X390144Y672084D01*
X381000Y672084D01*
X446532Y723900D02*
X447200Y725000D01*
X381000Y672084D02*
X381000Y671400D01*
X370332Y650748D02*
X352044Y650748D01*
X336804Y635508D01*
X326136Y635508D01*
X370332Y650748D02*
X371500Y650400D01*
X326136Y635508D02*
X326000Y635000D01*
X307848Y633984D02*
X307848Y621792D01*
X297180Y611124D01*
X297180Y583692D01*
X303276Y577596D01*
X315468Y577596D01*
X307848Y633984D02*
X309000Y635000D01*
X316900Y577850D02*
X315468Y577596D01*
X262128Y685800D02*
X262128Y722376D01*
X263652Y723900D01*
X262500Y685800D02*
X262128Y685800D01*
X263652Y723900D02*
X264000Y725000D01*
X342900Y682752D02*
X353568Y682752D01*
X367284Y696468D02*
X367284Y722376D01*
X365760Y723900D01*
X342900Y682752D02*
X342900Y681600D01*
X365760Y723900D02*
X365600Y725000D01*
D24*
X353568Y682752D03*
X367284Y696468D03*
D11*
X440436Y675132D02*
X440436Y641604D01*
X440436Y675132D02*
X467868Y702564D01*
X467868Y723900D01*
X440436Y641604D02*
X440300Y640400D01*
X467868Y723900D02*
X467200Y725000D01*
X97536Y679704D02*
X94488Y679704D01*
X97536Y679704D02*
X109728Y691896D01*
X152400Y691896D01*
X160020Y699516D01*
X160020Y722376D01*
X161544Y723900D01*
X94488Y679704D02*
X93100Y679600D01*
X161544Y723900D02*
X162400Y725000D01*
D24*
X50000Y740000D03*
X120000Y710000D03*
X420000Y680000D03*
X360000Y630000D03*
X280000Y650000D03*
X190000Y660000D03*
X360000Y540000D03*
X480000Y600000D03*
M02*
