G04 EAGLE Gerber RS-274X export*
G75*
%MOMM*%
%FSLAX34Y34*%
%LPD*%
%AMOC8*
5,1,8,0,0,1.08239X$1,22.5*%
G01*
%ADD10C,1.800000*%
%ADD11P,2.336880X8X22.500000*%
%ADD12C,0.152400*%
%ADD13C,0.756400*%

G36*
X479426Y518179D02*
X479426Y518179D01*
X479570Y518194D01*
X479583Y518199D01*
X479596Y518201D01*
X479732Y518254D01*
X479869Y518305D01*
X479880Y518313D01*
X479892Y518318D01*
X480010Y518403D01*
X480130Y518486D01*
X480139Y518497D01*
X480149Y518504D01*
X480242Y518617D01*
X480338Y518727D01*
X480344Y518739D01*
X480352Y518749D01*
X480414Y518881D01*
X480479Y519012D01*
X480482Y519025D01*
X480488Y519037D01*
X480515Y519180D01*
X480546Y519323D01*
X480545Y519336D01*
X480548Y519349D01*
X480538Y519495D01*
X480532Y519641D01*
X480529Y519654D01*
X480528Y519667D01*
X480483Y519805D01*
X480441Y519945D01*
X480434Y519957D01*
X480430Y519969D01*
X480352Y520093D01*
X480276Y520217D01*
X480267Y520227D01*
X480260Y520238D01*
X480153Y520338D01*
X480049Y520440D01*
X480034Y520450D01*
X480028Y520456D01*
X480013Y520464D01*
X479915Y520529D01*
X479851Y520566D01*
X475166Y525251D01*
X471854Y530988D01*
X470139Y537388D01*
X470139Y544012D01*
X471854Y550412D01*
X475166Y556149D01*
X479851Y560834D01*
X485588Y564146D01*
X491988Y565861D01*
X498612Y565861D01*
X505012Y564146D01*
X505335Y563959D01*
X505457Y563908D01*
X505577Y563851D01*
X505604Y563846D01*
X505628Y563836D01*
X505760Y563817D01*
X505890Y563792D01*
X505916Y563793D01*
X505943Y563789D01*
X506075Y563803D01*
X506207Y563811D01*
X506233Y563820D01*
X506259Y563823D01*
X506384Y563869D01*
X506509Y563909D01*
X506532Y563924D01*
X506558Y563933D01*
X506666Y564009D01*
X506778Y564080D01*
X506797Y564099D01*
X506819Y564115D01*
X506905Y564215D01*
X506996Y564311D01*
X507009Y564335D01*
X507027Y564355D01*
X507086Y564474D01*
X507150Y564590D01*
X507156Y564616D01*
X507168Y564640D01*
X507196Y564769D01*
X507229Y564898D01*
X507231Y564936D01*
X507235Y564951D01*
X507234Y564973D01*
X507239Y565058D01*
X507239Y664142D01*
X507223Y664273D01*
X507222Y664283D01*
X507217Y664361D01*
X507215Y664368D01*
X507212Y664405D01*
X507203Y664430D01*
X507199Y664457D01*
X507151Y664580D01*
X507107Y664705D01*
X507092Y664728D01*
X507082Y664753D01*
X507005Y664860D01*
X506931Y664970D01*
X506911Y664988D01*
X506896Y665010D01*
X506793Y665095D01*
X506695Y665183D01*
X506671Y665196D01*
X506651Y665213D01*
X506531Y665269D01*
X506414Y665331D01*
X506387Y665337D01*
X506363Y665349D01*
X506233Y665373D01*
X506104Y665404D01*
X506077Y665403D01*
X506051Y665408D01*
X505919Y665400D01*
X505786Y665397D01*
X505760Y665390D01*
X505733Y665389D01*
X505627Y665354D01*
X505625Y665354D01*
X505619Y665352D01*
X505607Y665348D01*
X505480Y665312D01*
X505445Y665295D01*
X505431Y665291D01*
X505412Y665279D01*
X505335Y665241D01*
X505012Y665054D01*
X498612Y663339D01*
X491988Y663339D01*
X485588Y665054D01*
X479851Y668366D01*
X475166Y673051D01*
X471854Y678788D01*
X470139Y685188D01*
X470139Y691812D01*
X471854Y698212D01*
X475166Y703949D01*
X479851Y708634D01*
X485588Y711946D01*
X491988Y713661D01*
X498612Y713661D01*
X505012Y711946D01*
X505335Y711759D01*
X505457Y711708D01*
X505577Y711651D01*
X505604Y711646D01*
X505628Y711636D01*
X505760Y711617D01*
X505890Y711592D01*
X505916Y711593D01*
X505943Y711589D01*
X506075Y711603D01*
X506207Y711611D01*
X506233Y711620D01*
X506259Y711623D01*
X506384Y711669D01*
X506509Y711709D01*
X506532Y711724D01*
X506558Y711733D01*
X506666Y711809D01*
X506778Y711880D01*
X506797Y711899D01*
X506819Y711915D01*
X506905Y712015D01*
X506996Y712111D01*
X507009Y712135D01*
X507027Y712155D01*
X507086Y712274D01*
X507150Y712390D01*
X507156Y712416D01*
X507168Y712440D01*
X507196Y712569D01*
X507229Y712698D01*
X507231Y712736D01*
X507235Y712751D01*
X507234Y712773D01*
X507239Y712858D01*
X507239Y788570D01*
X507224Y788688D01*
X507217Y788807D01*
X507204Y788845D01*
X507199Y788886D01*
X507156Y788996D01*
X507119Y789109D01*
X507097Y789144D01*
X507082Y789181D01*
X507013Y789277D01*
X506949Y789378D01*
X506919Y789406D01*
X506896Y789439D01*
X506804Y789515D01*
X506717Y789596D01*
X506682Y789616D01*
X506651Y789641D01*
X506543Y789692D01*
X506439Y789750D01*
X506399Y789760D01*
X506363Y789777D01*
X506246Y789799D01*
X506131Y789829D01*
X506071Y789833D01*
X506051Y789837D01*
X506030Y789835D01*
X505970Y789839D01*
X34216Y789839D01*
X34072Y789821D01*
X33926Y789806D01*
X33914Y789801D01*
X33900Y789799D01*
X33765Y789746D01*
X33628Y789695D01*
X33617Y789687D01*
X33605Y789682D01*
X33487Y789597D01*
X33367Y789514D01*
X33358Y789503D01*
X33347Y789496D01*
X33255Y789384D01*
X33159Y789273D01*
X33153Y789261D01*
X33144Y789251D01*
X33083Y789119D01*
X33018Y788988D01*
X33015Y788975D01*
X33009Y788963D01*
X32982Y788821D01*
X32951Y788677D01*
X32952Y788664D01*
X32949Y788651D01*
X32958Y788506D01*
X32964Y788360D01*
X32968Y788346D01*
X32969Y788333D01*
X33014Y788195D01*
X33056Y788055D01*
X33063Y788043D01*
X33067Y788031D01*
X33145Y787908D01*
X33220Y787783D01*
X33230Y787773D01*
X33237Y787762D01*
X33343Y787662D01*
X33447Y787560D01*
X33463Y787550D01*
X33469Y787544D01*
X33484Y787536D01*
X33581Y787471D01*
X38149Y784834D01*
X42834Y780149D01*
X46146Y774412D01*
X47861Y768012D01*
X47861Y761388D01*
X46146Y754988D01*
X42834Y749251D01*
X38149Y744566D01*
X32412Y741254D01*
X26012Y739539D01*
X19388Y739539D01*
X12988Y741254D01*
X12065Y741787D01*
X11943Y741839D01*
X11823Y741895D01*
X11796Y741900D01*
X11771Y741910D01*
X11640Y741930D01*
X11510Y741955D01*
X11484Y741953D01*
X11457Y741957D01*
X11325Y741943D01*
X11193Y741935D01*
X11167Y741927D01*
X11141Y741924D01*
X11017Y741878D01*
X10891Y741837D01*
X10868Y741822D01*
X10842Y741813D01*
X10734Y741738D01*
X10622Y741667D01*
X10603Y741647D01*
X10581Y741632D01*
X10495Y741532D01*
X10404Y741435D01*
X10391Y741412D01*
X10373Y741391D01*
X10314Y741273D01*
X10250Y741157D01*
X10244Y741131D01*
X10232Y741106D01*
X10204Y740977D01*
X10171Y740849D01*
X10169Y740811D01*
X10165Y740795D01*
X10166Y740773D01*
X10161Y740688D01*
X10161Y556719D01*
X10179Y556574D01*
X10194Y556430D01*
X10199Y556417D01*
X10201Y556404D01*
X10254Y556268D01*
X10305Y556131D01*
X10313Y556120D01*
X10318Y556108D01*
X10403Y555990D01*
X10486Y555870D01*
X10497Y555861D01*
X10504Y555851D01*
X10617Y555758D01*
X10727Y555662D01*
X10739Y555656D01*
X10749Y555648D01*
X10881Y555586D01*
X11012Y555521D01*
X11025Y555518D01*
X11037Y555512D01*
X11180Y555485D01*
X11323Y555454D01*
X11336Y555455D01*
X11349Y555452D01*
X11495Y555462D01*
X11641Y555468D01*
X11654Y555471D01*
X11667Y555472D01*
X11805Y555517D01*
X11945Y555559D01*
X11957Y555566D01*
X11969Y555570D01*
X12093Y555648D01*
X12217Y555724D01*
X12227Y555733D01*
X12238Y555740D01*
X12338Y555847D01*
X12440Y555951D01*
X12450Y555966D01*
X12456Y555972D01*
X12464Y555987D01*
X12529Y556085D01*
X12566Y556149D01*
X17251Y560834D01*
X22988Y564146D01*
X29388Y565861D01*
X34731Y565861D01*
X34800Y565869D01*
X34870Y565868D01*
X34958Y565889D01*
X35047Y565901D01*
X35112Y565926D01*
X35180Y565943D01*
X35259Y565985D01*
X35342Y566018D01*
X35399Y566059D01*
X35461Y566091D01*
X35527Y566152D01*
X35600Y566204D01*
X35644Y566258D01*
X35696Y566305D01*
X35745Y566380D01*
X35803Y566449D01*
X35832Y566513D01*
X35871Y566571D01*
X35900Y566656D01*
X35938Y566737D01*
X35951Y566806D01*
X35974Y566872D01*
X35981Y566961D01*
X35998Y567049D01*
X35994Y567119D01*
X35999Y567189D01*
X35984Y567277D01*
X35978Y567367D01*
X35957Y567433D01*
X35945Y567502D01*
X35908Y567584D01*
X35880Y567669D01*
X35843Y567728D01*
X35814Y567792D01*
X35758Y567862D01*
X35710Y567938D01*
X35659Y567986D01*
X35616Y568040D01*
X35544Y568095D01*
X35478Y568156D01*
X35417Y568190D01*
X35361Y568232D01*
X35217Y568303D01*
X31563Y569816D01*
X28316Y573063D01*
X26559Y577304D01*
X26559Y581896D01*
X28316Y586137D01*
X31563Y589384D01*
X35804Y591141D01*
X40396Y591141D01*
X44637Y589384D01*
X47884Y586137D01*
X49641Y581896D01*
X49641Y577304D01*
X47884Y573063D01*
X44637Y569816D01*
X40396Y568059D01*
X37448Y568059D01*
X37298Y568040D01*
X37146Y568023D01*
X37139Y568020D01*
X37133Y568019D01*
X36992Y567964D01*
X36849Y567909D01*
X36843Y567905D01*
X36837Y567902D01*
X36715Y567813D01*
X36589Y567725D01*
X36585Y567719D01*
X36580Y567716D01*
X36483Y567599D01*
X36384Y567482D01*
X36381Y567476D01*
X36377Y567471D01*
X36312Y567333D01*
X36246Y567196D01*
X36244Y567189D01*
X36241Y567183D01*
X36213Y567034D01*
X36182Y566884D01*
X36183Y566877D01*
X36182Y566871D01*
X36191Y566719D01*
X36199Y566566D01*
X36201Y566560D01*
X36201Y566553D01*
X36248Y566409D01*
X36294Y566263D01*
X36297Y566257D01*
X36299Y566251D01*
X36381Y566122D01*
X36461Y565992D01*
X36466Y565988D01*
X36469Y565982D01*
X36581Y565877D01*
X36690Y565772D01*
X36696Y565769D01*
X36701Y565764D01*
X36834Y565691D01*
X36967Y565615D01*
X36976Y565613D01*
X36980Y565610D01*
X36990Y565608D01*
X37120Y565564D01*
X42412Y564146D01*
X48149Y560834D01*
X52834Y556149D01*
X56146Y550412D01*
X57861Y544012D01*
X57861Y537388D01*
X56146Y530988D01*
X52834Y525251D01*
X48149Y520566D01*
X48085Y520529D01*
X47968Y520441D01*
X47851Y520356D01*
X47842Y520345D01*
X47831Y520337D01*
X47741Y520223D01*
X47648Y520111D01*
X47642Y520098D01*
X47634Y520088D01*
X47574Y519954D01*
X47512Y519823D01*
X47510Y519810D01*
X47504Y519797D01*
X47480Y519653D01*
X47452Y519510D01*
X47453Y519497D01*
X47451Y519484D01*
X47463Y519339D01*
X47472Y519193D01*
X47476Y519180D01*
X47477Y519167D01*
X47525Y519029D01*
X47570Y518891D01*
X47577Y518879D01*
X47582Y518867D01*
X47662Y518745D01*
X47740Y518622D01*
X47750Y518613D01*
X47758Y518601D01*
X47866Y518504D01*
X47972Y518404D01*
X47984Y518397D01*
X47994Y518388D01*
X48123Y518321D01*
X48251Y518250D01*
X48263Y518247D01*
X48275Y518241D01*
X48417Y518207D01*
X48558Y518171D01*
X48577Y518170D01*
X48585Y518168D01*
X48602Y518168D01*
X48719Y518161D01*
X479281Y518161D01*
X479426Y518179D01*
G37*
%LPC*%
G36*
X87024Y563625D02*
X87024Y563625D01*
X34797Y615852D01*
X34797Y617628D01*
X34794Y617658D01*
X34796Y617687D01*
X34774Y617815D01*
X34757Y617944D01*
X34747Y617971D01*
X34742Y618000D01*
X34688Y618119D01*
X34640Y618240D01*
X34623Y618263D01*
X34611Y618290D01*
X34530Y618392D01*
X34454Y618497D01*
X34431Y618516D01*
X34412Y618539D01*
X34309Y618617D01*
X34209Y618700D01*
X34182Y618712D01*
X34158Y618730D01*
X34014Y618801D01*
X31563Y619816D01*
X28316Y623063D01*
X26559Y627304D01*
X26559Y631896D01*
X28316Y636137D01*
X31563Y639384D01*
X35804Y641141D01*
X40396Y641141D01*
X44637Y639384D01*
X47884Y636137D01*
X49641Y631896D01*
X49641Y627304D01*
X47884Y623063D01*
X44637Y619816D01*
X43237Y619236D01*
X43194Y619211D01*
X43147Y619195D01*
X43056Y619133D01*
X42960Y619079D01*
X42925Y619044D01*
X42884Y619016D01*
X42811Y618934D01*
X42732Y618857D01*
X42706Y618815D01*
X42673Y618778D01*
X42623Y618680D01*
X42566Y618586D01*
X42551Y618539D01*
X42528Y618494D01*
X42504Y618387D01*
X42472Y618282D01*
X42470Y618233D01*
X42459Y618184D01*
X42462Y618074D01*
X42457Y617965D01*
X42467Y617916D01*
X42468Y617866D01*
X42499Y617761D01*
X42521Y617653D01*
X42543Y617608D01*
X42557Y617561D01*
X42613Y617466D01*
X42661Y617367D01*
X42693Y617330D01*
X42718Y617287D01*
X42825Y617166D01*
X79393Y580598D01*
X79502Y580513D01*
X79609Y580424D01*
X79628Y580416D01*
X79644Y580403D01*
X79772Y580348D01*
X79897Y580289D01*
X79917Y580285D01*
X79936Y580277D01*
X80074Y580255D01*
X80210Y580229D01*
X80230Y580230D01*
X80250Y580227D01*
X80389Y580240D01*
X80527Y580249D01*
X80546Y580255D01*
X80566Y580257D01*
X80698Y580304D01*
X80829Y580347D01*
X80847Y580358D01*
X80866Y580365D01*
X80981Y580443D01*
X81098Y580517D01*
X81112Y580532D01*
X81129Y580543D01*
X81221Y580647D01*
X81316Y580749D01*
X81326Y580766D01*
X81339Y580782D01*
X81402Y580905D01*
X81470Y581027D01*
X81475Y581047D01*
X81484Y581065D01*
X81514Y581201D01*
X81549Y581335D01*
X81551Y581363D01*
X81554Y581375D01*
X81553Y581396D01*
X81559Y581496D01*
X81559Y581896D01*
X83316Y586137D01*
X86563Y589384D01*
X88878Y590343D01*
X88903Y590357D01*
X88931Y590366D01*
X89041Y590436D01*
X89154Y590500D01*
X89175Y590521D01*
X89200Y590537D01*
X89289Y590631D01*
X89382Y590721D01*
X89398Y590747D01*
X89418Y590768D01*
X89481Y590882D01*
X89549Y590993D01*
X89557Y591021D01*
X89572Y591047D01*
X89604Y591172D01*
X89642Y591297D01*
X89644Y591326D01*
X89651Y591355D01*
X89661Y591515D01*
X89661Y661046D01*
X89649Y661144D01*
X89646Y661243D01*
X89629Y661302D01*
X89621Y661362D01*
X89585Y661454D01*
X89557Y661549D01*
X89527Y661601D01*
X89504Y661657D01*
X89446Y661737D01*
X89396Y661823D01*
X89330Y661898D01*
X89318Y661915D01*
X89308Y661923D01*
X89290Y661944D01*
X77469Y673764D01*
X77469Y703895D01*
X77454Y704013D01*
X77447Y704132D01*
X77434Y704170D01*
X77429Y704211D01*
X77386Y704321D01*
X77349Y704434D01*
X77327Y704469D01*
X77312Y704506D01*
X77243Y704602D01*
X77179Y704703D01*
X77149Y704731D01*
X77126Y704764D01*
X77034Y704840D01*
X76947Y704921D01*
X76912Y704941D01*
X76881Y704966D01*
X76773Y705017D01*
X76669Y705075D01*
X76629Y705085D01*
X76593Y705102D01*
X76476Y705124D01*
X76361Y705154D01*
X76301Y705158D01*
X76281Y705162D01*
X76260Y705160D01*
X76200Y705164D01*
X65276Y705164D01*
X57464Y712976D01*
X57464Y724024D01*
X65276Y731836D01*
X76324Y731836D01*
X79875Y728285D01*
X79984Y728200D01*
X80091Y728111D01*
X80110Y728103D01*
X80126Y728090D01*
X80254Y728035D01*
X80379Y727976D01*
X80399Y727972D01*
X80418Y727964D01*
X80556Y727942D01*
X80692Y727916D01*
X80712Y727917D01*
X80732Y727914D01*
X80871Y727927D01*
X81009Y727936D01*
X81028Y727942D01*
X81048Y727944D01*
X81180Y727991D01*
X81311Y728034D01*
X81329Y728044D01*
X81348Y728051D01*
X81463Y728129D01*
X81580Y728204D01*
X81594Y728219D01*
X81611Y728230D01*
X81703Y728334D01*
X81798Y728435D01*
X81808Y728453D01*
X81821Y728468D01*
X81885Y728592D01*
X81952Y728714D01*
X81957Y728733D01*
X81966Y728752D01*
X81996Y728887D01*
X82031Y729022D01*
X82033Y729050D01*
X82036Y729062D01*
X82035Y729082D01*
X82041Y729183D01*
X82041Y747914D01*
X82029Y748012D01*
X82026Y748111D01*
X82009Y748170D01*
X82001Y748230D01*
X81965Y748322D01*
X81937Y748417D01*
X81907Y748469D01*
X81884Y748525D01*
X81826Y748605D01*
X81776Y748691D01*
X81710Y748766D01*
X81698Y748783D01*
X81688Y748791D01*
X81670Y748812D01*
X78618Y751863D01*
X78524Y751936D01*
X78435Y752015D01*
X78399Y752033D01*
X78367Y752058D01*
X78257Y752106D01*
X78151Y752160D01*
X78112Y752169D01*
X78075Y752185D01*
X77957Y752203D01*
X77841Y752229D01*
X77801Y752228D01*
X77761Y752234D01*
X77642Y752223D01*
X77523Y752220D01*
X77484Y752208D01*
X77444Y752205D01*
X77332Y752164D01*
X77218Y752131D01*
X77183Y752111D01*
X77145Y752097D01*
X77046Y752030D01*
X76944Y751970D01*
X76899Y751930D01*
X76882Y751918D01*
X76868Y751903D01*
X76823Y751863D01*
X76324Y751364D01*
X65276Y751364D01*
X57464Y759176D01*
X57464Y770224D01*
X65276Y778036D01*
X76324Y778036D01*
X84136Y770224D01*
X84136Y759176D01*
X83289Y758329D01*
X83216Y758235D01*
X83137Y758146D01*
X83118Y758110D01*
X83094Y758078D01*
X83046Y757968D01*
X82992Y757863D01*
X82983Y757823D01*
X82967Y757786D01*
X82949Y757668D01*
X82923Y757552D01*
X82924Y757512D01*
X82918Y757472D01*
X82929Y757353D01*
X82932Y757234D01*
X82944Y757196D01*
X82947Y757155D01*
X82988Y757043D01*
X83021Y756929D01*
X83041Y756894D01*
X83055Y756856D01*
X83122Y756757D01*
X83182Y756655D01*
X83222Y756610D01*
X83234Y756593D01*
X83249Y756579D01*
X83289Y756534D01*
X88647Y751176D01*
X88647Y711864D01*
X84446Y707664D01*
X84386Y707585D01*
X84318Y707513D01*
X84289Y707460D01*
X84252Y707412D01*
X84212Y707321D01*
X84164Y707235D01*
X84149Y707176D01*
X84125Y707121D01*
X84110Y707023D01*
X84085Y706927D01*
X84079Y706827D01*
X84075Y706806D01*
X84077Y706794D01*
X84075Y706766D01*
X84075Y689960D01*
X84092Y689822D01*
X84105Y689684D01*
X84112Y689665D01*
X84115Y689644D01*
X84166Y689515D01*
X84213Y689384D01*
X84224Y689368D01*
X84232Y689349D01*
X84313Y689236D01*
X84391Y689121D01*
X84407Y689108D01*
X84418Y689091D01*
X84526Y689002D01*
X84630Y688911D01*
X84648Y688902D01*
X84663Y688889D01*
X84789Y688829D01*
X84913Y688766D01*
X84933Y688762D01*
X84951Y688753D01*
X85087Y688727D01*
X85223Y688697D01*
X85244Y688697D01*
X85263Y688693D01*
X85402Y688702D01*
X85541Y688706D01*
X85561Y688712D01*
X85581Y688713D01*
X85713Y688756D01*
X85847Y688795D01*
X85864Y688805D01*
X85883Y688811D01*
X86001Y688885D01*
X86121Y688956D01*
X86142Y688975D01*
X86152Y688981D01*
X86166Y688996D01*
X86242Y689063D01*
X86563Y689384D01*
X90804Y691141D01*
X95396Y691141D01*
X99637Y689384D01*
X102884Y686137D01*
X104641Y681896D01*
X104641Y677304D01*
X102884Y673063D01*
X99637Y669816D01*
X95328Y668031D01*
X95303Y668029D01*
X95284Y668022D01*
X95264Y668019D01*
X95135Y667968D01*
X95004Y667921D01*
X94987Y667910D01*
X94969Y667902D01*
X94856Y667821D01*
X94741Y667743D01*
X94728Y667727D01*
X94711Y667716D01*
X94622Y667608D01*
X94530Y667504D01*
X94521Y667486D01*
X94508Y667471D01*
X94449Y667345D01*
X94386Y667221D01*
X94381Y667201D01*
X94373Y667183D01*
X94347Y667046D01*
X94316Y666911D01*
X94317Y666890D01*
X94313Y666871D01*
X94322Y666732D01*
X94326Y666593D01*
X94332Y666573D01*
X94333Y666553D01*
X94376Y666421D01*
X94414Y666287D01*
X94425Y666270D01*
X94431Y666251D01*
X94505Y666133D01*
X94576Y666013D01*
X94594Y665992D01*
X94601Y665982D01*
X94616Y665968D01*
X94682Y665893D01*
X96267Y664308D01*
X96267Y591628D01*
X96270Y591599D01*
X96268Y591569D01*
X96290Y591441D01*
X96307Y591312D01*
X96317Y591285D01*
X96322Y591256D01*
X96376Y591137D01*
X96424Y591017D01*
X96441Y590993D01*
X96453Y590966D01*
X96534Y590865D01*
X96610Y590759D01*
X96633Y590741D01*
X96652Y590718D01*
X96755Y590639D01*
X96855Y590557D01*
X96882Y590544D01*
X96906Y590526D01*
X97050Y590455D01*
X99637Y589384D01*
X102884Y586137D01*
X104641Y581896D01*
X104641Y577304D01*
X102884Y573063D01*
X102219Y572397D01*
X102134Y572288D01*
X102045Y572181D01*
X102036Y572162D01*
X102024Y572146D01*
X101968Y572018D01*
X101909Y571893D01*
X101905Y571873D01*
X101897Y571854D01*
X101875Y571716D01*
X101849Y571580D01*
X101851Y571560D01*
X101847Y571540D01*
X101860Y571401D01*
X101869Y571263D01*
X101875Y571244D01*
X101877Y571224D01*
X101924Y571093D01*
X101967Y570961D01*
X101978Y570943D01*
X101985Y570924D01*
X102063Y570810D01*
X102137Y570692D01*
X102152Y570678D01*
X102163Y570661D01*
X102267Y570569D01*
X102369Y570474D01*
X102387Y570464D01*
X102402Y570451D01*
X102526Y570388D01*
X102647Y570320D01*
X102667Y570315D01*
X102685Y570306D01*
X102821Y570276D01*
X102955Y570241D01*
X102983Y570239D01*
X102995Y570236D01*
X103016Y570237D01*
X103116Y570231D01*
X307478Y570231D01*
X307576Y570243D01*
X307675Y570246D01*
X307734Y570263D01*
X307794Y570271D01*
X307886Y570307D01*
X307981Y570335D01*
X308033Y570365D01*
X308089Y570388D01*
X308169Y570446D01*
X308255Y570496D01*
X308330Y570562D01*
X308347Y570574D01*
X308355Y570584D01*
X308376Y570602D01*
X327062Y589288D01*
X327122Y589367D01*
X327190Y589439D01*
X327219Y589492D01*
X327256Y589540D01*
X327296Y589631D01*
X327344Y589717D01*
X327359Y589776D01*
X327383Y589831D01*
X327398Y589929D01*
X327423Y590025D01*
X327429Y590125D01*
X327433Y590146D01*
X327431Y590158D01*
X327433Y590186D01*
X327433Y592570D01*
X328396Y594894D01*
X330174Y596672D01*
X332498Y597635D01*
X335014Y597635D01*
X337338Y596672D01*
X339116Y594894D01*
X340079Y592570D01*
X340079Y590054D01*
X339116Y587730D01*
X337338Y585952D01*
X335014Y584989D01*
X332630Y584989D01*
X332532Y584977D01*
X332433Y584974D01*
X332374Y584957D01*
X332314Y584949D01*
X332222Y584913D01*
X332127Y584885D01*
X332075Y584855D01*
X332019Y584832D01*
X331939Y584774D01*
X331853Y584724D01*
X331778Y584658D01*
X331761Y584646D01*
X331753Y584636D01*
X331732Y584618D01*
X310740Y563625D01*
X87024Y563625D01*
G37*
%LPD*%
%LPC*%
G36*
X35804Y668059D02*
X35804Y668059D01*
X31563Y669816D01*
X28316Y673063D01*
X26559Y677304D01*
X26559Y681896D01*
X28316Y686137D01*
X31563Y689384D01*
X35804Y691141D01*
X40396Y691141D01*
X44637Y689384D01*
X47884Y686137D01*
X49641Y681896D01*
X49641Y677304D01*
X47884Y673063D01*
X44637Y669816D01*
X40396Y668059D01*
X35804Y668059D01*
G37*
%LPD*%
%LPC*%
G36*
X352310Y676429D02*
X352310Y676429D01*
X349986Y677392D01*
X348208Y679170D01*
X347245Y681494D01*
X347245Y684010D01*
X348208Y686334D01*
X349986Y688112D01*
X352310Y689075D01*
X354694Y689075D01*
X354792Y689087D01*
X354891Y689090D01*
X354950Y689107D01*
X355010Y689115D01*
X355102Y689151D01*
X355197Y689179D01*
X355249Y689209D01*
X355305Y689232D01*
X355385Y689290D01*
X355471Y689340D01*
X355546Y689406D01*
X355563Y689418D01*
X355571Y689428D01*
X355592Y689446D01*
X360590Y694444D01*
X360650Y694523D01*
X360718Y694595D01*
X360747Y694648D01*
X360784Y694696D01*
X360824Y694787D01*
X360872Y694873D01*
X360887Y694932D01*
X360911Y694987D01*
X360926Y695085D01*
X360951Y695181D01*
X360957Y695281D01*
X360961Y695302D01*
X360959Y695314D01*
X360961Y695342D01*
X360961Y697726D01*
X361924Y700050D01*
X363702Y701828D01*
X366026Y702791D01*
X368542Y702791D01*
X370866Y701828D01*
X372644Y700050D01*
X373607Y697726D01*
X373607Y695210D01*
X372644Y692886D01*
X370866Y691108D01*
X368542Y690145D01*
X366158Y690145D01*
X366060Y690133D01*
X365961Y690130D01*
X365902Y690113D01*
X365842Y690105D01*
X365750Y690069D01*
X365655Y690041D01*
X365603Y690011D01*
X365547Y689988D01*
X365467Y689930D01*
X365381Y689880D01*
X365306Y689814D01*
X365289Y689802D01*
X365281Y689792D01*
X365260Y689774D01*
X360262Y684776D01*
X360202Y684697D01*
X360134Y684625D01*
X360105Y684572D01*
X360068Y684524D01*
X360028Y684433D01*
X359980Y684347D01*
X359965Y684288D01*
X359941Y684233D01*
X359926Y684135D01*
X359901Y684039D01*
X359895Y683939D01*
X359891Y683918D01*
X359893Y683906D01*
X359891Y683878D01*
X359891Y681494D01*
X358928Y679170D01*
X357150Y677392D01*
X354826Y676429D01*
X352310Y676429D01*
G37*
%LPD*%
D10*
X38100Y629600D03*
X38100Y579600D03*
X38100Y679600D03*
X93100Y679600D03*
X93100Y579600D03*
D11*
X70800Y718500D03*
X70800Y764700D03*
D12*
X38100Y629412D02*
X38100Y617220D01*
X88392Y566928D01*
X309372Y566928D01*
X333756Y591312D01*
X38100Y629412D02*
X38100Y629600D01*
D13*
X333756Y591312D03*
D12*
X353568Y682752D02*
X367284Y696468D01*
D13*
X353568Y682752D03*
X367284Y696468D03*
D12*
X92964Y662940D02*
X92964Y580644D01*
X92964Y662940D02*
X80772Y675132D01*
X80772Y708660D01*
X85344Y713232D01*
X85344Y749808D01*
X71628Y763524D01*
X92964Y580644D02*
X93100Y579600D01*
X71628Y763524D02*
X70800Y764700D01*
D13*
X50000Y740000D03*
X120000Y710000D03*
X420000Y680000D03*
X360000Y630000D03*
X280000Y650000D03*
X190000Y660000D03*
X360000Y540000D03*
X480000Y600000D03*
M02*
