M48
;GenerationSoftware,Autodesk,EAGLE,9.1.0*%
;CreationDate,2019-05-06T00:22:17Z*%
FMAT,2
ICI,OFF
METRIC,TZ,000.000
T4C0.350
T3C1.016
T2C1.200
T1C3.000
%
G90
M71
T1
X2270Y76470
X3270Y54070
X49530Y54070
X49530Y68850
T2
X3810Y62960
X3810Y57960
X3810Y67960
X9310Y67960
X9310Y57960
T3
X7080Y71850
X7080Y76470
T4
X33376Y59131
X35357Y68275
X36728Y69647
X5000Y74000
X12000Y71000
X42000Y68000
X36000Y63000
X28000Y65000
X19000Y66000
X36000Y54000
X48000Y60000
M30