G04 EAGLE Gerber RS-274X export*
G75*
%MOMM*%
%FSLAX34Y34*%
%LPD*%
%AMOC8*
5,1,8,0,0,1.08239X$1,22.5*%
G01*
%ADD10C,0.254000*%


D10*
X0Y508000D02*
X517400Y508000D01*
X517400Y800000D01*
X0Y800000D01*
X0Y508000D01*
X37700Y764164D02*
X37624Y763096D01*
X37471Y762035D01*
X37243Y760988D01*
X36941Y759960D01*
X36567Y758956D01*
X36122Y757981D01*
X35608Y757041D01*
X35029Y756140D01*
X34387Y755282D01*
X33685Y754472D01*
X32928Y753715D01*
X32118Y753013D01*
X31260Y752371D01*
X30359Y751792D01*
X29419Y751278D01*
X28444Y750833D01*
X27440Y750459D01*
X26412Y750157D01*
X25365Y749929D01*
X24304Y749776D01*
X23236Y749700D01*
X22164Y749700D01*
X21096Y749776D01*
X20035Y749929D01*
X18988Y750157D01*
X17960Y750459D01*
X16956Y750833D01*
X15981Y751278D01*
X15041Y751792D01*
X14140Y752371D01*
X13282Y753013D01*
X12472Y753715D01*
X11715Y754472D01*
X11013Y755282D01*
X10371Y756140D01*
X9792Y757041D01*
X9278Y757981D01*
X8833Y758956D01*
X8459Y759960D01*
X8157Y760988D01*
X7929Y762035D01*
X7776Y763096D01*
X7700Y764164D01*
X7700Y765236D01*
X7776Y766304D01*
X7929Y767365D01*
X8157Y768412D01*
X8459Y769440D01*
X8833Y770444D01*
X9278Y771419D01*
X9792Y772359D01*
X10371Y773260D01*
X11013Y774118D01*
X11715Y774928D01*
X12472Y775685D01*
X13282Y776387D01*
X14140Y777029D01*
X15041Y777608D01*
X15981Y778122D01*
X16956Y778567D01*
X17960Y778941D01*
X18988Y779243D01*
X20035Y779471D01*
X21096Y779624D01*
X22164Y779700D01*
X23236Y779700D01*
X24304Y779624D01*
X25365Y779471D01*
X26412Y779243D01*
X27440Y778941D01*
X28444Y778567D01*
X29419Y778122D01*
X30359Y777608D01*
X31260Y777029D01*
X32118Y776387D01*
X32928Y775685D01*
X33685Y774928D01*
X34387Y774118D01*
X35029Y773260D01*
X35608Y772359D01*
X36122Y771419D01*
X36567Y770444D01*
X36941Y769440D01*
X37243Y768412D01*
X37471Y767365D01*
X37624Y766304D01*
X37700Y765236D01*
X37700Y764164D01*
X47700Y540164D02*
X47624Y539096D01*
X47471Y538035D01*
X47243Y536988D01*
X46941Y535960D01*
X46567Y534956D01*
X46122Y533981D01*
X45608Y533041D01*
X45029Y532140D01*
X44387Y531282D01*
X43685Y530472D01*
X42928Y529715D01*
X42118Y529013D01*
X41260Y528371D01*
X40359Y527792D01*
X39419Y527278D01*
X38444Y526833D01*
X37440Y526459D01*
X36412Y526157D01*
X35365Y525929D01*
X34304Y525776D01*
X33236Y525700D01*
X32164Y525700D01*
X31096Y525776D01*
X30035Y525929D01*
X28988Y526157D01*
X27960Y526459D01*
X26956Y526833D01*
X25981Y527278D01*
X25041Y527792D01*
X24140Y528371D01*
X23282Y529013D01*
X22472Y529715D01*
X21715Y530472D01*
X21013Y531282D01*
X20371Y532140D01*
X19792Y533041D01*
X19278Y533981D01*
X18833Y534956D01*
X18459Y535960D01*
X18157Y536988D01*
X17929Y538035D01*
X17776Y539096D01*
X17700Y540164D01*
X17700Y541236D01*
X17776Y542304D01*
X17929Y543365D01*
X18157Y544412D01*
X18459Y545440D01*
X18833Y546444D01*
X19278Y547419D01*
X19792Y548359D01*
X20371Y549260D01*
X21013Y550118D01*
X21715Y550928D01*
X22472Y551685D01*
X23282Y552387D01*
X24140Y553029D01*
X25041Y553608D01*
X25981Y554122D01*
X26956Y554567D01*
X27960Y554941D01*
X28988Y555243D01*
X30035Y555471D01*
X31096Y555624D01*
X32164Y555700D01*
X33236Y555700D01*
X34304Y555624D01*
X35365Y555471D01*
X36412Y555243D01*
X37440Y554941D01*
X38444Y554567D01*
X39419Y554122D01*
X40359Y553608D01*
X41260Y553029D01*
X42118Y552387D01*
X42928Y551685D01*
X43685Y550928D01*
X44387Y550118D01*
X45029Y549260D01*
X45608Y548359D01*
X46122Y547419D01*
X46567Y546444D01*
X46941Y545440D01*
X47243Y544412D01*
X47471Y543365D01*
X47624Y542304D01*
X47700Y541236D01*
X47700Y540164D01*
X510300Y540164D02*
X510224Y539096D01*
X510071Y538035D01*
X509843Y536988D01*
X509541Y535960D01*
X509167Y534956D01*
X508722Y533981D01*
X508208Y533041D01*
X507629Y532140D01*
X506987Y531282D01*
X506285Y530472D01*
X505528Y529715D01*
X504718Y529013D01*
X503860Y528371D01*
X502959Y527792D01*
X502019Y527278D01*
X501044Y526833D01*
X500040Y526459D01*
X499012Y526157D01*
X497965Y525929D01*
X496904Y525776D01*
X495836Y525700D01*
X494764Y525700D01*
X493696Y525776D01*
X492635Y525929D01*
X491588Y526157D01*
X490560Y526459D01*
X489556Y526833D01*
X488581Y527278D01*
X487641Y527792D01*
X486740Y528371D01*
X485882Y529013D01*
X485072Y529715D01*
X484315Y530472D01*
X483613Y531282D01*
X482971Y532140D01*
X482392Y533041D01*
X481878Y533981D01*
X481433Y534956D01*
X481059Y535960D01*
X480757Y536988D01*
X480529Y538035D01*
X480376Y539096D01*
X480300Y540164D01*
X480300Y541236D01*
X480376Y542304D01*
X480529Y543365D01*
X480757Y544412D01*
X481059Y545440D01*
X481433Y546444D01*
X481878Y547419D01*
X482392Y548359D01*
X482971Y549260D01*
X483613Y550118D01*
X484315Y550928D01*
X485072Y551685D01*
X485882Y552387D01*
X486740Y553029D01*
X487641Y553608D01*
X488581Y554122D01*
X489556Y554567D01*
X490560Y554941D01*
X491588Y555243D01*
X492635Y555471D01*
X493696Y555624D01*
X494764Y555700D01*
X495836Y555700D01*
X496904Y555624D01*
X497965Y555471D01*
X499012Y555243D01*
X500040Y554941D01*
X501044Y554567D01*
X502019Y554122D01*
X502959Y553608D01*
X503860Y553029D01*
X504718Y552387D01*
X505528Y551685D01*
X506285Y550928D01*
X506987Y550118D01*
X507629Y549260D01*
X508208Y548359D01*
X508722Y547419D01*
X509167Y546444D01*
X509541Y545440D01*
X509843Y544412D01*
X510071Y543365D01*
X510224Y542304D01*
X510300Y541236D01*
X510300Y540164D01*
X510300Y687964D02*
X510224Y686896D01*
X510071Y685835D01*
X509843Y684788D01*
X509541Y683760D01*
X509167Y682756D01*
X508722Y681781D01*
X508208Y680841D01*
X507629Y679940D01*
X506987Y679082D01*
X506285Y678272D01*
X505528Y677515D01*
X504718Y676813D01*
X503860Y676171D01*
X502959Y675592D01*
X502019Y675078D01*
X501044Y674633D01*
X500040Y674259D01*
X499012Y673957D01*
X497965Y673729D01*
X496904Y673576D01*
X495836Y673500D01*
X494764Y673500D01*
X493696Y673576D01*
X492635Y673729D01*
X491588Y673957D01*
X490560Y674259D01*
X489556Y674633D01*
X488581Y675078D01*
X487641Y675592D01*
X486740Y676171D01*
X485882Y676813D01*
X485072Y677515D01*
X484315Y678272D01*
X483613Y679082D01*
X482971Y679940D01*
X482392Y680841D01*
X481878Y681781D01*
X481433Y682756D01*
X481059Y683760D01*
X480757Y684788D01*
X480529Y685835D01*
X480376Y686896D01*
X480300Y687964D01*
X480300Y689036D01*
X480376Y690104D01*
X480529Y691165D01*
X480757Y692212D01*
X481059Y693240D01*
X481433Y694244D01*
X481878Y695219D01*
X482392Y696159D01*
X482971Y697060D01*
X483613Y697918D01*
X484315Y698728D01*
X485072Y699485D01*
X485882Y700187D01*
X486740Y700829D01*
X487641Y701408D01*
X488581Y701922D01*
X489556Y702367D01*
X490560Y702741D01*
X491588Y703043D01*
X492635Y703271D01*
X493696Y703424D01*
X494764Y703500D01*
X495836Y703500D01*
X496904Y703424D01*
X497965Y703271D01*
X499012Y703043D01*
X500040Y702741D01*
X501044Y702367D01*
X502019Y701922D01*
X502959Y701408D01*
X503860Y700829D01*
X504718Y700187D01*
X505528Y699485D01*
X506285Y698728D01*
X506987Y697918D01*
X507629Y697060D01*
X508208Y696159D01*
X508722Y695219D01*
X509167Y694244D01*
X509541Y693240D01*
X509843Y692212D01*
X510071Y691165D01*
X510224Y690104D01*
X510300Y689036D01*
X510300Y687964D01*
M02*
