G04 EAGLE Gerber RS-274X export*
G75*
%MOMM*%
%FSLAX34Y34*%
%LPD*%
%AMOC8*
5,1,8,0,0,1.08239X$1,22.5*%
G01*
%ADD10C,3.203200*%
%ADD11R,1.703200X1.503200*%
%ADD12R,1.103200X0.903200*%
%ADD13C,2.068694*%
%ADD14R,1.203200X1.603200*%
%ADD15R,2.403200X0.803200*%
%ADD16R,1.203200X4.803200*%
%ADD17R,1.803200X3.603200*%
%ADD18R,1.003200X1.103200*%
%ADD19R,1.203200X1.303200*%
%ADD20R,1.303200X1.203200*%
%ADD21C,2.003200*%
%ADD22P,2.556822X8X22.500000*%
%ADD23C,0.959600*%


D10*
X22700Y764700D03*
X32700Y540700D03*
X495300Y540700D03*
X495300Y688500D03*
D11*
X406400Y577400D03*
X406400Y596400D03*
D12*
X437200Y555000D03*
X437200Y568000D03*
D13*
X242127Y566573D02*
X242127Y538227D01*
X242127Y566573D02*
X260473Y566573D01*
X260473Y538227D01*
X242127Y538227D01*
X242127Y557880D02*
X260473Y557880D01*
X242127Y627227D02*
X242127Y655573D01*
X260473Y655573D01*
X260473Y627227D01*
X242127Y627227D01*
X242127Y646880D02*
X260473Y646880D01*
D14*
X167800Y579800D03*
X177300Y557800D03*
X158300Y557800D03*
D15*
X316900Y590550D03*
X368900Y590550D03*
X316900Y603250D03*
X316900Y577850D03*
X316900Y565150D03*
X368900Y603250D03*
X368900Y577850D03*
X368900Y565150D03*
D16*
X447200Y725000D03*
X467200Y725000D03*
D17*
X423200Y777000D03*
X491200Y777000D03*
D16*
X345600Y725000D03*
X365600Y725000D03*
D17*
X321600Y777000D03*
X389600Y777000D03*
D16*
X244000Y725000D03*
X264000Y725000D03*
D17*
X220000Y777000D03*
X288000Y777000D03*
D18*
X371500Y650400D03*
X390500Y650400D03*
X381000Y671400D03*
D19*
X177800Y613800D03*
X177800Y630800D03*
D20*
X326000Y635000D03*
X309000Y635000D03*
X262500Y685800D03*
X245500Y685800D03*
X440300Y640400D03*
X423300Y640400D03*
D19*
X342900Y681600D03*
X342900Y664600D03*
D21*
X38100Y629600D03*
X38100Y579600D03*
X38100Y679600D03*
X93100Y679600D03*
X93100Y579600D03*
D22*
X70800Y718500D03*
X70800Y764700D03*
D16*
X142400Y725000D03*
X162400Y725000D03*
D17*
X118400Y777000D03*
X186400Y777000D03*
D23*
X333756Y591312D03*
X353568Y682752D03*
X367284Y696468D03*
X50000Y740000D03*
X120000Y710000D03*
X420000Y680000D03*
X360000Y630000D03*
X280000Y650000D03*
X190000Y660000D03*
X360000Y540000D03*
X480000Y600000D03*
M02*
